<?xml version="1.0" encoding="utf-8"?>
<!-- Generator: Adobe Illustrator 23.0.1, SVG Export Plug-In . SVG Version: 6.00 Build 0)  -->
<svg version="1.1" id="Layer_1" xmlns="http://www.w3.org/2000/svg" xmlns:xlink="http://www.w3.org/1999/xlink" x="0px" y="0px"
	 viewBox="0 0 324.6 96.6" style="enable-background:new 0 0 324.6 96.6;" xml:space="preserve">
<style type="text/css">
	.st0{fill:#00254C;}
</style>
<g>
	<g>
		<path class="st0" d="M19.5,42c2.9-7.3,10.1-21.4,10.1-28.6c0-1.2,2-1.5,4.8-1.5c1.7,0,3.9,0.1,6,0.1c3.1,0,5.8-0.3,7.1-1.3
			c-1.2-0.3-0.3-0.9-1-1h-1.6c-0.4,0-1,0-1.3-0.1c0.3-0.3,1-0.3,1.6-0.3c0.6,0,1.2,0,1.5-0.3c0.4,0-1.9-0.4-2.8-0.4
			c0-0.4,3.8,0.1,3.8-0.9c-0.4,0,2.8-0.4,2.6-0.4c-0.4-0.1-0.6-1.5-1-1.6c1.5,0,0.7-0.4,2.5-0.4c0.7,0,1-0.4,1.5-0.4
			c-7.4-1.9-14.6-2.3-22.2-2.3c-3.8,0-7.6,0.1-11.7,0.1c-6.6,0-10.2,12.5-14,21.9C3.1,30.3,0,37,0,41.7v1c0.3,2.3,2.2,4.1,3.1,4.2
			c6.3,1.6,11.7,2.8,17.9,6c3.6,1.9,5.2,4.7,5.2,7.3c0,3.2-2.3,6.3-7,8.2C14.3,70.3,8.5,71,4.1,71c0,0.4,0.1,0.6,0.1,0.9
			c1,0,4.7,3.6,6.6,3.6c0,0.1-0.1,0.3-0.1,0.4c0,0.3,1,0,1,0.6c0,0.1,0.9,0.4,1,0.6H12c0,0.1,2.2,0.4,2.8,0.7
			C14.4,78,14.3,78,13.9,78c0,0.6,0.4,0.6,0.9,0.6c0.4,0,0.9,0,1,0.4c-0.7,0.6-0.9,0.7-0.9,0.7c0,0.1,1-0.6,1.9-0.6
			c0.4,0,0.7,0.1,1,0.6c-0.4,0.1,2.9,1,3.4,1c9.2,0,22-6,22-15.9C43.2,50.6,25.2,43.2,19.5,42z M98.6,70.6c-3.1-0.9-5.8-1.3-8.5-1.3
			c-7.6,0-14,2.8-21.9,2.8c-0.4,0-1.9,0-2-0.1c2.9-6.4,32.7-26.8,32.7-50.7c0-1.6-0.1-3.2-0.4-4.8C96.8,6.7,88.7,0,79.2,0
			c-11.8,0-25.1,6.7-26,16.9c0,1.3,0.4,1.7,1.2,1.7c1.6,0,4.2-1.9,6-3.2c5.1-4.2,12.4-6.6,17.6-6.6c2.6,0,4.7,0.6,5.7,1.9
			c1.3,1.6,1.9,3.2,1.9,5.1c0,15.3-39.2,40.2-39.2,56.3c0,7,5,10.1,8.7,10.1h0.7c7.3,0,20.9,0,26.1-3.9c0.4-0.7,0.9-1.2,1.3-1.2
			c0.3,0,0.9,0.3,1.3,0.3c0.1,0,0.6,0,0.6-0.1c0,0-0.1-0.1-0.4-0.1c2.3,0,2.3,0.1,3.5,0.1c0.9,0,1.2-0.4,1.5-0.4
			c2.6,0,5.5-1.3,8.2-1.9c-0.3,0-0.4-0.1-1.3-0.1c-0.7,0-2.2-0.6-2.5-0.6h-2c-0.4,0-1,0-1.2,0.7c0-0.3-0.1-0.3-0.3-0.3
			c-0.1,0-0.1-0.3-0.1-0.4c0.9-1.2,3.6-1.7,5.1-1.7c0.3,0,0.9,0.1,1.2,0.1c1.5,0,2.9-0.6,2.9-1.2C99.6,71.2,99.3,70.9,98.6,70.6z
			 M205.7,31.7c0,0,0.1,0.1,0.1,0.5c0.1,0.1,0.1,0.3,0.1,0.5c0,0.2,0,0.3,0.2,0.3c0.2-1.2,0.9-2.8,0.9-3.2c-0.2,0.3-0.3,0.6-0.5,0.6
			c-0.2,0-0.2-0.3-0.2-0.8c0-2.8,0.8-4.6,0.9-4.6c0,1.4-0.3,2.8-0.3,4.1c0.2-1.6,2.3-4.6,2.3-7c0-0.9,0.1-1.5,0.1-2.3
			c0-0.1,0.7-1.6,0.7-2c-0.1,0-0.5,0.1-0.5,0.1c0-0.7,0.9-2.7,1.4-4c-0.3,0.1-0.6,0.5-0.7,0.5c-0.1,0,0.9-1.5,1-1.6V12
			c0.2-0.9,2-5,2.5-5.7c0-0.6-0.6-0.8-0.9-0.8c-0.9,0-1.6,0.1-2.3,0.1c-2.6,0-5.9,5.2-5.9,6.8c-5.3,7-12,59.1-19.5,59.1
			c-1.1,0-1.2-6-1.2-8.8c0-11.6,0.5-22,0.8-32.3c-0.5-8,0.9-18.9-4.6-24.9c-0.5-1.8-3.4-2.6-6.2-2.6c-4.5,0-11.7,1-13.4,4.5
			c-9.2,15.4-11.1,28.5-17,45.2c-1.9,5.3-4.4,15.4-5.9,16.4c-1.6-6.2-1.8-12.5-1.8-18.7v-7.5c0-10.1,1-25.6,2.3-28.7
			c0.3-1.4,1.2-2.9,1.2-4.3c0-6.1-8.2-7.3-11.4-7.3c-5,0-9.1,2.7-10,7.9c-1.7,9.1-2.9,20.2-2.9,31.4c0,16.8,2.9,39.2,11.4,39.2
			c15,0,17.6-4.5,20.4-13.6c3.9-8.5,15.3-50.4,18.7-55.1c0.1,0.6,0.1,1.1,0.1,1.7c0,1.1-0.1,2.5-0.1,3.7c0,10.1-1,23-1,35.9
			c0,13.8,2,26.5,13.8,26.5c1.1,0,6.7-0.5,9.5-2.6c12.9-9.7,15.5-27.4,18.5-38.4c0,0-0.1-1-0.2-1c0,2.4-3.1,8.2-3.1,10.7
			c0,0.6-0.5,0.8-0.5,1c0,0.3,0.1,0.8,0.1,0.8c-1.1,0-1,2.9-1.8,2.9c0-1.4,2.3-6.9,2.6-8.2c0.3-1,2.4-8,2.7-10
			c-0.1-0.2-0.1-1.5-0.1-1.7c-0.5,1.6-1.1,6-1.6,6c-0.1,0.1-0.9,3.6-1,4.2c-0.1-0.2-0.2-0.3-0.2-0.6c0.2-1.6,1.4-4.9,1.7-6
			c0-0.5,0.1-0.5,0.1-0.7c-0.1-0.1-0.1-0.3-0.1-0.6C204.9,35.9,205.4,31.7,205.7,31.7z M265.6,74.6c0-0.1,0.1-0.2,0.1-0.5
			C265.6,74.3,265.6,74.5,265.6,74.6z M278.1,37c-0.5,0-4.4,1.2-5.9,2.9c-4.1,5.1-12,23.1-16.1,23c-1.2,0-1.7-1.2-1.7-2.9
			c0-9.9,5.8-16.4,5.8-20.5c0-1.4-0.7-2.4-2-2.4c-1.6,0-3.6,0.7-4.3,1.6c-1.8,2.4-4,7.2-5.2,12.3c-5.3,7.1-12.5,15.1-14,15
			c-1.1-0.1-1.4-12.5-1.4-20.3v-5.1c0-0.3,0.1-0.6,0.1-0.8v-0.8c0-0.8,0.1-0.9,0.2-1.6c0-0.6-0.5-0.5-0.5-1.1c0.6,0,0.9-0.2,1.1-0.5
			c0,0,0.1-0.2,0.1-0.5c0-0.2-0.1-0.5-0.7-0.8c-1.6-0.9-4-1.7-6.1-1.7c-1,0-1.9,0.2-2.7,0.6c-4.3,2-7.1,5.8-9.4,9.2
			c-3.1,4.9-5.9,11.3-6.3,18.4c0,1.9,0.6,3.7,2.3,4.9c0.9,0.7,1.9,0.9,2.9,0.9c0.7,0,1.2-0.1,1.8-0.3c0.8-0.5,0.9-1.1,1.7-1.9
			c1.6,0.2,7.4-10.4,9.1-16.1c0-0.1,0.2-0.9,0.5-1.1c-0.1,1.7-0.2,3.7-0.2,5.9c0,4.4,0.3,9.1,1.4,11.6c0.9,2.4,3.3,4.9,5.8,4.9
			c0.5,0,0.8-0.1,1.2-0.2c0.1,0,0.2,0.1,0.6,0.1c0.3,0,0.8-0.1,1.8-0.3c1.7-0.8,2.4-0.7,3.5-2c0.5-0.7,0.9-0.8,1.4-1
			c0.5-0.2,4-4.5,4-4.5c0.2-0.3,0.7-0.8,0.8-1.1c0,0,0.1,0,0.2-0.1c0.5,4.3,2.6,7.4,7.7,7.4c3.8,0,7.8-4,10.8-7.5
			c-0.5,3.9-1.7,8.1-2.1,12c-0.3,0.5-0.5,1.1-0.5,1.9v0.9c0,2-1.1,4.3-1.1,6.7c0,0.3,0.1,0.8,0.1,1.2c-0.2,0.1-0.3,0.5-0.3,0.7
			c0,0.5,0.1,0.9,0.1,1.4c-0.2,0.8-0.3,1.4-0.3,1.9c0,0.9-0.1,1.6-0.1,2.3c0,7.5,1.8,7.6,2.7,7.6c3.7,0,3.5-1.5,4.1-1.5
			c0.2,0,0.5-1.4,0.9-1.4c0.2,0,0.2,0.1,0.3,0.1c0.3,0,0.5-1,1.1-1c0.1,0,0.1,0.1,0.2,0.3c0.1-0.1,0.1-0.2,0.3-0.2
			c0,0,0.2,0.1,0.5,0.1c-0.1-0.1-0.1-0.5-0.1-0.8c0-0.6,0.5-0.6,1.2-0.6c0.5-0.2,0.9-2.2,1.4-2.2c0.1,0,0.2,0.1,0.3,0.6
			c0.5-0.1,0.3-0.5,0.7-0.5c0.1,0,0.3,0.2,0.3,0.1c0-22.6,6-30,6-45.2c0-1.2-0.1-2.3-0.2-3.1C281.4,38.9,279.8,37,278.1,37z
			 M223.6,50.7c-0.2,0.2-0.2,0.8-0.7,0.9c-0.2,0-0.3,0.1-0.5,0.1c-0.1,0-0.2,0.1-0.2,0.2c0-0.7,0.7-1,1-1.4c0.5-0.3,0.7-0.6,0.8-0.6
			C224.2,50,224.1,50.3,223.6,50.7z M223.1,50.4c0.2-0.5,0.5-1.1,0.5-0.9c0.1-0.6,0.8-0.3,0.8-0.6C224.3,49.6,223.4,50.3,223.1,50.4
			z M224.3,50.7c0,0,0.1,0.2,0.1,0.3c-0.2,0-0.5,0.3-0.5,0.3C224,51.2,224.3,50.8,224.3,50.7z M224.9,50.9c-0.1,0.3-0.6,0.6-0.8,0.7
			L224.9,50.9z M224.6,51.8c-0.1,0,0.5-0.7,0.8-0.7C225.3,51.3,224.9,51.8,224.6,51.8z M225.6,46.2c0,0.2-0.2,0.6-0.5,0.9
			c-0.2,0.3-0.2,0.5-0.3,0.5c-0.1,0-0.5,0.3-0.5,0.2c0-0.3,0.6-1.5,0.7-1.6c0.2,0,0.7-0.6,0.8-0.7L225.6,46.2z M226.8,43.9l0.3-0.5
			c0.1,0.1,0.3-0.2,0.3-0.2C227.3,43.6,226.9,44,226.8,43.9z M227.7,40.2c-4.4,8-7.6,14.3-11.9,22.1c0,0-0.2,0.1-0.3,0.1
			c1.1-4.1,3.6-10,5.9-14.3c2.4-4.5,5.9-9.7,8.4-11C229.4,37.4,227.8,39.2,227.7,40.2z M247.2,60l-0.3,0.6
			C246.9,60.1,247,60,247.2,60c-0.2-0.1-0.2-0.2-0.2-0.3c0.2-0.5,0.5-0.8,0.7-1.1c0,0.2,0,0.4,0,0.6C247.6,59.5,247.4,59.8,247.2,60
			z M246.8,58.7c0-0.1,0.2-0.5,0.3-0.6C247.1,58.6,247,58.7,246.8,58.7z M247.2,57.7c0.1-0.2,0.3-0.4,0.5-0.6c0,0.2,0,0.5,0,0.7
			c-0.1,0.2-0.2,0.3-0.2,0.3C247.5,58,247.5,57.9,247.2,57.7z M247.7,56.3c0,0.1-0.1,0.2-0.2,0.4c-0.3,0.3-0.7,1.2-1.1,1.2
			c0,0,0.7-2.3,1.2-2.3c0,0.1,0.1-0.2,0.2-0.3C247.8,55.7,247.8,56,247.7,56.3z M247.9,54.5C247.9,54.5,247.9,54.5,247.9,54.5
			c-0.1,0,0-0.2,0-0.4C248,54.3,247.9,54.4,247.9,54.5z M268.2,53.7c0,0.2-0.1,0.2-0.1,0.6l-0.5,0.1C267.6,54,268.1,53.7,268.2,53.7
			z M267.2,52.8c0-0.1,0-0.2,0.1-0.2c0,0.1-0.1,0.4-0.1,0.8C267.2,53.2,267.2,53,267.2,52.8z M267.3,57.6c0,0.9-0.3,1.8-0.3,2.7
			c-0.1-0.1-0.2-0.3-0.2-0.6c0-0.2,0.1-0.5,0.2-0.5c-0.1-0.1-0.1-0.3-0.1-0.5C266.8,58.4,267.2,58,267.3,57.6z M266.4,60
			c0.1-0.1,0.2-0.2,0.3-0.3C266.3,62.3,266.3,61.7,266.4,60z M266.7,61.3c-0.1,0.6-0.1,1.2-0.5,1.8
			C266.3,62.2,266.5,61.7,266.7,61.3z M263.9,76.6c0-0.8,0.1-1.7,0.3-2.2v-0.6c0-0.9,0.2-1.5,0.6-1.5c0,0,0.3,0.6,0.3,0.8
			c-1.1,0-0.6,3.9-1.2,3.9V76.6z M264.2,77.3c0,1-0.5,1.6-0.7,2.2c0,0.9,0,1.8-0.3,2.5c0,0-0.1-0.5-0.1-1.1
			C263.1,79.4,263.3,77.4,264.2,77.3z M264.5,78.4v0.5c0,0.2,0,0.5-0.2,0.5c0-0.1-0.1-0.2-0.1-0.3C264.1,78.7,264.2,78.5,264.5,78.4
			z M263.6,83.3c0-1,0.3-1.7,0.5-2.4c0,0.3-0.1,0.6-0.1,0.8c0.1,0.1,0.2,0.2,0.2,0.3c0,0.2-0.2,0.3-0.2,0.6c0,0-0.1,1.2-0.1,1.8
			c-0.1,0.2-0.1,0.3-0.1,0.5c-0.1,0-0.1-0.1-0.1-0.3c0-0.3,0.1-0.8,0.1-0.9S263.7,83.4,263.6,83.3z M263.8,80.7
			c0-0.5,0.1-0.5,0.3-0.5C264.1,80.2,264.1,80.7,263.8,80.7z M263.2,82c0,0.2,0.1,0.7,0.1,0.7c-0.3,0-0.5-0.5-0.5-0.3
			C262.9,82.1,263.1,82.1,263.2,82z M262.6,88c0-0.1-0.2-0.5-0.2-0.6c0,0,0.3-0.2,0.5-0.2L262.6,88z M262.9,87
			c-0.1-0.5-0.2-0.8-0.2-1.1c0-0.2,0-0.3,0.1-0.6v-0.5c0-0.7,0.1-1.2,0.1-1.8l0.5-0.1c-0.2,1.2-0.5,2.6-0.5,3.6V87z M263.2,89v-1.6
			c0-0.3,0-0.7,0.1-1c0.2,0.3,0.2,0.6,0.2,0.9v0.8c0.1,0,0.1-0.3,0.6-0.5c-0.1,0.2-0.1,0.3-0.1,0.6v0.7c0,0.2,0,0.3-0.2,0.5
			C263.8,89.3,263.4,89.4,263.2,89z M263.7,92c0.2-0.1,0.1-0.5,0.5-0.8c0,0.3,0.1,0.6,0.1,1.1C263.9,92.3,263.9,92,263.7,92z
			 M264.3,82.8c-0.1,0-0.2,0.6-0.2,0.6c0-0.3,0.3-1.5,0.3-1.6c0-0.1,0.1,0.2,0.1,0.5C264.6,82.5,264.5,82.7,264.3,82.8z M265.6,90.5
			c-0.1-0.1-0.1-0.2-0.1-0.3c0-0.2,0.1-0.5,0.1-0.6l0.3-0.1C265.9,89.7,265.9,90.2,265.6,90.5z M265.7,84.3l-0.2-0.6l0.3-0.1
			c0,0.2,0.1,0.3,0.1,0.5C265.9,84.2,265.8,84.3,265.7,84.3z M265.7,83.4c-0.2,0-0.3,0.1-0.3,0.1c0,0.7-0.3,1.1-0.6,1.6
			c0-0.2-0.1-0.5-0.1-0.7c0-0.7,0.2-1.4,0.5-1.9c-0.1-0.6-0.2-1.1-0.2-1.5c0-0.5,0.1-1.1,0.3-1.1c0.2,0,0.9,0.9,0.9,1.1
			C266.2,81.8,265.8,82.7,265.7,83.4z M266,74.3v0.5c0,0.6-0.1,1.1-0.5,1.4c-0.1-0.1-0.1-0.2-0.1-0.3c0-0.5,0-0.8,0.1-1.1
			c-0.1,0.2-0.3,0.5-0.6,0.6c0.1,0.2,0.2,0.6,0.2,0.6c-0.5,0.3-0.3,1.6-0.7,1.8V77c0-0.8,0.1-1.6,0.3-2.3c0.6,0,0.5-0.8,0.6-1.1
			c0.1,0.1,0.2,0.3,0.2,0.6l0.3-1.1c0-0.1,0.1,0.5,0.2,0.7C266.3,73.7,266.3,74.1,266,74.3z M266.2,72.7c0-0.6,0.1-0.8,0.1-1.1
			l0.3-0.2C266.6,71.8,266.3,72.3,266.2,72.7z M266.5,75.3v-1.2c0.1,0.1,0.2,0.2,0.2,0.5C266.7,74.8,266.5,75,266.5,75.3z
			 M267.2,64.8c-0.2,0.5-0.2,1.1-0.6,1.4c0,0,0.1,0.2,0.1,0.3c0-0.1-0.3,1.2-0.6,1.2c0,0-0.1-0.1-0.1-0.3c-0.6,0.3-0.3,1.5-0.6,1.8
			v0.5c0.2-0.9,0.5-1.2,0.6-1.2c0.1,0,0.1,0.2,0.1,0.6c0,0.7-0.1,1.8-0.1,2.4c0,0.2-0.5,0.3-0.7,0.5c-0.1,0-0.2-0.1-0.2-0.2
			c0-0.1,0.1-0.2,0.1-0.3c0-0.1-0.6,0.6-0.6,0.7c-0.1-0.2-0.1-0.5-0.1-0.7c0-1.4,0.7-4.9,1.1-5.6c0-0.9,0.3-1.5,0.6-2v0.5
			c-0.1,1.1-0.2,2.9-0.2,2.9c0.1,0,0.2-0.2,0.2-0.3c0-0.2,0-0.3-0.1-0.6c0.1-0.6,0.3-1.2,0.6-1.8c-0.1-0.2-0.1-0.3-0.1-0.6
			c0,0,0.2-1.7,0.8-1.8c0,1-0.2,1.7-0.3,2.4C267.1,64.3,267.2,64.7,267.2,64.8z M267.7,60.7c-0.3,0-0.1,0.3-0.3,0.3
			c-0.1,0-0.1-0.5-0.2-0.6c0.9-0.6,0-2.7,1.4-3.4C268.1,58.4,267.9,59.6,267.7,60.7z M268.8,51.3c0-0.6,0.2-2.3,0.8-2.2
			C269.6,50,269.2,50.7,268.8,51.3z M265.5,82.7c0.1,0,0.2-0.1,0.3-0.2c-0.1-0.6-0.2-0.9-0.2-1.4c-0.2,0.2-0.3,0.8-0.3,1.1
			C265.3,82.5,265.4,82.7,265.5,82.7z M306.7,29.9c-6,0-14.1,4.2-14.1,12.8c0,6.1,3.6,14.2,3.6,18.6c0,2.5-1.2,3.5-3.3,3.5
			c-1.5,0-3.1-0.5-4.4-1.1c-0.1,0.1-0.3,0.1-0.5,0.1c-0.5,0-0.8-0.3-1.1-0.3c-0.1,0-0.2,0.1-0.3,0.3c1,5.4,5.9,9.1,10.9,9.1
			c4.4,0,10.2-2.9,10.2-11.1c0-5-3.5-14.5-3.5-21.2c0-4.3,1.6-7.5,7.1-7.5c0.2,0.2,0.7,0.3,1,0.3c0.6,0,1.1-0.2,1.1-0.7
			C313.5,30.6,309.1,29.9,306.7,29.9z M312.7,17.5h2v6.2h0.7v-6.2h2v-0.7h-4.7V17.5z M323.8,16.8l-2.2,4.8l-2.2-4.8h-0.7v6.8h0.7
			v-5.2l1.9,4.1h0.6l1.9-4.1v5.2h0.7v-6.8H323.8z"/>
	</g>
</g>
</svg>
