<?xml version="1.0" encoding="utf-8"?>
<!-- Generator: Adobe Illustrator 23.0.1, SVG Export Plug-In . SVG Version: 6.00 Build 0)  -->
<svg version="1.1" id="Layer_1" xmlns="http://www.w3.org/2000/svg" xmlns:xlink="http://www.w3.org/1999/xlink" x="0px" y="0px"
	 viewBox="0 0 293.7 59.8" style="enable-background:new 0 0 293.7 59.8;" xml:space="preserve">
<style type="text/css">
	.st0{fill:#00254C;}
</style>
<g>
	<path class="st0" d="M35.8,33.5c-0.1,0-0.2,0.1-0.2,0.1s0.1,0.2,0.1,0.3c0,0.1-0.1,0.1-0.2,0.2c-0.1,0-0.4,0.1-0.4,0.4
		c-0.2,0-0.2,0.1-0.2,0.4c0,0.2-0.5,0.6-0.5,0.6c-0.2,0-0.5,0.1-0.7,0.1h-0.4c0,0.1,0.6,0.4,0.5,0.5c-0.5,0.1-0.9,0.1-1.4,0.3
		c0.3,3.9,0.7,8.3,1.1,12.3c0.1,0.3,0.1,0.6,0.1,0.9c0,1.6-0.4,3.5-0.4,4.4c0-0.1-0.1-0.1-0.1-0.3c0-0.1-0.1-0.2-0.2-0.4
		c-0.1-0.1-0.1-0.2-0.1-0.3s0-0.1-0.1-0.2l-0.2,0.4v0.7c-0.4-0.1-0.4-1-0.5-1.5c-0.1,0.1-0.1,0.4-0.1,0.8c0,0.2-0.1,0.7-0.1,0.8
		c0,0.1,0.1,0.1,0.1,0.2c-0.1,0.1-0.1,0.9-0.1,1.2c-0.2-0.4-0.2-0.9-0.4-1.5c-0.3-0.6-0.1-0.9-0.3-1.3v0.8c0,0.4,0,0.7-0.1,0.7
		c-0.1,0-0.1,0.2-0.3,0.2c0,0,0-0.1-0.1-0.1c0,0,0,0.5-0.1,0.5c-0.1-0.3-0.6-0.7-0.7-0.7c-0.1,0-0.1,0.1-0.4,0.1
		c0,0.1-0.1-0.6-0.3-0.5c0,0.4-0.1,0.8-0.2,0.8c-0.1,0-0.1-0.1-0.1-0.4v-0.3c0-0.1-0.1-0.4-0.1-0.4h-0.2c-0.1,0-0.1,0.1-0.1,0.3
		c0,0.1,0,0.3-0.1,0.4c0-0.1,0-0.3-0.1-0.6c0,0.3-0.1,0.4-0.1,0.6v0.6c0,0-0.2,0-0.2,0.1c-0.2,0.2,0,0.7-0.4,0.9
		c-0.2-0.4-0.1-0.9-0.4-1.6c-0.9-6-1.6-11.8-2.2-17.9c-2.2,0-8.6,0.1-10.1,0.3c-1.5,4.1-4.1,10.2-5.9,15.3c-1,0-3.2,0.3-4.3,0.3
		c-0.7,0-0.6-0.1-1.3-0.2c-0.7-0.7-1.5-0.1-1.6-1.5l-0.7-0.4l-0.5-0.4C0.2,48.6,0,47.6,0,46.5c0-0.7,0.1-1.3,0.2-2
		c0-1.8,2.1-7.8,3-10.2C3.1,34.1,3,33.8,3,33.6c0-0.7,0.7-1.5,1.1-1.8c2-5.7,4.6-11.4,7.2-17.4c2-3.6,5.1-13.4,10.5-13.4h0.4
		c1,0.4,0.1,0.7,1,1.2c0,0,0.3,0.1,0.4,0.1c0,0,0,0.1,0.1,0.1c0-0.1,0.4,0,0.4-0.2c0.1,0.3,0.1,0.6,0.4,0.6c0.1,0,0.2,0.2,0.5,0.2
		c0-0.2-0.1-0.4-0.4-0.6c0.1,0,0.4,0.3,0.4,0.3s0-0.4,0.1-0.2V2.1c0.4,0.2,0.4,0.7,0.7,0.9c0.1,0,0.2,0.3,0.5,0.3
		c-0.1-0.2-0.4-1-0.4-0.9c0,0-0.1-0.2-0.1-0.4c0.1,0.1,0.2,0.1,0.2,0.4c0.5,0,0.5,0.3,0.8,0.4c0-0.1-0.3-0.4-0.3-0.8
		c0.1,0,0.2,0.1,0.4,0.1c0.1,0.2,0.2,0.2,0.4,0.3c1.6,3.7,3.8,23.2,4.5,29c1.9,0.1,2.3,0.2,3.3,0.4c-0.1,0.1-0.1,0.1-0.1,0.2
		c0,0.1,0.1,0.1,0.2,0.1h0.3c0.1,0,0.1,0.1,0.1,0.1c0,0.1-0.1,0.3-0.1,0.4c0,0.1,0,0.2,0.2,0.3c-0.1,0.1-0.4,0.1-0.4,0.1
		C35.6,33.3,35.7,33.5,35.8,33.5z M19.4,31c1.6,0,3,0.1,5.1,0.1c-0.6-6-1.5-11.5-1.5-16.3c-1.8,5.7-3.4,8.9-6.2,16.3
		C17.7,31,18.6,31,19.4,31z"/>
	<path class="st0" d="M64.5,10.9c0,4.9-4.6,9.7-10,9.7h-0.9c-1,0-2.6-0.1-2.6-0.6c0-0.1-0.1-0.1-0.4-0.1c-0.9,7.5-2.1,14.7-2.5,22.7
		c-0.1,2.3-0.4,4.6-0.4,6.8c0,0.5,0,1.1,0.1,1.6c0,0.1-0.1,0.2-0.1,0.3c-0.6,0.7-0.2,1.2-1.1,1.2c-0.6,0-1.3,0.3-1.3,0.8
		c-0.2,0-0.2-0.3-0.3-0.4c-0.1,0.3-0.2,0.4-0.3,0.4c-0.2,0-0.3-0.6-0.3-0.5c-0.1,0-0.1-0.4-0.1-0.2c0,0.4-0.4,0.3-0.4,0.5
		c0,0.1,0.1,0.3,0.1,0.5c-0.1-0.1-0.2-0.5-0.3-0.4v0.2l-0.4-0.5c0,0.1-0.1,0.2-0.1,0.2c0-0.1,0.3,0.6,0.3,0.6
		c-0.1,0-0.1-0.3-0.4-0.3c0.1,0.2,0.3,0.4,0.3,0.7l-0.2-0.4c0,0.1,0,0.2-0.1,0.2c0,0-0.1-0.3-0.2-0.5c-0.1,0.1-0.1,0.1-0.1,0.5
		c-0.1,0-0.1-0.1-0.2-0.1c0,0.2,0.1,0.2,0.1,0.4c-0.1,0.1-0.1,0.3-0.1,0.4c0,0.4-2.5,0.3-3.3,0.6c-0.1,0-0.1,0.1-0.2,0.1
		c-1.6,0-2.2-4.4-2.2-7.8c0-6.8,1.2-13.9,1.8-20.8c0.6-6.5,2.3-13.9,2.3-20.8c0-0.3,0-0.4-0.1-0.5C40.2,5.4,39.8,6,38.9,6
		c-0.9,0-1.3-0.7-1.3-1.5c0-2.2,4.9-3.4,10.5-3.4S64.5,3.1,64.5,10.9z M53.8,5.2l-0.3-0.1c-0.1,0-0.4-0.1-0.7-0.1
		c-0.1,0-0.2,0-0.2,0.1c-0.2,0.5-1.2,10.1-1.6,12.3c3.4-0.7,7.6-2.3,7.8-6.1C58.8,7.7,56.8,5.9,53.8,5.2z"/>
	<path class="st0" d="M86.6,13.8c0,1.8-0.1,3.8-1.2,5.4c0,1.1-1.7,3-2.5,3.8c-1.7,1.7-3,2.8-5.4,3.8c-0.4,0.1-2.3,0.8-3.2,0.8
		c-0.2,0-0.4-0.1-0.4-0.1c0-0.1,0.3-0.1,0.2-0.2c0-0.1-0.1-0.1-0.2-0.1h-0.4c-1,5.1-2.2,14.7-2.2,20.4c0,0.6,0.1,1.2,0.1,1.7
		c0.1,0.5,0.2,1.1,0.2,1.6c0,0.4-0.1,0.7-0.4,0.8c-0.3,0.1-0.9,0.3-0.9,0.3c-0.1,0-0.2,0.3-0.3,0.4c-0.1,0-0.2,0.3-0.3,0.3
		c-0.3-0.1,0-0.2-0.4-0.3c-0.2,0-0.1,0.3-0.3,0.3c-0.1,0-0.1-0.3-0.3-0.3c-0.1,0.1-0.3,0.3-0.3,0.4c-0.1-0.2-0.3-0.2-0.3-0.3h-0.4
		c0-0.1,0.1-0.1,0.1-0.2c0-0.1-0.1-0.1-0.2-0.1c-0.1,0-0.2,0.1-0.4,0.1c-0.1,0-0.1,0-0.2-0.1c-0.1,0.4-0.3,0.4-0.6,0.4
		c-0.1,0-0.1,0.3-0.3,0.3c-0.1,0-0.1-0.3-0.4-0.4l-0.4,0.3c-0.1,0.1-0.1,0.2-0.4,0.3c-0.1,0-0.1,0-0.4-0.1c-0.1,0.1-0.1,0.2-0.1,0.3
		c0,0.2-0.1,0.4-0.2,0.5c-0.2,0-0.3-0.1-0.4-0.3c-0.7-1.3-0.9-3.8-0.9-6.8c0-4.7,0.7-10.5,1.2-14c0.1-0.1,0.1-0.3,0.1-0.7
		c0-0.1,0-0.1-0.1-0.3c1-8.8,2.4-18.2,3.3-26.4V4.6c0-0.1,0-0.2,0.1-0.2c0-1.2,2-2.3,3.3-2.3c0.2,0,0.7,0.1,0.9,0.1
		c0.2-0.2,0.5-0.3,0.9-0.3c0.7,0,1.7,0.4,2,0.7c0.5,0,0.8,0.4,1.2,0.7C80.9,4.2,86.6,8.1,86.6,13.8z M79.7,16.2
		c0.1-0.6,0.1-1.1,0.1-1.7c0-3.2-1.3-6-4.1-6.7C75.7,7.8,74.5,21,74,24C75.9,24,79.3,19.2,79.7,16.2z M75.9,26.4
		c-0.3,0-0.7,0.1-0.9,0.4C75.5,26.7,75.8,26.5,75.9,26.4z M80.7,24.3c-0.1,0.1-0.4,0.3-0.6,0.3c-0.4,0-0.4,0.3-0.9,0.3
		c-0.2,0.2-0.9,0.8-1.3,0.8c-0.1,0-0.1,0-0.2-0.1c-0.4,0-0.4,0.3-0.5,0.6c1.2-0.1,1.6-0.9,2.6-1.3v0.3c0.4,0,0.4-0.3,0.5-0.4
		C80.4,24.6,80.7,24.5,80.7,24.3z M77.4,26.4c-0.1,0-0.2,0.1-0.2,0.1C77.2,26.6,77.4,26.6,77.4,26.4z M78,25.2v0.4
		c0.4,0,0.5-0.4,0.9-0.4c0-0.1,0.2-0.5,0.1-0.5c-0.1,0-0.3,0.2-0.4,0.3C78.5,25,78.1,25.1,78,25.2z M79.6,24.3v0.2
		c0.1,0,0.4-0.2,0.4-0.3C79.8,24.2,79.6,24.3,79.6,24.3z M82.3,22.5c-0.3,0.1-0.4,0.4-0.7,0.4c0.1,0.1,0.1,0.1,0.1,0.2
		c-0.2,0.1-0.8,0.4-0.9,0.9c0.1,0,0.4,0,0.4-0.1c0.1,0,0.9-0.5,0.9-0.6C82.1,22.9,82.3,22.7,82.3,22.5z M82.8,22.1
		c-0.1,0-0.3,0.1-0.3,0.3C82.6,22.4,82.8,22.4,82.8,22.1z M82.5,20.5c0,0,0.3,0.4,0.4,0.4c0.1,0,0.1-0.2,0.2-0.3
		C83.1,20.7,82.5,20.5,82.5,20.5z M83.4,21.2c-0.1-0.1-0.1-0.1-0.2-0.1c-0.2,0-0.3,0.1-0.3,0.2c0,0.1,0.1,0.1,0.1,0.2
		c0.1,0,0.1-0.1,0.2-0.1C83.2,21.3,83.4,21.3,83.4,21.2z M83.4,20.3c-0.1,0-0.4,0.1-0.3,0.1C83.4,20.5,83.4,20.4,83.4,20.3z
		 M83.9,19.2c-0.1,0.2-0.3,0.4-0.3,0.7C83.9,19.8,83.9,19.5,83.9,19.2z"/>
	<path class="st0" d="M107,50.1c0,0.1-0.2,0.2-0.3,0.4c-0.1,0-0.1-0.1-0.2-0.1c0,0.2-0.1,0.2-0.1,0.2c-0.2,0-0.6,0.1-0.7,0.1
		c-2.8,1.6-7.2,2.3-10.4,2.3c-1.8,0-3.6-0.2-4.1-0.2c-2.4-0.4-5.7-2.7-6.2-5.1c-0.6-1.7-0.4-3.3-0.5-4.8c0-0.1,0.1-0.3,0.1-0.5
		c0-0.5-0.1-1.1-0.1-1.7c0-9.7,4.3-31.9,6.9-36.8c0.3-0.6,0.9-1,1.2-1.5c0.4-0.3,2-0.6,2.5-0.6c0.1,0,0.1,0,0.2-0.1
		c0.4,0,0.7-0.2,1.1-0.3c0.2,0,0.4-0.2,0.8-0.2H99c0.3,0.1,0.7,0.4,1.1,0.4c0.1,0,0.3-0.1,0.4-0.1c0.1,0.1,0.3,0.1,0.6,0.1
		c0.2,0,0.5,0.2,0.9,0.2h0.3c0.1,0.1,0.3,0.2,0.7,0.2c0,0.1,0.1,0.1,0.3,0.2c1.1,0.2,1.4,1,1.4,2c0,1.2-0.4,2.5-0.6,3.2
		c-1,5.2-2.8,10.1-3.8,15c-1.7,6.3-4.4,17.5-4.4,23.7v0.7c0.1,1.6,1.6,1.8,3,1.8c3.2-0.1,5.8-0.4,8.5-0.6c0.8-0.1,1.8-0.1,2.8-0.1
		c0.6,0,1.2,0,1.7,0.1c-0.1,0-0.3,0.1-0.6,0.1c0.1,0.1,0.2,0.1,0.2,0.1c0,0.1-0.4,0-0.4,0.2c-0.4,0-0.6,0.1-0.9,0.1l0.1,0.2
		c-0.1,0-0.4,0.1-0.3,0.1c-0.3,0-0.4,0.1-0.9,0.2c-0.1,0-0.1,0-0.1,0.1c0,0.1-0.5,0.2-0.4,0.3c-0.4,0.1-1.1,0.2-1.1,0.5L107,50.1z"
		/>
	<path class="st0" d="M138.2,2.8c3.1,0,4.1,2.5,4.1,5.4c0,2-1.5,7.5-1.6,7.7c-0.7,2.3-5.6,24.5-8.3,36.7c0,0.1-0.2,0.1-0.2,0.4
		c0,0.1,0.2-0.1,0.2-0.1c0,3.1-1.7,6.6-1.9,6.8c-0.1,0-0.7-0.9-1.4-1.1c0,0-0.1,0.4-0.4,0.4c-0.1,0-0.1-0.1-0.2-0.1
		c-0.1,0-0.1,0-0.2,0.1c-0.1-0.1-0.2-0.1-0.2-0.4c-0.2,0.1-0.2,0.3-0.4,0.4c-0.2,0-0.1-0.3-0.4-0.3c-0.1,0-0.2,0.1-0.4,0.1
		c0-0.1,0.1-0.2,0.1-0.4c0-0.1-0.1-0.1-0.1-0.1c-0.2,0-0.4,0.3-0.5,0.3c-0.1,0-0.9-0.8-2-0.8c-0.4,0-0.8,0.3-1.1,0.3
		c-0.2,0-0.1-0.7-0.3-0.7s-0.4,0.3-0.5,0.3c-0.1,0-0.7-0.8-0.7-2.6c0-0.7,0.1-1.4,0.2-2.3c1.7-15.1,6.5-31.3,9.6-42.3
		c-1.4,3-6,17.8-10.8,21.9c-0.9,1.5-3.1,1.9-5.8,1.9c-5,0-5.9-8.3-5.9-11.5c0-6.3,2-19.3,8.3-22.7c0.3-0.1,0.7-0.2,0.9-0.2
		c2.6,0,4,2.4,4,3.6c0,0.8-0.1,1.6-0.4,2.3c-1.7,4.9-4.7,13.2-4.7,19.5c0,1.7,0.1,4.4,1.2,4.6c4.9-7.3,7.2-16,11.5-24.1
		c2.8-4,3.7-2.3,7.6-3.2H138.2z M124.4,44.7c-0.2,0.1-0.3,0.1-0.3,0.3c0,0.1,0.1,0.1,0.1,0.2C124.4,45.2,124.3,44.9,124.4,44.7z
		 M124.5,41.7c-0.2,0-0.2,0.2-0.2,0.4C124.4,42.1,124.5,42,124.5,41.7z M125.2,41c0-0.4-0.4-0.9-0.4-0.8c0,0.1,0.1,1.1,0.3,1.2
		C125.2,41.3,125.2,41.2,125.2,41z M125.7,39.4c0.1,0,0.6-0.9,0.6-0.9C125.9,38.5,125.7,39.4,125.7,39.4z M126.3,34.3l-0.3-0.1
		c-0.1,0-0.1,0.1-0.1,0.4C126.1,34.5,126.3,34.4,126.3,34.3z M131.6,53.7l-0.2-0.1c0,0.1,0.1,0.1,0.1,0.4c-0.1,0.1-0.1,0.1-0.1,0.3
		c0,0.1,0,0.2,0.1,0.2C131.4,54.3,131.6,54.1,131.6,53.7z M132.9,47.7c0-0.2-0.1-0.2-0.1-0.5c0-0.1-0.1-0.1-0.1-0.2
		c-0.1,0.1-0.4,0.7-0.4,1.1c0.1,0.1,0.1,0.1,0.1,0.3c0.1,0,0.2,0,0.2-0.2L132.9,47.7z M133.1,45.9c-0.2,0-0.4-0.4-0.4-0.4
		c0,0.1,0.3,0.7,0.3,0.7C133.1,46.1,133.1,45.9,133.1,45.9z M133.6,44c-0.1,0.4-0.4,0.7-0.4,1.1C133.4,44.9,133.5,44.3,133.6,44z"/>
	<path class="st0" d="M195.7,5.4c0,0.7-0.2,4.3-0.7,4.3c-2.3,10.6-3.7,23.6-7,38.4c-0.8,3.3-3.3,4.7-5.9,4.7c-1.5,0-3.1-0.5-4.2-1.5
		c-4.2-6.3-5.4-28-6.2-35.7c-0.3-1.5-0.2-4-0.9-4.9c-5.5,10.2-7,25-8.2,36.8c-0.3,1.2-0.5,3-1.2,3.5c-0.5,0-0.8-0.9-1-1.1
		c-0.4-0.4-0.4-1.2-0.6-1.4c-0.3-0.4-0.7-1.1-0.9-1.4l-0.2,0.1l-0.4-0.5c-0.3,0-0.7-0.4-0.8-0.4c-0.2,0-0.5-0.3-1-0.6H156
		c-0.2-0.4-0.2-1-0.5-1.4c-0.2-2.3-0.4-4.6-0.4-6.9c0-11.5,2.8-23.7,9.1-31c1.5-1.5,3-2.1,4.4-2.1c4,0,7.2,5.3,9.2,8.9l0.3,0.4
		c0,0.3,0.4,0.7,0.4,0.7c2,3.3,2.6,19.6,3.7,24.9c0.1,0.6,0.3,1.2,0.6,1.6c0.3-0.5,0.4-0.7,0.4-1.1c2.6-14.5,4.1-26.1,7.8-35.9
		c0-1.2,0.4-1.3,0.7-1.3h0.2c0,0.1,0.1,0.2,0.1,0.2c0.1,0,0.1-0.2,0.1-0.2c0.6,0.4,2.3,3.1,3,3.1c0.1,0,0.2-0.1,0.3-0.2L195.7,5.4z
		 M166.3,16.4c0.4-0.9,0.8-1.6,1.2-2.5v-0.1c-0.2,0.5-0.4,0.8-0.4,0.7c0-0.1,0.1-0.1,0.1-0.2c0.2-0.4,0.5-0.9,0.6-1.3
		c0.1-0.2,0.3-0.7,0.4-0.7c0-0.1-0.1-0.1-0.1-0.2c0-0.3,0.5-0.7,0.5-0.8c0-0.1,0-0.1-0.1-0.2c0.2-0.1,0.4-0.9,0.6-1l-0.1,0.3
		c0.1,0,0.1-0.1,0.1-0.1c0-0.1-0.1-0.2-0.1-0.3c0.2-0.1,0.3-0.2,0.3-0.2c0,0.1-0.1,0.1-0.1,0.2c0.2-0.2,0.3-0.9,0.3-0.9
		c0-0.3,0.2-0.3,0.2-0.5c-0.4,0.1-1.6,2.3-1.6,2.3c0,0-0.5,0.6-0.6,1c0.1-0.2,0.1-0.4,0.1-0.7c-0.1,0.5-0.4,0.8-0.5,1.2v0.3l0.4-0.8
		v0.1c0,0.1,0.1,0.1,0.1,0.2c-0.1-0.1-0.3,0.1-0.4,0.4v0.1v-0.1c-0.1,0.1-0.1,0.1-0.1,0.2c-0.1,0-0.1-0.1-0.2-0.1
		c0,0.1,0.1,0.1,0.1,0.3c0,0.1,0,0,0.1,0c-0.1,0.1-0.1,0.2-0.1,0.3s0.1,0.1,0.1,0.1c-0.2,0-0.5,0.4-0.5,0.7c0,0.1,0,0.1,0.1,0.2
		c-0.3,1-0.9,2-0.9,3.3c-0.3,0.1-0.1,0.6-0.3,0.6c0-0.2,0.2-0.6,0.2-0.8c-0.3,0-0.6,1-0.6,1.8c0.1,0,0.1,0.1,0.1,0.1
		c0,0.2-0.4,0.5-0.4,0.8c0,0.1,0,0.2,0.1,0.3c0.4-1.2,1.2-2.9,1.2-3.9c-0.1,0.3-0.1,0.2-0.3,0.3c0-0.2,0.1-0.4,0.3-0.5
		C166.3,16.2,166.3,16.3,166.3,16.4z M165.6,15.5c0.2-0.3,0.7-1.4,0.7-1.8c0-0.1,0-0.1-0.1-0.2c-0.1,0.4-0.5,1.2-0.6,1.2
		C165.7,15,165.6,15.2,165.6,15.5z M170.1,10.6c0-0.2,0-0.4-0.2-0.5c-0.6,0.9-0.9,2.1-1.5,3c0-0.1,0.1-0.3,0.1-0.4
		c-0.1,0.2-0.4,0.5-0.4,0.5c0.1,0,0.3,0,0.2,0.1c0,0.1,0.1,0.1,0.1,0.2c-0.4,0-0.7,2.5-0.9,2.3c0,0-0.1,0.1-0.2,0.1
		c-0.1,0-0.1,0-0.1-0.1c0,0.1-0.1,0.3-0.1,0.4s-0.3,0.1-0.3,0.1c0,0.3,0,0.4-0.2,0.7c0,0.1,0,0.2,0.1,0.3c0,0-0.1,0-0.1-0.1
		c-0.4,0.4-0.4,2-0.5,2.6c0.5,0,0.6-1.3,0.6-1.4c0-0.1,0.2-0.1,0.2-0.1c0,0.6-0.4,0.9-0.4,1.6c0.7-1.5,1.1-2.9,1.8-4.9
		c-0.1,0-0.1,0-0.2,0.1c0-0.1,0.2-0.9,1-2.3c0,0.2-0.2,0.5-0.2,0.7c-0.2,0.3-0.4,0.9-0.4,1.2c0-0.1,0.2-0.7,0.3-0.8
		c0.1-0.3,0.7-1.5,0.7-1.9C169.5,11.3,169.9,10.7,170.1,10.6z M166.3,15.6c0-0.1,0.1-0.4,0.2-0.4C166.4,15.4,166.5,15.5,166.3,15.6z
		 M166.4,13.4c0.1-0.4,0.6-0.9,0.6-1.5c-0.2,0.4-0.3,0.8-0.5,1.2L166.4,13.4z M166.5,15c0-0.4,0.4-0.8,0.7-1.5
		c0,0.3-0.4,1.5-0.4,1.2C166.6,14.7,166.5,14.8,166.5,15z M167.1,12.8L167.1,12.8c-0.1,0-0.1,0.1-0.1,0.1
		C167,12.9,167,12.9,167.1,12.8z M167.1,12.6c0,0.1-0.1,0.1-0.1,0.1S167.1,12.7,167.1,12.6z M167.1,11.8c0,0.1,0.1-0.1,0.1-0.3
		c0.1-0.1,0.5-0.5,0.7-0.9c0,0.1-0.1,0.2-0.1,0.4c0.4-1.1,1.2-2.2,1.7-3c-0.5,0.5-0.9,1.4-1.2,1.4c-0.1,0.4-0.2,0.7-0.4,1
		c0-0.1,0.1-0.3,0.1-0.4c0,0-0.1-0.1-0.1-0.2c0,0.1-0.1,0.2-0.1,0.1c-0.4,0.7-0.8,1.7-0.8,1.7C167.2,11.5,167.1,11.6,167.1,11.8z
		 M167.5,15c0-0.1,0-0.1,0.1-0.1c0-0.2-0.2-0.1-0.3-0.2c0.1-0.1,0.1-0.3,0.2-0.5c-0.2,0.2-0.4,0.6-0.4,0.9c0,0.1,0.1,0.1,0.1,0.2
		C167.3,15.1,167.5,15.1,167.5,15z M167.6,12.9L167.6,12.9c0,0-0.1,0.1-0.2,0.1c0-0.1,0.1-0.3,0.3-0.4
		C167.7,12.6,167.6,12.8,167.6,12.9z M168.1,10.3l-0.1,0.3L168.1,10.3z M168,12.7c0.4-0.5,0.9-1,0.9-1.9c-0.1,0-0.1,0.1-0.3,0.1
		c0-0.1,0.3-0.4,0.3-0.6l-0.4,0.6c0,0,0.1,0,0.1,0.2C168.5,11.6,168.2,12.2,168,12.7z M180.1,30.1c0,0.1,0,0.1,0.1,0.3
		c0,0.1,0,0.2,0.1,0.2v-0.9c0-0.6-0.1-1.3-0.2-1.7c0,0.2,0.1,0.6,0.1,0.9V30.1z M180.3,30.6c0,0.3,0,0.4-0.1,0.4
		c0.1,0.1,0.1,0.3,0.1,0.5v0.3c0-0.1,0-0.1-0.1-0.2c0,0.5,0.2,1.5,0.2,1.4c0,0,0.1,0.9,0.1,0.8c0,0,0.1,0.1,0.1,0.6
		c0,0.1,0.1,0.3,0.1,0.2L180.3,30.6z M180.3,33c0.1,0.7,0.1,1.3,0.4,1.9C180.6,34.3,180.4,33.7,180.3,33z"/>
	<path class="st0" d="M205.1,33c-0.1,0.8-0.2,2-0.2,3.4c0,4.1,0.8,9.4,4.6,9.4c1.9,0,3.1-0.7,4.3-1.6c1.6-1.2,2.8-3,3.6-4.8
		c2.5-5,4-10.8,4.6-16.6c0-1.6-0.1-3.8-0.7-5.3c0-0.2-0.1-0.4-0.1-0.6c0-0.1,0-0.2,0.1-0.3c0-0.3,0.2-0.4,0.4-0.4
		c0.1,0,0.3,0,0.4,0.1l0.5,1c0.4,0,1.4,1.5,1.5,2c0.5,0.5,0.9,0.9,1.1,1.7c0.1,0.1,0.1,0.1,0.1,0.3c0,0.1,0,0.2,0.1,0.3
		c1.3,0.5,1.7,4.9,1.7,6.6c0,8.2-4.1,19.5-12.1,23c-1.2,0.5-2.4,0.7-3.7,0.7c-2.8,0-5.9-1.1-8.2-2.7c-6.5-4.4-9.3-8.5-9.3-16
		c0-0.7,0-1.5,0.1-2.3c0-9.5,9.7-25.3,20-27.5c0.7-0.1,2-0.3,3.6-0.3c3.6,0,8.3,0.7,8.9,2.8c0.4,1.2,0.9,1.6,0.9,2.5
		c0,0.4-0.1,0.8-0.2,1.3c-1.1,3.1-5.7,2.9-8.8,3.6C210.9,16.6,206.8,25.2,205.1,33z"/>
	<path class="st0" d="M293.2,4.1c0.2,0,0.6,0.1,0.6,0.5c-0.3,0.4-1.5,3-1.6,3.6v0.4c-0.1,0.1-0.7,1-0.7,1c0.1,0,0.2-0.2,0.4-0.3
		c-0.3,0.8-0.9,2.1-0.9,2.5c0,0,0.2-0.1,0.3-0.1c0,0.3-0.4,1.2-0.4,1.3c0,0.5-0.1,0.9-0.1,1.5c0,1.5-1.3,3.5-1.5,4.5
		c0-0.8,0.2-1.7,0.2-2.6c-0.1,0-0.6,1.2-0.6,3c0,0.3,0,0.5,0.1,0.5c0.1,0,0.1-0.1,0.3-0.4c0,0.2-0.4,1.2-0.6,2
		c-0.1,0-0.1-0.1-0.1-0.2c0-0.1,0-0.2-0.1-0.3c0-0.2-0.1-0.3-0.1-0.3c-0.2,0-0.5,2.7-0.5,2.9c0,0.1,0,0.3,0.1,0.4
		c0,0.1-0.1,0.1-0.1,0.4c-0.2,0.7-0.9,2.8-1.1,3.8c0,0.1,0.1,0.2,0.1,0.4c0.1-0.4,0.6-2.6,0.7-2.7c0.3,0,0.7-2.8,1-3.8
		c0,0.1,0,0.9,0.1,1.1c-0.2,1.2-1.5,5.7-1.7,6.4c-0.2,0.8-1.7,4.4-1.7,5.2c0.5,0,0.4-1.9,1.2-1.9c0,0-0.1-0.3-0.1-0.5
		c0-0.1,0.3-0.3,0.3-0.7c0-1.6,2-5.3,2-6.8c0.1,0,0.1,0.7,0.1,0.7c-1.9,7-3.6,18.4-11.8,24.6c-1.8,1.4-5.4,1.7-6.1,1.7
		c-7.5,0-8.9-8.1-8.9-17c0-8.3,0.7-16.6,0.7-23c0-0.8,0.1-1.7,0.1-2.4c0-0.4,0-0.7-0.1-1.1c-2.2,3-9.5,29.8-12,35.3
		c-1.8,5.8-3.5,8.7-13.1,8.7c-5.4,0-7.3-14.4-7.3-25.1c0-7.2,0.8-14.3,1.9-20.1c0.6-3.3,3.2-5.1,6.4-5.1c2.1,0,7.3,0.7,7.3,4.6
		c0,0.9-0.6,1.9-0.8,2.8c-0.8,2-1.5,11.9-1.5,18.4v4.8c0,4,0.1,8,1.2,12c0.9-0.7,2.5-7.1,3.8-10.5c3.8-10.7,5-19.1,10.9-29
		c1.1-2.3,5.7-2.9,8.6-2.9c1.8,0,3.7,0.5,4,1.7c3.6,3.8,2.7,10.8,3,16c-0.2,6.6-0.5,13.3-0.5,20.7c0,1.8,0.1,5.7,0.8,5.7
		c4.8,0,9.1-33.3,12.5-37.8c0-1,2.1-4.4,3.8-4.4C292.1,4.2,292.6,4.1,293.2,4.1z"/>
</g>
</svg>
