<svg xmlns="http://www.w3.org/2000/svg" viewBox="0 0 326.46 50"><defs><style>.cls-1{fill:#0fb5db;}.cls-2{fill:#fff;}</style></defs><title>BB logo on navy</title><g id="Layer_2" data-name="Layer 2"><g id="Layer_1-2" data-name="Layer 1"><path class="cls-1" d="M317.05,4.74c1,0,1.26.48,1.41,1.31L319,9.21c.15.83.49,1,1.27,1h4a.87.87,0,0,1,1,1v4.08a.87.87,0,0,1-1,1h-4.43a.53.53,0,0,0-.58.58v9.88c0,1.31.43,2.62,3.11,2.62,1.61,0,2-.24,2.82-.24.39,0,.68.34.73.87l.49,3.7c.1.78-.22,1.21-1,1.51a12,12,0,0,1-4,.68c-7.35,0-9-3.06-9-8.37V5.56a.78.78,0,0,1,.83-.82Z"/><path class="cls-1" d="M160.14,11.45c0-7.35,2-10.65,10.36-10.65,7.3,0,11.05,2.91,11.05,8.41,0,3.8-1.32,5.89-3.65,7.35v.14c3.11,1.27,5,3.75,5,8.61,0,6.42-3.79,10-10.65,10h-7.3a4.54,4.54,0,0,1-4.77-4.52Zm10.17,3.74c2.82,0,3.94-1.31,3.94-4.08,0-2.58-1.22-3.7-3.7-3.7-2.28,0-3.11,1-3.11,3.07v4a.7.7,0,0,0,.78.73Zm.87,13.53c2.88,0,4.09-1.41,4.09-4.09,0-3-1.6-4-4.13-4h-2.92a.76.76,0,0,0-.78.73V28a.75.75,0,0,0,.78.68Z"/><rect class="cls-1" x="185.05" y="1.28" width="6.86" height="34.05" rx="0.97"/><path class="cls-1" d="M214,10.18a.87.87,0,0,1,1,1V24.92c0,8.08-2.53,10.9-10,10.9S194.83,33,194.83,24.92V11.16a.87.87,0,0,1,1-1h5a.88.88,0,0,1,1,1V25.9c0,2.77.87,3.6,3.21,3.6s3-.83,3-3.6V11.16a.87.87,0,0,1,1-1Z"/><path class="cls-1" d="M236.52,32.32a1.89,1.89,0,0,1-1,2.28c-1.22.69-4,1.12-7.2,1.12-7.5,0-10.95-3.35-10.95-13,0-9.83,3.75-13,10.61-13,6.42,0,9.53,3.65,9.53,10.21v2.14c0,2.73-1.17,3.8-3.79,3.8H224.7c-.29,0-.39.1-.39.34v.14c0,2.14,1.07,3.36,4.57,3.36,3.07,0,5-.78,5.89-.78a1,1,0,0,1,1.07.93Zm-5.64-11.68c.38,0,.48-.19.48-.48,0-3.26-1.17-4.43-3.26-4.43-2.38,0-3.79,1.12-3.79,4.43,0,.34.14.48.48.48Z"/><path class="cls-1" d="M263.34,17.67c0-6.12,2.19-8,7-8a19,19,0,0,1,5.59.68c1.22.37,1.56.87,1.22,2.28l-.44,2.53c-.1.64-.44,1-1,1-.83,0-2-.25-3.31-.25-1.75,0-2.14.68-2.14,2.58v16a.78.78,0,0,1-.83.77h-5.25a.78.78,0,0,1-.83-.77Z"/><path class="cls-1" d="M289.12,19c0-5.4,1.41-9.34,10.22-9.34s10.12,3.94,10.12,9.34V34.56a.75.75,0,0,1-.83.77h-5.25c-.68,0-.83-.38-.83-.77v-15c0-3-1-3.55-3.21-3.55s-3.31.59-3.31,3.55v15a.71.71,0,0,1-.78.77H289.9a.72.72,0,0,1-.78-.77Z"/><path class="cls-1" d="M286.11,13.05s0-3.61-3.5-3.6h-.05a3.45,3.45,0,0,0-3.5,3.6V34.36c0,.68.29,1,.82,1h5.26c.68,0,1-.29,1-1v-21h0Z"/><path class="cls-1" d="M250.4,9.7c-7.24.05-10.51,3.73-10.51,10.12v18.3s0,3.54,3.43,3.53h.05a3.38,3.38,0,0,0,3.43-3.53V35.47a.34.34,0,0,1,.36-.37,14.83,14.83,0,0,0,4.3.72c6.15,0,9.45-4.7,9.45-13.13,0-8.9-2.67-13-10.51-13m-.69,19.8c-2.32,0-2.91-.47-2.91-2.25V21.08c0-3.75.81-5.06,3.53-5.06s3.53,1.07,3.53,6.67c0,5.35-1,6.81-4.15,6.81"/><path class="cls-1" d="M243.88,43.17h-1.06a2.91,2.91,0,0,0-2.93,3V47s0,3,2.93,3h1.06a2.89,2.89,0,0,0,2.92-3v-.8s0-3-2.91-3"/><path class="cls-2" d="M0,11.53C0,4.18,2,.87,10.36.87c7.31,0,11.05,2.92,11.05,8.42,0,3.8-1.31,5.89-3.65,7.35v.15c3.12,1.26,5,3.74,5,8.61,0,6.42-3.79,10-10.65,10H4.77A4.54,4.54,0,0,1,0,30.9Zm10.17,3.75c2.82,0,3.94-1.32,3.94-4.09,0-2.58-1.22-3.7-3.7-3.7-2.28,0-3.11,1-3.11,3.07v4a.71.71,0,0,0,.78.73Zm.88,13.52c2.87,0,4.08-1.4,4.08-4.08,0-3-1.6-4-4.13-4H8.08a.76.76,0,0,0-.78.73v6.72a.74.74,0,0,0,.78.67Z"/><path class="cls-2" d="M43.73,9.69a.87.87,0,0,1,1,1V24.43c0,8.08-2.53,10.9-10,10.9S24.6,32.51,24.6,24.43V10.66a.87.87,0,0,1,1-1h5a.87.87,0,0,1,1,1V25.4c0,2.78.88,3.61,3.21,3.61s3-.83,3-3.61V10.66a.87.87,0,0,1,1-1Z"/><path class="cls-2" d="M51.57,23.41c-2.77-1.29-4.72-2.81-4.72-7.15,0-5.32,3.08-7.06,9.25-7.06A24.15,24.15,0,0,1,63,10a1.25,1.25,0,0,1,.68,1.51l-.48,2.92c-.1.68-.25,1-1,1-1,0-3.36-.44-5.5-.44-1.87,0-3,.38-3,1.61,0,1.41,1.5,1.79,3.55,2.67l2.33,1.08c3.09,1.41,4.72,2.82,4.72,7.1,0,5.3-2.87,7.88-10,7.88a35.21,35.21,0,0,1-6.13-.63,1.3,1.3,0,0,1-1-1.56l.43-3.5a.68.68,0,0,1,.73-.68c.78,0,2.63.44,5.55.44s3.65-.69,3.65-1.85-.82-1.66-2.73-2.58Z"/><path class="cls-2" d="M76.33,19c0-5.4,1.41-9.34,10.22-9.34S96.67,13.63,96.67,19V34.56a.75.75,0,0,1-.83.77H90.59c-.68,0-.83-.39-.83-.77v-15c0-3-1-3.55-3.21-3.55s-3.31.59-3.31,3.55v15a.71.71,0,0,1-.78.77H77.11a.71.71,0,0,1-.78-.77Z"/><path class="cls-2" d="M117.84,31.92a1.9,1.9,0,0,1-1,2.29c-1.21.68-4,1.12-7.2,1.12-7.49,0-11-3.35-11-13s3.75-13,10.61-13c6.43,0,9.54,3.65,9.54,10.22v2.14c0,2.72-1.17,3.79-3.79,3.79H106c-.29,0-.39.1-.39.34v.15c0,2.14,1.08,3.36,4.58,3.36,3.06,0,5-.78,5.89-.78a1,1,0,0,1,1.07.92Zm-5.65-11.67c.39,0,.49-.2.49-.49,0-3.26-1.17-4.42-3.26-4.42-2.38,0-3.8,1.11-3.8,4.42,0,.34.15.49.49.49Z"/><path class="cls-2" d="M125.38,23.41c-2.76-1.29-4.72-2.81-4.72-7.15,0-5.32,3.08-7.06,9.25-7.06a24.2,24.2,0,0,1,6.86.78,1.25,1.25,0,0,1,.68,1.51L137,14.41c-.09.68-.24,1-1,1-1,0-3.36-.44-5.5-.44-1.87,0-3,.38-3,1.61,0,1.41,1.5,1.79,3.55,2.67l2.33,1.08c3.09,1.41,4.72,2.82,4.72,7.1,0,5.3-2.87,7.88-10,7.88A35.44,35.44,0,0,1,122,34.7a1.31,1.31,0,0,1-1-1.56l.44-3.5a.67.67,0,0,1,.73-.68c.78,0,2.63.44,5.55.44s3.65-.69,3.65-1.85-.82-1.66-2.73-2.58Z"/><path class="cls-2" d="M143.84,23.41c-2.76-1.29-4.72-2.81-4.72-7.15,0-5.32,3.08-7.06,9.25-7.06a24.15,24.15,0,0,1,6.86.78,1.25,1.25,0,0,1,.68,1.51l-.49,2.92c-.1.68-.24,1-1,1-1,0-3.36-.44-5.5-.44-1.87,0-3,.38-3,1.61,0,1.41,1.51,1.79,3.56,2.67l2.33,1.08c3.09,1.41,4.72,2.82,4.72,7.1,0,5.3-2.87,7.88-10,7.88a35.1,35.1,0,0,1-6.13-.63,1.3,1.3,0,0,1-1-1.56l.44-3.5a.67.67,0,0,1,.73-.68c.78,0,2.63.44,5.55.44s3.65-.69,3.65-1.85S149,25.89,147.05,25Z"/><path class="cls-2" d="M70,9.69h0a3.5,3.5,0,0,0-3.55,3.65V34.43c0,.63.3.9.84.9h5.32c.69,0,1-.27,1-.9V13.34s0-3.66-3.55-3.65"/><path class="cls-2" d="M70.49,0H69.4a3,3,0,0,0-3,3.11v.83s0,3.12,3,3.12h1.09a3,3,0,0,0,3-3.12V3.11s0-3.11-3-3.11"/><path class="cls-1" d="M283.13,0H282a3,3,0,0,0-3,3.11v.83s0,3.12,3,3.12h1.09a3,3,0,0,0,3-3.12V3.11s0-3.11-3-3.11"/></g></g></svg>