<svg xmlns="http://www.w3.org/2000/svg" viewBox="0 0 594.8 88.2"><g fill="#0076C0"><path d="M47.5 16.8l.6-.9s.3-.4.2-.9c.2 0 .5-.2.7-.5l.8-1.3s.6-1-.3-1.6c0 0-.9-.6-1.6.3l-.8 1.3s-.3.4-.2.9c-.2 0-.5.2-.7.5l-.6.9s-.6 1 .3 1.6c0 0 1 .6 1.6-.3zM21.3 52l-.6.9s-.3.4-.2.9c-.2 0-.5.2-.7.5l-.8 1.3s-.6 1 .3 1.6c0 0 .9.6 1.6-.3l.8-1.3s.3-.4.2-.9c.2 0 .5-.2.7-.5l.6-.9s.6-1-.3-1.6c-.1-.1-1-.7-1.6.3zM55.1 27l1-.4s.5-.2.7-.6c.2.1.5.1.9 0l1.4-.6s1.1-.4.6-1.5c0 0-.4-1-1.5-.6l-1.4.6s-.5.2-.7.6c-.2-.1-.5-.1-.9 0l-1 .4s-1.1.4-.6 1.5c0 0 .4 1.1 1.5.6zM13.7 41.7l-1 .4s-.5.2-.6.6c-.2-.1-.5-.1-.9 0l-1.4.6s-1.1.4-.6 1.5c0 0 .4 1 1.5.6l1.4-.6s.5-.2.7-.6c.2.1.5.1.9 0l1-.4s1.1-.4.6-1.5c-.1 0-.5-1-1.6-.6zM55.7 39.8l1 .2s.5.1.9-.1c.1.2.4.4.8.5l1.5.3s1.1.2 1.4-.9c0 0 .2-1.1-.9-1.3l-1.5-.3s-.5-.1-.9.2c-.1-.2-.4-.4-.8-.5l-1.1-.2s-1.1-.2-1.3.9c-.1-.2-.3.9.9 1.2zM13.1 29l-1.1-.2s-.5-.1-.9.2c-.1-.2-.4-.4-.8-.5l-1.5-.3s-1.1-.2-1.4.9c0 0-.2 1.1.9 1.3l1.5.3s.5.1.9-.1c.1.2.4.4.8.5l1.1.2s1.1.2 1.4-.9c0-.1.2-1.2-.9-1.4zM19.7 18.1l-.8-.8s-.4-.3-.8-.4c0-.2-.1-.5-.4-.8L16.6 15s-.8-.8-1.6 0c0 0-.8.8 0 1.6l1.1 1.1s.3.4.8.4c0 .2.1.5.4.8l.8.8s.8.8 1.6 0c0 0 .8-.8 0-1.6zM49.1 50.7l.8.8s.4.3.8.4c0 .2.1.5.4.8l1.1 1.1s.8.8 1.6 0c0 0 .8-.8 0-1.6L52.6 51s-.4-.3-.8-.4c0-.3-.1-.5-.4-.8l-.8-.8s-.8-.8-1.6 0c.1.1-.7.9.1 1.7zM35.5 12.5v-1.1s0-.5-.3-.8c.2-.2.3-.4.3-.8V8.2s0-1.2-1.1-1.2c0 0-1.1 0-1.1 1.2v1.5s0 .5.3.8c-.2.2-.3.4-.3.8v1.1s0 1.2 1.1 1.2c0 0 1.1 0 1.1-1.1zM33.3 56.3v1.1s0 .5.3.8c-.2.2-.3.4-.3.8v1.5s0 1.2 1.1 1.2c0 0 1.1 0 1.1-1.2V59s0-.5-.3-.8c.2-.2.3-.4.3-.8v-1.1s0-1.2-1.1-1.2c0 0-1.1 0-1.1 1.2zM31.2 12.7l-.2-1s-.1-.5-.5-.8c.1-.2.2-.5.1-.9l-.3-1.5s-.2-1.1-1.3-.9c0 0-1.1.2-.9 1.4l.3 1.5s.1.5.5.8c-.1.2-.2.5-.1.9l.2 1.1s.2 1.1 1.3.9c0-.2 1.1-.4.9-1.5zM37.6 56.1l.2 1.1s.1.5.5.8c-.1.2-.2.5-.1.9l.3 1.5s.2 1.1 1.3.9c0 0 1.1-.2.9-1.4l-.3-1.5s-.1-.5-.5-.8c.1-.2.2-.5.1-.9l-.2-1.1s-.2-1.1-1.3-.9c-.1 0-1.2.3-.9 1.4zM54.2 43.8l1 .4s.5.2.9 0c.1.2.3.5.6.6l1.4.6s1.1.4 1.5-.6c0 0 .4-1-.6-1.5l-1.4-.6s-.5-.2-.9 0c-.1-.2-.3-.5-.7-.6l-1-.4s-1.1-.4-1.5.6c.1 0-.4 1.1.7 1.5zM14.6 25l-1-.4s-.5-.2-.9 0c-.1-.2-.3-.5-.7-.6l-1.4-.6s-1.1-.4-1.5.6c0 0-.4 1 .6 1.5l1.4.6s.5.2.9 0c.1.2.3.5.6.6l1 .4s1.1.4 1.5-.6c.1-.1.5-1.1-.5-1.5zM39.8 13.1L40 12s.1-.5-.1-.9c.2-.1.4-.4.5-.8l.3-1.5s.2-1.1-.9-1.4c0 0-1.1-.2-1.3.9l-.4 1.7s-.1.5.1.9c-.2.1-.4.4-.5.8l-.2 1s-.2 1.1.9 1.4c0-.1 1.1.1 1.4-1zM29 55.7l-.2 1.1s-.1.5.1.9c-.2.1-.4.4-.5.8l-.3 1.5s-.2 1.1.9 1.4c0 0 1.1.2 1.3-.9l.3-1.5s.1-.5-.1-.9c.2-.1.4-.4.5-.8l.2-1.1s.2-1.1-.9-1.4c0-.1-1.1-.3-1.3.9zM45.6 53.2l.6.9s.3.4.7.5c-.1.2 0 .5.2.9l.8 1.3s.6 1 1.6.3c0 0 .9-.6.3-1.6l-.8-1.2s-.3-.4-.7-.5c0-.2 0-.5-.2-.9l-.6-.9s-.6-1-1.6-.3c0 0-.9.6-.3 1.5zM23.2 15.5l-.6-.9s-.3-.4-.7-.5c.1-.2 0-.5-.2-.9l-.9-1.2s-.6-1-1.6-.3c0 0-.9.6-.3 1.6l.8 1.3s.3.4.7.5c-.1.2 0 .5.2.9l.6.9s.6 1 1.6.3c.1-.1 1-.7.4-1.7zM50.7 19.7l.8-.8s.3-.3.4-.8c.2 0 .5-.1.8-.4l1.1-1.1s.8-.8 0-1.6c0 0-.8-.8-1.6 0L51 16.1s-.3.3-.4.8c-.3 0-.5.1-.8.4l-.8.8s-.8.8 0 1.6c.1 0 .9.8 1.7 0zM18.1 49.1l-.8.8s-.4.4-.4.8c-.2 0-.5.1-.8.4L15 52.2s-.8.8 0 1.6c0 0 .8.8 1.6 0l1.1-1.1s.4-.4.4-.8c.2 0 .5-.1.8-.4l.8-.8s.8-.8 0-1.6c0 0-.8-.8-1.6 0zM56.1 31.2l1.1-.2s.5-.1.8-.5c.2.1.5.2.9.1l1.5-.3s1.1-.2.9-1.3c0 0-.2-1.1-1.4-.9l-1.5.3s-.5.1-.8.5c-.2-.1-.5-.2-.9-.2l-1 .2s-1.1.2-.9 1.3c0 .1.2 1.2 1.3 1zM12.7 37.6l-1.1.2s-.5.1-.8.5c-.2-.1-.5-.2-.9-.2l-1.5.3s-1.1.2-.9 1.3c0 0 .2 1.1 1.4.9l1.5-.3s.5-.1.8-.5c.2.1.5.2.9.2l1.1-.2s1.1-.2.9-1.3c-.1-.1-.3-1.2-1.4-.9zM52 47.5l.9.6s.4.3.9.2c0 .2.2.5.5.7l1.3.8s1 .6 1.6-.3c0 0 .6-.9-.3-1.6l-1.3-.9s-.4-.3-.9-.2c0-.2-.2-.5-.5-.7l-.9-.6s-1-.6-1.6.3c-.1.1-.7 1.1.3 1.7zM16.8 21.3l-.9-.6s-.4-.3-.9-.2c0-.2-.2-.5-.5-.7l-1.3-.8s-1-.6-1.6.3c0 0-.6.9.3 1.6l1.3.8s.4.3.9.2c0 .2.2.5.5.7l.9.6s1 .6 1.6-.3c0-.1.7-1-.3-1.6zM43.8 14.6l.4-1s.2-.5 0-.9c.2-.1.5-.3.6-.7l.6-1.4s.4-1.1-.6-1.5c0 0-1-.4-1.5.6l-.6 1.4s-.2.5 0 .9c-.2.1-.5.3-.6.6l-.4 1s-.4 1.1.6 1.5c0 .1 1.1.5 1.5-.5zM25 54.2l-.4 1s-.2.5 0 .9c-.2.1-.5.3-.6.7l-.6 1.4s-.4 1.1.6 1.5c0 0 1 .4 1.5-.6l.6-1.4s.2-.5 0-.9c.2-.1.5-.3.6-.7l.4-1s.4-1.1-.6-1.5c-.1 0-1.1-.5-1.5.6zM41.7 55.1l.4 1s.2.5.6.7c-.1.2-.1.5 0 .9l.6 1.4s.4 1.1 1.5.6c0 0 1-.4.6-1.5l-.6-1.4s-.2-.5-.6-.7c.1-.2.1-.5 0-.9l-.4-1s-.4-1.1-1.5-.6c0 0-1 .4-.6 1.5zM27 13.7l-.4-1s-.2-.5-.6-.6c.1-.2.1-.5 0-.9l-.6-1.4s-.4-1.1-1.5-.6c0 0-1 .4-.6 1.5l.6 1.4s.2.5.6.7c-.1.2-.1.5 0 .9l.4 1s.4 1.1 1.5.6c0-.1 1.1-.5.6-1.6zM53.2 23.2l.9-.6s.4-.3.5-.7c.2.1.5 0 .9-.2l1.3-.8s1-.6.3-1.6c0 0-.6-.9-1.6-.3l-1.3.8s-.4.3-.5.7c-.2-.1-.5 0-.9.2l-.8.6s-1 .6-.3 1.6c0 0 .6.9 1.5.3zM15.5 45.6l-.9.6s-.4.3-.5.7c-.2-.1-.5 0-.9.2L12 48s-1 .6-.3 1.6c0 0 .6.9 1.6.3l1.3-.8s.4-.3.5-.7c.2 0 .5 0 .9-.2l.9-.6s1-.6.3-1.6c-.1-.1-.7-1-1.7-.4zM56.3 35.5h1.1s.5 0 .8-.3c.2.2.4.3.8.3h1.5s1.2 0 1.2-1.1c0 0 0-1.1-1.2-1.1H59s-.5 0-.8.3c-.2-.2-.4-.3-.8-.3h-1.1s-1.2 0-1.2 1.1c.1 0 .1 1.1 1.2 1.1zM12.5 33.3h-1.1s-.5 0-.8.3c-.2-.2-.4-.3-.8-.3H8.3s-1.2 0-1.2 1.1c0 0 0 1.1 1.2 1.1h1.5s.5 0 .8-.3c.2.2.4.3.8.3h1.1s1.2 0 1.2-1.1c-.1 0-.1-1.1-1.2-1.1z"/><g><path d="M45.4 19.9l.1-.2s.5-.8-.2-1.4l-.3-.2s-.8-.5-1.4.3l-.1.2s-.6.8.2 1.4l.3.2c.1 0 .9.5 1.4-.3zM23.3 48.9l-.1.2s-.5.8.2 1.4l.3.2s.8.5 1.3-.3l.2-.2s.5-.8-.3-1.4l-.3-.2c.1 0-.7-.5-1.3.3zM51.6 28.5l.2-.1s.9-.4.6-1.3l-.1-.3s-.4-.9-1.3-.5l-.2.1s-.9.4-.5 1.3l.1.3c-.1 0 .3.9 1.2.5zM17.1 40.3l-.2.1s-.9.4-.5 1.3l.1.3s.4.9 1.3.5l.2-.1s.9-.4.5-1.3l-.1-.3s-.3-.9-1.3-.5zM52 39l.3.1s1 .2 1.2-.8l.1-.3s.2-.9-.8-1.1h-.3s-1-.2-1.2.7l-.1.3s-.2 1 .8 1.1zM16.8 29.7l-.3-.1s-1-.2-1.2.8l-.1.3s-.2 1 .8 1.1h.3s1 .2 1.2-.8l.1-.3c-.1.2.1-.8-.8-1zM22.3 20.7l-.2-.2s-.7-.7-1.4 0l-.2.2s-.7.7 0 1.4l.2.2s.7.7 1.4 0l.2-.2s.7-.7 0-1.4zM46.5 48.1l.2.2s.7.7 1.4 0l.2-.2s.7-.7 0-1.4l-.2-.2s-.7-.7-1.4 0l-.2.2c-.1 0-.7.7 0 1.4zM35.5 16.2v-.3s0-1-1-1h-.3s-1 0-1 1v.3s0 1 1 1h.3c.1 0 1 0 1-1zM33.3 52.6v.3s0 1 1 1h.3s1 0 1-1v-.3s0-1-1-1h-.3c-.1 0-1 0-1 1zM32 16.3l-.1-.3s-.2-1-1.1-.8l-.3.1s-.9.2-.7 1.2v.3s.2 1 1.1.8l.3-.1s.9-.2.8-1.2zM36.8 52.5l.1.3s.2 1 1.1.8l.3-.1s.9-.2.7-1.2V52s-.2-1-1.1-.8l-.3.1s-1 .2-.8 1.2zM50.8 42.4l.2.1s.9.4 1.3-.5l.1-.3s.4-.9-.6-1.3l-.2-.1s-.9-.4-1.3.5l-.1.3s-.4.9.6 1.3zM18 26.4l-.2-.1s-.9-.4-1.3.5l-.1.3s-.4.9.5 1.3l.2.1s.9.4 1.3-.5l.1-.3c.1-.1.4-.9-.5-1.3zM39.1 16.8l.1-.3s.2-1-.8-1.2H38s-.9-.2-1.1.8l-.1.3s-.2 1 .8 1.2l.3.1c0-.2 1 0 1.2-.9zM29.7 52v.3s-.2 1 .7 1.2l.3.1s.9.2 1.1-.8l.1-.3s.2-1-.8-1.2l-.3-.1c.1 0-.9-.2-1.1.8zM43.6 50.1l.1.2s.5.8 1.3.3l.3-.2s.8-.5.2-1.4l-.1-.2s-.5-.8-1.3-.3l-.3.2c0 .1-.8.6-.2 1.4zM25.2 18.6l-.2-.2s-.5-.8-1.3-.3l-.3.2s-.8.5-.3 1.4l.1.2s.6.8 1.3.3l.5-.2s.8-.6.2-1.4zM48.1 22.3l.2-.2s.7-.7 0-1.4l-.3-.2s-.7-.7-1.4 0l-.2.2s-.7.7 0 1.4l.2.2c.1 0 .8.7 1.5 0zM20.7 46.5l-.2.2s-.7.7 0 1.4l.2.2s.7.7 1.4 0l.2-.2s.7-.7 0-1.4l-.2-.2c0-.1-.7-.7-1.4 0zM52.5 31.9l.3-.1s1-.2.8-1.1l-.1-.3s-.2-.9-1.2-.8l-.3.1s-1 .2-.8 1.1l.1.3c0 .1.2 1 1.2.8zM16.3 36.8H16s-1 .2-.8 1.1l.1.3s.2.9 1.2.8l.3-.1s1-.2.8-1.1l-.1-.3c0 .1-.2-.9-1.2-.7zM48.9 45.4l.2.1s.8.6 1.4-.2l.2-.3s.5-.8-.3-1.3l-.2-.1s-.8-.5-1.4.3l-.2.3c0-.1-.5.7.3 1.2zM19.9 23.3l-.2-.1s-.8-.6-1.4.3l-.2.3s-.5.8.3 1.4l.2.1s.8.6 1.4-.3l.2-.3s.5-.8-.3-1.4zM42.4 18l.1-.2s.4-.9-.5-1.3l-.3-.1s-.9-.4-1.3.5l-.1.2s-.4.9.5 1.3l.3.1c0 .1.9.4 1.3-.5zM26.4 50.8l-.1.2s-.4.9.5 1.3l.3.1s.9.4 1.3-.6l.1-.2s.4-.9-.5-1.3l-.3-.1c-.1 0-.9-.3-1.3.6zM40.3 51.6l.1.2s.4.9 1.3.5l.3-.1s.9-.4.5-1.3l-.1-.2s-.4-.9-1.3-.6l-.3.1c0 .2-.9.5-.5 1.4zM28.5 17.1l-.1-.2s-.4-.9-1.3-.5l-.3.1s-.9.4-.5 1.3l.1.2s.4.9 1.3.6l.3-.1c0-.1.9-.4.5-1.4zM50.1 25.2l.2-.1s.8-.6.3-1.4l-.2-.3s-.5-.8-1.4-.2l-.2.1s-.8.6-.3 1.3l.2.3c.1.1.6.9 1.4.3zM18.6 43.6l-.2.1s-.8.5-.3 1.3l.2.3s.5.8 1.4.2l.2-.1s.8-.5.3-1.3l-.2-.3s-.5-.8-1.4-.2zM52.6 35.5h.3s1 0 1-1v-.3s0-1-1-1h-.3s-1 0-1 1v.3c0 .1 0 1 1 1zM16.2 33.3h-.3s-1 0-1 1v.3s0 1 1 1h.3s1 0 1-1v-.3c0-.1 0-1-1-1z"/></g><g><path d="M53.2 8.3l.6-.9s.6-1-.3-1.6c0 0-.9-.6-1.6.3l-.6.9s-.6 1 .3 1.6c0 0 1 .6 1.6-.3zM15.6 60.5l-.6.9s-.6 1 .3 1.6c0 0 .9.6 1.6-.3l.6-.9s.6-1-.3-1.6c0 0-1-.7-1.6.3zM64.5 23.1l1-.4s1.1-.4.6-1.5c0 0-.4-1-1.5-.6l-1 .4s-1.1.4-.6 1.5c0 0 .5 1.1 1.5.6zM4.2 45.6l-1 .4s-1.1.4-.6 1.5c0 0 .4 1 1.5.6l1-.4s1.1-.4.6-1.5c0 0-.4-1-1.5-.6zM65.7 41.8l1.1.2s1.1.2 1.4-.9c0 0 .2-1.1-.9-1.3l-1.1-.2s-1.1-.2-1.4.9c0-.1-.2 1 .9 1.3zM3.1 27l-1-.2s-1.1-.2-1.4.9c0 0-.2 1.1.9 1.3l1 .2s1.1.2 1.4-.9c0 0 .2-1.1-.9-1.3z"/><g><path d="M12.4 10.9l-.8-.8s-.8-.8-1.6 0c0 0-.8.8 0 1.6l.8.8s.8.8 1.6 0c.1 0 .9-.8 0-1.6zM56.3 57.9l.8.8s.8.8 1.6 0c0 0 .8-.8 0-1.6l-.8-.8s-.8-.8-1.6 0c0 0-.8.8 0 1.6z"/></g><g><path d="M35.5 2.2V1.1s0-1.2-1.1-1.2c0 0-1.1 0-1.1 1.2v1.1s0 1.2 1.1 1.2c0 0 1.1 0 1.1-1.2zM33.3 66.5v1.1s0 1.2 1.1 1.2c0 0 1.1 0 1.1-1.2v-1.1s0-1.2-1.1-1.2c0 .1-1.1.1-1.1 1.2z"/></g><g><path d="M29.2 2.6l-.2-1S28.8.5 27.7.7c0 0-1.1.2-.9 1.4l.2 1s.2 1.1 1.3.9c0 0 1.1-.2.9-1.4zM39.5 66.1l.2 1.1s.2 1.1 1.3.9c0 0 1.1-.2.9-1.4l-.2-1.1s-.2-1.1-1.3-.9c0 .1-1.1.3-.9 1.4zM63.7 47.7l1 .4s1.1.4 1.5-.6c0 0 .4-1-.6-1.5l-1-.4s-1.1-.4-1.5.6c-.1.1-.5 1.1.6 1.5zM5.1 21l-1-.4s-1.1-.4-1.5.6c0 0-.4 1 .6 1.5l1 .4s1.1.4 1.5-.6c0 0 .5-1-.6-1.5zM41.8 3.1L42 2s.2-1.1-.9-1.4c0 0-1.1-.2-1.3.9l-.2 1.1s-.2 1.1.9 1.4c-.1 0 1 .2 1.3-.9zM27 65.7l-.2 1.1s-.2 1.1.9 1.4c0 0 1.1.2 1.3-.9l.2-1.1s.2-1.1-.9-1.4c0 0-1.1-.2-1.3.9z"/><g><path d="M51.3 61.8l.6.9s.6 1 1.6.3c0 0 .9-.6.3-1.6l-.6-.9s-.6-1-1.6-.3c0 0-.9.6-.3 1.6zM17.5 7l-.6-.9s-.6-1-1.6-.3c0 0-.9.6-.3 1.6l.6.9s.6 1 1.6.3c0 0 .9-.6.3-1.6z"/></g><g><path d="M57.9 12.4l.8-.8s.8-.8 0-1.6c0 0-.8-.8-1.6 0l-.8.8s-.8.8 0 1.6c0 .1.8.9 1.6 0zM10.8 56.3l-.8.8s-.8.8 0 1.6c0 0 .8.8 1.6 0l.8-.8s.8-.8 0-1.6c.1 0-.7-.8-1.6 0z"/></g><g><path d="M66.2 29.2l1-.2s1.1-.2.9-1.3c0 0-.2-1.1-1.4-.9l-1 .2s-1.1.2-.9 1.3c0 0 .2 1.1 1.4.9zM2.6 39.5l-1 .2S.5 39.9.7 41c0 0 .2 1.1 1.4.9l1-.2s1.1-.2.9-1.3c0 0-.2-1.1-1.4-.9z"/></g></g><g><path d="M60.5 53.2l.9.6s1 .6 1.6-.3c0 0 .6-.9-.3-1.6l-.9-.6s-1-.6-1.6.3c0 0-.7 1 .3 1.6zM8.3 15.6l-.9-.6s-1-.6-1.6.3c0 0-.6.9.3 1.6l.9.6s1 .6 1.6-.3c0 0 .6-1-.3-1.6zM47.7 5.1l.4-1s.4-1.1-.6-1.5c0 0-1-.4-1.5.6l-.4 1s-.4 1.1.6 1.5c.1 0 1.1.5 1.5-.6zM21 63.7l-.4 1s-.4 1.1.6 1.5c0 0 1 .4 1.5-.6l.4-1s.4-1.1-.6-1.5c0-.1-1-.5-1.5.6zM45.6 64.5l.4 1s.4 1.1 1.5.6c0 0 1-.4.6-1.5l-.4-1s-.4-1.1-1.5-.6c0 0-1 .5-.6 1.5zM23.1 4.2l-.4-1s-.4-1.1-1.5-.6c0 0-1 .4-.6 1.5l.4 1s.4 1.1 1.5.6c0 0 1.1-.4.6-1.5z"/><g><path d="M61.8 17.5l.9-.6s1-.6.3-1.6c0 0-.6-.9-1.6-.3l-.9.6s-1 .6-.3 1.6c0 0 .6.9 1.6.3zM7 51.3l-.9.6s-1 .6-.3 1.6c0 0 .6.9 1.6.3l.9-.6s1-.6.3-1.6c0 0-.6-.9-1.6-.3z"/></g><g><path d="M66.5 35.5h1.1s1.2 0 1.2-1.1c0 0 0-1.1-1.2-1.1h-1.1s-1.2 0-1.2 1.1c.1 0 .1 1.1 1.2 1.1zM2.2 33.3h-1S0 33.3 0 34.4c0 0 0 1.1 1.2 1.1h1.1s1.2 0 1.2-1.1c-.1 0-.1-1.1-1.3-1.1z"/></g></g><g><path d="M51.6 10.7l.1-.2s.6-.8-.2-1.4l-.3-.2s-.8-.5-1.3.3l-.1.2s-.5.8.3 1.4l.3.2c-.1-.1.7.5 1.2-.3zM17.2 58.1l-.2.2s-.5.8.3 1.4l.3.2s.8.5 1.3-.3l.2-.2s.5-.8-.3-1.4l-.3-.2s-.8-.5-1.3.3zM61.9 24.2l.3-.1s.9-.4.5-1.3l-.1-.3s-.4-.9-1.3-.5l-.3.1s-.9.4-.6 1.3l.1.3c.1 0 .5.9 1.4.5zM6.9 44.6l-.2.1s-.9.4-.5 1.3l.1.3s.4.9 1.3.5l.3-.1s.9-.4.5-1.3l-.1-.3c-.1 0-.5-.9-1.4-.5zM62.9 41.2l.3.1s1 .2 1.2-.8l.1-.3s.2-.9-.8-1.1l-.4-.1s-1-.2-1.2.7l-.1.3c.1.1-.1 1 .9 1.2zM5.9 27.6h-.3s-1-.2-1.2.8l-.1.3s-.2.9.8 1.1h.3s1 .2 1.2-.7l.1-.3c0-.1.1-1-.8-1.2zM14.5 12.9l-.2-.2s-.7-.7-1.4 0l-.2.2s-.7.7 0 1.4l.2.2s.7.7 1.4 0l.2-.2s.7-.7 0-1.4zM54.3 55.9l.2.2s.7.7 1.4 0l.2-.2s.7-.7 0-1.4l-.2-.2s-.7-.7-1.4 0l-.2.2s-.7.7 0 1.4zM35.5 5.1v-.3s0-1-1-1h-.3s-1 0-1 1v.3s0 1 1 1h.3c.1 0 1 0 1-1zM33.3 63.7v.3s0 1 1 1h.3s1 0 1-1v-.3s0-1-1-1h-.3c-.1 0-1 0-1 1zM29.8 5.4l-.1-.3s-.2-1-1.1-.8l-.3.1s-.9.2-.8 1.2l.1.3s.2 1 1.1.8l.3-.1s1-.2.8-1.2zM39 63.3l.1.3s.2 1 1.1.8l.3-.1s.9-.2.8-1.2l-.1-.3s-.2-1-1.1-.8l-.3.1c-.1.1-1 .3-.8 1.2zM61 46.6l.2.1s.9.4 1.3-.5l.1-.3s.4-.9-.5-1.3l-.3-.1s-.9-.4-1.3.5l-.1.3c.1.1-.3 1 .6 1.3zM7.8 22.1l-.3-.1s-.9-.4-1.3.5l-.1.3s-.4.9.5 1.3l.2.1s.9.4 1.3-.5l.1-.3c.1 0 .5-.9-.4-1.3zM41.2 5.9l.1-.3s.2-1-.8-1.2l-.3-.1s-.9-.2-1.1.8l-.1.3s-.2 1 .7 1.2l.3.1c.1 0 1 .1 1.2-.8zM27.6 62.9l-.1.3s-.2 1 .8 1.2l.3.1s.9.2 1.1-.8l.1-.3s.2-1-.7-1.2l-.3-.1c-.1 0-1-.2-1.2.8zM49.7 59.4l.1.2s.5.8 1.3.3l.3-.2s.8-.5.2-1.4l-.1-.2s-.5-.8-1.4-.3l-.1.2s-.8.6-.3 1.4zM19.1 9.4l-.2-.2s-.5-.8-1.3-.3l-.3.2s-.8.5-.3 1.4l.2.2s.5.8 1.4.3l.3-.2c-.1 0 .7-.6.2-1.4zM55.9 14.5l.2-.2s.7-.7 0-1.4l-.2-.2s-.7-.7-1.4 0l-.2.2s-.7.7 0 1.4l.2.2s.7.7 1.4 0zM12.9 54.3l-.2.2s-.7.7 0 1.4l.2.2s.7.7 1.4 0l.2-.2s.7-.7 0-1.4l-.2-.2s-.7-.7-1.4 0zM63.3 29.8h.3s1-.2.8-1.1l-.1-.3s-.2-.9-1.2-.8h-.3s-1 .2-.8 1.1l.1.3c.1 0 .3 1 1.2.8zM5.4 39h-.2s-1 .2-.8 1.1l.1.3s.2.9 1.2.8l.3-.1s1-.2.8-1.1l-.1-.3c-.1 0-.3-.9-1.3-.7zM58.1 51.6l.2.1s.8.5 1.4-.3l.2-.3s.5-.8-.3-1.4l-.2-.1s-.8-.6-1.4.3l-.2.3c0 .1-.5.9.3 1.4zM10.7 17.2l-.3-.2s-.8-.6-1.4.3l-.2.3s-.5.8.3 1.4l.2.1s.8.6 1.4-.2l.2-.3c0-.1.6-.9-.2-1.4zM46.6 7.8l.1-.2s.4-.9-.5-1.3l-.3-.1s-.9-.4-1.3.5l-.1.2s-.4.9.5 1.3l.3.1c.1 0 1 .4 1.3-.5zM22.1 61l-.1.3s-.4.9.5 1.3l.3.1s.9.4 1.3-.5l.1-.2s.4-.9-.5-1.3l-.3-.1c0-.1-.9-.5-1.3.4zM44.6 61.9l.1.2s.4.9 1.3.5l.3-.1s.9-.4.5-1.3l-.2-.2s-.4-.9-1.3-.5l-.3.1c.1 0-.8.4-.4 1.3zM24.2 6.9l-.1-.2s-.4-.9-1.3-.5l-.3.1s-.9.4-.5 1.3l.1.2s.4.9 1.3.5l.3-.1s.9-.4.5-1.3zM59.4 19.1l.2-.1s.8-.6.3-1.4l-.2-.3s-.5-.8-1.4-.3l-.2.1s-.8.5-.3 1.3l.2.3c0 .1.6.9 1.4.4zM9.4 49.7l-.2.1s-.8.6-.3 1.4l.2.3s.5.8 1.4.3l.2-.1s.8-.6.3-1.4l-.2-.3s-.6-.8-1.4-.3zM63.7 35.5h.3s1 0 1-1v-.3s0-1-1-1h-.3s-1 0-1 1v.3c0 .1 0 1 1 1zM5.1 33.3h-.3s-1 0-1 1v.3s0 1 1 1h.3s1 0 1-1v-.3c0-.1 0-1-1-1z"/></g></g></g><g fill="#00274D"><path d="M78.6 23.8c0-11.7 3.2-16.9 16.5-16.9 11.6 0 17.6 4.6 17.6 13.4 0 6-2.1 9.4-5.8 11.7v.2c4.9 2 7.9 6 7.9 13.7 0 10.2-6 15.9-16.9 15.9H86.1c-4.7 0-7.6-3.5-7.6-7.2V23.8zm16.1 5.9c4.5 0 6.3-2.1 6.3-6.5 0-4.1-1.9-5.9-5.9-5.9-3.6 0-4.9 1.6-4.9 4.9v6.3c0 .7.5 1.2 1.2 1.2h3.3zm1.4 21.5c4.6 0 6.5-2.2 6.5-6.5 0-4.7-2.6-6.4-6.6-6.4h-4.6c-.6 0-1.2.5-1.2 1.2v10.7c0 .7.7 1.1 1.2 1.1h4.7zM148.4 21.7c1 0 1.5.5 1.5 1.5v21.9c0 12.8-4 17.3-15.9 17.3s-16.1-4.5-16.1-17.3V23.3c0-1 .5-1.5 1.5-1.5h7.9c1 0 1.5.5 1.5 1.5v23.4c0 4.4 1.4 5.7 5.1 5.7 3.6 0 4.8-1.3 4.8-5.7V23.3c0-1 .5-1.5 1.5-1.5h8.2zM160.8 43.5c-4.4-2-7.5-4.5-7.5-11.4 0-8.4 4.9-11.2 14.7-11.2 4.6 0 9.1.5 10.9 1.2.8.3 1.3 1.2 1.1 2.4l-.8 4.6c-.2 1.1-.4 1.6-1.5 1.6-1.5 0-5.3-.7-8.7-.7-3 0-4.7.6-4.7 2.6 0 2.2 2.4 2.8 5.6 4.3l3.7 1.7c4.9 2.2 7.5 4.5 7.5 11.3 0 8.4-4.6 12.5-15.9 12.5-2.9 0-8-.5-9.7-1-1.2-.3-1.8-1.2-1.6-2.5l.7-5.6c.1-.7.5-1.1 1.2-1.1 1.2 0 4.2.7 8.8.7 4.6 0 5.8-1.1 5.8-2.9 0-2-1.3-2.6-4.3-4.1l-5.3-2.4zM200.2 35.8c0-8.6 2.2-14.8 16.2-14.8 13.9 0 16.1 6.3 16.1 14.8v24.7c0 .6-.4 1.2-1.3 1.2h-8.3c-1.1 0-1.3-.6-1.3-1.2V36.7c0-4.7-1.5-5.6-5.1-5.6-3.5 0-5.3.9-5.3 5.6v23.8c0 .8-.5 1.2-1.2 1.2h-8.5c-.8 0-1.2-.5-1.2-1.2V35.8zM266.4 56.9c.4 1.5-.2 2.9-1.5 3.6-1.9 1.1-6.3 1.8-11.4 1.8-11.9 0-17.4-5.3-17.4-20.7C236 26 242 21 252.9 21c10.2 0 15.2 5.8 15.2 16.2v3.4c0 4.3-1.9 6-6 6h-14.4c-.5 0-.6.2-.6.5v.2c0 3.4 1.7 5.3 7.3 5.3 4.9 0 8-1.2 9.4-1.2.8 0 1.5.5 1.7 1.5l.9 4zm-9-18.5c.6 0 .8-.3.8-.8 0-5.2-1.9-7-5.2-7-3.8 0-6 1.8-6 7 0 .5.2.8.8.8h9.6zM278.4 43.5c-4.4-2-7.5-4.5-7.5-11.4 0-8.4 4.9-11.2 14.7-11.2 4.6 0 9 .5 10.9 1.2.8.3 1.3 1.2 1.1 2.4l-.8 4.6c-.2 1.1-.4 1.6-1.5 1.6-1.5 0-5.3-.7-8.7-.7-3 0-4.7.6-4.7 2.6 0 2.2 2.4 2.8 5.6 4.3l3.7 1.7c4.9 2.2 7.5 4.5 7.5 11.3 0 8.4-4.6 12.5-15.9 12.5-2.9 0-8-.5-9.7-1-1.2-.3-1.8-1.2-1.6-2.5l.7-5.6c.1-.7.5-1.1 1.2-1.1 1.2 0 4.2.7 8.8.7 4.6 0 5.8-1.1 5.8-2.9 0-2-1.3-2.6-4.3-4.1l-5.3-2.4zM307.7 43.5c-4.4-2-7.5-4.5-7.5-11.4 0-8.4 4.9-11.2 14.7-11.2 4.6 0 9.1.5 10.9 1.2.8.3 1.3 1.2 1.1 2.4l-.8 4.6c-.2 1.1-.4 1.6-1.5 1.6-1.5 0-5.3-.7-8.7-.7-3 0-4.7.6-4.7 2.6 0 2.2 2.4 2.8 5.6 4.3l3.7 1.7c4.9 2.2 7.5 4.5 7.5 11.3 0 8.4-4.6 12.5-15.9 12.5-2.9 0-8-.5-9.7-1-1.2-.3-1.8-1.2-1.6-2.5l.7-5.6c.1-.7.5-1.1 1.2-1.1 1.2 0 4.2.7 8.8.7 4.6 0 5.8-1.1 5.8-2.9 0-2-1.3-2.6-4.3-4.1l-5.3-2.4zM190.1 21c-.1 0-5.7 0-5.7 5.8v33.6c0 1 .5 1.4 1.3 1.4h8.5c1.1 0 1.6-.4 1.6-1.4V26.8c-.1 0-.1-5.8-5.7-5.8zM190.9 6.3h-1.7s-4.8 0-4.8 4.9v1.3s0 5 4.8 5h1.7s4.8 0 4.8-5v-1.3c0 .1 0-4.9-4.8-4.9z"/></g><g fill="#00274D"><path d="M486 71.5c.1 0 .1.1.1.1v3.7c0 .5-.1.8-.4 1.2l-2.2 2.7c-.2.2-.2.4-.2.7v4.8c0 .1-.1.1-.1.1h-.7c-.1 0-.1-.1-.1-.1v-4.8c0-.3-.1-.5-.3-.7l-2.4-2.7c-.3-.4-.4-.7-.4-1.2v-3.7c0-.1.1-.1.1-.1h.7c.1 0 .1.1.1.1v3.6c0 .3 0 .4.2.6l2.1 2.5c.1.1.2.1.3 0l2-2.5c.1-.2.2-.4.2-.6v-3.6c0-.1.1-.1.1-.1h.9zM496.7 80c0 3.7-.7 5-3.3 5-2.6 0-3.3-1.2-3.3-5 0-3.7.7-4.9 3.3-4.9 2.6 0 3.3 1.1 3.3 4.9zm-5.6 0c0 3.3.5 4.1 2.3 4.1 1.8 0 2.3-.8 2.3-4.1s-.5-4-2.3-4c-1.8-.1-2.3.7-2.3 4zM507.1 75.2c.1 0 .2.1.2.2v6.1c0 2.7-.7 3.5-3.1 3.5-2.4 0-3.1-.8-3.1-3.5v-6.1c0-.1.1-.2.2-.2h.6c.1 0 .2.1.2.2v6.2c0 2.1.6 2.5 2.1 2.5 1.6 0 2.1-.4 2.1-2.5v-6.2c0-.1.1-.2.2-.2h.6zM512.1 77.3c0-1.7.6-2.2 2.2-2.2.7 0 1.2.1 1.5.2.3.1.3.1.3.4v.3c0 .1-.1.2-.2.2s-.8-.1-1.4-.1c-1 0-1.4.2-1.4 1.3v7.3c0 .1-.1.1-.1.1h-.7c-.1 0-.1-.1-.1-.1v-7.4zM526 83.9c0-.1 0-.1.1-.1.2 0 .9.2 2.5.2 2.3 0 2.8-.8 2.8-2.5 0-1.6-.7-2.1-2.7-3.1-2.1-1.1-3-1.7-3-3.8 0-2.3.9-3.2 3.6-3.2 1.1 0 2.1.1 2.5.2.2 0 .2.1.2.3v.6c0 .1 0 .1-.1.1-.2 0-1.1-.2-2.5-.2-2 0-2.6.6-2.6 2.3 0 1.6.7 1.8 2.7 3 2.2 1.2 2.9 1.8 2.9 3.9 0 2.3-.9 3.4-3.7 3.4-1 0-2.2-.1-2.6-.2-.2-.1-.3-.1-.2-.4l.1-.5zM543.1 75.2c.1 0 .2.1.2.2v6.1c0 2.7-.7 3.5-3.1 3.5-2.4 0-3.1-.8-3.1-3.5v-6.1c0-.1.1-.2.2-.2h.6c.1 0 .2.1.2.2v6.2c0 2.1.6 2.5 2.1 2.5 1.6 0 2.1-.4 2.1-2.5v-6.2c0-.1.1-.2.2-.2h.6zM553.1 84.4c0 .2 0 .3-.2.3-.3.1-1 .2-1.7.2-2.6 0-3.3-1.4-3.3-5s.7-4.9 3.2-4.9c.8 0 1.5.1 1.8.2.2.1.3.1.2.3v.4c0 .1 0 .1-.1.1-.2 0-1-.2-1.7-.2-1.9 0-2.4 1-2.4 4s.5 4.1 2.5 4.1c.7 0 1.5-.1 1.6-.1.1 0 .1.1.1.1v.5zM562.7 84.4c0 .2 0 .3-.2.3-.3.1-1 .2-1.7.2-2.6 0-3.3-1.4-3.3-5s.7-4.9 3.2-4.9c.8 0 1.5.1 1.8.2.2.1.3.1.2.3v.4c0 .1 0 .1-.1.1-.2 0-1-.2-1.7-.2-1.9 0-2.4 1-2.4 4s.5 4.1 2.5 4.1c.7 0 1.5-.1 1.6-.1.1 0 .1.1.1.1v.5zM572.6 84.2c0 .2-.1.3-.2.4-.3.1-1.2.4-2.2.4-2.6 0-3.5-.9-3.5-4.9 0-4.1 1-4.9 3.3-4.9 2.1 0 3 1 3 4.4v.3c0 .4-.2.5-.5.5h-4.7c-.1 0-.1 0-.1.1v.2c0 3 .8 3.5 2.7 3.5 1.1 0 2-.3 2.2-.3.1 0 .2.1.2.2l-.2.1zm-.7-4.7s.1 0 0 0c.1-3.2-.7-3.6-2-3.6-1.6 0-2.3.5-2.3 3.5 0 .1 0 .1.1.1h4.2zM578.5 79.8c-1.1-.5-1.8-1-1.8-2.6s1.1-2.2 2.9-2.2c1.1 0 1.9.1 2.2.2.2 0 .2.1.2.3v.4c0 .1 0 .2-.2.2s-1.2-.1-2.1-.1c-1.2 0-2.1.2-2.1 1.4 0 1 .4 1.3 1.5 1.9l1.2.6c1.4.7 2 1.2 2 2.5 0 1.7-.8 2.8-3.1 2.8-1 0-1.8-.1-2.1-.2-.2 0-.2-.1-.2-.3v-.4c0-.1 0-.1.1-.1.2 0 1.1.1 2.1.1 1.7 0 2.2-.7 2.2-1.8 0-1-.4-1.2-1.6-1.9l-1.2-.8zM588 79.8c-1.1-.5-1.8-1-1.8-2.6s1-2.2 2.9-2.2c1.1 0 1.9.1 2.2.2.2 0 .2.1.2.3v.4c0 .1 0 .2-.2.2s-1.2-.1-2.1-.1c-1.2 0-2.1.2-2.1 1.4 0 1 .4 1.3 1.5 1.9l1.2.6c1.4.7 2 1.2 2 2.5 0 1.7-.8 2.8-3.1 2.8-1 0-1.8-.1-2.1-.2-.2 0-.2-.1-.2-.3v-.4c0-.1 0-.1.1-.1.2 0 1.1.1 2.1.1 1.7 0 2.2-.7 2.2-1.8 0-1-.4-1.2-1.6-1.9l-1.2-.8z"/><g><path d="M333.4 83.9c0-.1 0-.1.1-.1.2 0 .9.2 2.5.2 2.3 0 2.8-.8 2.8-2.5 0-1.6-.7-2.1-2.7-3.1-2.1-1.1-3-1.7-3-3.8 0-2.3.9-3.2 3.6-3.2 1.1 0 2.1.1 2.5.2.2 0 .2.1.2.3v.6c0 .1 0 .1-.1.1-.2 0-1.1-.2-2.5-.2-2 0-2.6.6-2.6 2.3 0 1.6.7 1.8 2.7 3 2.2 1.2 2.9 1.8 2.9 3.9 0 2.3-.9 3.4-3.7 3.4-1 0-2.2-.1-2.6-.2-.2-.1-.3-.1-.2-.4l.1-.5zM347.2 71.5c.1 0 .2.1.2.2v1.9c0 .1 0 .2-.2.2h-.7c-.1 0-.2-.1-.2-.2v-1.9c0-.1 0-.2.2-.2h.7zm0 3.7c.1 0 .2.1.2.2v9.3c0 .1-.1.2-.2.2h-.7c-.1 0-.1-.1-.1-.2v-9.3c0-.1.1-.2.2-.2h.6zM354.1 78.1c0-2.2.7-3 2.7-3 1.3 0 2.1.4 2.5 1.4 0 .1.1.1.1 0 .3-1 1.2-1.4 2.5-1.4 2.1 0 2.7.9 2.7 3v6.5c0 .1 0 .2-.2.2h-.6c-.1 0-.2 0-.2-.2V78c0-1.5-.5-2.1-1.9-2.1-1.3 0-1.9.7-1.9 2.4v6.3c0 .1 0 .2-.1.2h-.6c-.1 0-.2 0-.2-.1v-6.3c0-1.6-.5-2.4-1.9-2.4s-1.9.6-1.9 2.1v6.6c0 .1 0 .2-.2.2h-.6c-.1 0-.2 0-.2-.2v-6.6zM370.7 78.2c0-2 .9-3.2 3.2-3.2 2.3 0 3.2.9 3.2 4.8 0 4.1-1.1 5.1-3.3 5.1-1.5 0-2-.6-2.1-.6 0 0-.1 0-.1.1V88c0 .1-.1.2-.2.2h-.6c-.1 0-.2-.1-.2-.2v-9.8zm.9 4.4c0 1.1.9 1.5 2 1.5 1.7 0 2.5-.5 2.5-4.2 0-3.3-.6-3.9-2.3-3.9-1.7 0-2.2.8-2.2 2.4v4.2zM383.9 71.5c.1 0 .2.1.2.2v13c0 .1-.1.2-.2.2h-.6c-.1 0-.2-.1-.2-.2v-13c0-.1.1-.2.2-.2h.6zM391.7 71.5c.1 0 .2.1.2.2v1.9c0 .1 0 .2-.2.2h-.7c-.1 0-.2-.1-.2-.2v-1.9c0-.1 0-.2.2-.2h.7zm-.1 3.7c.1 0 .2.1.2.2v9.3c0 .1-.1.2-.2.2h-.6c-.1 0-.1-.1-.1-.2v-9.3c0-.1.1-.2.2-.2h.5zM398.8 74.3c0-2.2.6-2.8 2.3-2.8.7 0 1.1.1 1.3.2.2.1.2.1.2.3v.4c0 .1 0 .1-.1.1s-.7-.1-1.3-.1c-1.1 0-1.4.4-1.4 1.9v.9c0 .1.1.1.1.1h2.1c.1 0 .2.1.2.2v.5c0 .1 0 .2-.2.2h-2.1c-.1 0-.1 0-.1.1v8.5c0 .1-.1.1-.1.1h-.7c-.1 0-.2-.1-.2-.1v-8.5c0-.1-.1-.1-.1-.1h-1.2c-.1 0-.2-.1-.2-.2v-.5c0-.1.1-.2.2-.2h1.2c.1 0 .1 0 .1-.1v-.9zM413 75.2c.1 0 .1.1.1.1v9.5c0 2.2-.6 3.4-3.2 3.4-1.1 0-1.9-.1-2.2-.2-.2-.1-.2-.1-.2-.3v-.4c0-.1 0-.1.1-.1.2 0 1.2.2 2.2.2 2.1 0 2.3-1 2.3-2.5v-1.6h-.1c-.3.3-1.1.8-2.3.8-2.1 0-2.9-.8-2.9-3.3v-5.3c0-.1.1-.1.1-.1h.7c.1 0 .1.1.1.1v5.3c0 2.1.6 2.5 2.1 2.5 1.4 0 2.1-.7 2.1-1.5v-6.3c0-.1 0-.1.1-.1h1zM420.6 71.5c.1 0 .2.1.2.2v1.9c0 .1 0 .2-.2.2h-.7c-.1 0-.2-.1-.2-.2v-1.9c0-.1 0-.2.2-.2h.7zm0 3.7c.1 0 .2.1.2.2v9.3c0 .1-.1.2-.2.2h-.7c-.1 0-.1-.1-.1-.2v-9.3c0-.1.1-.2.2-.2h.6zM427.5 78.4c0-2.4.6-3.4 3.2-3.4s3.2.9 3.2 3.4v6.2c0 .1-.1.1-.1.1h-.7c-.1 0-.1-.1-.1-.1v-6.2c0-2.1-.6-2.5-2.3-2.5-1.7 0-2.3.4-2.3 2.5v6.2c0 .1-.1.1-.1.1h-.7c-.1 0-.1-.1-.1-.1v-6.2zM445.9 83.2c-.4.6-1 1.2-2.5 1.2-2 0-3.2-.9-3.2-4.7 0-3.5.9-4.6 3.2-4.6 1.2 0 2 .4 2.4 1 .1.1.1.2.2 0l.1-.7c0-.1.1-.2.3-.2h.2c.1 0 .2.1.2.2v9.3c0 2.2-.6 3.5-3.4 3.5-1.2 0-2-.2-2.3-.3-.1-.1-.2-.1-.2-.3v-.4c0-.1.1-.2.2-.2.2 0 1.3.2 2.2.2 2.2 0 2.5-1 2.5-2.7l.1-1.3zm0-5.5c0-.9-.7-1.8-2.3-1.8-1.7 0-2.4.8-2.4 3.7 0 3.1.9 3.9 2.3 3.9 1.1 0 1.5-.4 1.9-.8.2-.2.4-.8.4-1.9l.1-3.1z"/></g></g><g fill="#0076C0"><path d="M579.9 13.3c1.5 0 2 .8 2.2 2.1l.8 5c.2 1.3.8 1.5 2 1.5h6.4c1 0 1.5.5 1.5 1.5v6.5c0 1-.5 1.5-1.5 1.5h-7c-.5 0-.9.3-.9.9V48c0 2.1.7 4.2 4.9 4.2 2.5 0 3.2-.4 4.5-.4.6 0 1.1.5 1.2 1.4l.8 5.9c.2 1.2-.3 1.9-1.6 2.4-2.5.9-4.9 1.1-6.4 1.1-11.6 0-14.2-4.9-14.2-13.2V14.6c0-.7.5-1.3 1.3-1.3h6zM331.6 23.9C331.6 12.3 334.8 7 348 7c11.5 0 17.5 4.6 17.5 13.3 0 6-2.1 9.3-5.8 11.6v.2c4.9 2 7.9 5.9 7.9 13.6 0 10.2-6 15.9-16.9 15.9h-11.5c-4.7 0-7.5-3.5-7.5-7.2V23.9zm16.1 5.9c4.5 0 6.2-2.1 6.2-6.5 0-4.1-1.9-5.9-5.9-5.9-3.6 0-4.9 1.6-4.9 4.9v6.3c0 .7.5 1.2 1.2 1.2h3.4zm1.4 21.5c4.5 0 6.5-2.2 6.5-6.5 0-4.7-2.5-6.4-6.5-6.4h-4.6c-.6 0-1.2.5-1.2 1.2v10.6c0 .7.7 1.1 1.2 1.1h4.6zM380.3 7.8c1 0 1.5.5 1.5 1.5v50.8c0 1-.5 1.5-1.5 1.5h-7.8c-1 0-1.5-.5-1.5-1.5V9.4c0-1 .5-1.5 1.5-1.5h7.8zM416.7 21.9c1 0 1.5.5 1.5 1.5v21.8c0 12.8-4 17.2-15.8 17.2-11.9 0-16-4.5-16-17.2V23.5c0-1 .5-1.5 1.5-1.5h7.9c1 0 1.5.5 1.5 1.5v23.3c0 4.4 1.4 5.7 5.1 5.7 3.6 0 4.8-1.3 4.8-5.7V23.5c0-1 .5-1.5 1.5-1.5h8zM452.5 56.9c.4 1.5-.2 2.9-1.5 3.6-1.9 1.1-6.3 1.8-11.4 1.8-11.9 0-17.3-5.3-17.3-20.6 0-15.6 5.9-20.6 16.8-20.6 10.2 0 15.1 5.8 15.1 16.2v3.4c0 4.3-1.8 6-6 6h-14.3c-.5 0-.6.2-.6.5v.2c0 3.4 1.7 5.3 7.2 5.3 4.9 0 7.9-1.2 9.3-1.2.8 0 1.5.5 1.7 1.5l1 3.9zm-9-18.4c.6 0 .8-.3.8-.8 0-5.2-1.8-7-5.2-7-3.8 0-6 1.8-6 7 0 .5.2.8.8.8h9.6zM494.9 33.8c0-9.7 3.5-12.6 11-12.6 4.2 0 7 .5 8.9 1.1 1.9.6 2.5 1.4 1.9 3.6l-.7 4c-.2 1-.7 1.6-1.5 1.6-1.3 0-3.2-.4-5.2-.4-2.8 0-3.4 1.1-3.4 4.1v25.3c0 .6-.5 1.2-1.3 1.2h-8.3c-.8 0-1.3-.6-1.3-1.2V33.8zM535.7 35.9c0-8.5 2.2-14.8 16.2-14.8 13.9 0 16 6.2 16 14.8v24.6c0 .6-.4 1.2-1.3 1.2h-8.3c-1.1 0-1.3-.6-1.3-1.2V36.8c0-4.7-1.5-5.6-5.1-5.6-3.5 0-5.2.9-5.2 5.6v23.7c0 .8-.5 1.2-1.2 1.2H537c-.8 0-1.2-.5-1.2-1.2V35.9zM531 26.5s0-5.7-5.5-5.7h-.1s-5.5 0-5.5 5.7v33.7c0 1.1.5 1.5 1.3 1.5h8.3c1.1 0 1.5-.5 1.5-1.5V26.5zM526.2 6.4h-1.7s-4.7 0-4.7 4.9v1.3s0 4.9 4.7 4.9h1.7s4.7 0 4.7-4.9v-1.3c.1-.1.1-4.9-4.7-4.9z"/><g><path d="M474.4 21.1c-11.5.1-16.6 5.9-16.6 16V66.2s0 5.6 5.4 5.6h.1s5.4 0 5.4-5.6V62c0-.4.2-.6.6-.6.4 0 2.9 1.1 6.8 1.1 9.7 0 15-7.4 15-20.8 0-14.1-4.3-20.6-16.7-20.6zm-1.1 31.4c-3.7 0-4.6-.7-4.6-3.6v-9.8c0-5.9 1.3-8 5.6-8s5.6 1.7 5.6 10.5c0 8.6-1.6 10.9-6.6 10.9zM464.1 74.1h-1.7s-4.6 0-4.6 4.8v1.3s0 4.8 4.6 4.8h1.7s4.6 0 4.6-4.8v-1.3s0-4.8-4.6-4.8z"/></g></g></svg>