<?xml version="1.0" encoding="utf-8"?>
<!-- Generator: Adobe Illustrator 23.0.1, SVG Export Plug-In . SVG Version: 6.00 Build 0)  -->
<svg version="1.1" id="Layer_1" xmlns="http://www.w3.org/2000/svg" xmlns:xlink="http://www.w3.org/1999/xlink" x="0px" y="0px"
	 viewBox="0 0 344.7 72.8" style="enable-background:new 0 0 344.7 72.8;" xml:space="preserve">
<style type="text/css">
	.st0{fill:#FFFFFF;}
	.st1{fill:#AE237A;}
</style>
<g>
	<g>
		<path class="st0" d="M344.5,24.1c0.1-0.2,0.2-0.7,0.2-1.3c0-1.9-1.5-3.4-3.4-3.4c-1.1,0-2.5,0.4-3.2,2.2L328,46.4l-10.2-24.8
			c-0.7-1.8-2.1-2.2-3.2-2.2c-1.9,0-3.4,1.5-3.4,3.4c0,0.6,0.2,1,0.2,1.3l13,30.8c-3.1,7.7-4.7,11.6-10.8,11.6
			c-1.8,0-3.3,1.4-3.3,3.3c0,1.8,1.4,3.3,3.3,3.3c7.4,0,11.9-3.5,15.5-12.1L344.5,24.1L344.5,24.1z"/>
		<circle class="st0" cx="280.2" cy="10.5" r="4.1"/>
		<path class="st0" d="M141.1,50.6H125l18.4-25.1c1-1.3,0.8-3-0.1-4.2c-0.1-0.2-0.3-0.4-0.5-0.5c0,0-0.1-0.1-0.1-0.1
			c-0.1,0-0.1-0.1-0.2-0.1c-0.3-0.2-0.5-0.3-0.8-0.4c-0.2-0.1-0.3-0.1-0.5-0.1c-0.1,0-0.3-0.1-0.4-0.1h-21.4c-1.8,0-3.3,1.4-3.3,3.3
			s1.4,3.3,3.3,3.3h14.8l-18.5,25.3c-0.4,0.5-0.6,1.1-0.6,1.7c0,0.2-0.1,0.3-0.1,0.5c0,0.1,0,0.1,0,0.2c0,0.1,0,0.2,0.1,0.3
			c0.2,1.3,1.2,2.3,2.5,2.6c0.1,0,0.2,0,0.3,0.1c0.2,0,0.3,0.1,0.5,0.1h22.9c1.8,0,3.3-1.5,3.3-3.3
			C144.4,52.1,142.9,50.6,141.1,50.6z"/>
		<path class="st0" d="M177.4,19.4c-1.1,0-2.5,0.4-3.2,2.2l-10.2,24.8l-10.2-24.8c-0.7-1.8-2.1-2.2-3.2-2.2c-1.9,0-3.4,1.5-3.4,3.4
			c0,0.6,0.2,1,0.2,1.3l13.3,31.7l0,0c0.6,1.3,1.8,2.1,3.2,2.1c1.4,0,2.6-0.8,3.2-2.1l13.3-31.6l0-0.1c0.1-0.2,0.2-0.7,0.2-1.3
			C180.8,20.9,179.3,19.4,177.4,19.4z"/>
		<path class="st0" d="M199.2,18.9c-10.8,0-17,7.2-17,19.7c0,16.3,9.7,19.7,17.8,19.7c7.8,0,12.1-3.9,12.8-4.6
			c0.5-0.5,1.1-1.2,1.1-2.5c0-1.8-1.4-3.2-3.2-3.2c-0.9,0-1.4,0.3-2,0.7c-2.1,1.6-4.6,3.2-8.8,3.2c-6.4,0-10.5-4.1-10.8-10.9H211
			c4.1,0,4.1-3.7,4.1-5.9c0-1.8-0.3-6.3-2.9-10.1C209.4,20.9,205.1,18.9,199.2,18.9z M189.3,34.8c0.7-6.1,4.2-9.5,10-9.5
			c5.8,0,8.8,3.1,9.1,9.5H189.3z"/>
		<path class="st0" d="M237.7,19.1c-4.1,0-7.6,1.5-9.9,4v-0.3c0-1.9-1.5-3.4-3.4-3.4c-1.9,0-3.4,1.5-3.4,3.4v31.7
			c0,1.9,1.5,3.4,3.4,3.4c1.9,0,3.4-1.5,3.4-3.4V37c0-7.2,3.6-11.3,9.9-11.3c1.8,0,3.3-1.5,3.3-3.3S239.6,19.1,237.7,19.1z"/>
		<path class="st0" d="M258.7,35.1c-4.3-1.5-8-2.8-8-5.8c0-3.1,3.3-3.8,6-3.8c3.9,0,6,1.2,7.9,3c0.6,0.6,1.4,1,2.3,1
			c1.8,0,3.2-1.4,3.2-3.2c0-0.9-0.4-1.6-0.7-2c-2.6-3.5-7.1-5.4-12.6-5.4c-7.9,0-12.9,4-12.9,10.4c0,7.8,7,10.2,12.7,12.1
			c4.2,1.4,7.9,2.7,7.9,5.6c0,4-4.6,4.6-7.4,4.6c-3.9,0-6.8-1.1-9.3-3.6c-0.9-0.9-1.8-1.1-2.4-1.1c-1.8,0-3.2,1.4-3.2,3.2
			c0,0.8,0.3,1.4,0.7,2.1c2.3,3,7.6,6,14.1,6c8.8,0,14.2-4.3,14.2-11.2C271.2,39.4,264.3,37.1,258.7,35.1z"/>
		<path class="st0" d="M280.2,19.4c-1.9,0-3.4,1.5-3.4,3.4v31.7c0,1.9,1.5,3.4,3.4,3.4c1.9,0,3.4-1.5,3.4-3.4V22.8
			C283.6,20.9,282.1,19.4,280.2,19.4z"/>
		<path class="st0" d="M304.8,26.5c1.8,0,3.3-1.4,3.3-3.3s-1.4-3.3-3.3-3.3h-4.1v-7.3c0-1.9-1.5-3.4-3.4-3.4c-1.8,0-3.4,1.6-3.4,3.4
			V20h-2.1c-1.8,0-3.3,1.4-3.3,3.3s1.4,3.3,3.3,3.3h2.1v20.6c0,6.5,4.1,10.8,10.5,10.8c1.9,0,3.3-1.4,3.3-3.3c0-1.8-1.5-3.3-3.3-3.3
			c-2.3,0-3.6-1.5-3.6-4.2V26.5H304.8z"/>
		<circle class="st0" cx="106.8" cy="10.8" r="4"/>
		<path class="st0" d="M110.2,23v31.3c0,1.9-1.5,3.4-3.4,3.4c-1.9,0-3.4-1.5-3.4-3.4V23c0-1.9,1.5-3.4,3.4-3.4
			C108.7,19.6,110.2,21.1,110.2,23z"/>
		<path class="st0" d="M88.9,28.7c3.2-2.1,5.3-5.9,5.3-10.1c0-9.5-5.9-14.8-16.7-14.8H64.6c-2.1,0-3.9,1.7-3.9,3.9v45.9
			c0,2.1,1.7,3.9,3.9,3.9h15.2c10.4,0,16.8-6.1,16.8-15.8C96.6,35.5,93.8,31,88.9,28.7z M68.4,26V11h9c6,0,9,2.5,9,7.5
			c0,4.8-3.3,7.5-9,7.5H68.4z M88.8,41.5c0,5.6-3.1,8.6-9.1,8.6H68.4V33h11.2C85.5,33,88.8,36.1,88.8,41.5z"/>
	</g>
	<g>
		<g>
			<path class="st0" d="M29.5,57.2c3.8-3.8,3.8-10,0-13.9l-6.9-6.9L2.9,56.1C-1,59.9-1,66.2,2.9,70c3.8,3.8,10,3.8,13.9,0l13.1-13.1
				L29.5,57.2z"/>
		</g>
		<path class="st1" d="M2.9,2.9c-3.8,3.8-3.8,10,0,13.9l26.6,26.6c3.8,3.8,3.8,10,0,13.9l13.9-13.8c1.9-1.9,2.9-4.4,2.9-7
			c0-2.5-0.9-5-2.9-7L16.7,2.9C12.9-1,6.7-1,2.9,2.9z"/>
	</g>
</g>
</svg>
