<svg xmlns="http://www.w3.org/2000/svg" viewBox="0 0 280.57 19.11"><defs><style>.cls-1{fill:#0cb6da;}</style></defs><title>support email ad</title><g id="Layer_2" data-name="Layer 2"><g id="Layer_1-2" data-name="Layer 1"><path class="cls-1" d="M3.84,15.05A5.19,5.19,0,0,1,0,13.7l.91-.91a3.86,3.86,0,0,0,2.91,1.08c1.54,0,2.49-.55,2.49-1.66,0-.81-.48-1.27-1.56-1.36l-1.54-.14c-1.82-.15-2.79-1-2.79-2.5,0-1.71,1.44-2.74,3.44-2.74a5.25,5.25,0,0,1,3.36,1l-.89.89a4,4,0,0,0-2.49-.74c-1.37,0-2.09.59-2.09,1.54,0,.8.45,1.27,1.63,1.37l1.5.13c1.64.15,2.76.78,2.76,2.53S6.1,15.05,3.84,15.05Z"/><path class="cls-1" d="M16.22,14.93v-1a3.41,3.41,0,0,1-2.64,1.16,3.33,3.33,0,0,1-2.41-.88,3.5,3.5,0,0,1-.95-2.62v-6h1.37v5.76c0,1.65.87,2.49,2.28,2.49a2.21,2.21,0,0,0,2.34-2.49V5.58h1.36v9.35Z"/><path class="cls-1" d="M27.28,14.23a3.27,3.27,0,0,1-2.28.82,3,3,0,0,1-2.64-1.22v5.28H21V5.58h1.37V6.69A3,3,0,0,1,25,5.47a3.22,3.22,0,0,1,2.28.82,5.59,5.59,0,0,1,1.14,4A5.59,5.59,0,0,1,27.28,14.23ZM24.72,6.69c-2,0-2.36,1.74-2.36,3.57s.33,3.57,2.36,3.57,2.33-1.75,2.33-3.57S26.75,6.69,24.72,6.69Z"/><path class="cls-1" d="M37.64,14.23a3.29,3.29,0,0,1-2.28.82,3,3,0,0,1-2.64-1.22v5.28H31.35V5.58h1.37V6.69a3,3,0,0,1,2.64-1.22,3.24,3.24,0,0,1,2.28.82,5.59,5.59,0,0,1,1.14,4A5.59,5.59,0,0,1,37.64,14.23ZM35.07,6.69c-2,0-2.35,1.74-2.35,3.57s.32,3.57,2.35,3.57,2.34-1.75,2.34-3.57S37.11,6.69,35.07,6.69Z"/><path class="cls-1" d="M47.71,14a3.89,3.89,0,0,1-5.36,0,5,5,0,0,1-1.14-3.72,5,5,0,0,1,1.14-3.73,3.92,3.92,0,0,1,5.36,0,5,5,0,0,1,1.14,3.73A5,5,0,0,1,47.71,14Zm-1-6.61A2.39,2.39,0,0,0,45,6.69a2.31,2.31,0,0,0-1.69.68,4,4,0,0,0-.76,2.89,4.07,4.07,0,0,0,.76,2.89,2.35,2.35,0,0,0,1.69.68,2.44,2.44,0,0,0,1.71-.68,4.11,4.11,0,0,0,.74-2.89A4.08,4.08,0,0,0,46.74,7.37Z"/><path class="cls-1" d="M57,7.37a2,2,0,0,0-1.62-.68,2.28,2.28,0,0,0-2.24,2.5v5.74H51.77V5.58h1.37V6.72a3.17,3.17,0,0,1,2.62-1.25A2.91,2.91,0,0,1,58,6.34Z"/><path class="cls-1" d="M62.4,14.93A2.3,2.3,0,0,1,60,12.42V6.69H58.82V5.64H60V2.72h1.37V5.64h2V6.69h-2v5.7c0,.85.4,1.36,1.27,1.36h.72v1.18Z"/><path class="cls-1" d="M66.12,16.34V0h3.36V1.22h-2v13.9h2v1.22Z"/><path class="cls-1" d="M81.18,14.93v-1a2.94,2.94,0,0,1-2.54,1.17,3.2,3.2,0,0,1-2.58-1.15c-.65-.8-.84-1.77-.84-3.5A5.52,5.52,0,0,1,76,6.93a3.21,3.21,0,0,1,2.62-1.17A3.05,3.05,0,0,1,81.17,7V5.47a2.7,2.7,0,0,0-.75-2.16,2.75,2.75,0,0,0-2.1-.76H75.85A2.64,2.64,0,0,0,73,5.47v6.4a2.27,2.27,0,0,0,1.08,2.3l-.93.93c-1.16-.85-1.48-1.52-1.48-3.21V5.51a4.21,4.21,0,0,1,1.06-3.06,3.91,3.91,0,0,1,2.93-1.06h2.81a4,4,0,0,1,2.92,1.06A4.14,4.14,0,0,1,82.5,5.51V15Zm-2.31-8c-2,0-2.3,1.71-2.3,3.48s.3,3.48,2.3,3.48,2.3-1.71,2.3-3.48S80.86,6.93,78.87,6.93Z"/><path class="cls-1" d="M84.7,16.34V15.16h2v-14h-2V0h3.36V16.34Z"/><path class="cls-1" d="M97.81,14.23a3.27,3.27,0,0,1-2.28.82,3,3,0,0,1-2.64-1.24v1.12H91.52V1.41h1.37V6.67a3,3,0,0,1,2.64-1.2,3.22,3.22,0,0,1,2.28.82,5.59,5.59,0,0,1,1.14,4A5.59,5.59,0,0,1,97.81,14.23ZM95.24,6.69c-2,0-2.35,1.74-2.35,3.57s.32,3.57,2.35,3.57,2.34-1.75,2.34-3.57S97.28,6.69,95.24,6.69Z"/><path class="cls-1" d="M107.78,14.93v-1a3.41,3.41,0,0,1-2.64,1.16,3.33,3.33,0,0,1-2.41-.88,3.5,3.5,0,0,1-1-2.62v-6h1.37v5.76c0,1.65.87,2.49,2.28,2.49a2.21,2.21,0,0,0,2.34-2.49V5.58h1.36v9.35Z"/><path class="cls-1" d="M115.5,15.05a5.19,5.19,0,0,1-3.84-1.35l.91-.91a3.86,3.86,0,0,0,2.91,1.08c1.54,0,2.49-.55,2.49-1.66,0-.81-.48-1.27-1.56-1.36l-1.54-.14c-1.82-.15-2.79-1-2.79-2.5,0-1.71,1.44-2.74,3.44-2.74a5.25,5.25,0,0,1,3.36,1l-.89.89a4,4,0,0,0-2.49-.74c-1.37,0-2.09.59-2.09,1.54,0,.8.46,1.27,1.63,1.37l1.5.13c1.64.15,2.76.78,2.76,2.53S117.76,15.05,115.5,15.05Z"/><path class="cls-1" d="M121.9,2.93V1.39h1.54V2.93Zm.08,12V5.58h1.37v9.35Z"/><path class="cls-1" d="M132.77,14.93V9.18a2.17,2.17,0,0,0-2.3-2.49,2.2,2.2,0,0,0-2.32,2.49v5.75h-1.36V5.58h1.36v1a3.38,3.38,0,0,1,2.62-1.14,3.28,3.28,0,0,1,2.4.87,3.49,3.49,0,0,1,1,2.61v6Z"/><path class="cls-1" d="M138.32,10.62c0,2.05,1,3.23,2.75,3.23a3.07,3.07,0,0,0,2.45-1.06l.93.81A4.28,4.28,0,0,1,141,15.05c-2.47,0-4.08-1.49-4.08-4.79,0-3,1.46-4.79,3.84-4.79s3.83,1.75,3.83,4.52v.63ZM143,8a2.4,2.4,0,0,0-4.37,0,3.9,3.9,0,0,0-.28,1.55h4.94A3.89,3.89,0,0,0,143,8Z"/><path class="cls-1" d="M150.48,15.05a5.19,5.19,0,0,1-3.84-1.35l.91-.91a3.86,3.86,0,0,0,2.91,1.08c1.54,0,2.49-.55,2.49-1.66,0-.81-.48-1.27-1.56-1.36l-1.54-.14c-1.82-.15-2.79-1-2.79-2.5,0-1.71,1.44-2.74,3.44-2.74a5.25,5.25,0,0,1,3.36,1l-.89.89a4,4,0,0,0-2.49-.74c-1.37,0-2.09.59-2.09,1.54,0,.8.45,1.27,1.63,1.37l1.5.13c1.64.15,2.76.78,2.76,2.53S152.74,15.05,150.48,15.05Z"/><path class="cls-1" d="M159.6,15.05a5.19,5.19,0,0,1-3.84-1.35l.91-.91a3.86,3.86,0,0,0,2.91,1.08c1.54,0,2.49-.55,2.49-1.66,0-.81-.48-1.27-1.56-1.36L159,10.71c-1.82-.15-2.79-1-2.79-2.5,0-1.71,1.44-2.74,3.44-2.74a5.25,5.25,0,0,1,3.36,1l-.89.89a4,4,0,0,0-2.49-.74c-1.37,0-2.09.59-2.09,1.54,0,.8.45,1.27,1.63,1.37l1.5.13c1.64.15,2.76.78,2.76,2.53S161.86,15.05,159.6,15.05Z"/><path class="cls-1" d="M172.36,14.23a3.27,3.27,0,0,1-2.28.82,3,3,0,0,1-2.64-1.24v1.12h-1.36V1.41h1.36V6.67a3,3,0,0,1,2.64-1.2,3.22,3.22,0,0,1,2.28.82,5.59,5.59,0,0,1,1.14,4A5.59,5.59,0,0,1,172.36,14.23ZM169.8,6.69c-2,0-2.36,1.74-2.36,3.57s.33,3.57,2.36,3.57,2.34-1.75,2.34-3.57S171.83,6.69,169.8,6.69Z"/><path class="cls-1" d="M178.77,14.93a2.23,2.23,0,0,1-2.38-2.49v-11h1.37v11c0,.91.3,1.36,1.26,1.36h.74v1.18Z"/><path class="cls-1" d="M188,14.93v-1a3.41,3.41,0,0,1-2.64,1.16,3.31,3.31,0,0,1-2.41-.88,3.46,3.46,0,0,1-1-2.62v-6h1.37v5.76c0,1.65.87,2.49,2.28,2.49A2.21,2.21,0,0,0,188,11.34V5.58h1.37v9.35Z"/><path class="cls-1" d="M193.61,10.62c0,2.05,1,3.23,2.75,3.23a3.07,3.07,0,0,0,2.45-1.06l.93.81a4.28,4.28,0,0,1-3.42,1.45c-2.47,0-4.08-1.49-4.08-4.79,0-3,1.46-4.79,3.84-4.79s3.83,1.75,3.83,4.52v.63ZM198.26,8a2.4,2.4,0,0,0-4.37,0,3.9,3.9,0,0,0-.28,1.55h4.94A3.89,3.89,0,0,0,198.26,8Z"/><path class="cls-1" d="M209.11,14.23a3.27,3.27,0,0,1-2.28.82,3,3,0,0,1-2.64-1.22v5.28h-1.37V5.58h1.37V6.69a3,3,0,0,1,2.64-1.22,3.22,3.22,0,0,1,2.28.82,5.59,5.59,0,0,1,1.14,4A5.59,5.59,0,0,1,209.11,14.23Zm-2.56-7.54c-2,0-2.36,1.74-2.36,3.57s.32,3.57,2.36,3.57,2.33-1.75,2.33-3.57S208.58,6.69,206.55,6.69Z"/><path class="cls-1" d="M218.4,7.37a2,2,0,0,0-1.61-.68,2.28,2.28,0,0,0-2.24,2.5v5.74h-1.37V5.58h1.37V6.72a3.14,3.14,0,0,1,2.62-1.25,2.9,2.9,0,0,1,2.24.87Z"/><path class="cls-1" d="M221.1,2.93V1.39h1.54V2.93Zm.08,12V5.58h1.36v9.35Z"/><path class="cls-1" d="M232,14.93V9.18a2.32,2.32,0,1,0-4.62,0v5.75H226V5.58h1.37v1A3.38,3.38,0,0,1,230,5.47a3.28,3.28,0,0,1,2.4.87,3.48,3.48,0,0,1,1,2.61v6Z"/><path class="cls-1" d="M239.28,14.93a2.29,2.29,0,0,1-2.39-2.51V6.69h-1.18V5.64h1.18V2.72h1.37V5.64h2V6.69h-2v5.7c0,.85.4,1.36,1.27,1.36h.72v1.18Z"/><path class="cls-1" d="M242.93,14.93V13.15h1.79v1.78Z"/><path class="cls-1" d="M251.73,15.05c-2.36,0-4.14-1.6-4.14-4.79s1.78-4.79,4.14-4.79a3.67,3.67,0,0,1,3.07,1.39l-.93.87a2.74,2.74,0,0,0-4.31,0,4,4,0,0,0-.61,2.51,4,4,0,0,0,.61,2.51,2.54,2.54,0,0,0,2.17,1.06,2.59,2.59,0,0,0,2.14-1.06l.93.89A3.69,3.69,0,0,1,251.73,15.05Z"/><path class="cls-1" d="M263.13,14a3.89,3.89,0,0,1-5.36,0,5,5,0,0,1-1.14-3.72,5,5,0,0,1,1.14-3.73,3.92,3.92,0,0,1,5.36,0,5,5,0,0,1,1.14,3.73A5,5,0,0,1,263.13,14Zm-1-6.61a2.39,2.39,0,0,0-1.71-.68,2.31,2.31,0,0,0-1.69.68,4,4,0,0,0-.76,2.89,4.07,4.07,0,0,0,.76,2.89,2.35,2.35,0,0,0,1.69.68,2.44,2.44,0,0,0,1.71-.68,4.11,4.11,0,0,0,.74-2.89A4.08,4.08,0,0,0,262.16,7.37Z"/><path class="cls-1" d="M279.2,14.93V9.18A2.32,2.32,0,1,0,274.56,9v5.91H273.2V9.18a2.18,2.18,0,0,0-2.3-2.49,2.21,2.21,0,0,0-2.34,2.49v5.75h-1.37V5.58h1.37v1a3.42,3.42,0,0,1,2.64-1.14A3.08,3.08,0,0,1,274.07,7a3.57,3.57,0,0,1,3.08-1.56,3.41,3.41,0,0,1,2.41.87,3.47,3.47,0,0,1,1,2.61v6Z"/></g></g></svg>