<?xml version="1.0" encoding="utf-8"?>
<!-- Generator: Adobe Illustrator 23.0.2, SVG Export Plug-In . SVG Version: 6.00 Build 0)  -->
<svg version="1.1" id="Layer_1" xmlns="http://www.w3.org/2000/svg" xmlns:xlink="http://www.w3.org/1999/xlink" x="0px" y="0px"
	 viewBox="0 0 8888.84 3485.35" style="enable-background:new 0 0 8888.84 3485.35;" xml:space="preserve">
<style type="text/css">
	.st0{fill:#0D1A2E;}
</style>
<g>
	<path class="st0" d="M318.09,1215.77c0-7.2-1.8-9-3.6-16.2c0,16.2,0,21.59,1.8,23.39L318.09,1215.77z"/>
	<path class="st0" d="M1588.49,1395.71c1.8-9,3.6-16.2,3.6-23.39c0-9-1.8-16.2-1.8-21.59c0-3.6-3.6-5.4-5.4-7.2v32.39
		C1584.89,1390.31,1586.69,1395.71,1588.49,1395.71z"/>
	<path class="st0" d="M1338.37,674.14c-7.2,7.2-14.4,12.6-16.2,21.59C1327.57,693.93,1336.57,679.54,1338.37,674.14z"/>
	<path class="st0" d="M1388.75,634.55c-9,14.39-19.79,23.39-28.79,37.79C1372.56,672.34,1388.75,645.35,1388.75,634.55z"/>
	<path class="st0" d="M1341.97,679.54c-16.2,25.19-17.99,26.99-23.39,41.39C1331.17,713.73,1341.97,692.13,1341.97,679.54z"/>
	<path class="st0" d="M307.3,1136.59c0-1.8,1.8-17.99,1.8-25.19c0-7.2,0-19.79-1.8-23.39c0-1.8-1.8,10.8-1.8,16.2
		C305.5,1118.6,305.5,1136.59,307.3,1136.59z"/>
	<path class="st0" d="M1595.69,1334.53v-21.59c-5.4,5.4-5.4,12.6-5.4,17.99v9C1592.09,1338.13,1592.09,1334.53,1595.69,1334.53z"/>
	<path class="st0" d="M1493.12,825.29c0,88.17-34.19,179.94-34.19,269.91c5.4,0,3.6-7.2,5.4-7.2c0,5.4,1.8,3.6,1.8,5.4
		c3.6,0,5.4-61.18,12.6-80.97c-1.8-7.2-1.8-12.6-1.8-19.79c1.8-10.8,5.4-10.8,5.4-19.79c0,0-3.6-1.8-5.4-1.8
		c7.2-28.79,10.8-52.18,14.39-75.58c3.6-26.99,10.8-64.78,10.8-82.77C1502.12,812.7,1493.12,819.89,1493.12,825.29z"/>
	<path class="st0" d="M1485.92,969.25c3.6,0,9-28.79,9-30.59c-5.4,0-9,5.4-9,10.8V969.25z"/>
	<path class="st0" d="M309.1,1233.76v-14.39c0-1.8-3.6,5.4-3.6,5.4C305.5,1228.36,305.5,1233.76,309.1,1233.76z"/>
	<path class="st0" d="M287.5,1644.03c17.99,0,37.79-12.6,43.19-17.99c1.8,1.8,3.6,1.8,5.4,1.8c3.6,0,3.6-5.4,7.2-7.2
		c5.4,1.8,9,3.6,14.4,3.6c12.6,0,9-16.2,19.79-16.2c7.2,0,44.99,3.6,50.38,3.6c1.8-1.8,16.2-3.6,25.19-9c9,0,9,3.6,16.19,7.2
		c0-1.8-1.8-5.4-1.8-7.2c3.6-25.19,52.18,3.6,52.18-55.78c0-23.39-3.6-34.19-3.6-57.58c30.59-311.3,107.97-566.82,215.93-806.14
		c39.59-89.97,89.97-188.94,151.15-273.51c25.19,62.98,32.39,133.16,32.39,206.93c0,156.55-61.18,710.77-61.18,782.75
		c0,1.8,1.8,12.6,1.8,19.79c-3.6,0-9,12.6-10.8,10.8c0,1.8,9,5.4,9,12.6c0,1.8-5.4,5.4-5.4,9c5.4,5.4,14.39,5.4,19.79,5.4
		c3.6,0,3.6-5.4,5.4-5.4c3.6,3.6,9,3.6,12.6,3.6c19.79,0,102.57-12.6,115.16-12.6c1.8,5.4,5.4,9,12.6,9c21.59,0,12.6-1.8,28.79-16.2
		c5.4,9,0,16.2,10.8,16.2c1.8-5.4,5.4-9,12.6-10.8c-1.8-1.8-1.8-5.4-1.8-7.2c0-3.6,7.2-5.4,7.2-5.4c3.6,0,10.8-14.4,12.6-16.2
		c3.6,0,7.2,7.2,9,14.39c5.4,0,5.4-5.4,12.6-10.8c1.8,3.6,1.8,5.4,3.6,5.4c0-3.6,5.4-3.6,5.4-9c0-3.6,14.39-10.8,17.99-16.2
		c3.6-62.98,71.98-323.9,100.77-422.86c0-7.2-5.4-12.6-5.4-17.99c0-1.8,7.2,3.6,10.8,3.6c34.19-95.37,158.35-350.89,241.12-392.27
		c23.39,44.99,12.6,111.56,19.79,161.95c0,3.6,1.8,5.4,1.8,9c-5.4,10.8-5.4,26.99-5.4,41.39v19.79c7.2-19.79,12.6-52.18,12.6-71.98
		c0-9-1.8-9-1.8-9c-1.34,0-2.68,1-3.28,2.26c1.7-7.33,3.49-18.66,6.88-22.05c1.8,1.8,1.8,7.2,1.8,7.2c0,7.2,1.8,14.4,1.8,23.39
		v30.59c0,5.4,0,14.39,1.8,14.39c-3.6,41.39-19.79,91.77-23.39,149.35c10.8-19.79,7.2-23.39,14.39-39.59
		c-1.8,12.6-3.6,19.79-3.6,25.19c-3.6,19.79,0-5.4-19.79,104.37c-1.8,9-5.4,16.19-5.4,23.39c0,0-9,52.18-9,82.77
		c0,19.79-9,37.79-9,55.78c0,0,3.6-3.6,3.6-5.4c-1.8,17.99-9,46.78-12.6,53.98c0-7.2,0-12.6-1.8-14.39c0-3.6,1.8-7.2,1.8-14.4
		c0-25.19,5.4-48.58,9-70.18c-17.99,32.39-39.59,214.13-39.59,275.31c0,1.8,5.4,1.8,5.4,1.8c0-3.6-1.8-7.2-1.8-10.8
		c0-3.6,1.8-7.2,5.4-10.8c-1.8,53.98-7.2,80.97-7.2,122.36c0,30.59,3.6,59.38,28.79,84.57c1.8-3.6,3.6-5.4,5.4-5.4
		c3.6,0,7.2,3.6,9,9c-1.8-7.2-1.8-16.2-1.8-25.19c0-7.2,1.8-14.4,5.4-14.4c0-5.4-1.8-10.8-1.8-17.99c1.8,10.8,9,30.59,19.79,34.19
		c0-5.4-1.8-5.4-1.8-9c1.8-1.8,5.4,3.6,9,5.4c0-10.8-9-21.59-9-30.59c3.6,9,12.6,10.8,14.4,19.79c0-16.2,1.8-16.2,3.6-19.79
		c1.8,0,1.8,7.2,9,14.39c3.6,0,7.2,3.6,9,7.2c-1.8-3.6-3.6-9-3.6-14.4c3.6,3.6,7.2,5.4,9,5.4c0-7.2,0-10.8-1.8-12.6
		c3.6,0,10.8,16.2,14.4,26.99c0-7.2,1.8-12.6,1.8-16.2c0-3.6,1.8-5.4,5.4-7.2c1.8,7.2,5.4,10.8,5.4,10.8v-9c0-1.8,1.8-3.6,1.8-5.4
		c5.4,9,5.4,14.39,10.8,19.79c0-10.8-3.6-19.79-3.6-25.19c5.4,1.8,7.2,5.4,7.2,7.2c0,3.6-1.8,5.4-3.6,7.2c9,0,12.6,16.2,12.6,18
		c1.8-1.8,1.8-7.2,1.8-12.6l7.2,5.4c0-1.8,0-5.4-3.6-5.4c0,0-1.8-10.8-1.8-16.19c0,0,12.6,23.39,12.6,35.99
		c1.8-26.99,1.8-61.18,9-84.57c-1.8,0-3.6,1.8-3.6,3.6c0,0-1.8-3.6-1.8-5.4c0-1.8,1.8-5.4,5.4-5.4c-3.6-3.6-3.6-5.4-3.6-7.2
		c0,0,3.6-5.4,3.6-7.2c-1.8,0-1.8-7.2-5.4-14.39c5.4,0,7.2-41.39,7.2-50.38c3.6,0,3.6-3.6,5.4-5.4c0,7.2,0,10.8,5.4,10.8
		c0-196.14,66.58-417.47,66.58-608.21c0-88.17-14.39-167.35-43.19-239.32c-12.6-30.59-55.78-104.37-111.57-104.37
		c-147.55,0-253.72,158.35-329.29,268.11l-16.2,23.39c-7.2-140.35-32.39-273.51-113.36-381.48c0,28.79,32.39,70.18,32.39,70.18
		c0,5.4,5.4,5.4,5.4,10.8c-19.79-5.4-41.39-62.98-46.78-84.57c0-19.79-28.79-30.59-43.19-30.59c-1.8,0-3.6,0-10.8,1.8
		c-9-3.6-14.4-9-14.4-10.8c1.8,0,17.99,3.6,26.99,3.6c-25.19-21.59-59.38-21.59-88.17-21.59c-275.31,0-377.88,280.71-458.85,491.24
		c-9,25.19-17.99,50.38-28.79,75.58c10.8-71.98,39.59-359.89,39.59-476.85c0-91.77-12.6-188.94-91.77-188.94
		c-43.19,0-133.16,50.38-134.96,55.78c-9,7.2-10.8,16.2-10.8,19.79c0,424.66,26.99,829.54,26.99,1234.41
		C271.31,1563.06,271.31,1644.03,287.5,1644.03z M1485.92,1177.98c0,3.6,1.8,7.2,1.8,10.8c-1.8,9-3.6,14.4-9,21.59
		C1485.92,1195.97,1480.52,1190.57,1485.92,1177.98z M1471.53,1228.36c0-1.8,5.4-9,5.4-10.8c1.8,1.8,1.8,3.6,1.8,7.2
		c0,16.2-10.8,57.58-14.4,57.58C1464.33,1282.35,1464.33,1244.56,1471.53,1228.36z M1435.54,1451.49v-53.98
		c0-19.79,0-35.99,1.8-41.39v-7.2c0-9,1.8-17.99,5.4-26.99c-1.8,9-1.8,25.19-1.8,43.19c0,5.4,1.8,10.8,1.8,16.2
		C1439.14,1399.31,1437.34,1451.49,1435.54,1451.49z M1442.74,1440.7v-7.2c0-5.4,1.8-10.8,5.4-16.2
		C1448.13,1424.5,1444.53,1440.7,1442.74,1440.7z M1446.33,1377.72c0-3.6-1.8-9-1.8-14.4c0-5.4,3.6-10.8,5.4-16.19
		C1449.93,1356.12,1448.13,1370.52,1446.33,1377.72z M1448.13,1291.34c0-3.6-9-14.39-9-23.39c0-5.4,0-12.6,3.6-17.99
		c1.8,1.8,3.6,5.4,3.6,3.6c0-5.4,0-10.8,1.8-16.19c0,7.2,1.8,9,1.8,10.8c0-3.6,5.4-32.39,10.8-37.79l-5.4,41.39c0,0,1.8-5.4,5.4-5.4
		C1457.13,1255.35,1449.93,1291.34,1448.13,1291.34z M1460.73,1492.88c-3.6-3.6-3.6-9-3.6-14.4c0-30.59,1.8-41.39,3.6-41.39
		s1.8,5.4,1.8,14.4c0,7.2,0,16.2-1.8,25.19c1.8,0,3.6,1.8,3.6,5.4C1462.53,1485.68,1460.73,1491.08,1460.73,1492.88z
		 M1460.73,1392.11c-1.8,25.19-5.4,35.99-7.2,35.99c-1.8,0-1.8-5.4-1.8-12.6c0-14.4,3.6-39.59,14.4-73.78c0,3.6,1.8,9,1.8,12.6
		L1460.73,1392.11z M1467.93,1307.54c0-5.4,16.2-71.98,19.79-80.97c0,10.8-3.6,19.79-3.6,23.39c0,1.8,1.8,5.4,1.8,7.2
		c-5.4,41.39-1.8,7.2-9,53.98c0,3.6-1.8,7.2-5.4,10.8c0-1.8,1.8-3.6,1.8-5.4C1473.32,1311.14,1467.93,1309.34,1467.93,1307.54z
		 M1487.72,1305.74c0,7.2-1.8,12.6-7.2,12.6c0-3.6,3.6-25.19,5.4-37.79c0,1.8,1.8,3.6,1.8,5.4c0,1.8-1.8,3.6-1.8,5.4
		S1487.72,1300.34,1487.72,1305.74z M1471.53,1383.11c0-9,3.6-41.39,5.4-41.39c0,3.6,3.6-7.2,5.4-7.2c0,3.6-3.6,12.6-5.4,17.99
		c1.8,3.6,1.8,9,1.8,14.39c0,9-1.8,16.2-5.4,25.19C1471.53,1388.51,1471.53,1384.91,1471.53,1383.11z M1476.92,1410.11
		c1.8-21.59,9-68.38,14.39-68.38C1491.32,1390.31,1478.72,1411.9,1476.92,1410.11z M1491.32,1431.7c-1.8-3.6-1.8-5.4-1.8-9
		c0-5.4,1.8-10.8,1.8-16.2c0-3.6,0-9-1.8-12.6c1.8,0,1.8-7.2,3.6-7.2c1.8,0,3.6,3.6,3.6,9
		C1496.72,1406.51,1493.12,1426.3,1491.32,1431.7z M1633.47,611.16c-7.2-1.8-7.2-5.4-7.2-10.8
		C1629.87,602.16,1633.47,609.36,1633.47,611.16z M1597.49,533.78c12.6,12.6,16.19,30.59,17.99,41.39
		c-7.2-19.79-16.2-32.39-16.2-32.39c-1.8,3.6-7.2-14.39-9-17.99C1595.69,528.39,1597.49,531.99,1597.49,533.78z M1575.89,512.19
		c1.8,1.8,5.4,3.6,5.4,5.4c0,0-3.6,9-5.4,9c-3.6,0-3.6-3.6-7.2-3.6C1570.49,522.99,1570.49,517.59,1575.89,512.19z M1559.7,492.4
		c0,0-12.6,0-12.6-3.6C1550.7,488.8,1559.7,490.6,1559.7,492.4z M1543.5,1357.92c0-3.6-5.4-3.6-5.4-3.6c0-10.8,7.2-19.79,9-32.39
		c0,3.6,3.6,3.6,3.6,5.4c1.8,0,1.8-3.6,1.8-12.6c0,1.8-3.6-9-3.6-14.39c0,1.8,1.8-16.2,7.2-16.2c1.8,1.8,7.2-5.4,7.2-10.8
		c0-12.6-1.8-12.6-1.8-12.6c1.8-21.59,7.2-48.59,14.4-79.17c0-1.8,0-5.4,1.8-9c0,14.4-3.6,35.99-3.6,35.99c1.8,0,5.4-18,7.2-23.39
		c-1.8,10.8-3.6,30.59-3.6,41.39c0,1.8,1.8-7.2,1.8-3.6c0,0,3.6-5.4,5.4-7.2c0,9,0,39.59-5.4,39.59c0-1.8-5.4,1.8-5.4,9
		c0-1.8,3.6-5.4,7.2-5.4l-3.6,43.19c0,3.6,0,7.2,1.8,9c5.4-10.8,1.8-16.19,5.4-25.19c1.8,3.6,1.8,7.2,1.8,10.8
		c0,5.4-1.8,16.2-1.8,23.39c0,1.8,0,5.4,1.8,7.2c0-1.8,1.8-12.6,1.8-19.79c0,3.6,5.4-44.99,7.2-70.18c3.6,3.6,1.8,17.99,3.6,17.99
		c0,1.8-1.8,34.19-1.8,48.58c5.4-26.99,10.8-46.78,14.39-75.58v37.79c3.6-1.8,0-10.8,5.4-19.79c0,39.59-10.8,80.97-12.6,124.16
		c-9,0-9,10.8-9,16.2c0,9,1.8,17.99,1.8,25.19c1.8-1.8,1.8-7.2,1.8-12.6v-21.59c1.8,3.6,1.8,10.8,1.8,16.2c0,9-1.8,19.79-1.8,26.99
		c-5.4,0-5.4,1.8-5.4,3.6v7.2c-9,0-10.8,14.4-10.8,18c-1.8,10.8-19.79,10.8-23.39,17.99c-1.8-7.2-9-12.6-9-17.99v-43.19
		c0-5.4-1.8-10.8-5.4-14.39c3.6-14.4,5.4-21.59,5.4-23.39c0-3.6-10.8,25.19-12.6,25.19c0,0,0-1.8,1.8-10.8
		c3.6-7.2,7.2-21.59,9-32.39C1547.1,1354.32,1545.3,1357.92,1543.5,1357.92z M1514.71,897.27c0,9-1.8,17.99-7.2,30.59
		C1507.51,917.06,1509.31,902.67,1514.71,897.27z M1514.71,1446.09c0-5.4,3.6-34.19,7.2-34.19c1.8,0,1.8,1.8,1.8,7.2
		C1523.71,1444.29,1514.71,1444.29,1514.71,1446.09z M1509.31,1413.7c3.6-14.39,3.6-26.99,3.6-28.79c0-1.8,9-14.39,9-21.59
		c0-1.8,3.6,3.6,3.6,5.4C1525.51,1375.92,1514.71,1408.31,1509.31,1413.7z M1527.31,760.51c0,0-3.6,14.39-3.6,21.59
		c-1.8,0-3.6-1.8-3.6-3.6C1520.11,773.11,1525.51,762.31,1527.31,760.51z M1527.31,794.7c0,5.4-10.8,26.99-10.8,34.19
		c-1.8-5.4-1.8-9-1.8-14.4l5.4-21.59C1523.71,792.9,1525.51,792.9,1527.31,794.7z M1457.13,515.79c0,5.4-10.8,3.6-12.6,14.4
		c-7.2,0-9,0-9-1.8C1435.54,524.79,1451.73,515.79,1457.13,515.79z M1435.54,540.98c-9,1.8-14.4,5.4-19.79,12.6
		c0-7.2,12.6-12.6,17.99-17.99C1435.54,535.58,1435.54,539.18,1435.54,540.98z M1388.75,555.38c10.8-10.8,25.19-21.59,39.59-28.79
		c-14.39,14.4-34.19,43.19-50.38,43.19C1377.96,569.77,1383.35,557.18,1388.75,555.38z M1401.35,569.77
		c-9,9-21.59,17.99-32.39,32.39C1368.96,594.97,1388.75,571.57,1401.35,569.77z M1239.4,902.67c7.2-57.58,52.18-118.76,53.98-129.56
		c0-9,5.4-28.79,14.39-28.79c-1.8-7.2-3.6-9-3.6-9c-1.8,0-5.4,7.2-12.6,10.8c9-50.38,53.98-109.76,91.77-145.75
		c3.6-7.2,28.79-19.79,28.79-28.79c0-12.6,7.2-12.6,14.4-12.6c5.4,0,16.2-10.8,21.59-16.2c0,5.4-1.8,5.4-1.8,7.2
		c0,5.4,1.8,7.2,3.6,7.2c3.6,0,10.8-7.2,10.8-5.4c0,0-1.8,3.6-1.8,5.4h12.6c-7.2,12.6-28.79,25.19-41.39,35.99c1.8,0,9-1.8,12.6-1.8
		c-53.98,37.79-97.17,127.76-133.16,181.74c0,19.79-23.39,43.19-23.39,57.58c0,3.6-12.6,25.19-46.79,106.17
		c0-7.2,9-30.59,12.6-48.58C1246.6,891.87,1246.6,893.67,1239.4,902.67z M372.08,1055.62c0,10.8,0,23.39-3.6,30.59
		C368.48,1075.41,370.28,1062.82,372.08,1055.62z M363.08,998.04c3.6,1.8,3.6,3.6,3.6,7.2c0,5.4-1.8,12.6-1.8,16.2v50.38
		c0,14.39,0,23.39,3.6,23.39c0,17.99-1.8,41.39-10.8,53.98C357.68,1124,363.08,998.04,363.08,998.04z M305.5,981.84
		c1.8,3.6,1.8,14.4,1.8,21.59c-5.4-1.8-7.2-5.4-7.2-7.2C300.1,990.84,305.5,987.24,305.5,981.84z M300.1,1012.43
		c1.8,0,3.6,3.6,7.2,12.6c0,10.8-1.8,23.39-1.8,34.19c0,5.4,0,9,1.8,12.6l5.4-37.79c0,48.59,1.8,48.59,1.8,59.38
		c0,5.4,1.8,7.2,1.8,7.2c1.8,0,1.8-3.6,1.8-5.4v-71.98c1.8-5.4,1.8-21.59,1.8-23.39c5.4,0,9,80.97,9,106.17
		c0,21.59,0,41.39,1.8,52.18v30.59c3.6-5.4,3.6-44.99,3.6-61.18c0,1.8,1.8,3.6,1.8,9l1.8,23.39c0,3.6,3.6-26.99,3.6-55.78
		c0-1.8,1.8-5.4,1.8-9l3.6,7.2v-14.39c1.8,0,3.6,1.8,3.6,3.6c0,3.6-1.8,3.6-1.8,5.4c0,1.8,1.8,3.6,3.6,5.4c-3.6,1.8-3.6,5.4-3.6,9
		c0,0-1.8,3.6-1.8,7.2s7.2-5.4,7.2-5.4c-1.8,10.8-5.4,80.97-7.2,97.17c0,9-16.2,71.98-19.79,86.37c-1.8,0-1.8-3.6-1.8-12.6
		c0-7.2,1.8-10.8,1.8-16.2c0-1.8,0-5.4-1.8-7.2c-1.8,0-3.6,0-5.4,1.8c-3.6-3.6-3.6-5.4-3.6-7.2c0-1.8,1.8-3.6,1.8-10.8
		c-7.2-1.8-14.4-9-14.4-12.6c0-10.8-1.8-14.4-1.8-25.19c-1.8-35.99-1.8-46.78-1.8-55.78c0-75.58,1.8-73.78,1.8-73.78
		s-3.6-25.19-3.6-23.39c0-1.8,3.6-7.2,3.6-9c-1.8-5.4-5.4-7.2-5.4-12.6C296.5,1021.43,298.3,1012.43,300.1,1012.43z"/>
	<path class="st0" d="M1606.48,1446.09c0,3.6,1.8,7.2,5.4,10.8c0-5.4,3.6-10.8,3.6-16.2c0-3.6-3.6-3.6-7.2-3.6
		C1608.28,1440.7,1606.48,1442.49,1606.48,1446.09z"/>
	<path class="st0" d="M2497.18,1222.96l1.8-7.2c0-7.2-1.8-9-3.6-16.2C2495.38,1215.77,2495.38,1221.17,2497.18,1222.96z"/>
	<path class="st0" d="M2516.97,1627.83c3.6,0,3.6-5.4,7.2-7.2c5.4,1.8,9,3.6,14.39,3.6c12.6,0,9-16.2,19.79-16.2
		c7.2,0,44.99,3.6,50.38,3.6c1.8-1.8,16.2-3.6,25.19-9c9,0,9,3.6,16.2,7.2c0-1.8-1.8-5.4-1.8-7.2c3.6-25.19,52.18,3.6,52.18-55.78
		c0-23.39-3.6-34.19-3.6-57.58c30.59-311.3,107.97-566.82,215.93-806.14c39.59-89.97,89.97-188.94,151.15-273.51
		c25.19,62.98,32.39,133.16,32.39,206.93c0,156.55-61.18,710.77-61.18,782.75c0,1.8,1.8,12.6,1.8,19.79c-3.6,0-9,12.6-10.8,10.8
		c0,1.8,9,5.4,9,12.6c0,1.8-5.4,5.4-5.4,9c5.4,5.4,14.39,5.4,19.79,5.4c3.6,0,3.6-5.4,5.4-5.4c3.6,3.6,9,3.6,12.6,3.6
		c19.79,0,102.57-12.6,115.16-12.6c1.8,5.4,5.4,9,12.6,9c21.59,0,12.6-1.8,28.79-16.2c5.4,9,0,16.2,10.8,16.2
		c1.8-5.4,5.4-9,12.6-10.8c-1.8-1.8-1.8-5.4-1.8-7.2c0-3.6,7.2-5.4,7.2-5.4c3.6,0,10.8-14.4,12.6-16.2c3.6,0,7.2,7.2,9,14.39
		c5.4,0,5.4-5.4,12.6-10.8c1.8,3.6,1.8,5.4,3.6,5.4c0-3.6,5.4-3.6,5.4-9c0-3.6,14.39-10.8,17.99-16.2
		c3.6-62.98,71.98-323.9,100.77-422.86c0-7.2-5.4-12.6-5.4-17.99c0-1.8,7.2,3.6,10.8,3.6c34.19-95.37,158.35-350.89,241.12-392.27
		c23.39,44.99,12.6,111.56,19.79,161.95c0,3.6,1.8,5.4,1.8,9c-5.4,10.8-5.4,26.99-5.4,41.39v19.79c7.2-19.79,12.6-52.18,12.6-71.98
		c0-9-1.8-9-1.8-9c-1.34,0-2.68,1-3.28,2.26c1.7-7.33,3.49-18.66,6.88-22.05c1.8,1.8,1.8,7.2,1.8,7.2c0,7.2,1.8,14.4,1.8,23.39
		v30.59c0,5.4,0,14.39,1.8,14.39c-3.6,41.39-19.79,91.77-23.39,149.35c10.8-19.79,7.2-23.39,14.39-39.59
		c-1.8,12.6-3.6,19.79-3.6,25.19c-3.6,19.79,0-5.4-19.79,104.37c-1.8,9-5.4,16.19-5.4,23.39c0,0-9,52.18-9,82.77
		c0,19.79-9,37.79-9,55.78c0,0,3.6-3.6,3.6-5.4c-1.8,17.99-9,46.78-12.6,53.98c0-7.2,0-12.6-1.8-14.39c0-3.6,1.8-7.2,1.8-14.4
		c0-25.19,5.4-48.58,9-70.18c-17.99,32.39-39.59,214.13-39.59,275.31c0,1.8,5.4,1.8,5.4,1.8c0-3.6-1.8-7.2-1.8-10.8
		c0-3.6,1.8-7.2,5.4-10.8c-1.8,53.98-7.2,80.97-7.2,122.36c0,30.59,3.6,59.38,28.79,84.57c1.8-3.6,3.6-5.4,5.4-5.4
		c3.6,0,7.2,3.6,9,9c-1.8-7.2-1.8-16.2-1.8-25.19c0-7.2,1.8-14.4,5.4-14.4c0-5.4-1.8-10.8-1.8-17.99c1.8,10.8,9,30.59,19.79,34.19
		c0-5.4-1.8-5.4-1.8-9c1.8-1.8,5.4,3.6,9,5.4c0-10.8-9-21.59-9-30.59c3.6,9,12.6,10.8,14.4,19.79c0-16.2,1.8-16.2,3.6-19.79
		c1.8,0,1.8,7.2,9,14.39c3.6,0,7.2,3.6,9,7.2c-1.8-3.6-3.6-9-3.6-14.4c3.6,3.6,7.2,5.4,9,5.4c0-7.2,0-10.8-1.8-12.6
		c3.6,0,10.8,16.2,14.4,26.99c0-7.2,1.8-12.6,1.8-16.2c0-3.6,1.8-5.4,5.4-7.2c1.8,7.2,5.4,10.8,5.4,10.8v-9c0-1.8,1.8-3.6,1.8-5.4
		c5.4,9,5.4,14.39,10.8,19.79c0-10.8-3.6-19.79-3.6-25.19c5.4,1.8,7.2,5.4,7.2,7.2c0,3.6-1.8,5.4-3.6,7.2c9,0,12.6,16.2,12.6,18
		c1.8-1.8,1.8-7.2,1.8-12.6l7.2,5.4c0-1.8,0-5.4-3.6-5.4c0,0-1.8-10.8-1.8-16.19c0,0,12.6,23.39,12.6,35.99
		c1.8-26.99,1.8-61.18,9-84.57c-1.8,0-3.6,1.8-3.6,3.6c0,0-1.8-3.6-1.8-5.4c0-1.8,1.8-5.4,5.4-5.4c-3.6-3.6-3.6-5.4-3.6-7.2
		c0,0,3.6-5.4,3.6-7.2c-1.8,0-1.8-7.2-5.4-14.39c5.4,0,7.2-41.39,7.2-50.38c3.6,0,3.6-3.6,5.4-5.4c0,7.2,0,10.8,5.4,10.8
		c0-196.14,66.58-417.47,66.58-608.21c0-88.17-14.39-167.35-43.19-239.32c-12.6-30.59-55.78-104.37-111.57-104.37
		c-147.55,0-253.72,158.35-329.29,268.11l-16.2,23.39c-7.2-140.35-32.39-273.51-113.36-381.48c0,28.79,32.39,70.18,32.39,70.18
		c0,5.4,5.4,5.4,5.4,10.8c-19.79-5.4-41.39-62.98-46.78-84.57c0-19.79-28.79-30.59-43.19-30.59c-1.8,0-3.6,0-10.8,1.8
		c-9-3.6-14.4-9-14.4-10.8c1.8,0,17.99,3.6,26.99,3.6c-25.19-21.59-59.38-21.59-88.17-21.59c-275.31,0-377.88,280.71-458.85,491.24
		c-9,25.19-17.99,50.38-28.79,75.58c10.8-71.98,39.59-359.89,39.59-476.85c0-91.77-12.6-188.94-91.77-188.94
		c-43.19,0-133.16,50.38-134.96,55.78c-9,7.2-10.8,16.2-10.8,19.79c0,54.2,0.44,108.08,1.21,161.68
		c-69.43-15.36-155.86-21.32-238.72-21.32c-46.78,0-120.56-3.6-181.74-3.6h-28.79c-61.18,3.6-136.76,12.6-136.76,52.18
		c1.8,17.99,16.2,32.39,30.59,39.59c-32.39,246.52-62.98,471.45-97.17,699.98c-1.8,48.58-19.79,143.95-19.79,228.53v10.8
		c1.8,80.97,19.79,145.75,84.57,149.35c5.4-5.4,5.4-17.99,12.6-25.19c30.59,21.59,70.18,26.99,113.36,26.99h16.2
		c52.18-1.8,248.32-30.59,248.32-34.19c53.98-10.8-12.6-23.39,86.37-26.99c0-16.2,43.19-9,43.19-16.2h9c-3.6-1.8-5.4-1.8-7.2-1.8
		c-1.8,0-3.6,0-5.4-1.8h7.2c-1.8-1.8,9-1.8,17.99-1.8c9,0,17.99,0,17.99-3.6c0,0-7.2-1.8-19.79-3.6c3.6,0,5.4-1.8,7.2-5.4h-16.2
		c3.6-3.6,10.8-1.8,16.2-5.4c5.4,0,10.8,1.8,16.2,1.8c3.6,0,7.2,0,9-1.8c-16.19-16.2-35.99-19.79-62.98-19.79h-23.39
		c-12.6,0-26.99,0-41.39,1.8c-23.39-3.6-43.19-7.2-62.98-7.2l-97.17,7.2h-23.39c-21.59,0-41.39-1.8-59.38-3.6
		c-1.8-12.6-1.8-26.99-1.8-39.59v-26.99c0-102.57,17.99-192.54,28.79-296.91c106.17-3.6,172.74-12.6,239.32-16.2
		c30.59-1.8,39.59-1.8,41.39-1.8c0,0-3.6-3.6-7.2-5.4c9,1.8,21.59,3.6,32.39,3.6l10.8-3.6l-1.8-1.8c10.8,0,30.59-1.8,30.59-10.8
		c8.15-1.63,7.44-3.26,31.31-10.24c4.61,149.82,8.26,298.66,8.26,447.5c0,53.98,0,134.96,16.2,134.96
		c17.99,0,37.79-12.6,43.19-17.99C2513.37,1627.83,2515.17,1627.83,2516.97,1627.83z M3666.8,1177.98c0,3.6,1.8,7.2,1.8,10.8
		c-1.8,9-3.6,14.4-9,21.59C3666.8,1195.97,3661.41,1190.57,3666.8,1177.98z M3652.41,1228.36c0-1.8,5.4-9,5.4-10.8
		c1.8,1.8,1.8,3.6,1.8,7.2c0,16.2-10.8,57.58-14.4,57.58C3645.21,1282.35,3645.21,1244.56,3652.41,1228.36z M3616.42,1451.49v-53.98
		c0-19.79,0-35.99,1.8-41.39v-7.2c0-9,1.8-17.99,5.4-26.99c-1.8,9-1.8,25.19-1.8,43.19c0,5.4,1.8,10.8,1.8,16.2
		C3620.02,1399.31,3618.22,1451.49,3616.42,1451.49z M3623.62,1440.7v-7.2c0-5.4,1.8-10.8,5.4-16.2
		C3629.02,1424.5,3625.42,1440.7,3623.62,1440.7z M3627.22,1377.72c0-3.6-1.8-9-1.8-14.4c0-5.4,3.6-10.8,5.4-16.19
		C3630.82,1356.12,3629.02,1370.52,3627.22,1377.72z M3629.02,1291.34c0-3.6-9-14.39-9-23.39c0-5.4,0-12.6,3.6-17.99
		c1.8,1.8,3.6,5.4,3.6,3.6c0-5.4,0-10.8,1.8-16.19c0,7.2,1.8,9,1.8,10.8c0-3.6,5.4-32.39,10.8-37.79l-5.4,41.39c0,0,1.8-5.4,5.4-5.4
		C3638.01,1255.35,3630.82,1291.34,3629.02,1291.34z M3641.61,1492.88c-3.6-3.6-3.6-9-3.6-14.4c0-30.59,1.8-41.39,3.6-41.39
		c1.8,0,1.8,5.4,1.8,14.4c0,7.2,0,16.2-1.8,25.19c1.8,0,3.6,1.8,3.6,5.4C3643.41,1485.68,3641.61,1491.08,3641.61,1492.88z
		 M3641.61,1392.11c-1.8,25.19-5.4,35.99-7.2,35.99c-1.8,0-1.8-5.4-1.8-12.6c0-14.4,3.6-39.59,14.4-73.78c0,3.6,1.8,9,1.8,12.6
		L3641.61,1392.11z M3648.81,1307.54c0-5.4,16.2-71.98,19.79-80.97c0,10.8-3.6,19.79-3.6,23.39c0,1.8,1.8,5.4,1.8,7.2
		c-5.4,41.39-1.8,7.2-9,53.98c0,3.6-1.8,7.2-5.4,10.8c0-1.8,1.8-3.6,1.8-5.4C3654.21,1311.14,3648.81,1309.34,3648.81,1307.54z
		 M3668.61,1305.74c0,7.2-1.8,12.6-7.2,12.6c0-3.6,3.6-25.19,5.4-37.79c0,1.8,1.8,3.6,1.8,5.4c0,1.8-1.8,3.6-1.8,5.4
		S3668.61,1300.34,3668.61,1305.74z M3652.41,1383.11c0-9,3.6-41.39,5.4-41.39c0,3.6,3.6-7.2,5.4-7.2c0,3.6-3.6,12.6-5.4,17.99
		c1.8,3.6,1.8,9,1.8,14.39c0,9-1.8,16.2-5.4,25.19C3652.41,1388.51,3652.41,1384.91,3652.41,1383.11z M3657.81,1410.11
		c1.8-21.59,9-68.38,14.39-68.38C3672.2,1390.31,3659.61,1411.9,3657.81,1410.11z M3672.2,1431.7c-1.8-3.6-1.8-5.4-1.8-9
		c0-5.4,1.8-10.8,1.8-16.2c0-3.6,0-9-1.8-12.6c1.8,0,1.8-7.2,3.6-7.2c1.8,0,3.6,3.6,3.6,9C3677.6,1406.51,3674,1426.3,3672.2,1431.7
		z M3814.36,611.16c-7.2-1.8-7.2-5.4-7.2-10.8C3810.76,602.16,3814.36,609.36,3814.36,611.16z M3778.37,533.78
		c12.6,12.6,16.19,30.59,17.99,41.39c-7.2-19.79-16.2-32.39-16.2-32.39c-1.8,3.6-7.2-14.39-9-17.99
		C3776.57,528.39,3778.37,531.99,3778.37,533.78z M3756.78,512.19c1.8,1.8,5.4,3.6,5.4,5.4c0,0-3.6,9-5.4,9c-3.6,0-3.6-3.6-7.2-3.6
		C3751.38,522.99,3751.38,517.59,3756.78,512.19z M3740.58,492.4c0,0-12.6,0-12.6-3.6C3731.59,488.8,3740.58,490.6,3740.58,492.4z
		 M3724.39,1357.92c0-3.6-5.4-3.6-5.4-3.6c0-10.8,7.2-19.79,9-32.39c0,3.6,3.6,3.6,3.6,5.4c1.8,0,1.8-3.6,1.8-12.6
		c0,1.8-3.6-9-3.6-14.39c0,1.8,1.8-16.2,7.2-16.2c1.8,1.8,7.2-5.4,7.2-10.8c0-12.6-1.8-12.6-1.8-12.6
		c1.8-21.59,7.2-48.59,14.4-79.17c0-1.8,0-5.4,1.8-9c0,14.4-3.6,35.99-3.6,35.99c1.8,0,5.4-18,7.2-23.39
		c-1.8,10.8-3.6,30.59-3.6,41.39c0,1.8,1.8-7.2,1.8-3.6c0,0,3.6-5.4,5.4-7.2c0,9,0,39.59-5.4,39.59c0-1.8-5.4,1.8-5.4,9
		c0-1.8,3.6-5.4,7.2-5.4l-3.6,43.19c0,3.6,0,7.2,1.8,9c5.4-10.8,1.8-16.19,5.4-25.19c1.8,3.6,1.8,7.2,1.8,10.8
		c0,5.4-1.8,16.2-1.8,23.39c0,1.8,0,5.4,1.8,7.2c0-1.8,1.8-12.6,1.8-19.79c0,3.6,5.4-44.99,7.2-70.18c3.6,3.6,1.8,17.99,3.6,17.99
		c0,1.8-1.8,34.19-1.8,48.58c5.4-26.99,10.8-46.78,14.39-75.58v37.79c3.6-1.8,0-10.8,5.4-19.79c0,39.59-10.8,80.97-12.6,124.16
		c-9,0-9,10.8-9,16.2c0,9,1.8,17.99,1.8,25.19c1.8-1.8,1.8-7.2,1.8-12.6v-21.59c1.8,3.6,1.8,10.8,1.8,16.2c0,9-1.8,19.79-1.8,26.99
		c-5.4,0-5.4,1.8-5.4,3.6v7.2c-9,0-10.8,14.4-10.8,18c-1.8,10.8-19.79,10.8-23.39,17.99c-1.8-7.2-9-12.6-9-17.99v-43.19
		c0-5.4-1.8-10.8-5.4-14.39c3.6-14.4,5.4-21.59,5.4-23.39c0-3.6-10.8,25.19-12.6,25.19c0,0,0-1.8,1.8-10.8
		c3.6-7.2,7.2-21.59,9-32.39C3727.99,1354.32,3726.19,1357.92,3724.39,1357.92z M3695.6,897.27c0,9-1.8,17.99-7.2,30.59
		C3688.4,917.06,3690.2,902.67,3695.6,897.27z M3695.6,1446.09c0-5.4,3.6-34.19,7.2-34.19c1.8,0,1.8,1.8,1.8,7.2
		C3704.59,1444.29,3695.6,1444.29,3695.6,1446.09z M3690.2,1413.7c3.6-14.39,3.6-26.99,3.6-28.79c0-1.8,9-14.39,9-21.59
		c0-1.8,3.6,3.6,3.6,5.4C3706.39,1375.92,3695.6,1408.31,3690.2,1413.7z M3708.19,760.51c0,0-3.6,14.39-3.6,21.59
		c-1.8,0-3.6-1.8-3.6-3.6C3700.99,773.11,3706.39,762.31,3708.19,760.51z M3708.19,794.7c0,5.4-10.8,26.99-10.8,34.19
		c-1.8-5.4-1.8-9-1.8-14.4l5.4-21.59C3704.59,792.9,3706.39,792.9,3708.19,794.7z M3638.01,515.79c0,5.4-10.8,3.6-12.6,14.4
		c-7.2,0-9,0-9-1.8C3616.42,524.79,3632.62,515.79,3638.01,515.79z M3616.42,540.98c-9,1.8-14.4,5.4-19.79,12.6
		c0-7.2,12.6-12.6,17.99-17.99C3616.42,535.58,3616.42,539.18,3616.42,540.98z M3569.64,555.38c10.8-10.8,25.19-21.59,39.59-28.79
		c-14.39,14.4-34.19,43.19-50.38,43.19C3558.84,569.77,3564.24,557.18,3569.64,555.38z M3582.23,569.77
		c-9,9-21.59,17.99-32.39,32.39C3549.84,594.97,3569.64,571.57,3582.23,569.77z M3420.28,902.67
		c7.2-57.58,52.18-118.76,53.98-129.56c0-9,5.4-28.79,14.39-28.79c-1.8-7.2-3.6-9-3.6-9c-1.8,0-5.4,7.2-12.6,10.8
		c9-50.38,53.98-109.76,91.77-145.75c3.6-7.2,28.79-19.79,28.79-28.79c0-12.6,7.2-12.6,14.4-12.6c5.4,0,16.2-10.8,21.59-16.2
		c0,5.4-1.8,5.4-1.8,7.2c0,5.4,1.8,7.2,3.6,7.2c3.6,0,10.8-7.2,10.8-5.4c0,0-1.8,3.6-1.8,5.4h12.6
		c-7.2,12.6-28.79,25.19-41.39,35.99c1.8,0,9-1.8,12.6-1.8c-53.98,37.79-97.17,127.76-133.16,181.74
		c0,19.79-23.39,43.19-23.39,57.58c0,3.6-12.6,25.19-46.79,106.17c0-7.2,9-30.59,12.6-48.58
		C3427.48,891.87,3427.48,893.67,3420.28,902.67z M2552.96,1055.62c0,10.8,0,23.39-3.6,30.59
		C2549.36,1075.41,2551.16,1062.82,2552.96,1055.62z M2543.96,998.04c3.6,1.8,3.6,3.6,3.6,7.2c0,5.4-1.8,12.6-1.8,16.2v50.38
		c0,14.39,0,23.39,3.6,23.39c0,17.99-1.8,41.39-10.8,53.98C2538.57,1124,2543.96,998.04,2543.96,998.04z M2427.71,512.3
		c0.01,0.58,0.02,1.15,0.04,1.73c-1.02-0.56-1.89-1.2-2.53-1.84C2425.48,512.19,2426.36,512.23,2427.71,512.3z M2214.68,1005.23
		c-53.98,0-100.77,3.6-133.16,5.4l73.78-478.65c53.24-1.66,234.13-12.55,272.49-15.61c3.63,181.62,10.4,360.21,15.9,537.41
		C2377.81,1013.52,2288.82,1005.23,2214.68,1005.23z M2486.38,981.84c1.8,3.6,1.8,14.4,1.8,21.59c-5.4-1.8-7.2-5.4-7.2-7.2
		C2480.98,990.84,2486.38,987.24,2486.38,981.84z M2506.18,1284.15c0-7.2,1.8-10.8,1.8-16.2c0-1.8,0-5.4-1.8-7.2
		c-1.8,0-3.6,0-5.4,1.8c-3.6-3.6-3.6-5.4-3.6-7.2c0-1.8,1.8-3.6,1.8-10.8c-7.2-1.8-14.39-9-14.39-12.6c0-10.8-1.8-14.4-1.8-25.19
		c-1.8-35.99-1.8-46.78-1.8-55.78c0-75.58,1.8-73.78,1.8-73.78s-3.6-25.19-3.6-23.39c0-1.8,3.6-7.2,3.6-9c-1.8-5.4-5.4-7.2-5.4-12.6
		c0-10.8,1.8-19.79,3.6-19.79c1.8,0,3.6,3.6,7.2,12.6c0,10.8-1.8,23.39-1.8,34.19c0,5.4,0,9,1.8,12.6l5.4-37.79
		c0,48.59,1.8,48.59,1.8,59.38c0,5.4,1.8,7.2,1.8,7.2c1.8,0,1.8-3.6,1.8-5.4v-71.98c1.8-5.4,1.8-21.59,1.8-23.39
		c5.4,0,9,80.97,9,106.17c0,21.59,0,41.39,1.8,52.18v30.59c3.6-5.4,3.6-44.99,3.6-61.18c0,1.8,1.8,3.6,1.8,9l1.8,23.39
		c0,3.6,3.6-26.99,3.6-55.78c0-1.8,1.8-5.4,1.8-9l3.6,7.2v-14.39c1.8,0,3.6,1.8,3.6,3.6c0,3.6-1.8,3.6-1.8,5.4
		c0,1.8,1.8,3.6,3.6,5.4c-3.6,1.8-3.6,5.4-3.6,9c0,0-1.8,3.6-1.8,7.2s7.2-5.4,7.2-5.4c-1.8,10.8-5.4,80.97-7.2,97.17
		c0,9-16.19,71.98-19.79,86.37C2506.18,1296.74,2506.18,1293.14,2506.18,1284.15z"/>
	<path class="st0" d="M2486.38,1104.2c0,14.39,0,32.39,1.8,32.39c0-1.8,1.8-17.99,1.8-25.19c0-7.2,0-19.79-1.8-23.39
		C2488.18,1086.21,2486.38,1098.81,2486.38,1104.2z"/>
	<path class="st0" d="M3666.8,969.25c3.6,0,9-28.79,9-30.59c-5.4,0-9,5.4-9,10.8V969.25z"/>
	<path class="st0" d="M2486.38,1224.76c0,3.6,0,9,3.6,9v-14.39C2489.98,1217.57,2486.38,1224.76,2486.38,1224.76z"/>
	<path class="st0" d="M3787.37,1446.09c0,3.6,1.8,7.2,5.4,10.8c0-5.4,3.6-10.8,3.6-16.2c0-3.6-3.6-3.6-7.2-3.6
		C3789.17,1440.7,3787.37,1442.49,3787.37,1446.09z"/>
	<path class="st0" d="M3674,825.29c0,88.17-34.19,179.94-34.19,269.91c5.4,0,3.6-7.2,5.4-7.2c0,5.4,1.8,3.6,1.8,5.4
		c3.6,0,5.4-61.18,12.6-80.97c-1.8-7.2-1.8-12.6-1.8-19.79c1.8-10.8,5.4-10.8,5.4-19.79c0,0-3.6-1.8-5.4-1.8
		c7.2-28.79,10.8-52.18,14.39-75.58c3.6-26.99,10.8-64.78,10.8-82.77C3683,812.7,3674,819.89,3674,825.29z"/>
	<path class="st0" d="M3776.57,1334.53v-21.59c-5.4,5.4-5.4,12.6-5.4,17.99v9C3772.97,1338.13,3772.97,1334.53,3776.57,1334.53z"/>
	<path class="st0" d="M3769.37,1395.71c1.8-9,3.6-16.2,3.6-23.39c0-9-1.8-16.2-1.8-21.59c0-3.6-3.6-5.4-5.4-7.2v32.39
		C3765.77,1390.31,3767.57,1395.71,3769.37,1395.71z"/>
	<path class="st0" d="M3569.64,634.55c-9,14.39-19.79,23.39-28.79,37.79C3553.44,672.34,3569.64,645.35,3569.64,634.55z"/>
	<path class="st0" d="M3519.25,674.14c-7.2,7.2-14.4,12.6-16.2,21.59C3508.46,693.93,3517.45,679.54,3519.25,674.14z"/>
	<path class="st0" d="M3522.85,679.54c-16.2,25.19-17.99,26.99-23.39,41.39C3512.05,713.73,3522.85,692.13,3522.85,679.54z"/>
	<path class="st0" d="M3943.91,1658.43c-9-10.8-10.8-16.2-10.8-19.79c1.8,0,19.79,5.4,26.99,12.6c0-5.4-5.4-9-7.2-10.8
		c5.4,3.6,7.2,7.2,10.8,7.2c1.8,0,10.8,0,9-1.8c-7.2-7.2-23.39-21.59-25.19-28.79c12.6,0,26.99,30.59,39.59,34.19
		c-1.8-5.4-3.6-12.6-9-17.99c7.2,0,12.6,3.6,19.79,7.2c-3.6-7.2-10.8-10.8-10.8-17.99c1.8-3.6,9-7.2,18-7.2
		c12.6,12.6,19.79,17.99,23.39,17.99c5.4,0,7.2-7.2,7.2-10.8c10.8,1.8,37.79,12.6,43.19,12.6c0,0-14.39-10.8-14.39-14.4
		c0,0,9,3.6,10.8,3.6c0,0-1.8-3.6-1.8-5.4c1.8,0,3.6,3.6,9,3.6c1.8,0,25.19,7.2,37.79,7.2c0-1.8,1.8-3.6,3.6-3.6
		c14.4,0,25.19,0,25.19-12.6c0,0,21.59,12.6,32.39,12.6c-12.6-12.6-30.59-52.18-30.59-80.97c0-7.2,1.8-10.8,3.6-19.79
		c0,14.39,5.4,61.18,17.99,71.98c0-1.8,14.39,19.79,19.79,21.59c-19.79-25.19-21.59-68.38-21.59-109.76v-30.59
		c0-12.6,0-17.99,3.6-30.59c1.8,3.6,21.59,3.6,25.19,7.2c0,0-12.6,1.8-12.6,7.2c7.2-3.6,14.4-3.6,25.19-3.6c0,3.6-5.4,5.4-9,7.2
		c-3.6,0-5.4,3.6-5.4,5.4l16.2-7.2c5.4,0,5.4,9,9,9c9,0,10.8,1.8,17.99,5.4c-5.4,1.8-7.2,3.6-7.2,3.6s5.4,9,16.19,9
		c1.8,0,5.4,0,9-1.8c3.6-1.8,7.2-5.4,9-5.4c5.4,0,0,5.4,7.2,7.2c0,3.6,1.8,5.4,1.8,5.4c-5.4,0-5.4,1.8-5.4,3.6
		c0,1.8,9-3.6,14.39-3.6c3.6,0,5.4,1.8,5.4,5.4c7.2-1.8,12.6-3.6,17.99-3.6c3.6,0-19.79,12.6-30.59,14.39h12.6c3.6,0,9,1.8,10.8,3.6
		c12.6-3.6,21.59-5.4,28.79-5.4c0,0,7.2,1.8,21.59,1.8c64.78,0,255.52-23.39,309.5-268.11v-5.4c-1.8,0-14.4,48.58-25.19,52.18
		c9-28.79,19.79-59.38,19.79-89.97c0-52.18-17.99-100.77-50.38-151.15c35.99,44.99,55.78,98.97,57.58,170.95
		c0-7.2,3.6-16.2,3.6-23.39c0-149.35-113.36-250.12-255.52-289.71c98.97-57.58,174.54-174.54,176.34-273.51v-7.2
		c0-93.57-75.58-237.53-259.12-237.53c0-35.99-37.79-55.78-106.17-55.78c-152.95,0-156.55,50.38-156.55,44.99
		c-16.2,7.2-23.39,35.99-23.39,52.18c-66.58,354.49-156.55,717.97-156.55,1036.47v14.39
		C3886.33,1563.06,3888.12,1658.43,3943.91,1658.43z M4318.19,497.8c9-1.8,16.2-1.8,23.39-1.8c68.38,0,127.76,53.98,127.76,127.76
		c0,100.77-100.77,190.74-206.93,210.53C4275,717.33,4303.79,612.96,4318.19,497.8z M4228.22,1016.03c9,0,17.99-1.8,26.99-1.8
		c125.96,0,239.32,77.37,239.32,167.35v12.6c-12.6,125.96-158.35,196.14-318.5,197.94
		C4188.63,1258.95,4208.42,1141.99,4228.22,1016.03z"/>
	<path class="st0" d="M6499.06,728.12c0-120.56,142.15-275.31,286.11-275.31c9,0,19.8,0,28.79,1.8c12.59,9,25.19,14.39,35.99,14.39
		c21.59,0,37.79-16.2,37.79-43.19c0-9-1.8-17.99-5.4-28.79c-26.99-64.78-71.98-95.37-131.36-95.37
		c-271.71,0-534.43,214.13-534.43,496.64c0,12.6,0,25.19,1.8,37.79c16.19,174.54,134.96,359.88,178.14,493.04
		c7.2,19.79,9,35.99,9,53.98c0,70.18-50.38,124.16-120.56,124.16c-68.38,0-79.17-21.59-113.36-43.19c-3.6,1.8-5.4,1.8-7.2,1.8
		c-0.8,0-1.53-0.13-2.22-0.33c-37.19-87.26-82.02-172.02-129.12-253.39c-73.78-124.16-131.36-264.52-197.94-377.88
		c115.16-34.19,226.73-129.56,226.73-233.93c0-142.15-152.95-201.54-239.32-210.53c-39.59-19.79-34.19-34.19-59.38-39.59
		c-3.6,0-7.2,0-9,3.6c-12.6-1.8-23.39-3.6-34.19-3.6c-9,1.8-16.19,1.8-25.19,1.8c-26.99,0-55.78-3.6-82.77-3.6
		c-28.79,0-57.58,3.6-80.98,23.39c-9,23.39-57.58,5.4-68.38,37.79c0,3.6-5.4,3.6-5.4,7.2c3.6,1.8,7.2,1.8,9,1.8
		c5.4,0,10.8-1.8,14.4-1.8c-1.8,3.6-5.4,3.6-5.4,3.6c3.6,5.4,5.4,5.4,10.8,5.4c-0.71,14.66-1.5,29.23-2.36,43.73
		c-69.59-40.48-205.16-54.53-332.32-54.53c-46.79,0-120.56-3.6-181.74-3.6h-28.79c-61.18,3.6-136.76,12.6-136.76,52.18
		c1.8,17.99,16.2,32.39,30.59,39.59c-32.39,246.52-62.98,471.45-97.17,699.98c-1.8,48.58-19.79,143.95-19.79,228.53v10.8
		c1.8,80.97,19.79,145.75,84.57,149.35c5.4-5.4,5.4-17.99,12.6-25.19c30.59,21.59,70.18,26.99,113.36,26.99h16.19
		c52.18-1.8,248.32-30.59,248.32-34.19c53.98-10.8-12.6-23.39,86.37-26.99c0-16.2,43.19-9,43.19-16.2h9c-3.6-1.8-5.4-1.8-7.2-1.8
		c-1.8,0-3.6,0-5.4-1.8h7.2c-1.8-1.8,9-1.8,18-1.8c9,0,17.99,0,17.99-3.6c0,0-7.2-1.8-19.79-3.6c3.6,0,5.4-1.8,7.2-5.4h-16.2
		c3.6-3.6,10.8-1.8,16.2-5.4c5.4,0,10.8,1.8,16.19,1.8c3.6,0,7.2,0,9-1.8c-16.2-16.2-35.99-19.79-62.98-19.79h-23.39
		c-12.59,0-26.99,0-41.39,1.8c-23.39-3.6-43.19-7.2-62.98-7.2l-97.17,7.2h-23.39c-21.59,0-41.39-1.8-59.38-3.6
		c-1.8-12.6-1.8-26.99-1.8-39.59v-26.99c0-102.57,17.99-192.54,28.79-296.91c106.17-3.6,172.74-12.6,239.32-16.2
		c30.59-1.8,39.59-1.8,41.39-1.8c0,0-3.6-3.6-7.2-5.4c9,1.8,21.59,3.6,32.39,3.6l10.8-3.6l-1.8-1.8c10.8,0,30.59-1.8,30.59-10.8
		c9-1.8,7.2-3.6,39.59-12.6c-66.58-44.99-160.15-53.98-237.52-53.98c-53.98,0-100.77,3.6-133.16,5.4l73.78-478.65
		c57.58-1.8,264.51-14.39,278.91-16.2c-3.6,0-7.2-1.8-9-3.6c1.8,0,30.59,1.8,46.78,1.8c0-1.8-12.59-3.6-17.99-9
		c7.2,0,17.99,3.6,25.19,3.6c3.6,0,5.4,0,7.2-1.8c0,0-1.8-1.8-5.4-3.6h9c0-1.8,1.8-3.6,3.6-3.6c1.8,0,5.4,3.6,7.2,3.6
		c0,0,5.4-3.6,5.4-5.4c-9,0-18-3.6-26.99-7.2c0-1.8,3.6-1.8,5.4-1.8h16.2c7.2,0,9-1.8,9-5.4c0.73,0,4.38,0.59,9.31,1.28
		c-0.23,3.68-0.47,7.36-0.71,11.03c-3.73-3.31-5.27-3.32-6.8-3.32c1.41,4.22,3.92,5.14,6.67,5.34
		c-24.81,378-95.38,708.54-103.85,1072.52c0,37.79,0,80.97,37.79,80.97c0,0,0-30.59,14.4-30.59c5.4,0,17.99-14.39,25.19-14.39
		c0,1.8-1.8,5.4-1.8,7.2c1.8,0,18-5.4,26.99-9c0,0,1.8,1.8,5.4,1.8c5.4,0,14.4-1.8,14.4-1.8c7.2,0,10.8-3.6,12.6-5.4
		c3.6,0,7.2-1.8,9-1.8c1.8,3.6,5.4,0,5.4,5.4c0,7.2,1.8,9,1.8,9c3.6,0,3.6-1.8,3.6-5.4c0-9,1.8-9,3.6-9c3.6,0,3.6,1.8,3.6,3.6
		c0,1.8,5.4-3.6,9-3.6c0,5.4-1.8,12.6-1.8,12.6c3.6,0,12.6-16.2,14.4-16.2c1.8,0,1.8,5.4,1.8,5.4s3.6-1.8,3.6-7.2
		c1.8,0,3.6,3.6,5.4,5.4c5.4,0,3.6,9,9,9c0-3.6,0-5.4,1.8-7.2c0-1.8,5.4-1.8,5.4-1.8c0,3.6,7.2,1.8,7.2,5.4c0,0,32.39-7.2,35.99-7.2
		c7.2,0,16.2,3.6,16.2,3.6c1.8,0,1.8,1.8,1.8,7.2c0-1.8,1.8-7.2,3.6-7.2c0,0,0,1.8,5.4,5.4c14.39,0,61.18-530.83,66.58-572.22
		c57.58,136.76,226.73,444.46,264.52,509.24c14.39,23.39,26.99,35.99,52.18,44.99c3.6-3.6,14.4-1.8,14.4-9c0,0,0-1.8-1.8-5.4
		l14.4,7.2c-1.8-1.8-5.4-9-5.4-14.39c0-1.8,12.59,14.39,21.59,14.39c0-1.8,3.6,3.6,5.4,7.2c0-7.2-1.8-10.8-1.8-16.2
		c0,1.8,5.4,7.2,9,7.2c0-7.2,0-9,3.6-9c-3.6-5.4-5.4-10.8-5.4-10.8c12.6,9,12.6,14.4,26.99,14.4c3.6,0,5.4,0,5.4-1.8
		c0-1.8-3.6-7.2-3.6-9c-1.8-5.4-3.6-10.8-3.6-16.2c7.2,3.6,9,5.4,10.8,5.4c1.8,0,3.6-1.8,7.2-1.8c-3.6-3.6-3.6-9-3.6-12.6
		c5.4,0,12.6,9,16.2,14.4v-14.4c1.8,0,3.6,1.8,5.4,1.8c3.6,0,9,1.8,10.8,3.6c0-1.8,0-3.6,3.6-3.6c0.22,0.05,0.42,0.12,0.63,0.18
		c25.04,36.63,57.63,72.53,76.73,82.59c28.79,25.19,106.17,32.39,124.16,32.39c140.35,0,286.11-140.36,296.9-293.31
		c0-9,1.8-17.99,1.8-26.99c0-196.14-161.95-419.27-172.74-595.61V728.12z M5462.61,1303.94c1.8,1.8,1.8,10.8,1.8,14.4
		c-3.6,0-3.6-3.6-3.6-7.2C5460.81,1307.54,5460.81,1305.74,5462.61,1303.94z M5430.22,1458.69c0,0-1.8-1.8-1.8-5.4
		c0-3.6-1.8-9-1.8-14.39c0-7.2,1.8-16.2,3.6-23.39c3.6-1.8,1.8-5.4,9-5.4v7.2c0,5.4-1.8,5.4-3.6,5.4c-1.8,10.8-3.6,19.79-7.2,30.59
		C5430.22,1453.29,5430.22,1458.69,5430.22,1458.69z M5448.21,1555.86c-1.8,1.8-3.6,1.8-5.4,1.8c0-1.8-1.8-14.39-1.8-14.39
		c0-1.8-1.8-3.6-1.8-5.4c0-1.8,3.6-1.8,5.4-1.8c0-3.6-3.6-5.4-3.6-5.4c-1.8-3.6-3.6-5.4-3.6-7.2c0-3.6,7.2,7.2,7.2,3.6l3.6,9
		l-3.6,5.4c5.4,0,5.4,1.8,5.4,3.6C5450.01,1548.66,5448.21,1554.06,5448.21,1555.86z M5446.41,1483.88c1.8,1.8,1.8,3.6,1.8,5.4
		c0,3.6-1.8,5.4-1.8,10.8c-3.6-1.8-5.4-9-5.4-9c0-3.6,1.8-5.4,1.8-7.2c0-5.4,0-19.79,5.4-23.39c0,3.6,1.8,7.2,1.8,10.8
		C5450.01,1476.68,5448.21,1480.28,5446.41,1483.88z M5453.61,1455.09c-3.6,1.8-7.2,1.8-7.2,1.8c0-1.8,0-3.6-1.8-5.4
		c1.8-3.6,1.8-5.4,1.8-7.2l3.6-7.2c3.6,1.8,5.4,5.4,5.4,9C5455.41,1449.69,5453.61,1453.29,5453.61,1455.09z M5451.81,1413.7
		c-5.4-5.4-7.2-12.6-7.2-19.79c0-10.8,3.6-23.39,3.6-30.59c0-3.6-1.8-10.8-1.8-16.19c0-9,1.8-16.2,3.6-23.39c3.6,3.6,3.6,5.4,3.6,9
		c0,5.4-1.8,9-3.6,12.6c5.4,0,5.4-1.8,9-1.8v43.19c1.8-3.6,3.6-18,5.4-18c0,3.6-1.8,10.8-1.8,14.4l5.4,3.6c0,5.4-5.4,10.8-5.4,12.6
		C5462.61,1397.51,5455.41,1408.31,5451.81,1413.7z M5469.8,1438.9c-1.8-1.8-3.6-3.6-3.6-5.4c0-1.8,1.8-3.6,5.4-3.6
		C5473.4,1429.9,5469.8,1435.3,5469.8,1438.9z M5475.2,1410.11c0-3.6,1.8-12.6,3.6-10.8
		C5478.8,1402.91,5478.8,1406.51,5475.2,1410.11z M5482.4,1521.67c-1.8-7.2-1.8-10.8-1.8-12.6c1.8,0,3.6,3.6,3.6,5.4
		C5484.2,1518.07,5482.4,1519.87,5482.4,1521.67z M5754.11,740.72c9-91.77,19.79-176.34,35.99-262.72
		c52.18,1.8,140.35,34.19,140.35,100.77c0,79.18-77.38,149.35-178.14,181.74C5752.31,753.32,5754.11,747.92,5754.11,740.72z"/>
	<path class="st0" d="M6796.48,1505.09c-0.13-0.4-0.24-0.8-0.31-1.18c-0.08-0.08-0.15-0.16-0.23-0.24
		C6795.94,1504.33,6796.18,1504.74,6796.48,1505.09z"/>
	<path class="st0" d="M6796.48,1505.09c0.27,0.79,0.66,1.59,1.26,2.18C6797.74,1506.13,6797.01,1505.71,6796.48,1505.09z"/>
	<path class="st0" d="M7665.06,965.65c-16.2-12.6-52.18-23.39-115.16-28.79c16.2-82.77,19.79-120.56,37.79-212.33
		c9-46.79,19.8-138.56,19.8-221.33c0-64.78-5.4-124.16-25.19-151.15c-5.4,0-10.79,1.8-12.59,1.8c-1.8,0-3.6-1.8-5.4-3.6
		c0,5.4,0,7.2-1.8,7.2c-1.8,0-5.4-5.4-7.2-5.4c-5.4,3.6-12.6,3.6-19.8,3.6h-10.8c-1.8,1.8-3.6,7.2-3.6,7.2c-10.8,0-3.6,16.2-9,16.2
		c-5.4,0-9-3.6-12.6-10.8c0,0-3.6,10.8-9,10.8s-9,5.4-12.6,5.4c-10.8,0-7.2,7.2-10.8,9c0-3.6-3.6-5.4-7.2-5.4c0,3.6,0,7.2-1.8,10.8
		c-41.39,172.74-55.78,349.09-86.37,523.63c-84.57-3.6-156.55-9-232.13-12.6c5.4-104.37,46.78-304.1,46.78-424.66
		c0-44.99-7.2-77.37-21.59-91.77c-3.6-1.8-3.6-7.2-3.6-12.6s0-9-1.8-10.8c-1.8-3.6-9-21.59-14.39-23.39
		c-5.4-14.4-5.4-30.59-25.19-30.59c-3.6,0-35.99,3.6-43.19,7.2c-9,7.2-9,10.8-16.2,12.6c-5.4,0-12.59,7.2-16.19,9
		c-10.8,0-17.99-3.6-25.19-3.6c-5.4,0-12.6,1.8-23.39,9c-18,0-23.39,32.39-43.19,32.39c-57.58,172.74-79.17,354.49-109.76,520.03
		c-10.8,0-25.19,1.8-28.79,5.4c0,0,10.8,3.6,10.8,5.4c-12.59,1.8-75.57,3.6-75.57,12.6c0,1.8,1.8,3.6,7.2,5.4
		c-10.8,0-16.19,10.8-25.19,10.8c-5.4,1.8-9,5.4-9,12.6c0,21.59,28.79,61.18,37.79,59.38c43.18-1.8,70.18-1.8,70.18-1.8
		c-10.8,89.97-37.79,277.11-37.79,408.47c0,30.59,0,59.38,3.6,82.77v-1.8c0,0,0,0.91,0.23,2.04
		c30.33,30.77,25.16,113.13,102.34,113.13c5.4,0,7.2-1.8,7.2-1.8c0-3.6-3.6-9-3.6-10.8c7.2,5.4,12.6,9,12.6,10.8
		c9,7.2,46.79,14.4,53.98,14.4c5.4,0,7.2,3.6,7.2,3.6c0-1.8,0-10.8,1.8-16.19c1.8,1.8,7.2,3.6,9,3.6c5.4,0,12.6-1.8,18-1.8
		c1.8,0,19.79-1.8,28.79-1.8c5.4,0,10.8,0,16.2,1.8h7.2c5.4,0,10.8,1.8,16.19,1.8c3.6,0,7.2-1.8,12.59-3.6
		c3.6,1.8,12.6,16.19,16.2,17.99c-5.4-3.6-7.2-41.39-7.2-98.97c0-176.34,21.59-529.03,34.19-525.43c70.18-3.6,95.37-9,163.75-9
		c19.79,0,43.19,0,70.18,1.8l-3.6,34.19c0,7.2-1.8,16.2-1.8,23.39c-9,86.37-19.79,163.75-19.79,246.52c0,16.2,1.8,32.39,1.8,48.58
		c1.8,62.98,5.4,127.76,57.58,181.74c3.6,3.6,5.4-16.2,5.4-25.19c5.4,9,3.6,14.4,16.2,19.79c-3.6-5.4-5.4-9-5.4-10.8
		c1.8-1.8,10.8,7.2,14.39,10.8c0-5.4-1.8-9-1.8-12.6c0-5.4,1.8-7.2,3.6-7.2c5.4,0,14.4,14.4,16.2,14.4c0,0,0-12.6-3.6-17.99
		c5.4,0,10.8-1.8,14.4-1.8c3.6,0,5.4,1.8,9,3.6c0-1.8,3.6-9,3.6-9c7.2,1.8,7.2,9,12.6,16.19c0-5.4,3.6-7.2,5.4-7.2
		c1.8,12.6,12.59,10.8,23.39,14.4l1.8-5.4c9,0,14.39,7.2,19.79,9c-14.4-10.8-17.99-88.17-17.99-178.14
		c0-138.56,12.59-309.5,26.99-334.69h43.19c-3.6-5.4-3.6-7.2-3.6-7.2c10.8,0,14.4,3.6,12.59,1.8h9c1.8,0-7.2-7.2-3.6-7.2
		c7.2,0,12.6,3.6,16.2,7.2c3.6-1.8,7.2-1.8,9-1.8c5.4,0,10.8,1.8,12.59,1.8c1.8,0,1.8-1.8,1.8-7.2
		C7652.47,1003.43,7645.27,967.45,7665.06,965.65z"/>
	<path class="st0" d="M8071.72,416.82c0-7.2-3.6-21.59-3.6-23.39c-3.6,0-12.59-1.8-16.2-1.8c-3.6,0-3.6-7.2-5.4-7.2
		c-10.79,0-9,1.8-14.39,10.8c-10.8-16.19-43.19-19.79-59.38-19.79h-25.19c-10.8,7.2-17.99,9-21.59,9c-5.4,0-9-5.4-14.4-5.4
		c-1.8,0-3.6,1.8-5.4,1.8c0,1.8-3.6,1.8-7.2,1.8c-12.6,5.4-21.59,25.19-37.79,25.19c-3.6,1.8-5.4,1.8-7.2,1.8
		c-1.8,0-1.8-1.8-12.59-1.8c-3.59,5.38-7.17,28.6-14.31,30.56c-1.01-1.34-7.57-8.68-9.08-7.17c-10.8,9-7.2,9-14.39,21.59
		c-7.2,1.8-18,7.2-18,16.2c0,1.8-17.99,10.8-19.79,19.79c-35.99,340.09-120.56,692.78-122.36,1036.47
		c1.8,34.19,16.19,64.78,50.39,68.38c17.99,0,19.79-5.4,25.19-10.8l7.2,5.4c0,0,5.4-12.6,12.59-12.6
		c5.4,5.4,19.79,28.79,19.79,23.39c0-1.8,0-5.4-3.6-12.6c0,0-3.6-3.6-3.6-5.4c3.6,0,5.4,1.8,5.4,1.8
		c14.4,12.6,35.99,7.2,48.59,32.39c1.8-1.8,5.4-7.2,5.4-12.6c0-1.8-1.8-3.6-3.6-5.4c3.6-1.8,5.4-1.8,7.2-1.8c7.2,0,1.8,9,14.39,9
		c0-1.8,7.2-10.8,9-10.8c12.6,0,5.4,7.2,14.4,16.2v-9c3.6-5.4,21.59-7.2,21.59-9l7.2,7.2c1.8,0,9-7.2,16.2-7.2
		c1.8,0,10.8-1.8,18-1.8c3.6,0,7.2,0,9,1.8c7.2,5.4,14.39,9,17.99,9c7.2,0,9,0,16.19,5.4c-3.6-7.2-5.4-12.6-5.4-19.79l-5.4-98.97
		c1.8-39.59,3.6-75.58,7.2-107.97C7981.75,1109.6,8057.33,690.34,8071.72,416.82z"/>
	<path class="st0" d="M8375.81,335.85c-138.55,0-259.12,30.59-259.12,84.57c0,17.99,10.8,35.99,32.39,35.99
		c21.59,0,32.39-14.4,52.18-16.2c1.8,1.8,1.8,5.4,1.8,12.6c0,170.95-43.19,354.49-57.58,514.64
		c-14.39,170.94-44.98,349.09-44.98,516.43c0,84.57,14.4,194.34,53.98,194.34c3.6,0,3.6-3.6,5.4-3.6c19.8-7.2,80.98-5.4,80.98-14.4
		c0-1.8,1.8-7.2,3.6-9c0-3.6-3.6-3.6-3.6-9c1.8,0,3.6,3.6,5.4,3.6c0-9,0-10.8,3.6-12.6c1.8,5.4,5.4,12.6,5.4,12.6
		c1.8,0,1.8-1.8,1.8-5.4l5.4,9c0-9-5.4-12.6-7.2-17.99c7.2,0,5.4,7.2,9,7.2c0,0-5.82-13.1-6.99-14.42c1.73-0.26,3.39-3.64,3.39-5.37
		l9,12.6v-5.4c1.8-1.8,5.4,7.2,7.2,10.8c0-5.4-1.8-9-1.8-12.6c0-5.4,9-1.8,9-12.6c0-3.6,1.8,5.4,3.6,5.4c0-1.8,1.8,12.6,7.2,12.6
		c1.8,0,5.4-3.6,7.2-10.8c1.8,1.8,1.8,9,7.2,9c0-12.6,18-19.79,32.39-19.79c21.59,0,12.59-12.6,26.99-28.79c0-1.8,1.8-5.4,1.8-7.2
		c-1.8-12.6-1.8-26.99-1.8-39.59c0-55.78,9-113.36,10.8-169.15c9-197.94,37.79-376.08,61.18-563.22c7.2,1.8,9,1.8,9,3.6
		c0,12.6,39.59,14.4,64.78,14.4h21.59c134.96,0,248.32-120.56,248.32-241.12C8784.28,384.43,8514.36,335.85,8375.81,335.85z
		 M8449.58,737.12c9-53.98,34.19-291.51,39.59-304.1c0-1.8,3.6-1.8,5.4-1.8c5.4,0,12.59,1.8,16.19,1.8l7.2,3.6
		c73.78,16.19,124.16,61.18,124.16,149.35C8638.52,679.54,8534.16,719.13,8449.58,737.12z"/>
	<path class="st0" d="M942.49,2172.42c0-192.54-269.91-241.12-408.47-241.12s-259.12,30.59-259.12,84.57
		c0,17.99,10.8,35.99,32.39,35.99c21.59,0,32.39-14.4,52.18-16.2c1.8,1.8,1.8,5.4,1.8,12.6c0,170.95-43.19,354.49-57.58,514.64
		c-14.4,170.94-44.99,349.09-44.99,516.43c0,84.57,14.4,194.34,53.98,194.34c3.6,0,3.6-3.6,5.4-3.6c19.79-7.2,80.97-5.4,80.97-14.4
		c0-1.8,1.8-7.2,3.6-9c0-3.6-3.6-3.6-3.6-9c1.8,0,3.6,3.6,5.4,3.6c0-9,0-10.8,3.6-12.6c1.8,5.4,5.4,12.6,5.4,12.6
		c1.8,0,1.8-1.8,1.8-5.4l5.4,9c0-9-5.4-12.6-7.2-17.99c7.2,0,5.4,7.2,9,7.2c0,0-5.82-13.1-6.99-14.42c1.73-0.26,3.39-3.64,3.39-5.37
		l9,12.6v-5.4c1.8-1.8,5.4,7.2,7.2,10.8c0-5.4-1.8-9-1.8-12.6c0-5.4,9-1.8,9-12.6c0-3.6,1.8,5.4,3.6,5.4c0-1.8,1.8,12.6,7.2,12.6
		c1.8,0,5.4-3.6,7.2-10.8c1.8,1.8,1.8,9,7.2,9c0-12.6,17.99-19.79,32.39-19.79c21.59,0,12.6-12.6,26.99-28.79c0-1.8,1.8-5.4,1.8-7.2
		c-1.8-12.6-1.8-26.99-1.8-39.59c0-55.78,9-113.36,10.8-169.15c9-197.94,37.79-376.08,61.18-563.22c7.2,1.8,9,1.8,9,3.6
		c0,12.6,39.59,14.4,64.78,14.4h21.59C829.13,2413.54,942.49,2292.98,942.49,2172.42z M607.8,2332.57
		c9-53.98,34.19-291.51,39.59-304.1c0-1.8,3.6-1.8,5.4-1.8c5.4,0,12.6,1.8,16.2,1.8l7.2,3.6c73.78,16.19,124.16,61.18,124.16,149.35
		C796.74,2274.98,692.37,2314.57,607.8,2332.57z"/>
	<path class="st0" d="M1313.16,2429.74c115.16-34.19,226.73-129.56,226.73-233.93c0-142.16-152.95-201.54-239.32-210.53
		c-39.59-19.79-34.19-34.19-59.38-39.59c-3.6,0-7.2,0-9,3.6c-12.6-1.8-23.39-3.6-34.19-3.6c-9,1.8-16.2,1.8-25.19,1.8
		c-26.99,0-55.78-3.6-82.77-3.6c-28.79,0-57.58,3.6-80.97,23.39c-9,23.39-57.58,5.4-68.38,37.79c0,3.6-5.4,3.6-5.4,7.2
		c3.6,1.8,7.2,1.8,9,1.8c5.4,0,10.8-1.8,14.4-1.8c-1.8,3.6-5.4,3.6-5.4,3.6c3.6,5.4,5.4,5.4,10.8,5.4
		c-19.79,408.47-98.97,757.56-107.96,1144.43c0,37.79,0,80.97,37.79,80.97c0,0,0-30.59,14.4-30.59c5.4,0,17.99-14.39,25.19-14.39
		c0,1.8-1.8,5.4-1.8,7.2c1.8,0,17.99-5.4,26.99-9c0,0,1.8,1.8,5.4,1.8c5.4,0,14.4-1.8,14.4-1.8c7.2,0,10.8-3.6,12.6-5.4
		c3.6,0,7.2-1.8,9-1.8c1.8,3.6,5.4,0,5.4,5.4c0,7.2,1.8,9,1.8,9c3.6,0,3.6-1.8,3.6-5.4c0-9,1.8-9,3.6-9c3.6,0,3.6,1.8,3.6,3.6
		c0,1.8,5.4-3.6,9-3.6c0,5.4-1.8,12.6-1.8,12.6c3.6,0,12.6-16.2,14.4-16.2c1.8,0,1.8,5.4,1.8,5.4s3.6-1.8,3.6-7.2
		c1.8,0,3.6,3.6,5.4,5.4c5.4,0,3.6,9,9,9c0-3.6,0-5.4,1.8-7.2c0-1.8,5.4-1.8,5.4-1.8c0,3.6,7.2,1.8,7.2,5.4c0,0,32.39-7.2,35.99-7.2
		c7.2,0,16.2,3.6,16.2,3.6c1.8,0,1.8,1.8,1.8,7.2c0-1.8,1.8-7.2,3.6-7.2c0,0,0,1.8,5.4,5.4c14.4,0,61.18-530.83,66.58-572.22
		c57.58,136.76,226.73,444.46,264.52,509.24c14.39,23.39,26.99,35.99,52.18,44.99c3.6-3.6,14.4-1.8,14.4-9c0,0,0-1.8-1.8-5.4
		l14.4,7.2c-1.8-1.8-5.4-9-5.4-14.39c0-1.8,12.6,14.39,21.59,14.39c0-1.8,3.6,3.6,5.4,7.2c0-7.2-1.8-10.8-1.8-16.2
		c0,1.8,5.4,7.2,9,7.2c0-7.2,0-9,3.6-9c-3.6-5.4-5.4-10.8-5.4-10.8c12.6,9,12.6,14.4,26.99,14.4c3.6,0,5.4,0,5.4-1.8
		c0-1.8-3.6-7.2-3.6-9c-1.8-5.4-3.6-10.8-3.6-16.2c7.2,3.6,9,5.4,10.8,5.4c1.8,0,3.6-1.8,7.2-1.8c-3.6-3.6-3.6-9-3.6-12.6
		c5.4,0,12.6,9,16.2,14.4v-14.4c1.8,0,3.6,1.8,5.4,1.8c3.6,0,9,1.8,10.8,3.6c0-1.8,0-3.6,3.6-3.6c7.2,1.8,9,7.2,12.6,7.2
		c-1.8-3.6-1.8-5.4-7.2-10.8c-1.8-1.8,3.6-1.8,7.2-1.8c1.8,0,3.6,1.8,5.4,1.8c-41.39-111.56-97.17-219.53-156.55-322.1
		C1437.32,2683.45,1379.74,2543.1,1313.16,2429.74z M940.68,2899.38c1.8,1.8,1.8,10.8,1.8,14.4c-3.6,0-3.6-3.6-3.6-7.2
		C938.88,2902.98,938.88,2901.18,940.68,2899.38z M908.29,3054.14c0,0-1.8-1.8-1.8-5.4c0-3.6-1.8-9-1.8-14.39
		c0-7.2,1.8-16.2,3.6-23.39c3.6-1.8,1.8-5.4,9-5.4v7.2c0,5.4-1.8,5.4-3.6,5.4c-1.8,10.8-3.6,19.79-7.2,30.59
		C908.29,3048.74,908.29,3054.14,908.29,3054.14z M926.29,3151.3c-1.8,1.8-3.6,1.8-5.4,1.8c0-1.8-1.8-14.39-1.8-14.39
		c0-1.8-1.8-3.6-1.8-5.4c0-1.8,3.6-1.8,5.4-1.8c0-3.6-3.6-5.4-3.6-5.4c-1.8-3.6-3.6-5.4-3.6-7.2c0-3.6,7.2,7.2,7.2,3.6l3.6,9
		l-3.6,5.4c5.4,0,5.4,1.8,5.4,3.6C928.09,3144.11,926.29,3149.51,926.29,3151.3z M924.49,3079.33c1.8,1.8,1.8,3.6,1.8,5.4
		c0,3.6-1.8,5.4-1.8,10.8c-3.6-1.8-5.4-9-5.4-9c0-3.6,1.8-5.4,1.8-7.2c0-5.4,0-19.79,5.4-23.39c0,3.6,1.8,7.2,1.8,10.8
		C928.09,3072.13,926.29,3075.73,924.49,3079.33z M931.69,3050.54c-3.6,1.8-7.2,1.8-7.2,1.8c0-1.8,0-3.6-1.8-5.4
		c1.8-3.6,1.8-5.4,1.8-7.2l3.6-7.2c3.6,1.8,5.4,5.4,5.4,9S931.69,3048.74,931.69,3050.54z M929.89,3009.15
		c-5.4-5.4-7.2-12.6-7.2-19.79c0-10.8,3.6-23.39,3.6-30.59c0-3.6-1.8-10.8-1.8-16.19c0-9,1.8-16.2,3.6-23.39c3.6,3.6,3.6,5.4,3.6,9
		c0,5.4-1.8,9-3.6,12.6c5.4,0,5.4-1.8,9-1.8v43.19c1.8-3.6,3.6-18,5.4-18c0,3.6-1.8,10.8-1.8,14.4l5.4,3.6c0,5.4-5.4,10.8-5.4,12.6
		C940.68,2992.95,933.48,3003.75,929.89,3009.15z M947.88,3034.34c-1.8-1.8-3.6-3.6-3.6-5.4c0-1.8,1.8-3.6,5.4-3.6
		C951.48,3025.34,947.88,3030.74,947.88,3034.34z M953.28,3005.55c0-3.6,1.8-12.6,3.6-10.8
		C956.88,2998.35,956.88,3001.95,953.28,3005.55z M960.48,3117.12c-1.8-7.2-1.8-10.8-1.8-12.6c1.8,0,3.6,3.6,3.6,5.4
		C962.27,3113.52,960.48,3115.32,960.48,3117.12z M1232.19,2336.16c9-91.77,19.79-176.34,35.99-262.72
		c52.18,1.8,140.36,34.19,140.36,100.77c0,79.18-77.38,149.35-178.14,181.74C1230.39,2348.76,1232.19,2343.36,1232.19,2336.16z"/>
	<path class="st0" d="M2223.66,1981.68c-39.59,0-73.78,3.6-89.97,7.2c-255.52,55.78-496.64,446.26-496.64,681.98
		c-1.8,19.79-1.8,39.59-1.8,57.58c0,185.34,68.38,286.11,230.33,395.87c57.58,39.59,133.16,66.58,203.33,66.58
		c32.39,0,62.98-5.4,91.77-17.99c197.94-88.17,300.51-367.08,300.51-570.42c0-41.39-9-151.15-41.39-163.75c-1.8-1.8-1.8-3.6-1.8-7.2
		s0-5.4-1.8-7.2c-5.4-19.79-14.4-28.79-26.99-41.39c-1.8-10.8-25.19-48.58-35.99-48.58l-12.6-25.19c-3.6-1.8-7.2-1.8-10.8-1.8
		c-5.4,0-10.8,1.8-10.8,9c-1.8,1.8-1.8,5.4-1.8,7.2c0,5.4,1.8,9,1.8,14.4c14.39,37.79,17.99,91.77,17.99,131.36
		c-16.2,143.95-53.98,287.91-115.16,412.07c-21.59,44.99-50.38,88.17-89.97,118.76c-28.79,23.39-59.38,39.59-106.17,39.59
		c-95.37,0-115.16-133.16-115.16-233.93c0-34.19,3.6-64.78,5.4-84.57c41.39-194.34,143.95-406.67,327.5-485.84
		c75.58-16.2,190.74-10.8,217.73-88.17c3.6-12.6,5.4-23.39,5.4-32.39c0-23.39-12.6-34.19-23.39-62.98
		C2430.59,1997.87,2311.83,1981.68,2223.66,1981.68z"/>
	<path class="st0" d="M4814.78,2714.04c0-3.6,1.8-7.2,1.8-10.8c0-1.8,0-3.6-3.6-3.6h-7.2c-1.8,0-5.4,0-5.4-1.8c0-1.8,0-3.6,1.8-5.4
		c-25.19-5.4-35.99-9-82.77-10.8c-16.2-145.75-71.98-628-111.56-719.77c-5.4-1.8-9-1.8-10.8-7.2c-5.4,0-7.2-3.6-10.8-3.6
		c0,9,7.2,16.19,7.2,19.79c-7.2-3.6-7.2-10.8-19.79-10.8c0-5.4-1.8-5.4-5.4-9c0,3.6,3.6,9,3.6,9c-1.8-1.8,5.4,17.99,9,23.39
		c-7.2,0-9-7.2-12.6-7.2c-7.2-5.4-9-16.2-17.99-21.59v7.2c-1.8-3.6-1.8,5.4-1.8,5.4s-5.4-7.2-9-7.2c5.4,3.6,9,9,9,14.4
		c-7.2,0-9-5.4-12.6-5.4c-7.2,0-7.2-7.2-10.8-14.4c0,5.4-9,3.6-9,5.4c-3.6,0-3.6-3.6-3.6-3.6c-1.8,0-9-1.8-9-1.8
		c-23.39-12.6,0-19.79-25.19-28.79h-9c-134.96,0-210.53,244.72-260.92,332.89c-64.78,149.35-127.76,289.71-178.14,431.86
		c-9,7.2-26.99,26.99-26.99,44.99c0,5.4,1.8,10.8,5.4,16.2c-17.82,45.24-52.36,142.71-67.79,206.46
		c-25.57-51.33-53.14-101.62-81.54-150.67c-73.78-124.16-131.36-264.52-197.94-377.88c115.16-34.19,226.73-129.56,226.73-233.93
		c0-142.16-152.95-201.54-239.32-210.53c-39.59-19.79-34.19-34.19-59.38-39.59c-3.6,0-7.2,0-9,3.6c-12.6-1.8-23.39-3.6-34.19-3.6
		c-9,1.8-16.2,1.8-25.19,1.8c-26.99,0-55.78-3.6-82.77-3.6c-28.79,0-57.58,3.6-80.97,23.39c-9,23.39-57.58,5.4-68.38,37.79
		c0,3.6-5.4,3.6-5.4,7.2c3.6,1.8,7.2,1.8,9,1.8c5.4,0,10.8-1.8,14.4-1.8c-1.8,3.6-5.4,3.6-5.4,3.6c3.6,5.4,5.4,5.4,10.8,5.4
		c-8.36,172.56-27.32,334.51-47.11,493.2c-5.28-0.1-10.57-0.16-15.86-0.16c-134.96,0-273.51,30.59-313.1,30.59
		c-16.2-3.6-34.19-5.4-52.18-5.4c-16.2,0-32.39,1.8-48.59,10.8c23.39-95.37,88.17-219.53,156.55-287.91
		c52.18-46.79,100.77-82.77,163.75-107.97c7.2,3.6,16.2,5.4,25.19,5.4c21.59,0,43.19-9,48.59-19.79c1.8-3.6,1.8-9,1.8-12.6
		c0-53.98-129.56-136.76-183.54-136.76c-7.2,0-12.6,0-16.2,3.6c-12.6-5.4-34.19-10.8-52.18-10.8c-9,0-16.19,1.8-23.39,3.6
		c-228.53,80.97-349.09,302.3-408.47,520.03c-28.79,109.76-50.38,223.13-50.38,332.89c0,46.78,3.6,91.77,12.6,136.76
		c0,5.4,1.8,16.19,3.6,25.19c1.8,12.6,7.2,23.39,10.8,35.99c28.79,97.17,138.56,167.35,244.72,167.35c34.19,0,68.38-7.2,98.97-23.39
		c55.78-53.98,142.16-62.98,174.54-136.76c71.98-106.17,71.98-230.33,111.57-347.29v-21.59c-9,30.59-41.39,120.56-50.38,167.35
		c9-68.38,32.39-118.76,48.58-179.94c30.59-17.99,50.38-14.39,88.17-19.79c2.8-0.19,5.72-0.35,8.72-0.52
		c-21.38,172.44-40.56,343.35-44.73,522.35c0,37.79,0,80.97,37.79,80.97c0,0,0-30.59,14.4-30.59c5.4,0,17.99-14.39,25.19-14.39
		c0,1.8-1.8,5.4-1.8,7.2c1.8,0,17.99-5.4,26.99-9c0,0,1.8,1.8,5.4,1.8c5.4,0,14.4-1.8,14.4-1.8c7.2,0,10.8-3.6,12.6-5.4
		c3.6,0,7.2-1.8,9-1.8c1.8,3.6,5.4,0,5.4,5.4c0,7.2,1.8,9,1.8,9c3.6,0,3.6-1.8,3.6-5.4c0-9,1.8-9,3.6-9c3.6,0,3.6,1.8,3.6,3.6
		c0,1.8,5.4-3.6,9-3.6c0,5.4-1.8,12.6-1.8,12.6c3.6,0,12.6-16.2,14.4-16.2c1.8,0,1.8,5.4,1.8,5.4s3.6-1.8,3.6-7.2
		c1.8,0,3.6,3.6,5.4,5.4c5.4,0,3.6,9,9,9c0-3.6,0-5.4,1.8-7.2c0-1.8,5.4-1.8,5.4-1.8c0,3.6,7.2,1.8,7.2,5.4c0,0,32.39-7.2,35.99-7.2
		c7.2,0,16.2,3.6,16.2,3.6c1.8,0,1.8,1.8,1.8,7.2c0-1.8,1.8-7.2,3.6-7.2c0,0,0,1.8,5.4,5.4c14.4,0,61.18-530.83,66.58-572.22
		c57.58,136.76,226.73,444.46,264.52,509.24c14.39,23.39,26.99,35.99,52.18,44.99c3.6-3.6,14.4-1.8,14.4-9c0,0,0-1.8-1.8-5.4
		l14.4,7.2c-1.8-1.8-5.4-9-5.4-14.39c0-1.8,12.6,14.39,21.59,14.39c0-1.8,3.6,3.6,5.4,7.2c0-7.2-1.8-10.8-1.8-16.2
		c0,1.8,5.4,7.2,9,7.2c0-7.2,0-9,3.6-9c-3.6-5.4-5.4-10.8-5.4-10.8c12.6,9,12.6,14.4,26.99,14.4c3.6,0,5.4,0,5.4-1.8
		c0-1.8-3.6-7.2-3.6-9c-1.8-5.4-3.6-10.8-3.6-16.2c0.8,0.4,1.53,0.78,2.2,1.13l4.98,4.26l16.2,9c1.8,32.39,21.59,17.99,39.59,35.99
		c17.99,3.6,14.39,5.4,32.39,5.4c26.99,0,80.97-7.2,106.17-7.2c43.19-125.96,107.97-278.91,145.75-379.68
		c35.99-5.4,196.14-7.2,250.12-7.2c14.4,152.95,32.39,296.91,53.98,444.46c5.4,18,3.6,28.79,9,39.59c10.8-3.6,5.4-16.19,10.8-21.59
		c0-3.6,5.4-3.6,5.4-3.6v-14.4c0-3.6,1.8-7.2,1.8-14.39c1.8,7.2,1.8,10.8,1.8,14.39c1.8-1.8,1.8-5.4,1.8-9c0-3.6,0-7.2,3.6-7.2h5.4
		c1.8,0,3.6,7.2,3.6,9v7.2c0,7.2,0,10.8,1.8,10.8c3.6,0,5.4-10.8,5.4-19.79c3.6-1.8,7.2,14.39,7.2,12.6c5.4,0,5.4-3.6,9-3.6
		c1.8,0,12.6,10.8,16.19,18c1.8,0,1.8-12.6,1.8-12.6c3.6,0,3.6,3.6,3.6,3.6c3.6,0,3.6-5.4,7.2-5.4c3.6,0,3.6-7.2,3.6-16.2v-19.79
		c3.6,9,0,17.99,7.2,32.39c3.6,12.6,3.6,25.19,9,35.99c0-9,0-26.99,3.6-30.59c0-1.8-3.6-1.8-3.6-5.4c0-1.8,3.6-14.39,3.6-19.79
		c0-9,1.8-16.2,3.6-19.79c1.8,10.8,1.8,32.39,12.6,35.99v-17.99l5.4-10.8c1.8,1.8,1.8,3.6,1.8,5.4c0,1.8,0,5.4,1.8,7.2
		c3.6,3.6,5.4,5.4,5.4,9c0,3.6,3.6,5.4,3.6,7.2c0-23.39,9-70.18,9-109.76c0-9,0-16.2-1.8-23.39c-9-97.17-19.79-206.93-26.99-304.1
		c12.6-3.6,21.59-3.6,34.19-7.2c1.8-1.8-12.6-10.8-12.6-12.6h9c3.6-1.8,10.8-3.6,16.19-3.6c0,0,12.6-9,12.6-14.4c0-7.2,0-9,5.4-9
		c0-5.4,5.4-9,9-9c3.6-1.8,5.4-3.6,5.4-5.4c0-1.8-1.8-5.4-1.8-7.2c0-1.8,1.8-3.6,5.4-3.6c-1.8-1.8-5.4-7.2-5.4-10.8
		c1.8,0,7.2,0,10.8-1.8C4814.78,2719.44,4814.78,2717.64,4814.78,2714.04z M2812.06,3045.14c-17.99-30.59-25.19-70.18-28.79-106.17
		c-1.8-25.19-3.6-52.18-3.6-77.37c0-91.77,14.39-183.54,43.19-266.32c1.8,5.4,9,19.79,16.2,21.59c-1.8,1.8,12.6,3.6,12.6,7.2
		c1.8,0-5.4,3.6-5.4,7.2c5.4,1.8,21.59,7.2,21.59,10.8c0,5.4,5.4,5.4,7.2,5.4c0,3.6-1.8,3.6-1.8,5.4c0,1.8,5.4,5.4,7.2,9
		c5.4,1.8,9,3.6,14.4,3.6c1.8,3.6,0,10.8,9,10.8c5.4,3.6,7.2,5.4,10.8,5.4c5.4,0,12.6-3.6,16.2-3.6c1.8,5.4,5.4,9,5.4,12.6
		c-3.6,0,10.8,14.39,16.2,14.39C2934.42,2787.82,2873.24,2996.55,2812.06,3045.14z M3288.89,2899.38c1.8,1.8,1.8,10.8,1.8,14.4
		c-3.6,0-3.6-3.6-3.6-7.2C3287.09,2902.98,3287.09,2901.18,3288.89,2899.38z M3256.5,3054.14c0,0-1.8-1.8-1.8-5.4
		c0-3.6-1.8-9-1.8-14.39c0-7.2,1.8-16.2,3.6-23.39c3.6-1.8,1.8-5.4,9-5.4v7.2c0,5.4-1.8,5.4-3.6,5.4c-1.8,10.8-3.6,19.79-7.2,30.59
		C3256.5,3048.74,3256.5,3054.14,3256.5,3054.14z M3274.49,3151.3c-1.8,1.8-3.6,1.8-5.4,1.8c0-1.8-1.8-14.39-1.8-14.39
		c0-1.8-1.8-3.6-1.8-5.4c0-1.8,3.6-1.8,5.4-1.8c0-3.6-3.6-5.4-3.6-5.4c-1.8-3.6-3.6-5.4-3.6-7.2c0-3.6,7.2,7.2,7.2,3.6l3.6,9
		l-3.6,5.4c5.4,0,5.4,1.8,5.4,3.6C3276.29,3144.11,3274.49,3149.51,3274.49,3151.3z M3272.7,3079.33c1.8,1.8,1.8,3.6,1.8,5.4
		c0,3.6-1.8,5.4-1.8,10.8c-3.6-1.8-5.4-9-5.4-9c0-3.6,1.8-5.4,1.8-7.2c0-5.4,0-19.79,5.4-23.39c0,3.6,1.8,7.2,1.8,10.8
		C3276.29,3072.13,3274.49,3075.73,3272.7,3079.33z M3279.89,3050.54c-3.6,1.8-7.2,1.8-7.2,1.8c0-1.8,0-3.6-1.8-5.4
		c1.8-3.6,1.8-5.4,1.8-7.2l3.6-7.2c3.6,1.8,5.4,5.4,5.4,9S3279.89,3048.74,3279.89,3050.54z M3278.09,3009.15
		c-5.4-5.4-7.2-12.6-7.2-19.79c0-10.8,3.6-23.39,3.6-30.59c0-3.6-1.8-10.8-1.8-16.19c0-9,1.8-16.2,3.6-23.39c3.6,3.6,3.6,5.4,3.6,9
		c0,5.4-1.8,9-3.6,12.6c5.4,0,5.4-1.8,9-1.8v43.19c1.8-3.6,3.6-18,5.4-18c0,3.6-1.8,10.8-1.8,14.4l5.4,3.6c0,5.4-5.4,10.8-5.4,12.6
		C3288.89,2992.95,3281.69,3003.75,3278.09,3009.15z M3296.09,3034.34c-1.8-1.8-3.6-3.6-3.6-5.4c0-1.8,1.8-3.6,5.4-3.6
		C3299.69,3025.34,3296.09,3030.74,3296.09,3034.34z M3301.49,3005.55c0-3.6,1.8-12.6,3.6-10.8
		C3305.08,2998.35,3305.08,3001.95,3301.49,3005.55z M3308.68,3117.12c-1.8-7.2-1.8-10.8-1.8-12.6c1.8,0,3.6,3.6,3.6,5.4
		C3310.48,3113.52,3308.68,3115.32,3308.68,3117.12z M3580.4,2336.16c9-91.77,19.79-176.34,35.99-262.72
		c52.18,1.8,140.36,34.19,140.36,100.77c0,79.18-77.38,149.35-178.14,181.74C3578.6,2348.76,3580.4,2343.36,3580.4,2336.16z
		 M4408.11,2670.86c-19.79,0-41.39,0-66.58,1.8c70.18-183.54,109.77-264.52,154.75-404.87c1.8,120.56,23.39,255.52,37.79,404.87
		C4481.89,2672.66,4447.7,2670.86,4408.11,2670.86z"/>
	<path class="st0" d="M4890.35,2699.65c0,14.39,0,32.39,1.8,32.39c0-1.8,1.8-17.99,1.8-25.19s0-19.79-1.8-23.39
		C4892.16,2681.65,4890.35,2694.25,4890.35,2699.65z"/>
	<path class="st0" d="M4901.15,2818.41l1.8-7.2c0-7.2-1.8-9-3.6-16.2C4899.35,2811.21,4899.35,2816.61,4901.15,2818.41z"/>
	<path class="st0" d="M5926.82,2274.98c-16.19,25.19-18,26.99-23.39,41.39C5916.03,2309.17,5926.82,2287.58,5926.82,2274.98z"/>
	<path class="st0" d="M6193.14,3032.54c0,3.6-1.8,5.4-1.8,9s1.8,7.2,5.4,10.8c0-5.4,3.6-10.8,3.6-16.2
		C6200.34,3032.54,6196.74,3032.54,6193.14,3032.54z"/>
	<path class="st0" d="M5923.23,2269.59c-7.2,7.2-14.4,12.6-16.2,21.59C5912.43,2289.38,5921.43,2274.98,5923.23,2269.59z"/>
	<path class="st0" d="M4890.35,2820.21c0,3.6,0,9,3.6,9v-14.39C4893.95,2813.01,4890.35,2820.21,4890.35,2820.21z"/>
	<path class="st0" d="M6169.75,2938.97v32.39c0,14.39,1.8,19.79,3.6,19.79c1.8-9,3.6-16.2,3.6-23.39c0-9-1.8-16.2-1.8-21.59
		C6175.14,2942.57,6171.55,2940.77,6169.75,2938.97z"/>
	<path class="st0" d="M5973.61,2230c-9,14.39-19.79,23.39-28.79,37.79C5957.41,2267.79,5973.61,2240.8,5973.61,2230z"/>
	<path class="st0" d="M6175.14,2935.37c1.8-1.8,1.8-5.4,5.4-5.4v-21.59c-5.4,5.4-5.4,12.6-5.4,17.99V2935.37z"/>
	<path class="st0" d="M6077.98,2420.74c0,88.17-34.19,179.94-34.19,269.91c5.4,0,3.6-7.2,5.4-7.2c0,5.4,1.8,3.6,1.8,5.4
		c3.6,0,5.4-61.18,12.6-80.97c-1.8-7.2-1.8-12.6-1.8-19.79c1.8-10.8,5.4-10.8,5.4-19.79c0,0-3.6-1.8-5.4-1.8
		c7.2-28.79,10.8-52.18,14.4-75.58c3.6-26.99,10.8-64.78,10.8-82.77C6086.97,2408.14,6077.98,2415.34,6077.98,2420.74z"/>
	<path class="st0" d="M6070.78,2564.69c3.6,0,9-28.79,9-30.59c-5.4,0-9,5.4-9,10.8V2564.69z"/>
	<path class="st0" d="M6112.16,2044.66c-147.55,0-253.72,158.35-329.29,268.11l-16.19,23.39c-7.2-140.35-32.39-273.51-113.36-381.48
		c0,28.79,32.39,70.18,32.39,70.18c0,5.4,5.4,5.4,5.4,10.8c-19.79-5.4-41.39-62.98-46.78-84.57c0-19.79-28.79-30.59-43.19-30.59
		c-1.8,0-3.6,0-10.8,1.8c-9-3.6-14.39-9-14.39-10.8c1.8,0,17.99,3.6,26.99,3.6c-25.19-21.59-59.38-21.59-88.17-21.59
		c-275.31,0-377.88,280.71-458.85,491.24c-9,25.19-17.99,50.38-28.79,75.58c10.8-71.98,39.59-359.89,39.59-476.85
		c0-91.77-12.6-188.94-91.77-188.94c-43.19,0-133.16,50.38-134.96,55.78c-9,7.2-10.8,16.2-10.8,19.79
		c0,424.66,26.99,829.54,26.99,1234.41c0,53.98,0,134.96,16.19,134.96c17.99,0,37.79-12.6,43.19-17.99c1.8,1.8,3.6,1.8,5.4,1.8
		c3.6,0,3.6-5.4,7.2-7.2c5.4,1.8,9,3.6,14.39,3.6c12.6,0,9-16.2,19.79-16.2c7.2,0,44.99,3.6,50.38,3.6c1.8-1.8,16.19-3.6,25.19-9
		c9,0,9,3.6,16.2,7.2c0-1.8-1.8-5.4-1.8-7.2c3.6-25.19,52.18,3.6,52.18-55.78c0-23.39-3.6-34.19-3.6-57.58
		c30.59-311.3,107.97-566.82,215.93-806.14c39.59-89.97,89.97-188.94,151.15-273.51c25.19,62.98,32.39,133.16,32.39,206.93
		c0,156.55-61.18,710.77-61.18,782.75c0,1.8,1.8,12.6,1.8,19.79c-3.6,0-9,12.6-10.8,10.8c0,1.8,9,5.4,9,12.6c0,1.8-5.4,5.4-5.4,9
		c5.4,5.4,14.4,5.4,19.79,5.4c3.6,0,3.6-5.4,5.4-5.4c3.6,3.6,9,3.6,12.6,3.6c19.79,0,102.57-12.6,115.16-12.6c1.8,5.4,5.4,9,12.59,9
		c21.59,0,12.6-1.8,28.79-16.2c5.4,9,0,16.2,10.8,16.2c1.8-5.4,5.4-9,12.59-10.8c-1.8-1.8-1.8-5.4-1.8-7.2c0-3.6,7.2-5.4,7.2-5.4
		c3.6,0,10.8-14.4,12.6-16.2c3.6,0,7.2,7.2,9,14.39c5.4,0,5.4-5.4,12.6-10.8c1.8,3.6,1.8,5.4,3.6,5.4c0-3.6,5.4-3.6,5.4-9
		c0-3.6,14.4-10.8,18-16.2c3.6-62.98,71.98-323.9,100.77-422.86c0-7.2-5.4-12.6-5.4-17.99c0-1.8,7.2,3.6,10.79,3.6
		c34.19-95.37,158.35-350.89,241.12-392.27c23.39,44.99,12.6,111.56,19.8,161.95c0,3.6,1.8,5.4,1.8,9c-5.4,10.8-5.4,26.99-5.4,41.39
		v19.79c7.2-19.79,12.6-52.18,12.6-71.98c0-9-1.8-9-1.8-9c-1.34,0-2.68,1-3.28,2.26c1.7-7.33,3.49-18.66,6.88-22.05
		c1.8,1.8,1.8,7.2,1.8,7.2c0,7.2,1.8,14.4,1.8,23.39v30.59c0,5.4,0,14.39,1.8,14.39c-3.6,41.39-19.8,91.77-23.39,149.35
		c10.8-19.79,7.2-23.39,14.39-39.59c-1.8,12.6-3.6,19.79-3.6,25.19c-3.6,19.79,0-5.4-19.79,104.37c-1.8,9-5.4,16.19-5.4,23.39
		c0,0-9,52.18-9,82.77c0,19.79-9,37.79-9,55.78c0,0,3.6-3.6,3.6-5.4c-1.8,17.99-9,46.78-12.6,53.98c0-7.2,0-12.6-1.8-14.39
		c0-3.6,1.8-7.2,1.8-14.4c0-25.19,5.4-48.58,9-70.18c-17.99,32.39-39.59,214.13-39.59,275.31c0,1.8,5.4,1.8,5.4,1.8
		c0-3.6-1.8-7.2-1.8-10.8c0-3.6,1.8-7.2,5.4-10.8c-1.8,53.98-7.2,80.97-7.2,122.36c0,30.59,3.6,59.38,28.79,84.57
		c1.8-3.6,3.6-5.4,5.4-5.4c3.6,0,7.2,3.6,9,9c-1.8-7.2-1.8-16.2-1.8-25.19c0-7.2,1.8-14.4,5.4-14.4c0-5.4-1.8-10.8-1.8-17.99
		c1.8,10.8,9,30.59,19.79,34.19c0-5.4-1.8-5.4-1.8-9c1.8-1.8,5.4,3.6,9,5.4c0-10.8-9-21.59-9-30.59c3.6,9,12.6,10.8,14.4,19.79
		c0-16.2,1.8-16.2,3.6-19.79c1.8,0,1.8,7.2,9,14.39c3.6,0,7.2,3.6,9,7.2c-1.8-3.6-3.6-9-3.6-14.4c3.6,3.6,7.2,5.4,9,5.4
		c0-7.2,0-10.8-1.8-12.6c3.6,0,10.8,16.2,14.39,26.99c0-7.2,1.8-12.6,1.8-16.2c0-3.6,1.8-5.4,5.4-7.2c1.8,7.2,5.4,10.8,5.4,10.8v-9
		c0-1.8,1.8-3.6,1.8-5.4c5.4,9,5.4,14.39,10.8,19.79c0-10.8-3.6-19.79-3.6-25.19c5.4,1.8,7.2,5.4,7.2,7.2c0,3.6-1.8,5.4-3.6,7.2
		c9,0,12.6,16.2,12.6,18c1.8-1.8,1.8-7.2,1.8-12.6l7.2,5.4c0-1.8,0-5.4-3.6-5.4c0,0-1.8-10.8-1.8-16.19c0,0,12.6,23.39,12.6,35.99
		c1.8-26.99,1.8-61.18,9-84.57c-1.8,0-3.6,1.8-3.6,3.6c0,0-1.8-3.6-1.8-5.4c0-1.8,1.8-5.4,5.4-5.4c-3.6-3.6-3.6-5.4-3.6-7.2
		c0,0,3.6-5.4,3.6-7.2c-1.8,0-1.8-7.2-5.4-14.39c5.4,0,7.2-41.39,7.2-50.38c3.6,0,3.6-3.6,5.4-5.4c0,7.2,0,10.8,5.4,10.8
		c0-196.14,66.58-417.47,66.58-608.21c0-88.17-14.39-167.35-43.19-239.32C6211.13,2118.44,6167.95,2044.66,6112.16,2044.66z
		 M4890.35,2577.29c1.8,3.6,1.8,14.4,1.8,21.59c-5.4-1.8-7.2-5.4-7.2-7.2C4884.96,2586.29,4890.35,2582.69,4890.35,2577.29z
		 M4931.74,2805.81c0,9-16.19,71.98-19.79,86.37c-1.8,0-1.8-3.6-1.8-12.6c0-7.2,1.8-10.8,1.8-16.2c0-1.8,0-5.4-1.8-7.2
		c-1.8,0-3.6,0-5.4,1.8c-3.6-3.6-3.6-5.4-3.6-7.2c0-1.8,1.8-3.6,1.8-10.8c-7.2-1.8-14.39-9-14.39-12.6c0-10.8-1.8-14.4-1.8-25.19
		c-1.8-35.99-1.8-46.78-1.8-55.78c0-75.58,1.8-73.78,1.8-73.78s-3.6-25.19-3.6-23.39c0-1.8,3.6-7.2,3.6-9c-1.8-5.4-5.4-7.2-5.4-12.6
		c0-10.8,1.8-19.79,3.6-19.79c1.8,0,3.6,3.6,7.2,12.6c0,10.8-1.8,23.39-1.8,34.19c0,5.4,0,9,1.8,12.6l5.4-37.79
		c0,48.59,1.8,48.59,1.8,59.38c0,5.4,1.8,7.2,1.8,7.2c1.8,0,1.8-3.6,1.8-5.4v-71.98c1.8-5.4,1.8-21.59,1.8-23.39
		c5.4,0,9,80.97,9,106.17c0,21.59,0,41.39,1.8,52.18v30.59c3.6-5.4,3.6-44.99,3.6-61.18c0,1.8,1.8,3.6,1.8,9l1.8,23.39
		c0,3.6,3.6-26.99,3.6-55.78c0-1.8,1.8-5.4,1.8-9l3.6,7.2v-14.39c1.8,0,3.6,1.8,3.6,3.6c0,3.6-1.8,3.6-1.8,5.4
		c0,1.8,1.8,3.6,3.6,5.4c-3.6,1.8-3.6,5.4-3.6,9c0,0-1.8,3.6-1.8,7.2s7.2-5.4,7.2-5.4
		C4937.14,2719.44,4933.54,2789.62,4931.74,2805.81z M4942.54,2744.63c0-25.19,5.4-151.15,5.4-151.15c3.6,1.8,3.6,3.6,3.6,7.2
		c0,5.4-1.8,12.6-1.8,16.2v50.38c0,14.39,0,23.39,3.6,23.39C4953.33,2708.65,4951.54,2732.04,4942.54,2744.63z M4953.33,2681.65
		c0-10.8,1.8-23.39,3.6-30.59C4956.93,2661.86,4956.93,2674.46,4953.33,2681.65z M6041.99,2111.24c0,5.4-10.8,3.6-12.6,14.4
		c-7.2,0-9,0-9-1.8C6020.39,2120.23,6036.59,2111.24,6041.99,2111.24z M6020.39,2136.43c-9,1.8-14.39,5.4-19.79,12.6
		c0-7.2,12.59-12.6,17.99-17.99C6020.39,2131.03,6020.39,2134.63,6020.39,2136.43z M5973.61,2150.82
		c10.8-10.8,25.19-21.59,39.59-28.79c-14.39,14.4-34.19,43.19-50.38,43.19C5962.81,2165.22,5968.21,2152.62,5973.61,2150.82z
		 M5986.21,2165.22c-9,9-21.59,17.99-32.39,32.39C5953.82,2190.41,5973.61,2167.02,5986.21,2165.22z M6015,2188.61
		c1.8,0,9-1.8,12.6-1.8c-53.98,37.79-97.17,127.76-133.16,181.74c0,19.79-23.39,43.19-23.39,57.58c0,3.6-12.6,25.19-46.79,106.17
		c0-7.2,9-30.59,12.6-48.58c-5.4,3.6-5.4,5.4-12.6,14.39c7.2-57.58,52.19-118.76,53.98-129.56c0-9,5.4-28.79,14.4-28.79
		c-1.8-7.2-3.6-9-3.6-9c-1.8,0-5.4,7.2-12.59,10.8c9-50.38,53.98-109.76,91.77-145.75c3.6-7.2,28.79-19.79,28.79-28.79
		c0-12.6,7.2-12.6,14.4-12.6c5.4,0,16.2-10.8,21.59-16.2c0,5.4-1.8,5.4-1.8,7.2c0,5.4,1.8,7.2,3.6,7.2c3.6,0,10.8-7.2,10.8-5.4
		c0,0-1.8,3.6-1.8,5.4h12.59C6049.19,2165.22,6027.59,2177.82,6015,2188.61z M6070.78,2773.42c0,3.6,1.8,7.2,1.8,10.8
		c-1.8,9-3.6,14.4-9,21.59C6070.78,2791.42,6065.38,2786.02,6070.78,2773.42z M6056.38,2823.81c0-1.8,5.4-9,5.4-10.8
		c1.8,1.8,1.8,3.6,1.8,7.2c0,16.2-10.8,57.58-14.4,57.58C6049.19,2877.79,6049.19,2840,6056.38,2823.81z M6020.39,3046.94v-53.98
		c0-19.79,0-35.99,1.8-41.39v-7.2c0-9,1.8-17.99,5.4-26.99c-1.8,9-1.8,25.19-1.8,43.19c0,5.4,1.8,10.8,1.8,16.2
		C6023.99,2994.75,6022.19,3046.94,6020.39,3046.94z M6027.59,3036.14v-7.2c0-5.4,1.8-10.8,5.4-16.2
		C6032.99,3019.95,6029.39,3036.14,6027.59,3036.14z M6031.19,2973.16c0-3.6-1.8-9-1.8-14.4c0-5.4,3.6-10.8,5.4-16.19
		C6034.79,2951.57,6032.99,2965.96,6031.19,2973.16z M6032.99,2886.79c0-3.6-9-14.39-9-23.39c0-5.4,0-12.6,3.6-17.99
		c1.8,1.8,3.6,5.4,3.6,3.6c0-5.4,0-10.8,1.8-16.19c0,7.2,1.8,9,1.8,10.8c0-3.6,5.4-32.39,10.8-37.79l-5.4,41.39c0,0,1.8-5.4,5.4-5.4
		C6041.99,2850.8,6034.79,2886.79,6032.99,2886.79z M6045.59,3088.32c-3.6-3.6-3.6-9-3.6-14.4c0-30.59,1.8-41.39,3.6-41.39
		c1.8,0,1.8,5.4,1.8,14.4c0,7.2,0,16.2-1.8,25.19c1.8,0,3.6,1.8,3.6,5.4C6047.39,3081.13,6045.59,3086.53,6045.59,3088.32z
		 M6045.59,2987.56c-1.8,25.19-5.4,35.99-7.2,35.99c-1.8,0-1.8-5.4-1.8-12.6c0-14.4,3.6-39.59,14.4-73.78c0,3.6,1.8,9,1.8,12.6
		L6045.59,2987.56z M6052.78,2902.98c0-5.4,16.2-71.98,19.79-80.97c0,10.8-3.6,19.79-3.6,23.39c0,1.8,1.8,5.4,1.8,7.2
		c-5.4,41.39-1.8,7.2-9,53.98c0,3.6-1.8,7.2-5.4,10.8c0-1.8,1.8-3.6,1.8-5.4C6058.18,2906.58,6052.78,2904.78,6052.78,2902.98z
		 M6072.58,2901.18c0,7.2-1.8,12.6-7.2,12.6c0-3.6,3.6-25.19,5.4-37.79c0,1.8,1.8,3.6,1.8,5.4c0,1.8-1.8,3.6-1.8,5.4
		C6070.78,2888.59,6072.58,2895.79,6072.58,2901.18z M6056.38,2978.56c0-9,3.6-41.39,5.4-41.39c0,3.6,3.6-7.2,5.4-7.2
		c0,3.6-3.6,12.6-5.4,17.99c1.8,3.6,1.8,9,1.8,14.39c0,9-1.8,16.2-5.4,25.19C6056.38,2983.96,6056.38,2980.36,6056.38,2978.56z
		 M6061.78,3005.55c1.8-21.59,9-68.38,14.4-68.38C6076.18,2985.76,6063.58,3007.35,6061.78,3005.55z M6076.18,3027.14
		c-1.8-3.6-1.8-5.4-1.8-9c0-5.4,1.8-10.8,1.8-16.2c0-3.6,0-9-1.8-12.6c1.8,0,1.8-7.2,3.6-7.2s3.6,3.6,3.6,9
		C6081.57,3001.95,6077.98,3021.74,6076.18,3027.14z M6099.57,2492.72c0,9-1.8,17.99-7.2,30.59
		C6092.37,2512.51,6094.17,2498.11,6099.57,2492.72z M6099.57,3041.54c0-5.4,3.6-34.19,7.2-34.19c1.8,0,1.8,1.8,1.8,7.2
		C6108.57,3039.74,6099.57,3039.74,6099.57,3041.54z M6094.17,3009.15c3.6-14.39,3.6-26.99,3.6-28.79c0-1.8,9-14.39,9-21.59
		c0-1.8,3.6,3.6,3.6,5.4C6110.37,2971.36,6099.57,3003.75,6094.17,3009.15z M6101.37,2424.34c-1.8-5.4-1.8-9-1.8-14.4l5.4-21.59
		c3.6,0,5.4,0,7.2,1.8C6112.16,2395.55,6101.37,2417.14,6101.37,2424.34z M6108.57,2377.55c-1.8,0-3.6-1.8-3.6-3.6
		c0-5.4,5.4-16.2,7.2-17.99C6112.16,2355.96,6108.57,2370.35,6108.57,2377.55z M6182.34,2129.23c12.6,12.6,16.2,30.59,18,41.39
		c-7.2-19.79-16.19-32.39-16.19-32.39c-1.8,3.6-7.2-14.39-9-17.99C6180.54,2123.83,6182.34,2127.43,6182.34,2129.23z
		 M6160.75,2107.64c1.8,1.8,5.4,3.6,5.4,5.4c0,0-3.6,9-5.4,9c-3.6,0-3.6-3.6-7.2-3.6
		C6155.35,2118.44,6155.35,2113.04,6160.75,2107.64z M6144.55,2087.84c0,0-12.59,0-12.59-3.6
		C6135.56,2084.25,6144.55,2086.04,6144.55,2087.84z M6189.54,2965.96c-9,0-9,10.8-9,16.2c0,9,1.8,17.99,1.8,25.19
		c1.8-1.8,1.8-7.2,1.8-12.6v-21.59c1.8,3.6,1.8,10.8,1.8,16.2c0,9-1.8,19.79-1.8,26.99c-5.4,0-5.4,1.8-5.4,3.6v7.2
		c-9,0-10.8,14.4-10.8,18c-1.8,10.8-19.79,10.8-23.39,17.99c-1.8-7.2-9-12.6-9-17.99v-43.19c0-5.4-1.8-10.8-5.4-14.39
		c3.6-14.4,5.4-21.59,5.4-23.39c0-3.6-10.8,25.19-12.6,25.19c0,0,0-1.8,1.8-10.8c3.6-7.2,7.2-21.59,9-32.39
		c-1.8,3.6-3.6,7.2-5.4,7.2c0-3.6-5.4-3.6-5.4-3.6c0-10.8,7.2-19.79,9-32.39c0,3.6,3.6,3.6,3.6,5.4c1.8,0,1.8-3.6,1.8-12.6
		c0,1.8-3.6-9-3.6-14.39c0,1.8,1.8-16.2,7.2-16.2c1.8,1.8,7.2-5.4,7.2-10.8c0-12.6-1.8-12.6-1.8-12.6
		c1.8-21.59,7.2-48.59,14.39-79.18c0-1.8,0-5.4,1.8-9c0,14.4-3.6,35.99-3.6,35.99c1.8,0,5.4-18,7.2-23.39
		c-1.8,10.8-3.6,30.59-3.6,41.39c0,1.8,1.8-7.2,1.8-3.6c0,0,3.6-5.4,5.4-7.2c0,9,0,39.59-5.4,39.59c0-1.8-5.4,1.8-5.4,9
		c0-1.8,3.6-5.4,7.2-5.4l-3.6,43.19c0,3.6,0,7.2,1.8,9c5.4-10.8,1.8-16.19,5.4-25.19c1.8,3.6,1.8,7.2,1.8,10.8
		c0,5.4-1.8,16.2-1.8,23.39c0,1.8,0,5.4,1.8,7.2c0-1.8,1.8-12.6,1.8-19.79c0,3.6,5.4-44.99,7.2-70.18c3.6,3.6,1.8,17.99,3.6,17.99
		c0,1.8-1.8,34.19-1.8,48.58c5.4-26.99,10.8-46.78,14.4-75.58v37.79c3.6-1.8,0-10.8,5.4-19.79
		C6202.14,2881.39,6191.34,2922.78,6189.54,2965.96z M6211.13,2195.81c3.6,1.8,7.2,9,7.2,10.8
		C6211.13,2204.81,6211.13,2201.21,6211.13,2195.81z"/>
</g>
</svg>
