<?xml version="1.0" standalone="no"?>
<!DOCTYPE svg PUBLIC "-//W3C//DTD SVG 1.1//EN" "http://www.w3.org/Graphics/SVG/1.1/DTD/svg11.dtd" >
<svg xmlns="http://www.w3.org/2000/svg" xmlns:xlink="http://www.w3.org/1999/xlink" version="1.1">
<metadata>
Created by FontForge 20160405 at Wed Jan  9 21:10:29 2019
 By www-data
Copyright (c) 2016 by Aerotype Corporation. All rights reserved.
</metadata>
<defs>
<font id="ZoojaPro" horiz-adv-x="397" >
  <font-face 
    font-family="Zooja Pro"
    font-weight="400"
    font-stretch="normal"
    units-per-em="1000"
    panose-1="3 6 3 0 4 0 1 0 0 0"
    ascent="800"
    descent="-200"
    x-height="389"
    cap-height="685"
    bbox="-267 -466 919 949"
    underline-thickness="50"
    underline-position="-150"
    unicode-range="U+000D-FB02"
  />
<missing-glyph horiz-adv-x="373" 
d="M30 621h313v-511h-313v511zM46 125h283v482h-283v-482z" />
    <glyph glyph-name="quoteright_l" unicode="&#x27;l" horiz-adv-x="274" 
d="M172 354q-1 -9 -2 -26t-2 -38.5t-2 -45t-1 -45.5q0 -28 2.5 -48.5t8.5 -25.5q1 -1 3 -1q9 0 29 19t45 49t52 66.5t49 71.5l3 5q13 20 23 20q5 0 10 -5q6 -6 8 -10.5t2 -7.5q0 -2 -0.5 -2.5t-0.5 -1.5q-1 -3 -8.5 -16.5t-17 -29.5t-19.5 -32t-16 -23q-53 -73 -94 -105.5
t-77 -32.5q-21 0 -40 10t-39 28q-23 21 -33 66.5t-10 107.5t9 136q8 66 27 133.5t45 122t56.5 90.5t60.5 41q5 1 8.5 1h7.5q28 0 44 -19t16 -61q0 -17 -3 -38q-9 -55 -23.5 -100t-33 -85.5t-41 -81t-46.5 -86.5zM282 782q-15 -23 -32.5 -67t-33 -93.5t-26.5 -96t-12 -72.5
q18 39 33.5 76.5t29 76t24.5 78.5t18 85q0 4 -0.5 9t-0.5 4zM57 535q0 -10 -8.5 -26.5t-19.5 -32t-22 -26.5t-16 -11q-9 2 -11.5 4t-7.5 5q5 11 13.5 27t8.5 30q0 2 -1 6t-1 6q-1 4 -1 14q0 13 4 25t17 12q12 7 22 7t16.5 -7.5t6.5 -24.5v-8zM156 186q-1 5 -1 12.5v15.5v35
q0 1 1 2.5t1 2.5q0 2 1 3.5t1 3.5l-3 -5v3q1 6 2 20t1 25q0 10 -1 13q0 -1 -0.5 -6t-1.5 -12.5t-1.5 -15t-0.5 -13.5q0 -1 -0.5 -2.5t-0.5 -4.5t-0.5 -6.5t-0.5 -8.5q0 -9 0.5 -20.5t1 -21.5t1.5 -16.5l1 -6.5v3zM154 174q-1 14 -1.5 28t-2.5 25v-15q0 -9 0.5 -18t3.5 -20z
M156 145v14t-2 9q0 -2 -0.5 -4t-0.5 -4q0 -9 3 -15zM149 265q0 9 0.5 18t0.5 17q-1 -6 -2 -12.5t-1 -11.5zM151 243l-3 -3q0 -2 1.5 -4t1.5 -4v11zM142 263q0 -11 1 -15q0 1 0.5 2t0.5 3t-0.5 3.5t-0.5 3.5t-1 3zM144 308q2 2 2 10q0 3 -1 3zM144 282q-1 1 -1 2v3l-2 -6z
M139 234q0 2 -0.5 3t-0.5 3q0 -6 1 -6zM156 144v-1q0 -2 1 -2z" />
    <glyph glyph-name="quoteright_t" unicode="&#x27;t" horiz-adv-x="206" 
d="M18 485q0 -10 -8.5 -26.5t-19.5 -32t-22 -26.5t-16 -11q-9 2 -11.5 4t-7.5 5q5 11 13.5 27t8.5 30q0 2 -1 6t-1 6q-1 4 -1 14q0 13 4 25t17 12q12 7 22 7t16.5 -7.5t6.5 -24.5v-8zM106 50l-2 -2t-1 -4q0 -5 0.5 -8t1.5 -8q-5 3 -5 6.5t-5 3.5l2 -7q0 -1 -1.5 0t-2.5 3
q0 -2 -0.5 -3t-0.5 -3q-1 0 -3 3t-3.5 6.5l-3 7t-2.5 4.5v-10q0 -8 2 -13q-2 0 -3.5 4.5t-2.5 10t-1.5 10.5t-1.5 6t-1.5 -2.5t-1 -7.5t-0.5 -7.5v-3.5q-2 0 -3 4.5t-2 9.5q-1 6 -2 15q-3 -4 -3 -16q-5 2 -5.5 10t-3.5 8q-2 0 -2 -9t-1 -9q-2 0 -4 12.5t-3.5 29.5t-2 33.5
t-0.5 25.5q0 5 0.5 11t0.5 11q4 51 7 97t7 91t8 90.5t10 94.5h-7q-10 0 -22 1.5t-22 5.5t-16.5 9.5t-6.5 14.5q0 3 9.5 4.5t23 2.5t26.5 1.5t21 0.5q3 10 5.5 28t5.5 38t6.5 40t7.5 33q5 16 18 21t27 5q6 0 16.5 -1t20.5 -3.5t17.5 -7.5t7.5 -12q0 -5 -2 -9q2 -7 2 -15v-17
q0 -34 -3.5 -58t-5.5 -45q24 0 50.5 -3t42.5 -16q-4 0 -9 -5t-10 -5q1 0 2 -1t1 -1.5t1 -1.5q-6 0 -18 -0.5t-25 -1.5t-24.5 -1.5t-15.5 -1.5q-8 -71 -15.5 -134t-15.5 -123t-16.5 -121t-17.5 -128q-1 -3 -2 -5.5t-1 -4.5q-1 -1 -2 4.5t-4 12.5q0 -5 -0.5 -10t-0.5 -9
q-4 1 -9 8t-5 16z" />
    <glyph glyph-name="quoteright_s" unicode="&#x27;s" horiz-adv-x="240" 
d="M104 487q0 -10 -8.5 -26.5t-19.5 -32t-22 -26.5t-16 -11q-9 2 -11.5 4t-7.5 5q5 11 13.5 27t8.5 30q0 2 -1 6t-1 6q-1 4 -1 14q0 13 4 25t17 12q12 7 22 7t16.5 -7.5t6.5 -24.5v-8zM242 423q-37 0 -50 -18.5t-13 -47.5q0 -22 5 -48t10.5 -51.5t10.5 -48.5t5 -39
q0 -27 -8.5 -45.5t-22 -30.5t-29 -17t-30.5 -5q-33 0 -61 22t-35 58q1 3 3 3t4.5 -1.5t5.5 -1.5t4 1q20 -10 39 -10q29 0 29 31q0 15 -5 34.5t-11 41.5t-11 45t-5 43q0 28 12 49.5t30 35.5t40 21t42 7q8 0 18.5 -1t19.5 -4t15.5 -8t6.5 -12q0 -6 -10 -6q-6 0 -9 3z" />
    <glyph glyph-name="quoteright_d" unicode="&#x27;d" horiz-adv-x="362" 
d="M83 34q-15 0 -26 9t-18 23t-10.5 30.5t-3.5 30.5q0 69 19 126t50.5 98t71.5 64.5t83 25.5l2 14q0 2 0.5 4.5t0.5 4.5q4 25 9.5 59.5t12.5 72t15.5 74.5t18.5 69q2 10 12 15.5t19 5.5q5 0 7 -1q9 8 23 12.5t27 4.5t22 -5.5t10 -19.5q2 -1 2 -7t-2 -13t-3 -10
q-16 -81 -30 -168.5t-27 -175.5t-24.5 -173.5t-21.5 -162.5q-1 -7 -2 -18t-1.5 -22.5t-0.5 -21.5v-15v-7t2 -8q-2 0 -4.5 1.5t-4.5 1.5t-2 -2v-1q-2 1 -4.5 4t-4.5 7v-8q-4 0 -4.5 4.5t-2.5 8.5q0 -8 1 -13q-2 0 -4.5 2.5t-2.5 1.5q0 -2 -0.5 -2t-0.5 -2q-1 1 -3 5
q-1 -2 -5 -2q-2 0 -3 1q-1 -1 -2 -1l-2 -2q-1 2 -2 3t-1 3l-2 -4q-3 -2 -7.5 -6t-4.5 -6q-2 3 -8 6l-10 5v-9q-3 0 -7 9q0 -4 0.5 -6.5t0.5 -7.5q-3 5 -4.5 8l-2.5 5t-1 1q0 -2 -0.5 -2.5t-0.5 -2.5l-4 3q0 -2 0.5 -6.5t0.5 -8.5q-2 2 -2.5 3.5t-3.5 1.5v-8q-7 16 -9 40
t-2 50q0 35 3 68.5t5 56.5q-6 -14 -18.5 -33.5t-29.5 -37.5t-37 -31t-41 -13zM235 337q-30 -21 -54 -49t-41.5 -59.5t-30 -65t-19.5 -64.5q0 -4 1 -8t5 -4q27 15 49 47.5t39 70t29.5 74t21.5 58.5zM149 515q0 -10 -8.5 -26.5t-19.5 -32t-22 -26.5t-16 -11q-9 2 -11.5 4
t-7.5 5q5 11 13.5 27t8.5 30q0 2 -1 6t-1 6q-1 4 -1 14q0 13 4 25t17 12q12 7 22 7t16.5 -7.5t6.5 -24.5v-8z" />
    <glyph glyph-name="quoteright_r" unicode="&#x27;r" horiz-adv-x="218" 
d="M323 442q-5 -4 -10.5 -7t-8.5 -8q-3 -1 -6 -3.5t-5 -4.5q-3 -3 -5 -6q0 -3 -8.5 -7.5t-10.5 -9.5q-3 -2 -7.5 -4t-6.5 -7q-3 -2 -4 -5.5t-3 -5.5q-78 -81 -93 -185q-1 -6 -3 -24.5t-5 -39t-5 -36.5t-3 -16q-2 0 -2.5 3t-1.5 3q-2 -3 -4 -6.5t-4 -4.5h-3q-2 0 -3 -1t-1 -2
q-1 -1 -2 -1q0 2 -1.5 2.5t-2.5 2.5q-1 0 -1 -0.5t-1 -0.5h-1v6q-3 -3 -6 -4.5t-6 -5.5q-4 -2 -3.5 -4t-1.5 -2q-2 -1 -3.5 -2t-5.5 -2l-3 -3t-2 -3q-3 -1 -7 -2.5t-5 -3.5q-2 3 -8 3l-4 4q-2 4 -3 4.5t-2 3.5q0 1 -5 6l-2 6q2 45 5 96t9 101t16 95t26 77q3 7 12.5 20
t16.5 13q5 4 12.5 8.5t13.5 4.5q5 1 8.5 1.5t6.5 0.5q18 0 23 -11t5 -23q0 -5 -1.5 -14t-3.5 -19t-4 -19t-4 -12q-2 -11 -3.5 -18.5t-2.5 -17.5q9 11 23.5 27t32 30.5t36.5 25t36 10.5q8 0 16 -3zM74 515q0 -10 -8.5 -26.5t-19.5 -32t-22 -26.5t-16 -11q-9 2 -11.5 4t-7.5 5
q5 11 13.5 27t8.5 30q0 2 -1 6t-1 6q-1 4 -1 14q0 13 4 25t17 12q12 7 22 7t16.5 -7.5t6.5 -24.5v-8z" />
    <glyph glyph-name="quoteright_v" unicode="&#x27;v" horiz-adv-x="302" 
d="M102 515q0 -10 -8.5 -26.5t-19.5 -32t-22 -26.5t-16 -11q-9 2 -11.5 4t-7.5 5q5 11 13.5 27t8.5 30q0 2 -1 6t-1 6q-1 4 -1 14q0 13 4 25t17 12q12 7 22 7t16.5 -7.5t6.5 -24.5v-8zM339 384q-7 -24 -21 -66t-29.5 -87.5t-30.5 -86t-25 -61.5q-5 -11 -15 -14t-21 -3
q-8 0 -15 1t-10 1q-6 0 -11 -2t-12 -2q-15 0 -26 19t-18 49t-12 66t-7 69.5t-3 60.5t-1 38q0 17 13 32t28 15q8 6 20 10.5t25 4.5q18 0 28 -10q7 -4 7 -24v-10.5t-2 -12.5q4 -43 7.5 -82t5.5 -88q10 22 18 42.5t16 40t17.5 39.5t21.5 42q1 -1 3 1.5t4 5.5l4 6t3 3
q4 3 12.5 5t15.5 2q10 0 10 -4z" />
    <glyph glyph-name="ss" unicode="ss" horiz-adv-x="528" 
d="M64 77q-6 2 -6 19q0 11 6 28t23 38q13 16 20.5 24.5t14.5 14.5t15.5 13.5t23.5 23.5q0 25 -2 48.5t-3 61.5q-10 -12 -23.5 -30.5t-26.5 -36t-23.5 -31.5t-13.5 -17q-7 -5 -12 -5q-8 0 -15 7t-7 15q0 5 3 10q26 35 51 73.5t63 90.5q7 9 17.5 13t21.5 4q15 0 27.5 -7.5
t12.5 -23.5q4 -22 5.5 -53.5t3.5 -57.5q9 8 29.5 24t45 35.5t49.5 40t44 36.5q0 1 0.5 1t0.5 1q5 8 16.5 17t22.5 9q12 0 25.5 -10t13.5 -21q0 -7 -4.5 -12.5t-4.5 -7.5q1 -8 1.5 -19t0.5 -22q0 -14 0.5 -29t0.5 -33v-18t-1 -20q38 25 75.5 44.5t68.5 37.5q5 0 5 -4q2 0 3 1
t3 1q-4 -8 -5.5 -12.5t-2.5 -8t-3 -7.5t-6 -11q5 2 9.5 6t7.5 7q0 -5 -4 -8t-4 -8q-4 0 -5.5 -3t-3.5 -5q3 2 6.5 5t8.5 5q-1 -2 -3.5 -6.5t-6.5 -4.5q0 -4 -1 -4t-1 -3q2 0 6 4.5t9 9.5q-2 -2 -3.5 -4.5t-1.5 -3.5q-34 -28 -73.5 -48t-74.5 -45q-2 -21 -10 -43t-21.5 -42.5
t-30.5 -36.5t-37 -25q3 3 2.5 3t1.5 2q-6 -3 -12.5 -6.5t-18.5 -3.5q2 1 6 2.5t4 2.5q-6 -2 -13.5 -3t-18.5 -1q-18 0 -31 11t-16 27q0 21 9.5 39t24 34t32 30t33.5 26l7 5q1 21 2.5 42.5t1.5 42.5v15t-1 14q0 1 -0.5 2t-0.5 2q-41 -35 -84 -68t-70 -60q0 -16 -5.5 -31.5
t-12.5 -29.5t-15.5 -24.5t-14.5 -16.5v1q0 1 0.5 1t0.5 1q0 2 1.5 3.5t1.5 3.5q-2 -1 -4 -3.5t-3 -2.5l-3 -2q0 2 3 4t5 4q-5 -4 -12 -7.5t-9 -7.5l-2 -1l11 12q-4 -2 -9 -7.5t-10 -7.5q2 4 10.5 12t11.5 13q-4 -3 -6 -5.5t-6 -6.5l-3 -3q0 1 2.5 3.5t3.5 4.5l-10 -10l-6 -6
q-2 -6 -6 -8t-4 -7q-1 0 -2 -1t-1 -3q1 0 4.5 1.5t7.5 4t7 4.5t4 3v-2l1 1q0 1 1 1q0 -1 -1 -2t-1 -2l-10 -7l-3 -1l-8 -6q0 1 1 2l3 3l-8 -5l-8 -3q-1 0 -2 -1t-1 -2q-11 -7 -23 -10t-23 -3q-7 0 -15 2q-1 1 -2 1h-1h1q1 0 1 0.5t1 0.5q-8 2 -11 8zM345 84q10 0 18 7
t14 16.5t9.5 20.5t3.5 20q-12 -6 -21.5 -16t-16.5 -19t-10.5 -15.5t-3.5 -7.5q0 -6 7 -6zM100 103q0 -2 -1.5 -4t-3.5 -2q23 0 41 19.5t22 44.5q-4 -3 -13.5 -11t-19.5 -17t-17.5 -17.5t-7.5 -12.5zM72 73q8 -4 12 -4h1q1 0 2 1q-7 1 -13 7q0 -3 -2 -4zM175 110q-1 -1 -1 -2
q0 1 1 2q0 1 1 1zM200 131q-1 0 -1 -1z" />
    <glyph glyph-name=".notdef" horiz-adv-x="373" 
d="M30 621h313v-511h-313v511zM46 125h283v482h-283v-482z" />
    <glyph glyph-name=".null" horiz-adv-x="0" 
 />
    <glyph glyph-name="nonmarkingreturn" unicode="&#xd;" horiz-adv-x="0" 
 />
    <glyph glyph-name="NULL" horiz-adv-x="0" 
 />
    <glyph glyph-name="NULL" horiz-adv-x="0" 
 />
    <glyph glyph-name="space" unicode=" " horiz-adv-x="180" 
 />
    <glyph glyph-name="exclam" unicode="!" horiz-adv-x="215" 
d="M134 95q12 -12 12 -24q0 -9 -6 -27q0 -6 -5 -11.5t-11 -5.5q-19 -7 -37 -7q-14 0 -25.5 5t-18.5 18q-1 2 -1 8q0 9 6.5 18.5t16.5 17t22 12.5t23 5q15 0 24 -9zM222 712q2 -5 2 -10.5v-10.5q0 -8 -1 -15t-4 -15q1 -3 1 -11q0 -11 -2.5 -24t-6 -26t-7 -24.5t-4.5 -19.5
q-5 -39 -13.5 -92t-18 -103.5t-18.5 -91.5t-15 -56q-5 -12 -9 -21q-3 -8 -5.5 -14.5t-2.5 -7.5q-7 18 -11 18t-4 -19q-9 2 -13.5 12.5t-6 24.5t-1.5 30t-1 29v19q-3 12 -4 24t-1 26q0 38 7 88.5t15.5 99.5t17 89t11.5 58q2 11 10 24.5t21 15.5q2 0 5 2t5 2q3 3 7 3
q1 0 9.5 4.5t15.5 6.5q2 2 6 2q7 0 11 -5.5t5 -11.5z" />
    <glyph glyph-name="quotedbl" unicode="&#x22;" horiz-adv-x="249" 
d="M111 468q-2 0 -9 -1t-14.5 -2.5t-14 -3t-7.5 -2.5q-12 4 -14 12t-2 10q0 14 3 28.5t8 28.5l4 12q6 19 16 42.5t20 43.5t20 33.5t16 13.5q3 0 12 -1t18.5 -3t17 -5t7.5 -6q0 -18 -7 -36t-7 -34q0 -1 -2 -5q-1 -2 -1 -3q-4 -14 -7.5 -23.5t-7 -18.5t-8.5 -18.5t-12 -22.5
q1 2 -1 -1.5t-3 -2.5q-2 -5 -3 -7t-2.5 -4l-3 -4t-5.5 -6q-2 -6 -5 -7.5t-6 -6.5zM225 479q1 -2 -9.5 -4t-21.5 -2q-3 0 -9.5 1t-6.5 6q0 13 6 32t13.5 38t14.5 35t10 22q3 7 7 17.5t8.5 19.5t10 15.5t11.5 6.5q3 0 11 -1.5t16.5 -4t14.5 -5.5t6 -6t4.5 -7t4.5 -6
q-2 -9 -7.5 -23t-12.5 -28t-13.5 -27.5t-11.5 -20.5q4 10 10.5 25.5t9.5 26.5q-3 -5 -4.5 -9.5t-3.5 -4.5l-6 -15q-9 -22 -22.5 -43.5t-29.5 -37.5z" />
    <glyph glyph-name="numbersign" unicode="#" horiz-adv-x="408" 
d="M402 520q0 -2 0.5 -2t0.5 -1q-3 0 -6 0.5t-5 0.5q-4 0 -6.5 0.5t-4.5 0.5h-3q0 1 2 -7t2 -9q0 -2 1 -3h-4q-4 0 -4 -2q0 -3 1 -3q-5 -1 -11 -5t-11 -4h-1q1 -1 4 -1q1 0 1 -1h-2l-6 -2q-2 0 -2.5 -1t-2.5 -1q-9 -2 -11 -2.5t-4 -0.5t-5 -0.5t-13 -2.5l-7 -46h91
q-3 -3 -2 -8t-6 -7h-1q-2 0 -4.5 -0.5l-7.5 -1.5q3 -1 5.5 -0.5t5.5 -1.5l8 3q0 -1 -5.5 -3t-3.5 -2h5q-3 -2 -6 -3t-8 -3h5q-8 -6 -12 -6h17q-1 0 -3 -2l-15 -2q-2 0 -5 -1t-3 -3q5 2 12 3t8 1q0 -1 -6 -4t-12 -5h3q-2 -2 -6 -3t-6 -3h8q-10 -2 -17.5 -2.5t-15 -0.5
t-15 -1.5t-17.5 -5.5q0 -2 -0.5 -3.5t-0.5 -3.5q-5 -32 -11.5 -59.5t-19.5 -57.5q-2 8 -2 12.5v7.5v7q0 2 -0.5 5t-1.5 3t-1 -3.5t-0.5 -7t-1.5 -7t-5 -3.5q-3 0 -3.5 -5.5t-2.5 -4.5q-2 -2 -3 -2q-2 0 -3.5 1.5t-2.5 1.5q0 -5 -7.5 -8.5t-9.5 -8.5q0 11 0.5 20.5t0.5 19.5
q0 5 1 17t2.5 26t3 27t2.5 20q-12 0 -30 -2.5t-32 -5.5q-2 -5 -5.5 -19t-7.5 -29t-7.5 -27t-6.5 -12q-7 -3 -7.5 -6.5t-6.5 -11.5l-2 -3.5t-4.5 -7.5t-5.5 -7t-6 -3q-4 0 -7 13q-2 3 -3 14.5t-1 27.5q0 11 0.5 23t0.5 24v19q-15 -4 -35 -4q-21 0 -37.5 4.5t-16.5 9.5
q0 11 11.5 18.5t27 12t31.5 7.5t25 6q1 13 2.5 24t3.5 25q-13 0 -18 -1.5t-10 -1.5q-7 0 -21 5q-8 -5 -13 -5q0 -1 -1 -1h-2q-2 0 -3 3q-8 2 -14.5 3t-14.5 6q-6 0 -6 2q0 3 7.5 8t18 10t21 9.5t15.5 6.5q4 2 6 2q12 4 16.5 4.5t13.5 2.5h6q1 0 2 0.5t2 0.5q2 0 4 0.5t4 0.5
q5 14 8.5 28.5t10.5 31.5q0 1 0.5 1.5t0.5 1.5q4 12 12.5 28t24.5 16q2 0 10 -2q4 4 11 4q5 0 5 -6q0 -3 1 -5.5t1 -4.5q0 -8 -0.5 -16t-0.5 -16q0 -13 -2 -25t-4 -25l53 6q-1 2 -1 8q0 10 4.5 24.5t9.5 27t9.5 20.5t4.5 6q2 0 13.5 1t13.5 1q-1 0 3 -5t8 -5q2 0 3 4
q3 -3 3 -4q0 -18 -3 -36t-4 -37q27 3 41 3q12 0 24 -2t32 -6q-2 -1 -6 -1q-6 0 -8 -1zM239 423q3 9 4 21t3 23q-10 0 -28 -2.5t-27 -4.5q0 -1 -3.5 -16.5t-5.5 -26.5zM363 397q-2 -2 -3.5 -2t-4.5 -2q8 2 8 4zM380 407q2 0 3 1l2 1q-1 0 -1.5 -0.5t-1.5 -0.5q-1 -1 -2 -1z
" />
    <glyph glyph-name="dollar" unicode="$" horiz-adv-x="284" 
d="M137 174q-6 -13 -10.5 -15t-21.5 -2q-4 0 -9 4t-5 7q0 11 3.5 27.5t3.5 28.5v5q-25 1 -37 4.5t-18 8t-9 9.5t-10 9q0 2 0.5 2.5t0.5 2.5t-2 4q0 2 1.5 6t1.5 7t-2 3l-1 7q3 1 10 1h15q3 0 6.5 -0.5t7.5 -0.5q5 0 10.5 -0.5t11.5 -0.5q8 0 14.5 1t11.5 4q2 23 6 46.5
t7 51.5q-11 4 -27 12t-31 18t-26 22.5t-11 27.5q0 5 -1 5q0 27 14 49.5t34.5 39.5t42 29.5t36.5 18.5q1 1 1 4q2 9 3.5 20.5t4 22t7.5 18.5t14 10l8 7q1 0 13.5 1t13.5 1q11 -2 14 -5.5t3 -7.5q0 -2 -0.5 -3.5t-0.5 -2.5q0 -2 -0.5 -8.5t-1.5 -14.5t-2 -14.5t-1 -8.5
q10 4 20 5.5t19 2.5q15 0 27 -4t19 -21q0 -2 0.5 -2.5t0.5 -2.5q0 -3 -3 -10t-13 -13q-29 -8 -45 -13t-35 -13l-20 -138q4 -3 20.5 -10.5t34.5 -20.5t32 -30.5t14 -39.5q0 -21 -14.5 -36t-34.5 -25.5t-42 -17.5t-38 -12q-2 -16 -4.5 -29.5t-7.5 -42.5q-2 1 -2 2.5t-2 3.5
q-1 0 -1 -5q0 2 -1.5 4t-1.5 4q-2 -1 -3 -3q-3 -3 -3 -7q-3 1 -4 5q-2 -2 -3 -2q-2 0 -2 6v4zM130 451q5 19 7 42t6 42q-6 -3 -14.5 -8t-16.5 -11.5t-14.5 -14t-7.5 -15.5q0 -18 40 -35zM233 343q-7 8 -18.5 15.5t-22.5 11.5q-3 -17 -5 -31.5t-3 -28.5q16 5 32.5 11.5
t16.5 21.5z" />
    <glyph glyph-name="percent" unicode="%" horiz-adv-x="454" 
d="M454 547q0 -14 -5.5 -27t-13.5 -25t-17 -24t-16 -23q-68 -71 -126.5 -147.5t-106.5 -154.5q-12 -20 -19 -41.5t-17 -31.5q-7 -3 -11 -12.5t-14 -14.5l3 2q-6 0 -5.5 -0.5t-4.5 -1.5q-4 -4 -14 -4h-10q-5 0 -7 2t-8 4q0 -2 -1 -4t-1 -1q0 -1 -5 -1t-5 -2q-2 0 -2 8
q0 6 2 14q10 37 34.5 81t55.5 89.5t66 91t67.5 85.5t59 72t40.5 52q-6 1 -12.5 1h-13.5q-26 0 -51.5 -3t-43.5 -5q-12 -75 -60.5 -121t-120.5 -72q-2 0 -3.5 -0.5t-3.5 -0.5q-12 0 -24 6.5t-22 17t-16 23.5t-6 27q0 39 21.5 68.5t42.5 49.5q13 13 31 27t39 26t43.5 19.5
t44.5 7.5q18 0 35 -6.5t31 -22.5q30 2 62.5 5t63.5 3q3 0 5.5 1.5t5.5 1.5q5 0 12.5 -7.5t20.5 -31.5zM370 230q-2 -2 -3 -3.5t-3 -1.5q0 -2 2 -2.5t2 -6.5q0 -2 -2 -3t-2 -3q-2 0 -2 1v1q-5 0 -8 -4t-2 -4l-4 -3t-8.5 -7.5t-8 -8.5t-3.5 -6q22 -21 22 -47q0 -14 -5.5 -27.5
t-12 -24t-13.5 -17.5t-10 -8q-9 -11 -28.5 -18.5t-39.5 -7.5q-18 0 -31 8.5t-13 31.5v4q2 29 17.5 56.5t38.5 52t49.5 46.5t50.5 39q5 0 7 -4.5t3.5 -10t2.5 -10.5t4 -5q-1 -1 -1 -3q0 -1 0.5 -2t0.5 -2zM184 498q2 2 3 5.5t1 5.5t-1 4t-1 3q0 2 0.5 3t0.5 2t-1.5 2t-1.5 3
t1.5 2.5t1.5 2.5q-14 -5 -26 -14.5t-23.5 -21.5t-22.5 -26t-23 -26q-6 -7 -10 -14t-6.5 -15t-2.5 -16q33 8 63.5 36.5t47.5 63.5zM261 82q13 5 21 10t17 13q-2 7 -3 13.5t-1 14.5q0 3 0.5 6t0.5 6q-2 -4 -6.5 -8.5t-3.5 -5.5q0 -1 -3.5 -5.5t-8 -11t-8.5 -15t-5 -17.5z" />
    <glyph glyph-name="ampersand" unicode="&#x26;" horiz-adv-x="386" 
d="M388 594q8 -8 11 -19t3 -23v-8t-1 -8q-4 -18 -12.5 -40t-22.5 -37q-5 -13 -20.5 -32t-33.5 -39.5t-36 -39t-29 -30.5q5 -28 14 -55.5t19 -48.5q12 12 24.5 28t23 32.5t18 31.5t11.5 25q4 -4 5.5 -11t3.5 -11q-2 -4 -2 -6q0 -5 2.5 -8.5t5.5 -3.5t6 3v-15q1 -1 3 -1
t3.5 0.5t3.5 0.5t2 -3t-1 -5q-7 -40 -27.5 -69t-41.5 -53l-3 -3q-1 -1 -3 -3.5t-2 -4.5q0 -8 6.5 -21t15 -27t15 -28t6.5 -24q0 -2 -6 -2h-6q0 -5 -13 -5q-7 0 -14 1.5t-11 3.5q0 2 -4 4.5t-5 4.5q-4 2 -4 9v8q-5 4 -6.5 5t-2 2.5l-1.5 4.5t-5 9q-3 2 -5 5.5t-6 8.5
q-30 -17 -67.5 -32.5t-74.5 -15.5q-23 0 -44.5 8t-38.5 28q-14 10 -21 28t-7 38q0 17 5 32q17 48 54.5 92t79.5 92q2 3 6.5 7t4.5 10q-3 13 -8 41.5t-5 57.5q0 26 6 47q2 -4 2.5 -7.5t1.5 -6.5q0 4 2 4q-2 2 -2 10.5v10.5q3 21 12 42t23 38t35 28.5t48 12.5h8q14 0 25 -2
t25 -7q-9 6 -20.5 7.5t-23.5 6.5q20 0 33.5 -5.5t25.5 -13.5q14 -9 23.5 -23t13.5 -31zM311 538q11 12 21 24.5t16 29.5q-14 9 -34 9q-24 0 -48.5 -13.5t-35.5 -39.5q-8 -17 -10.5 -37t-2.5 -42q0 -7 1 -15t1 -16q22 26 45.5 50.5t46.5 49.5zM117 141q1 -14 18 -14
q11 0 26 5t29.5 11.5t25.5 14.5t14 14q-10 20 -17.5 44.5t-15.5 47.5q-9 -9 -22.5 -25t-26 -34t-22 -35.5t-9.5 -28.5zM162 502q3 0 3 1v1q0 2 1.5 5.5t1.5 6.5q0 1 -0.5 2t-0.5 3q2 7 3.5 12.5t2.5 13.5l-3 -9t-3.5 -12.5l-3 -13t-1.5 -10.5zM213 614q-1 -2 -2 -3t-1 -2v-1
q2 0 6 4.5t6 5.5q2 2 4.5 5t5.5 5q4 3 7 6q-2 0 -2.5 -1t-2.5 -1q-4 -1 -8 -5.5t-9 -7.5zM176 530q2 2 4 8.5t2 11.5q0 3 -1 3q-2 -4 -2.5 -9.5t-2.5 -9.5v-4zM215 601l2 4q2 4 3 5q-2 -2 -3.5 -4.5t-5.5 -4.5q0 -2 -1.5 -3.5t-1.5 -3.5q2 0 3 2t4 5z" />
    <glyph glyph-name="quotesingle" unicode="'" horiz-adv-x="122" 
d="M98 479q1 -2 -9.5 -4t-21.5 -2q-3 0 -9.5 1t-6.5 6q0 13 6 32t13.5 38t14.5 35t10 22q3 7 7 17.5t8.5 19.5t10 15.5t11.5 6.5q3 0 11 -1.5t16.5 -4t14.5 -5.5t6 -6t4.5 -7t4.5 -6q-2 -9 -7.5 -23t-12.5 -28t-13.5 -27.5t-11.5 -20.5q4 10 10.5 25.5t9.5 26.5
q-3 -5 -4.5 -9.5t-3.5 -4.5l-6 -15q-9 -22 -22.5 -43.5t-29.5 -37.5z" />
    <glyph glyph-name="parenleft" unicode="(" horiz-adv-x="172" 
d="M156 727q5 0 10 -2t16 -2q7 0 7 -9q0 -5 -1.5 -12.5l-2.5 -12.5l-8 -28q-26 -93 -47 -185.5t-25 -195.5q0 -11 -0.5 -23t-0.5 -23q0 -25 2.5 -54.5t7 -58t9.5 -52t10 -36.5q3 -8 3 -17q0 -2 2 -5.5t2 -5.5q-1 1 -3 1q-1 0 -3.5 -0.5t-2.5 -2.5q0 -3 1 -4q-1 0 -2 1.5
t-3 1.5q-8 0 -8 -2q0 -1 4 -7l-2 -2l-1 -1q0 -3 1.5 -5t1.5 -3q0 -4 -3 -5q2 0 2 -3q-5 0 -9.5 2t-8.5 7q0 -1 0.5 -1.5t0.5 -3.5q-24 21 -40.5 53.5t-27 72t-15 85.5t-4.5 94q0 60 6.5 119.5t17.5 112t25.5 94t29.5 65.5q2 3 6.5 12t12 18t17.5 16t23 7z" />
    <glyph glyph-name="parenright" unicode=")" horiz-adv-x="171" 
d="M144 512q3 -23 6 -48t3 -45q0 -3 -0.5 -6t-0.5 -6q1 -10 1.5 -20t0.5 -19q0 -1 -1 -2.5t-1 -3.5v-6q0 -2 0.5 -4t0.5 -4q0 -6 -1.5 -11t-1.5 -11v-10q0 -6 -0.5 -16t-2.5 -21q-3 -24 -12 -63.5t-21 -80t-25 -75t-23 -48.5v4q0 2 1 3q-2 -1 -3 -3.5t-3 -2.5q-2 1 -3 2
q-2 2 -2 3q-2 -1 -3 -3l-3 -3q-2 -1 -5 -2t-4 -1t-5 -7t-6 -7q-1 0 -1 3q-1 -2 -4 -7t-5 -5t-3 1.5t-2 1.5q-2 0 -3 -3q-8 -8 -10 -8q-1 0 -1 3q0 5 5 22q26 95 44 192t18 203q0 46 -4.5 89t-11 79.5t-13.5 67t-13 51.5l-4 16q1 11 5 19t13 8h11t12 -1l6 -4q8 -6 19 -30.5
t22 -56t20 -65.5t14 -59z" />
    <glyph glyph-name="asterisk" unicode="*" horiz-adv-x="372" 
d="M330 593q-1 -3 -5 -5.5t-8 -2.5q-3 0 -4 2q-2 0 -2.5 -0.5t-2.5 -0.5q-12 0 -28 3.5t-33 3.5q-3 -7 -5 -17.5t-4.5 -20t-6 -16.5t-9.5 -7q-5 0 -9.5 5.5t-7.5 13t-5 16t-2 15.5q-5 -2 -18 -10t-23 -12q-5 0 -11 6q0 12 14 21t23 17q-5 0 -17.5 3t-25.5 7.5t-22.5 9
t-9.5 7.5q0 4 11.5 8t15.5 4q2 0 3 -0.5t3 -0.5h4q11 0 25 -2t26 -2q0 12 0.5 21t1.5 16.5t3.5 15.5t6.5 20q1 -2 5 -2t6 2q2 0 8 -8q2 0 3.5 -7t3 -16t3.5 -16.5t4 -8.5q-1 0 9 7t22 15t22.5 13.5t10.5 4.5q4 0 7.5 1.5t7.5 1.5q3 0 4 -1q-15 -20 -34.5 -35.5t-32.5 -32.5
q7 -2 18.5 -3.5t22.5 -4.5t19 -7.5t8 -12.5z" />
    <glyph glyph-name="plus" unicode="+" horiz-adv-x="436" 
d="M383 318q0 -4 3 -4q-14 -4 -20 -11h4q1 0 -2.5 -2t-9 -4.5t-11.5 -5t-10 -2.5q2 -2 6 -2h12q0 -2 -1 -1.5t-2 -0.5q-22 -7 -42.5 -7t-36.5 -2q-4 -19 -6 -33t-5 -26t-7.5 -24t-12.5 -25q-5 -5 -12 -14t-15 -9q-1 0 -3 -2q-1 -1 -1 -2q0 -4 -5 -4q-4 0 -4 3q0 2 1 3l-8 -5
q0 2 5 10q-11 -8 -21 -8t-29 -7v4q-7 -4 -7 -12q-1 4 -2 11t-1.5 14t-0.5 13.5v10.5q1 1 1 3t-1 3t-1 2q0 16 0.5 26.5t2 19t3.5 17.5t4 24q-2 -2 -7 -2q-6 0 -13 1.5t-11 2.5q3 1 3 3q0 1 -4 2t-9.5 1.5t-11 0.5h-8.5q-2 0 -3 -0.5t-2 -0.5q-14 0 -29 5.5t-15 14.5
q0 10 8.5 17t20.5 9q22 12 47 11t50 2q5 19 9.5 44t12 47.5t19 38t31.5 15.5q3 0 7 -4q11 0 15 -0.5t16 -0.5q7 0 8 -3t5 -5v5q2 -1 6.5 -11t4.5 -31v-8q-1 -12 -4.5 -37t-7.5 -46q0 -1 16.5 -1h37.5t40.5 -0.5t26.5 -1.5q-7 0 -10 -7q3 -2 6.5 -3t5.5 -3q-8 -2 -14 -3
t-12 -3zM137 275h7.5t5.5 2q-8 0 -13 -2z" />
    <glyph glyph-name="comma" unicode="," horiz-adv-x="169" 
d="M166 145q0 -13 -10 -31t-24 -34.5t-28.5 -28t-24.5 -11.5q-5 0 -8.5 4.5t-3.5 16.5q5 10 8.5 24.5t3.5 26.5v6q0 2 -1 6t-1 6q-1 2 -1 5.5v6.5q0 13 5 26t18 13q9 6 25 6q15 0 28.5 -8.5t13.5 -28.5v-5z" />
    <glyph glyph-name="hyphen" unicode="-" horiz-adv-x="307" 
d="M299 245q-6 -3 -8.5 -4t-8.5 -3q-5 -7 -13.5 -7.5t-11.5 -4.5q0 -5 -1.5 -7t-8.5 -3.5t-23 -2.5t-44 -4q-8 0 -16 -0.5t-17 -0.5q-2 0 -3 1q-10 -2 -20 -3.5t-22 -1.5q-4 0 -12.5 1.5t-9.5 3.5q-17 2 -29 13t-12 23q0 6 4 12t14 10q2 1 4 3t6.5 4t13.5 4t26 2h36
q17 0 38 -1.5t47 -6.5q2 -1 9 -2.5t15 -4t15.5 -6t10.5 -7.5q1 0 7.5 -1t13.5 -6z" />
    <glyph glyph-name="period" unicode="." horiz-adv-x="167" 
d="M144 189q14 0 19.5 -12t5.5 -26q0 -5 -0.5 -9.5t-1.5 -9.5q-2 -6 -6.5 -14.5t-10.5 -13.5q-12 -5 -27 -5q-13 0 -24.5 4t-18.5 14q-14 6 -14 22q0 11 5 21.5t12 17.5q12 8 25.5 9t29.5 2h6z" />
    <glyph glyph-name="slash" unicode="/" horiz-adv-x="383" 
d="M402 690q6 -6 6 -17q0 -13 -4.5 -21.5t-6.5 -8.5q-14 -34 -28.5 -60.5t-30.5 -59.5q-11 -11 -11 -24q-18 -26 -32 -49t-28.5 -46.5t-31 -48.5t-38.5 -53q-19 -39 -42 -69.5t-32 -48.5q-14 -27 -31.5 -47t-34.5 -46q-2 -4 -4.5 -6.5t-2.5 -4.5q-1 0 -1 -1q-1 -1 -1 -3
q-2 -1 -2.5 -2t-2.5 -2l-3 -3t-6.5 -6t-6.5 -5.5t-3 -1.5q0 3 1 5q-4 -3 -10 -10.5t-6 -9.5q-5 -9 -8 -13t-8 -9q-1 2 -1 7q0 23 12.5 48.5t21.5 48.5q12 19 19 34.5t12.5 28t11 24.5t13.5 24q3 12 11 28t18 32.5t19.5 30t14.5 20.5q30 60 66.5 110t63.5 92q3 14 12.5 25
t12.5 14q31 54 51.5 80.5t39.5 26.5q5 0 11 -3z" />
    <glyph glyph-name="zero" unicode="0" horiz-adv-x="395" 
d="M304 542q27 -17 43.5 -39t26.5 -47t13.5 -51t3.5 -50q0 -25 -2.5 -46t-4.5 -37q-2 -4 -2 -6t-4 -7q-4 -2 -4 -10v-11q-2 0 -2 3q-1 -3 -1 -7q1 0 1 1.5t1 1.5q-2 -13 -8 -31t-12 -28q-1 -1 -1 -5q0 -2 -1 -5q-9 -12 -21 -33.5t-30.5 -42.5t-45.5 -36t-66 -15h-8
q-35 2 -62 13.5t-41 28.5q-28 35 -40.5 76t-12.5 85q0 61 20.5 121.5t52.5 109t72.5 78.5t79.5 30h6q21 -3 41.5 -6t20.5 -14q0 -8 -13 -21zM217 99q21 6 39.5 31t32.5 61t22 78.5t8 82.5q0 50 -14.5 89.5t-48.5 50.5q-4 -5 -13 -14t-14 -15q0 -2 -8.5 -16t-19 -36
t-20.5 -48.5t-13 -53.5q-1 -11 -3 -23t-7 -16q-3 -9 -3 -34q0 -20 2.5 -44t8.5 -45.5t16 -36t25 -14.5q2 0 4.5 1t5.5 2zM68 109q0 -3 4 -7.5t6 -8.5q-2 6 -6.5 13.5t-5.5 14.5q0 3 -1.5 12t-3 19t-3.5 18t-4 8q1 -3 1.5 -10.5t2.5 -10.5h-1q-1 0 -1 -2q2 -11 2.5 -23
t8.5 -20v-2q0 -1 1 -1zM89 94q1 1 2 -2l2 -6q-3 17 -11.5 25t-14.5 25q2 -6 5.5 -13.5t6.5 -14t6 -10.5t4 -4zM66 229q-6 -4 -6 -9q6 0 6 9zM64 145q0 -3 2 -7q-2 6 -2 7z" />
    <glyph glyph-name="one" unicode="1" horiz-adv-x="234" 
d="M207 551q2 -2 2 -5.5v-7.5v-8q-8 -120 -26 -232t-41 -224q0 3 -2 3t-4 -7t-2 -13q0 -4 -2 -6.5t-4 -2.5t-2 2v3q0 2 -3 5q-2 -3 -3.5 -3.5t-1.5 -2.5q0 -4 -2.5 -5t-6.5 -2l-8 -2t-8 -4q-2 2 -6 2q-5 0 -8.5 -3t-6.5 -6q-2 3 -5 6.5t-3 1.5q0 -3 1 -6t1 -7q-2 3 -3 5.5
t-5 6.5q0 -2 1 -7t1 -9t-2 -5q-12 11 -16.5 31t-4.5 40q0 88 14 172.5t26 173.5q3 21 5.5 44.5t8.5 44t18 33.5t33 13q2 0 4.5 -0.5t5.5 -0.5q6 1 14 2t14 1q11 0 18 -4.5t9 -16.5z" />
    <glyph glyph-name="two" unicode="2" horiz-adv-x="392" 
d="M362 125q7 -3 7 -6t-6 -5.5t-14 -2.5q-2 0 -4 0.5t-4 0.5q-8 0 -19 -3t-16 -9q0 -3 1 -3q2 0 2 -2q1 5 8 5h14q2 0 7.5 -2t9.5 -2q5 0 6 -0.5t3 -0.5q-14 -3 -28 -8t-28 -5q-2 0 -3.5 -1.5t-6.5 -1.5q-6 0 -9 0.5t-15 0.5q1 0 1 -0.5t1 -0.5h1q0 -1 -4 -1q-2 0 -4.5 1
t-4.5 1q-4 0 -9 -8q-14 -10 -36.5 -15.5t-48 -8t-50.5 -3t-44 -0.5h-5q-10 0 -20.5 4t-19.5 12.5t-14.5 21.5t-5.5 31q0 27 20 59t50 66.5t64.5 69.5t64.5 68.5t50 65t20 57.5q0 19 -13 35q-10 13 -39 13q-27 0 -61 -11.5t-60 -33.5q-9 -7 -21 -14.5t-20 -7.5t-8 12
q2 26 19 47.5t42 36.5t56 23.5t61 8.5q24 0 46.5 -8t40 -23t29.5 -35.5t16 -45.5q3 -17 3 -33q0 -41 -15 -79.5t-38.5 -73.5t-51 -66t-52.5 -56l-43.5 -43.5t-23.5 -29.5q1 -1 6.5 -1h7.5q40 0 75.5 9.5t74.5 9.5q26 0 58 -9z" />
    <glyph glyph-name="three" unicode="3" horiz-adv-x="351" 
d="M223 281q9 -7 22.5 -16t26 -20.5t21 -25.5t8.5 -31q0 -31 -18 -58.5t-45 -48.5t-57.5 -33t-54.5 -12q-5 0 -13 2t-10 2q0 2 -6 2h-6q-5 0 -8 3.5t-3 5.5q-2 2 -5.5 2.5t-4.5 0.5q-5 0 -8 1t-5 1q-3 0 -5 -2q4 7 4 10q0 10 -11 12.5t-18 2.5q0 1 0.5 1.5t0.5 1.5
q0 2 1.5 1.5t1.5 1.5h-3q-2 0 -4 -2q0 2 2 3t5 5h-19q0 1 2 1t2 2q6 2 9 7t7 6q34 7 59 16.5t41.5 19.5t25 18.5t8.5 12.5q2 6 2 7q0 12 -20.5 20.5t-45 18t-45 23t-20.5 36.5v4q1 7 12 14.5t24 14t23 10.5t9 4q24 13 49 34.5t44.5 46t32 48.5t12.5 42q0 27 -16.5 36
t-39.5 9q-22 0 -43 -4t-33 -4q-4 0 -7.5 -4.5t-8.5 -4.5t-8 -2.5t-8 -2.5q-21 0 -30 3.5t-9 8.5q0 7 14 17.5t35 20.5t46 17.5t47 10.5q11 2 20.5 2h18.5q134 0 134 -121q0 -33 -12 -62.5t-31.5 -55t-43 -46t-45.5 -34.5z" />
    <glyph glyph-name="four" unicode="4" horiz-adv-x="396" 
d="M395 340q3 0 8.5 -3.5t11.5 -7t9.5 -7t2.5 -3.5q-2 -5 -8 -6t-13.5 -2t-13.5 -2t-8 -6q-6 -7 -8.5 -11t-5.5 -6t-7.5 -3t-13.5 -2q-11 -62 -18.5 -121t-21.5 -125q0 6 -1 6q-2 0 -5 -8.5t-11 -8.5q-1 -1 -1 1v11q-3 -3 -3 -6q0 -1 -0.5 -2t-0.5 -3v-3q0 1 -1 2t-2 1.5
t-2 1.5q0 -1 0.5 -1.5t0.5 -1.5q0 -2 -1 -4.5t-1 -5.5q-1 2 -1 4v6q-1 -1 -1.5 -5t-1.5 -4q-1 1 -1 3t-0.5 3t-0.5 3t-2 2q-1 0 -2 5q-1 -3 -1 -8v-10q-4 6 -5 11q-1 0 0 -1.5t0 -1.5q0 1 -1 4t-1 7q0 3 2 9q-7 -11 -7 -22q-2 2 -3 2v-9q-2 0 -2 1t-1 1h-10.5t-8.5 -2
q0 1 -5.5 1h-6.5q-2 0 -3 -1q0 2 -1 7.5t-4 5.5v-12q0 2 -2 3.5t-2 4.5l-2 9q-1 0 -1 -6v-5q0 -5 2 -13q-2 2 -3 3.5t-4 1.5q-3 -2 -7 -6t-7 -5q-1 8 -1 16v16q0 29 3 61t7.5 63.5t9 62t7.5 57.5h-4q-22 0 -50.5 4.5t-55 15.5t-46 28.5t-23.5 43.5q-1 14 -1.5 25.5
t-0.5 22.5q0 19 1 35.5t2 36.5q4 21 7 48t12 51t27 40t50 16h5h20.5t19.5 -2t14.5 -7t5.5 -15q0 -3 -0.5 -6t-1.5 -7q-6 -25 -12 -54.5t-10.5 -58t-7.5 -55t-3 -45.5q0 -8 0.5 -13.5t1.5 -10.5q1 -4 7.5 -7.5t15.5 -6t19 -4t16 -1.5q5 25 10 52.5t5 55.5q2 13 5.5 32.5
t10.5 37.5t18.5 30.5t28.5 12.5h7q6 0 17 -0.5t21.5 -2.5t18.5 -6.5t8 -12.5q0 -2 1 -3.5t1 -2.5q1 -7 1 -13.5v-13.5q0 -45 -7.5 -85t-10.5 -89q16 -1 26 -1.5t13 -0.5z" />
    <glyph glyph-name="five" unicode="5" horiz-adv-x="333" 
d="M374 573q-9 0 -9 -1.5t-8 -1.5q2 -1 3.5 -5.5t3.5 -5.5l-3 -0.5t-7 -1t-6.5 -1t-1.5 -0.5q0 -3 -4 -3.5t-9 -1t-9 -0.5t-4 -1q5 0 13 -1.5t6 -1.5q-2 -2 -10 -2h-6t-5 -2q2 -1 9 -1h11q4 -1 2.5 -3t4.5 -4q-7 -5 -20 -7t-29 -2q-11 0 -21.5 0.5t-19.5 0.5q-14 0 -23.5 -2
t-9.5 -8q0 -18 -8 -44t-19 -53.5t-23 -53.5t-19 -45q15 -3 42 -14t53.5 -30.5t46.5 -47.5t20 -65q0 -26 -14.5 -46t-37 -34t-49 -21.5t-50.5 -7.5q-1 0 -5 1t-8.5 2t-7.5 2.5t-2 1.5q-3 4 -7 4q-5 0 -9 -2.5t-4 -1.5l1 1q2 2 5 4q-1 3 -7 3t-6 4q4 0 6 1q-3 2 -11 3t-8 2h5
q-1 1 -4 2t-3 2q0 3 -3.5 2.5t-3.5 1.5q0 1 0.5 1.5t0.5 1.5q-5 0 -11.5 4t-13 8.5t-12 8.5t-8.5 4q0 2 -0.5 3t-0.5 3q23 0 50.5 4t53.5 14q24 10 36 24.5t12 31.5q0 14 -8.5 27t-27.5 23q-32 17 -61.5 25t-61.5 16q-5 1 -12 9t-9 20v7q0 24 12.5 56t24.5 62q10 24 20 50.5
t21 48.5t24.5 36.5t30.5 14.5q21 0 40.5 0.5t39.5 0.5q39 0 76.5 -3t75.5 -13q-2 0 -4 -1.5t-6 -1.5z" />
    <glyph glyph-name="six" unicode="6" horiz-adv-x="413" 
d="M415 211q0 -29 -12.5 -58t-33 -54t-47 -43t-54.5 -24q-5 0 -9 -1.5t-10 -1.5q-1 1 -1 3q-1 1 -1 2v1q-5 0 -15 -3.5t-8 -3.5q3 0 7.5 1.5t8.5 1.5q0 -5 -7 -6t-12 -1h-8q0 1 2.5 1.5t2.5 1.5h-4q-2 0 -9 1t-9 1q-1 0 -1 -1v-3q0 -1 13 -1q4 0 5 -1h9t9 1q0 -3 -14 -3.5
t-26 -0.5h-14q-21 1 -45 10t-44 25.5t-33 41t-13 57.5q0 57 15.5 116.5t42.5 116.5t64 109t80 94q2 2 10 2.5t13 0.5q0 2 4 2q1 0 5 -1.5t8.5 -4t9 -4t5.5 -1.5t2.5 0.5t3.5 0.5h2.5t9.5 -1q11 0 21.5 -1.5t10.5 -12.5q0 -2 -3.5 -8.5t-3.5 -8.5t2.5 -3t2.5 -2
q-3 -6 -15 -25t-28 -46t-35 -60t-36 -68t-31 -69.5t-20 -65.5q29 34 62.5 55.5t87.5 21.5q11 0 25 -4.5t26.5 -13.5t21.5 -22.5t10 -31.5v-8zM298 192q3 7 4 13.5t1 12.5q0 15 -6 18q-1 1 -5 1q-7 0 -17 -4.5t-19 -7.5q0 -2 -2 -4q1 1 4 1l-6 -3q-2 -2 -4 -2q-4 -2 -5 -3
l-2 -2q0 -3 -4 -5.5t-5 -3.5q-3 -3 -4.5 -5.5t-3.5 -2.5t-3 1q-1 -2 -4.5 -7.5t-7 -11.5t-6 -11.5t-2.5 -6.5v-1h3q0 -8 -3.5 -7t-3.5 -4q0 -2 -2 -3t-4 -1t-2 2q0 3 4 8t6 7q0 5 1.5 7t3.5 8q4 0 4 5q2 0 4 5q1 2 2 5q-2 0 -5 -5q1 0 -0.5 -1.5t-3.5 -1.5t-3.5 -0.5
t-3.5 -5.5q1 -1 6 -1q-6 -6 -6 -12q0 -3 -4 -3q-2 -2 -5 -7.5t-3 -7.5v-5q-1 -1 -4 -10q-4 -6 -4 -16v-4q0 -3 1 -7t6 -5v5q-1 0 -1 7q0 2 1.5 6t4 8.5t4 7.5l1.5 3q0 -3 -1 -6q-4 -9 -4 -19q0 -8 3 -9q2 -2 6 -2q8 0 22 8t29 21t28.5 29.5t19.5 34.5zM85 117q0 5 -1.5 9
t-2.5 3q-2 0 -2 9t-2 12q-1 0 -1 -9q0 -4 1 -14t8 -10zM71 181q4 0 4 -1t-0.5 -1.5t-0.5 -2.5q0 -1 0.5 -1.5t0.5 -1.5q1 0 2 9.5t1 25.5q-4 -2 -4 -6q0 -3 2 -3v-4q0 -5 -2.5 -8.5t-2.5 -5.5zM98 149q0 -5 1.5 -12t2.5 -7v3q0 11 0.5 13t2.5 13q-3 -5 -7 -5v-5zM89 152
q0 -4 5 -4q0 2 0.5 2.5t0.5 1.5q0 4 -1.5 6.5t-1.5 8.5q-1 -2 -1 -3t-2 -2v-10zM101 114l-1 1q-2 0 -2 2q0 -4 -1 -5v-3q0 -1 1 -1q3 -2 4 -5.5t4 -6.5q0 5 -2.5 10.5t-2.5 7.5zM79 194q0 -5 -1 -10t-1 -10q0 -3 1 -5q1 3 2 7.5t1 9.5q0 4 -2 8zM173 128q-4 -4 -4 -17l2 -2
q1 -1 2 -1q0 1 -0.5 1.5t-0.5 1.5q0 2 0.5 4.5t0.5 5.5v7zM92 186q-1 -2 -1 -6q0 -6 6 -7q0 6 -5 13zM177 136q-1 1 -1 2v1q0 2 0.5 2t0.5 2q-4 0 -4 -6q-1 -3 0 -5q1 0 4 4zM62 106q1 -1 1 -3t2 -2q0 2 -2.5 8t-3.5 9q0 -8 3 -12zM82 227q2 2 2 5.5v5.5q-1 -2 -2 -3.5
t-1 -3.5q-1 0 -1 -1l-1 -2q0 -1 3 -1zM172 140q0 -1 -0.5 0.5t-1.5 1.5q-2 0 -2 -11q0 2 2 4t2 5zM98 100q2 -6 8 -13q-1 6 -8 13zM100 49q1 -1 4 -3t6 -2q-5 5 -10 5zM185 177q-2 -2 -4 -5t-3 -5q7 6 7 10zM114 44q0 2 2 4l-8 2q2 -1 3.5 -2t2.5 -4zM53 178q1 1 1 5
q0 3 -1 3q0 -1 -0.5 -2t-0.5 -3q0 -1 0.5 -1t0.5 -2zM217 203q-4 0 -4 -2q-1 -1 0 -2t2 0q2 0 2 4zM98 87q0 1 -0.5 3.5t-0.5 4.5h-2q-1 0 -1 -2q2 0 2.5 -2.5t1.5 -3.5zM179 158l-3 -3q-1 -2 -1 -3q1 0 2.5 2.5t1.5 3.5zM53 172q2 0 2 2t-2 2v-4zM119 47q3 -3 5 -3z
M217 197q-2 0 -2 -3q2 0 2 3zM53 189q0 -2 2 -2q0 2 -2 2zM240 214q4 0 5 1q-2 -1 -4 -1t-1 0z" />
    <glyph glyph-name="seven" unicode="7" horiz-adv-x="393" 
d="M407 549q-14 -32 -33 -74.5t-41 -91t-45 -99.5t-44 -99t-38.5 -90.5t-28.5 -73.5q-2 -3 -3 -5q-2 -2 -2.5 -3.5t-2.5 -1.5q0 2 -5 2q-3 0 -5.5 -0.5t-3.5 -0.5q0 1 0.5 1.5t0.5 2.5q-1 0 -3 -2l-2 -2q0 1 1 2t1 2q-2 0 -4 1t-3 1q-4 0 -6 -2q-7 0 -8 2t-1 4q-2 -2 -4 -2
q-2 -1 -3 -1t-3 -2q0 2 -0.5 2.5t-0.5 2.5t1 4h-4l-8 1t-18.5 2.5t-19.5 3.5t-10 5q-2 0 -2 -2q-1 0 -1 1v2h-5q-5 0 -5 2q-2 -2 -2.5 -4t-0.5 -4q-8 8 -8 21q0 16 9 34t14 32q20 51 45 105.5t51 110t52 110.5t48 106q-29 0 -63.5 -2.5t-66.5 -4.5q-7 -1 -13.5 -1.5
t-12.5 -0.5q-11 0 -19 2.5t-10 7.5q0 1 -0.5 1.5t-0.5 2.5q-1 0 -1.5 -0.5t-1.5 -0.5h-1l-3 1t-6 2.5t-5.5 3l-2.5 1.5q2 0 5 -1t5 -1q3 0 3 3q0 1 -4 2t-4 2h1q1 1 2 1q-4 4 -4 5q-1 1 -8 6t-5 5q14 7 54.5 12t89.5 8t96 4t74 1q19 0 38 -12t19 -33q0 -9 -4 -17zM89 557
q-2 0 -2.5 0.5t-2.5 0.5t-3 -0.5t-2 -0.5h-2l1 -1q2 -2 2 -3q1 1 0.5 1.5t1.5 0.5t3.5 -0.5t3.5 -0.5v3zM126 13v3h1q2 -2 3.5 -4t1.5 -4q-4 1 -4.5 2.5t-1.5 2.5z" />
    <glyph glyph-name="eight" unicode="8" horiz-adv-x="384" 
d="M345 620q6 0 18.5 -2t25 -5.5t22 -9t9.5 -13.5q0 -12 -9 -12q-7 0 -19 2t-31 4q-5 0 -10 0.5t-10 0.5q-45 0 -81.5 -11.5t-56.5 -33.5q-8 -9 -13 -20.5t-5 -25.5q0 -10 5 -21.5t12 -22t12.5 -19t7.5 -12.5q60 57 105.5 85.5t58.5 32.5q1 0 1 -1q0 -2 1 -2q2 0 2 1.5
t1 1.5v-4q0 -1 -0.5 -1.5t-0.5 -2.5q2 0 5.5 2t4.5 2q2 0 3.5 2t4.5 2h4q-3 -3 -6 -6.5t-3 -5.5q2 4 9 4q-5 -4 -14.5 -12.5t-9.5 -11.5l1 -1q0 -1 0.5 -1.5t0.5 -1.5q2 2 4 5t5 5q-1 -2 -3.5 -4.5t-2.5 -5.5q10 5 10 11t8 10q0 -3 -1 -6.5t-5 -3.5q0 -2 -1.5 -3t-1.5 -4
q5 5 8.5 9.5t5.5 7.5q1 -1 1 -3t-3 -6t-3 -2q-1 1 -2.5 -3.5t-3.5 -6.5q-7 -8 -13.5 -15.5t-14.5 -14.5q10 5 10 6t10 3q-9 -11 -21.5 -21.5t-28 -25.5t-34.5 -35t-41 -49q4 -8 7 -12.5t7.5 -12t12 -21t20.5 -38.5q22 -43 22 -85q0 -37 -14.5 -72t-39.5 -62t-58.5 -43.5
t-71.5 -16.5q-14 -3 -24 -3q-12 0 -32 5t-39 14.5t-33 23.5t-14 31q0 2 1 3v9q1 0 3.5 -5.5t8.5 -10.5q0 2 -1.5 3t-1.5 4q1 -2 3.5 -3t4.5 -3l6 -4q0 2 -4.5 10t-4.5 11v4q0 3 1 6q-1 5 -1.5 8t-0.5 6v5q-2 0 -1.5 2.5t-1.5 3.5q0 5 1 7.5t1 5.5q-1 -1 -2.5 -5t-2.5 -8.5
t-1.5 -9t-0.5 -5.5t-0.5 -1.5t-0.5 -2.5v-3q-3 1 -3 5v7q0 1 -0.5 1.5t-0.5 1.5v1q0 1 -0.5 1.5t-0.5 1.5q-2 -8 -2 -12.5v-6.5v-4q0 -1 -0.5 -2t-0.5 -2v-2q-2 0 -3 -1q-1 1 -1 7v13q0 18 2.5 35t7.5 31q0 -2 1 -5t2 -3q2 0 2 10q0 3 -2 4q7 22 16.5 39t21.5 34t27 35
t35 41q-25 36 -44.5 73.5t-19.5 82.5q0 42 23 70.5t60 46.5t82.5 26t91.5 8h15.5t15.5 -1zM173 242q-11 -11 -24.5 -29t-25.5 -39t-20 -42t-8 -38q0 -14 7 -24.5t24 -15.5q12 -3 22 -3q32 0 46 25t14 59q0 29 -9 58t-26 49zM43 56q5 -5 7 -8.5t6 -4.5q-2 2 -5.5 7t-7 9.5
t-6.5 7.5t-3 2q0 -2 1 -4q2 0 5 -5.5t3 -3.5z" />
    <glyph glyph-name="nine" unicode="9" horiz-adv-x="361" 
d="M218 611q8 2 16 3t16 1q19 0 38.5 -5.5t35 -16.5t25 -28t9.5 -40q0 -12 -3 -25q-14 -65 -23.5 -110.5t-19 -87.5t-20.5 -88t-26 -110q-6 -27 -15.5 -43.5t-20 -25.5t-22 -11.5t-22.5 -2.5q0 -2 -5 -2h-5q-3 0 -7 -1l-6 -2t-5 -2q-6 0 -9.5 -2.5t-6.5 -2.5q-5 0 -10 8
q0 -2 -0.5 -4.5t-0.5 -3.5q-2 2 -2 4t-2 6q0 7 2 14t2 15q1 8 3 14q1 2 1 4.5t1 4.5q0 2 1 4q11 49 19.5 88t16.5 76t17.5 75.5t22.5 88.5q-15 -19 -28.5 -32.5t-27.5 -25.5l-2 5q-10 -11 -29 -11h-4q-3 -1 -8 -1q-14 0 -30 7.5t-29 21.5q-10 10 -14 23.5t-4 29.5v9t1 9
q4 27 19 54t38.5 51t55 42t67.5 26zM241 516l2.5 5t1.5 9q-12 -4 -31.5 -23.5t-38.5 -42.5t-33.5 -44.5t-15.5 -28.5q0 -4 2 -4q4 0 12 7.5t11 12.5q16 16 29 30t23.5 26.5t19.5 25.5t18 27zM152 351q13 8 23 20q-13 -5 -20.5 -12.5t-20.5 -14.5q7 1 14 6q3 0 4 1zM173 195
q0 5 1 10l2 10q-2 -8 -5 -17t-3 -17v-6q1 4 3 9.5t2 10.5zM60 375q2 -3 5 -5.5t3 -6.5q2 0 6.5 -1.5t7.5 -3.5q-6 6 -12.5 10.5t-9.5 6.5zM236 92q4 1 4 3.5t1 4.5q-1 0 -1.5 -1t-3.5 -2l4 1l-3 -4l-1 3q-2 -5 -2.5 -7.5t-0.5 -4.5q1 1 1 3t2 4zM159 138q4 8 4 15
q-2 0 -3 -6t-1 -9z" />
    <glyph glyph-name="colon" unicode=":" horiz-adv-x="191" 
d="M168 189q14 0 19.5 -12t5.5 -26q0 -5 -0.5 -9.5t-1.5 -9.5q-2 -6 -6.5 -14.5t-10.5 -13.5q-12 -5 -27 -5q-13 0 -24.5 4t-18.5 14q-14 6 -14 22q0 11 5 21.5t12 17.5q12 8 25.5 9t29.5 2h6zM125 286q-11 2 -15.5 9.5t-4.5 15.5q0 10 4.5 20t9.5 18q4 5 12 11.5t17 8.5
q16 0 31.5 -9t19.5 -27q7 -7 7 -15q0 -12 -11 -23.5t-22 -16.5q-5 -1 -13 -1q-9 0 -16.5 2.5t-18.5 6.5z" />
    <glyph glyph-name="semicolon" unicode=";" horiz-adv-x="197" 
d="M194 145q0 -13 -10 -31t-24 -34.5t-28.5 -28t-24.5 -11.5q-5 0 -8.5 4.5t-3.5 16.5q5 10 8.5 24.5t3.5 26.5v6q0 2 -1 6t-1 6q-1 2 -1 5.5v6.5q0 13 5 26t18 13q9 6 25 6q15 0 28.5 -8.5t13.5 -28.5v-5zM129 286q-11 2 -15.5 9.5t-4.5 15.5q0 10 4.5 20t9.5 18
q4 5 12 11.5t17 8.5q16 0 31.5 -9t19.5 -27q7 -7 7 -15q0 -12 -11 -23.5t-22 -16.5q-5 -1 -13 -1q-9 0 -16.5 2.5t-18.5 6.5z" />
    <glyph glyph-name="less" unicode="&#x3c;" horiz-adv-x="319" 
d="M216 191q-4 0 -9 -4.5t-10 -4.5q-2 0 -2 -1.5t-1 -1.5q-26 8 -48.5 22.5t-36.5 35.5q-4 6 -8 13.5t-8.5 14.5t-10.5 11.5t-14 4.5q-12 16 -14 22t-2 14v17q2 14 8 18.5t16 11.5q3 5 9.5 12l13 14t12 12t5.5 6q28 24 51.5 47t56.5 49q4 2 7.5 3.5t8.5 1.5q1 0 4.5 -0.5
t7.5 -2.5t7 -6.5t3 -11.5q0 -17 -10.5 -36t-24.5 -36t-28.5 -31t-21.5 -21q-10 -9 -22.5 -16t-22.5 -16q1 -9 6 -16.5t11 -15t12.5 -14.5t10.5 -15q7 -10 21.5 -20.5t29.5 -21.5t26.5 -22.5t12.5 -22.5l-23 3q-2 0 -3 1.5t-2 1.5t-2 0.5t-2 0.5t-1.5 -0.5t-1.5 -0.5
q-2 0 -8.5 2t-8.5 2z" />
    <glyph glyph-name="equal" unicode="=" horiz-adv-x="384" 
d="M375 380q-9 -5 -16.5 -6t-9.5 -1q-4 -5 -11.5 -6.5t-16 -2.5t-15.5 -1t-9 -1q-41 -6 -85 -6q-31 0 -58.5 1.5t-44.5 1.5q-21 0 -32 1.5t-17 4t-8.5 4.5t-4.5 3q-23 7 -23 18q0 10 15.5 18t35.5 9q14 4 27.5 5t27.5 1q17 0 34 -1t34 -1q52 0 78 -2t40 -6t22.5 -8.5
t25.5 -8.5q4 -1 5 -3t1 -4.5t1 -5t4 -3.5zM374 276q-3 -1 -4 -3.5t-1 -5t-1 -4.5t-5 -3q-14 -8 -22.5 -11t-22.5 -4t-41 -1t-79 -2q-10 0 -19.5 -0.5t-20.5 -0.5q-2 0 -3 1q-13 -2 -25.5 -3.5t-26.5 -1.5q-5 0 -16 3.5t-12 5.5q-20 1 -35.5 9t-15.5 18q0 11 23 18q2 1 4.5 3
t8.5 4t17 4t32 2h55q30 0 65.5 -1.5t67.5 -6.5q2 -1 9 -1.5t15 -1.5t15.5 -3.5t11.5 -6.5q2 0 9.5 -1t16.5 -6z" />
    <glyph glyph-name="greater" unicode="&#x3e;" horiz-adv-x="314" 
d="M106 194q-6 -8 -12 -9q-2 3 -8.5 3.5t-6.5 1.5h-1q-1 0 -1 0.5t-1 0.5q-10 0 -13 10t-3 19q0 22 12.5 42t30.5 38t37.5 33.5t34.5 27.5q8 7 17 14t17 13q-21 14 -47.5 22t-46.5 23q-16 17 -28 35t-12 37q0 8 8 10.5t19 2.5q19 -3 31.5 -12.5t25.5 -19.5q10 -8 24.5 -15
l29 -14t26.5 -14.5t17 -15.5q11 -8 17.5 -18.5t6.5 -15.5q0 -1 -2.5 -4.5t-4.5 -7.5q0 -1 0.5 -1.5t0.5 -2.5l-5.5 -6.5t-12 -14.5t-12 -15t-5.5 -9q-16 -17 -32 -32.5t-32 -35.5q-4 -7 -11 -20t-15 -25.5t-17 -21.5t-16 -9q-4 0 -5.5 3t-4.5 3z" />
    <glyph glyph-name="question" unicode="?" horiz-adv-x="320" 
d="M221 716q28 -2 47.5 -14.5t31 -30.5t16.5 -39.5t5 -41.5q0 -36 -15.5 -70t-33.5 -60q-21 -30 -44 -60.5t-42.5 -62t-33.5 -66t-17 -72.5q-2 0 -7 0.5t-6 0.5q-1 -1 -1 -3v-4q0 -6 -6 -7q-1 0 -2 -1t-1 -7q-4 0 -3.5 -4t-1.5 -4q-1 0 -3 2l-3 -2q0 -3 -5.5 -6.5t-3.5 -3.5
q-12 12 -15.5 27t-3.5 31v9q2 39 11 73t25 67.5t37 68t47 73.5q12 18 28.5 41.5t16.5 48.5q0 16 -11.5 22t-25.5 6q-17 0 -31 -7q-8 -2 -16.5 -7.5t-18.5 -11t-22 -9.5t-25 -4q-12 2 -17.5 9t-5.5 16q0 8 4 16t10 10q21 35 60 56t82 21zM134 102q2 -5 4.5 -11t2.5 -12
q0 -5 -1 -7q1 -2 1 -5q0 -5 -2.5 -10.5t-2.5 -11.5v-4q0 -6 -4.5 -10.5t-11 -7.5t-13 -5t-10.5 -2q-5 0 -5 2q-4 1 -11 3.5t-14 6.5t-12.5 9t-5.5 11q0 2 2 6v17q0 4 4.5 11t10.5 13.5t12 12t9 6.5q0 7 12 7q11 0 23 -5.5t12 -13.5z" />
    <glyph glyph-name="at" unicode="@" horiz-adv-x="548" 
d="M432 332q-2 -8 -2 -9q0 -3 1 -3q-6 -11 -12.5 -30t-12 -41t-9 -44t-3.5 -38v-6h4t3 1q27 16 48 43t35.5 57.5t21.5 61t7 53.5q0 33 -6.5 56.5t-17 39.5t-24 25t-28.5 14q-20 7 -46 7q-33 0 -67 -14t-66 -41.5t-59.5 -69.5t-45.5 -99q-18 -54 -18 -106q0 -29 7 -54.5
t22.5 -44.5t39.5 -29.5t58 -10.5q24 0 53 5.5t64 18.5q-21 -13 -33 -23t-20.5 -17t-15.5 -10.5t-17 -3.5q-1 0 -1.5 -0.5t-1.5 -0.5l2.5 5t0.5 2q-7 -5 -21 -10t-26 -6q10 0 20 2t20 7q-5 -7 -23 -12.5t-39 -5.5h-8q-4 0 -5 3h-4q0 2 -4 2h-3q-31 6 -54 27.5t-34 44.5
q3 -14 13 -26t22 -22t24.5 -17t22.5 -11q-14 5 -27.5 11.5t-27.5 18.5q17 -19 41 -28t52 -9q5 0 10 0.5t10 0.5q-8 -2 -15 -2.5t-14 -0.5q-24 1 -43 8t-29 15q-1 1 0.5 -1.5t1.5 -4.5q8 -5 21.5 -9.5t17.5 -6.5q-13 2 -18 4t-16 6q7 -6 17.5 -8.5t21.5 -3.5t21 -1.5t16 -0.5
q-6 -2 -12.5 -2h-12.5q-36 0 -70 20q-50 30 -70.5 74.5t-20.5 87.5q0 75 23 146.5t73 131.5q47 56 103.5 89t121.5 33q39 0 78 -13q24 -8 45.5 -25.5t38 -40.5t26 -51t9.5 -57q0 -4 -1 -10.5t-1 -8.5q0 -7 -0.5 -12.5t-0.5 -11.5q0 -2 0.5 -3.5t0.5 -3.5q0 1 -2 -5.5
t-4.5 -14t-4.5 -14t-3 -4.5v-4q-3 0 -3 3q-1 -4 -3 -10.5t-3.5 -13t-2.5 -11l-1 -4.5l-1 -1q-2 -2 -2 -1q0 -5 -3.5 -11.5t-2.5 -7.5q-2 -5 -3.5 -10.5t-6.5 -11.5q-2 -1 -6 -8t-4 -9q-7 -10 -20.5 -24.5t-29.5 -28t-33 -23.5t-31 -10q-16 0 -27.5 7t-19 18.5t-11 26.5
t-3.5 31l-4 -3q-9 -8 -20.5 -18t-24 -18t-26 -13.5t-26.5 -5.5q-16 0 -26.5 6t-16.5 15t-8.5 20t-2.5 21q0 37 19.5 79.5t50.5 81t69.5 66.5t76.5 37q5 0 15.5 -4t10.5 -13q0 -14 -17 -19t-41 -15q-9 -10 -27.5 -36t-37.5 -57t-33 -61t-14 -47v-5q15 8 30.5 24.5t30.5 36.5
t29 40.5t26 37.5q-2 4 -2 10q0 13 13 21t27 8q13 0 23 -6.5t10 -23.5q-2 -5 -1 -9.5t-4 -9.5z" />
    <glyph glyph-name="A" unicode="A" horiz-adv-x="478" 
d="M485 267q0 -3 3 -6q-3 0 -3 -2q0 -1 0.5 -2t0.5 -2q0 -2 -3 -3q-5 0 -5 -5q-3 0 -3 -5q0 -1 -4 -5l-3 -3q-5 0 -9 -2h-5q0 -1 4 -3.5t3 -3.5q-5 -2 -9.5 -2t-9.5 -2q3 -41 7 -84.5t8 -84.5q1 -4 1 -13q0 -17 -2.5 -34t-2.5 -27q0 1 -1 1.5t-1 2.5t-3 5q-1 1 -1 4
q0 2 -1 3l-3 -6v-10q-5 2 -5.5 8.5t-1.5 11.5q-2 -4 -2 -11q0 -2 -1 -6t-1 -5q0 -2 1 -2t1 -1q-2 -2 -2 -7.5v-9.5q-2 5 -2.5 10t-2.5 10q-3 6 -2.5 10t-1.5 8v-11q0 -9 -2 -9t-2 -1.5t-2 -1.5v1q-1 1 -2 1v-4l-1 -2v-1q-2 3 -5 6.5t-4 3.5q-2 0 -2.5 -1t-2.5 -1
q0 -1 -1 3.5t-3 3.5q0 -4 -0.5 -7.5t-2.5 -3.5q-1 0 -1 6v4q0 1 -0.5 3t-1.5 2h-3q-2 0 -2 -4t-1 -5q0 4 -1 8q0 -3 -0.5 -4.5t-0.5 -3.5v-8h-2q-1 0 -1 -2q-2 -2 -1.5 -6t-4.5 -6q-2 5 -2.5 9.5t-2.5 12.5q-9 62 -16.5 122.5t-13.5 124.5h-31.5t-42 -0.5t-40 -1.5t-25.5 -2
q-8 -21 -18 -47t-21 -53.5t-22 -56t-20 -54.5q-11 0 -29.5 -2t-29.5 -2q-8 0 -9 0.5t-9 2.5q-4 4 -7.5 5t-6.5 2t-5.5 3.5t-2.5 9.5l-9 5l-7 6q-8 24 -8 44q0 13 3 28q0 9 4.5 27.5t11.5 39.5t14 41.5t12 32.5q-3 4 -3 9q0 8 5.5 15t9.5 10q21 60 46.5 118.5t52.5 121.5
q10 18 23.5 49.5t31 61.5t40 52t50.5 22h5q5 -2 6 -3.5t1 -3.5t1 -4t6 -5q1 -1 2 -1h3v-1q0 -1 2 -1q0 1 2.5 1t2.5 2q2 -3 2.5 -5.5t3.5 -2.5q2 0 3 -1.5t4 -1.5q0 5 -5 8q1 0 3 -2l2 -2v2q0 2 1 1v4q4 -2 5.5 -6t4.5 -6q2 0 3 -2t4 -2q-2 2 -4 8t-1 5q-1 1 -1 2q-1 1 -1 3
q3 -3 3 -5q5 0 6.5 -2t4.5 -4q0 2 -2 4.5t-2 6.5q2 0 3 -1t3 -1q1 -2 6 -4q5 -13 11.5 -42t12.5 -66.5t12 -80t11 -83t9 -74.5t6 -54q20 -1 27.5 -2.5t18.5 -3.5q-1 -1 -1 -3q0 -1 3 -1h4q2 0 2 -2t-0.5 -3t-0.5 -3q0 -3 3 -4q-2 -1 -6 -1zM225 295q11 1 20 1h17
q17 0 32.5 -0.5t37.5 -0.5q-6 63 -13 118.5t-8 106.5q-9 -29 -18.5 -53.5t-19.5 -50t-21.5 -54.5t-26.5 -67z" />
    <glyph glyph-name="B" unicode="B" horiz-adv-x="435" 
d="M295 389q30 -8 55.5 -22.5t45 -35t30.5 -46.5t11 -57q0 -3 -1 -6.5t-1 -6.5q-1 30 -9 53t-23 42q14 -21 21 -41.5t7 -42.5q0 -13 -3.5 -25.5t-7.5 -24.5q2 1 4.5 5.5t4.5 9.5t3.5 9.5l1.5 4.5v-3q-11 -51 -34.5 -80.5t-49.5 -45t-50.5 -19.5t-37.5 -4h-9q-2 0 -3 1
q-6 0 -16 -3q-2 2 -6 2h-7q5 1 12 4.5t5 3.5t-10 -2q0 3 -3 3q-2 0 -5 -1.5t-3 -0.5q0 2 3 2q-1 0 -1 1v2q-3 1 -2.5 2.5t-1.5 1.5q-1 0 -2 -1t-3 -2t-5 -1q-5 0 -7 2q-2 1 -2 3q0 1 1 1t3 1q-3 2 -4.5 2.5t-5.5 0.5q-2 0 -2.5 2.5t-2.5 2.5l-9 -4q0 3 3 3q5 2 5 4
q-10 0 -14 -2q0 1 3 3q2 1 4 1q-2 2 -7.5 2t-6.5 2q-2 -5 -2 -8.5v-8.5v-17q0 -17 2 -33.5t10 -27.5q-2 1 -6.5 7t-4.5 5q-5 5 -7.5 19.5t-2.5 20.5l-1.5 -6t-0.5 -5q0 -12 6 -26t11 -19q-5 0 -11 3q-4 2 -7 4q0 -5 -4 -6t-10 -1q-2 0 -2 -2q-5 0 -12.5 2t-8.5 2q-2 0 -3 1
t-2 1v-2q0 -1 1 -1q-2 0 -3 1q-1 0 -3 1q0 -1 4 -5q2 -2 4 -3q-2 0 -10.5 3t-13.5 4q0 -2 -1 -4t-3 -2q-3 0 -13 10q-8 0 -10 -4q0 -3 2 -5t4 -5q-3 2 -5.5 3t-5.5 1q2 -2 3 -5t2 -5q-5 2 -11 10.5t-11 8.5q1 -3 6 -8l8 -8q1 -1 -1.5 -1h-3.5q-2 0 -3 1l-3 3l2.5 -2.5
t1.5 -3.5q-3 3 -8.5 5t-6.5 2q0 -4 6 -11q-12 0 -18.5 9t-9.5 23t-3.5 31.5t-0.5 34.5v8q0 66 8.5 137t21 143.5t28 147t29.5 148.5q0 7 3 16.5t10 12.5q0 -1 1.5 2.5t10 8.5t26 9.5t49.5 4.5q59 0 59 -31q38 0 65.5 -13.5t45 -33t25.5 -43t8 -42.5v-4q0 -21 -8 -42.5
t-21 -42t-30.5 -38t-38.5 -29.5zM341 237q0 19 -11 35.5t-29.5 29.5t-42.5 20.5t-50 7.5q-4 0 -7.5 -0.5t-7.5 -0.5q-8 -53 -16 -103t-13 -106q33 0 64 7.5t55 21.5t39.5 34.5t18.5 46.5v7zM243 617q-6 -48 -16 -93t-15 -94q22 4 43 15t37 26.5t25.5 35t9.5 40.5
q0 31 -21 51t-50 20q-8 0 -13 -1z" />
    <glyph glyph-name="C" unicode="C" horiz-adv-x="383" 
d="M279 664q14 6 27.5 8.5t26.5 2.5q20 0 38 -5.5t31.5 -13t21 -17t7.5 -16.5q-1 -8 -8 -12t-15 -4q-9 0 -16 3q-1 0 -2 0.5t-2 0.5q-14 0 -37.5 -21t-49 -51t-48 -62.5t-34.5 -55.5q-22 -42 -35.5 -95.5t-13.5 -105.5q0 -32 5 -61t17 -51t33 -35t53 -13q27 0 51 5t48 16v-4
q5 0 7 -1l-5 -6q4 0 4 -3q0 -1 5 -1q2 0 4 -1l-4 -4q4 0 4 -3q-15 -13 -34.5 -22t-41 -15t-44.5 -8.5t-44 -2.5q-108 0 -159.5 59t-51.5 163q0 67 23 135t60 127.5t84 104t95 65.5z" />
    <glyph glyph-name="D" unicode="D" horiz-adv-x="425" 
d="M351 622q19 -20 33 -48t23 -59.5t13 -65t4 -65.5q0 -40 -6 -76q0 -2 -0.5 -5t-0.5 -5q-1 -2 -2.5 -4.5t-1.5 -6.5v-5q0 -6 -5 -15q-2 -5 -3 -10.5t-3 -10.5l-4 -8t-3 -9q-34 -74 -93 -130q-21 -21 -48 -33t-57 -18q0 -10 -1 -22.5t-1 -20.5v-5q-2 2 -1.5 5.5t-0.5 5.5
l-1 -8q-3 4 -2.5 8.5t-3.5 9.5v-11.5t1 -8.5q-2 0 -2 1.5t-2 1.5l-2 4q-3 -2 -3 -3q0 -2 1.5 -3.5l2.5 -2.5h-7.5h-11.5t-12 0.5t-7 0.5q0 2 -2 2q-3 0 -3 -2q0 3 -2 3q-5 0 -10.5 1.5t-11.5 1.5q1 -1 1.5 -4t1.5 -5q-2 2 -3.5 4t-3.5 2v-5q-2 0 -2 2.5t-1 3.5v-3
q-3 0 -3.5 2t-2.5 8q-1 -1 -1 -2v-2l-4 -2v-1q0 -1 0.5 -1t0.5 -1q0 -2 -2 -2v4.5t-2 3.5v-11q-3 5 -5 5q-1 0 -3 -2q0 8 -1 8q-2 0 -2 -11q-2 5 -2.5 9t-4.5 6q0 -2 1 -4t1 -4q-4 0 -5 3v-4q2 -2 2 -4q-1 0 -1 1q-1 1 -1 2l-6 -2q-2 0 -3 2.5t-3 4.5q0 2 -0.5 3t-0.5 3
q0 3 1 4q-2 2 -5.5 8t-3.5 9v3q0 7 -2.5 13.5t-3.5 14.5v3.5t1 4.5v-4q0 -3 1 -3q1 -1 1 0v1q0 2 1 3q0 4 1 7t1 7q0 3 -2 7l-4 -11v4q0 5 1 10t1 10q1 49 8.5 111t17 127t18.5 128.5t15 117.5q0 5 1 12t2 13q1 7 2 15q-10 0 -20.5 1t-21.5 2q-5 2 -14.5 3.5t-9.5 8.5
q3 14 15 18t23 9q40 19 94 19q48 0 96.5 -16t76.5 -51zM334 326q9 37 9 79q0 28 -4 56.5t-12.5 53.5t-20.5 45.5t-28 32.5l-3 -3q0 -19 -4 -42t-8 -43q-11 -62 -19 -124.5t-22 -125.5q-6 -27 -10 -54.5t-8 -57.5q7 5 12 9t11 9q36 29 66 73t41 92zM71 108q1 5 3.5 16t2.5 19
q0 4 -2 8q0 -2 -1 -3.5t-2 -3.5q1 -2 1 -4v-4q0 -4 -3 -7q0 -2 -0.5 -3t-1.5 -4q-1 1 -1 3v3q-1 -5 -5 -15q3 0 3 -5q0 -1 -0.5 -2.5t-0.5 -3.5v-10q1 0 2 3t2 7t1 8v4q0 2 0.5 -1t1.5 -5zM81 135q1 3 4 14.5t3 19.5q0 5 -2 5q-1 -2 -2.5 -4.5t-1.5 -4.5t1 -3l-3 -3h1
q1 0 1 0.5t1 0.5q-2 -3 -2 -6t-1 -5t-1 -6q0 -16 -1 -25t-1 -17v-6q0 1 1 3q2 4 2 5v1q1 1 1 2v29zM65 154q2 2 2.5 4.5t1.5 5.5l-3 -25q1 3 1.5 6t2.5 6t2.5 5t2.5 4q-1 1 -1 5t3 4q-1 -2 -1 -5.5v-5.5q0 1 1 2q1 5 2 12.5t1 14.5v8q-2 0 -2 -4q0 -3 1 -4q0 -1 -0.5 -1.5
t-0.5 -4.5q0 1 -0.5 2.5t-0.5 3.5q-1 -2 -2 -8t-2 -6q0 3 0.5 6.5t0.5 7.5zM99 112q2 5 3.5 13.5t1.5 14.5q0 2 -0.5 2.5t-0.5 1.5v2v-16q-2 -1 -2.5 -3t-1.5 -2t-1 1v2q2 2 2 6q0 1 -1 4t-1 9q-2 -6 -2 -9t-0.5 -8t-1.5 -6l-2 4q0 -2 0.5 -2.5t0.5 -1.5q0 -2 -2 -4
q2 0 2 -2q0 -4 -3 -5v-3q0 2 -2 2l-1 -5q0 2 1 2h1v-1q0 -1 2 -1q0 2 2.5 2t2.5 1zM64 70v7.5t-1 6.5q0 -2 -1 -5t-1 -5q0 -4 3 -4zM85 215q-1 0 -1 3v4q-2 -2 -3 -6t-1 -3q0 -1 1 -1h2v2l1 1v-2q0 -1 1 -1v3zM86 250q-4 -8 -4 -15q4 2 3.5 6.5t0.5 8.5zM69 179q-4 0 -4 -2
q0 -1 0.5 -2.5t0.5 -3.5q1 2 2 3.5t1 4.5zM78 215q0 2 1 4t1 6q-3 -2 -3 -6q0 -3 1 -4zM91 65q1 1 1 6q-2 0 -2 -2q0 -1 0.5 -2t0.5 -2z" />
    <glyph glyph-name="E" unicode="E" horiz-adv-x="385" 
d="M469 623q-5 0 -11.5 1t-7.5 1q0 -3 -5 -3h-9q-3 0 -3 -1q10 -4 15 -4l-2 -2l-1 -1q-1 0 -2 1t-2 1q-2 0 -2 -2h-5q1 -1 2 -1l1 -1q-1 -1 -4 -1t-7 1t-7 1q2 -2 6 -3t4 -2q-7 0 -16 0.5t-10 0.5q2 -2 5 -2q-3 0 -23 -1.5t-45.5 -3t-50 -3t-36.5 -1.5l-41 -266q14 1 32.5 2
t41.5 1q32 0 68 -5.5t64 -24.5q-14 -4 -16 -5t-6 -2q0 -4 -6 -5t-11 -1l1 -1l-6 -2q-8 0 -18 2q1 -1 1.5 -1t1.5 -1l1 -1h-5.5t-17.5 -1q-28 -2 -58 -4.5t-75 -4.5q-5 -44 -10.5 -83t-5.5 -82v-15v-11t1 -11q8 -1 16 -1.5t17 -0.5h13l54 4q8 0 16.5 -1t18.5 -3q6 1 12 1h11
h13q11 0 19.5 -2t15.5 -9q-1 -1 -5 -1q-2 0 -4.5 0.5t-4.5 0.5q-2 -2 -4.5 -1.5t-4.5 -1.5h9q-2 -3 -4 -3q3 -1 8 -1q2 0 3 -1q0 -2 -10 -2h-7.5t-2.5 -1h-4q1 -1 3 -1t4 -1h-5q0 -2 -4 -2t-8.5 -0.5t-8 -2t-3.5 -4.5q-21 -1 -26.5 -2.5t-6.5 -3.5t-2.5 -4.5t-12.5 -4.5
q0 -1 -17.5 -4t-40.5 -6l-46 -6t-34 -3h-9q-18 0 -34 3t-29 12q-3 -3 -4 -7.5t-3 -6.5q-27 2 -36.5 25.5t-10.5 57.5v6q0 35 5 71t6 56q14 96 27 191t27 198q-6 3 -11 8.5t-6 13.5q0 8 7 13.5t18 8.5t24.5 4.5t26.5 2.5h16q26 0 53.5 -1t47.5 -1q30 0 60 -2t57 -6.5
t48 -12.5t33 -19zM456 617q-4 0 -5 3q2 0 5 -3z" />
    <glyph glyph-name="F" unicode="F" horiz-adv-x="328" 
d="M436 637q0 1 -1 1q-3 0 -5 1q-1 0 -2 -1t-3 -1q-1 0 -1.5 1t-2.5 1q-3 0 -5.5 -2.5t-4.5 -3.5q2 -1 5 -1.5t5 -1.5l6 -2q-2 0 -3.5 0.5t-2.5 0.5h-6.5t-6.5 1q2 -2 5.5 -2.5t6.5 -2.5q-8 0 -12 2q0 -2 -3 -2q-2 0 -6 2t-8 3q0 -2 6.5 -4t11.5 -4q1 0 3 -2q1 -1 1 -2
q-4 0 -6 1t-7 3q0 -1 1 -2.5t0 -0.5q-1 0 -1.5 0.5t-1.5 0.5q-5 0 -10 1t-11 2q0 -1 -2 -1.5t-2 -2.5q-1 1 -6 1h-32q-17 0 -37.5 -0.5t-34.5 -2.5q-7 -18 -14 -45.5t-13 -58t-11 -59.5t-7 -48h79q24 0 49.5 -1t56.5 -3q-1 -1 -3 -1h-4q-1 0 -2 -1t-3 -1q-1 -1 -2 -1t-1 -2
h4q3 0 5 2q2 -1 6 -1q-2 -2 -4.5 -2t-4.5 -1q1 0 2.5 -0.5t2.5 -0.5q-4 -1 -10 -1.5t-8 -0.5q-2 -1 -6.5 -1h-6.5q0 -2 2 -2h-8q1 -1 11 -0.5t13 -1.5q-2 -1 -6 -1q-5 0 -5 -2q0 -1 1 -1h5q-2 0 -8.5 -0.5t-13.5 -1t-12.5 -2.5t-6.5 -6q1 0 1.5 1t1.5 1q5 1 10 1q2 0 4 -0.5
t3 -0.5q-7 -2 -11.5 -4.5t-9.5 -4.5h5q3 0 4 1q1 0 2 1q3 1 10 1q1 -1 2 -1l-13 -4q5 0 9.5 1.5t7.5 1.5q-7 -2 -13 -4t-13 -3q-32 -3 -65.5 -3.5t-66.5 -2.5q-8 -63 -17.5 -124t-11.5 -125q-1 -8 -1.5 -17.5t-0.5 -18.5t1 -17.5t4 -14.5q-1 0 -4.5 1.5t-3.5 0.5l2 -6
q-2 2 -3.5 5t-6.5 3v-5q-1 0 -2.5 1.5t-2.5 1.5q-5 0 -7 -4l-1 1q-1 0 -2 1q-5 0 -9.5 -1t-8.5 -1q-3 0 -7 -3t-7 -3q-2 0 -3 1q-2 -2 -2 -4t-5 -3q-4 0 -4 -4q-5 0 -5 4q-1 0 -5.5 -3t-4.5 -5q-8 0 -11.5 -4t-10.5 -4q-10 0 -16.5 11.5t-10 27.5t-4.5 32.5t-1 27.5v7
q1 58 6.5 123t15.5 131t23 131t29 124q0 1 -1.5 1t-1.5 1h4l-8 1.5t-17.5 4t-17.5 6.5t-8 10q1 5 4 6t9.5 1.5t17 1.5t25.5 7q76 14 153 14h14q31 -1 60.5 -5t58.5 -11q2 0 5.5 -1t5.5 -1q0 -1 -3.5 -1t-3.5 -1q9 0 18 -4.5t18 -9.5q-2 1 -5 1q-2 0 -3 -1z" />
    <glyph glyph-name="G" unicode="G" horiz-adv-x="402" 
d="M530 371q5 -2 4.5 -4.5t1.5 -5.5q-1 0 -1 -0.5t-2 -0.5q-2 -5 -2.5 -10.5t-6.5 -8.5q0 1 1 2t1 3q-3 0 -7.5 -2t-4.5 -1t1.5 2t1.5 3q0 1 -5 1q0 4 3.5 3t4.5 2h-9q-8 0 -8 -1q0 -2 4 -3h-3q-2 0 -6 -0.5t-4 -1.5q0 -3 -3.5 -5t-6.5 -4q2 -1 7 -1q4 0 9 -3q5 0 8.5 0.5
t5.5 0.5q0 -2 -3.5 -4.5t-2.5 -2.5q2 0 3.5 0.5t9.5 2.5q1 -1 -1 -1.5t-2 -1.5h4q0 -1 -3.5 -2.5t-3.5 -2.5q-6 -4 -15 -5t-17 -1q-10 -5 -24 -5.5t-25 -1.5q-16 -2 -26 -2.5t-23 -8.5q-7 -26 -15 -48.5t-12 -51.5q2 10 6 23t8 26.5t8 25.5l6 18v-12q-8 -24 -13 -49
t-11 -49.5t-14.5 -48.5t-23.5 -46q-7 -15 -18.5 -25t-25 -17.5t-27.5 -15t-26 -18.5q-25 -13 -55 -13q-22 0 -44 7t-40.5 19.5t-32 29.5t-19.5 37q-2 5 -3.5 10t-2.5 10q-2 10 -2 14q-7 35 -7 76q0 46 8 92.5t20 92.5q12 45 31.5 89.5t47 83.5t64 69t84.5 47q8 2 13 2
q8 0 16 -2t13 -4q2 2 9 2q11 0 28.5 -7.5t34 -19t28 -25t11.5 -24.5q0 -5 -1 -7q-2 -5 -10 -8t-17 -3q-8 0 -14 3q-26 -11 -47.5 -25.5t-43.5 -34.5q-14 -14 -27.5 -33.5t-25 -41t-20.5 -43.5t-14 -42q7 4 13.5 5t13.5 1q15 0 29 -3q8 0 26 2.5t41.5 6t51 6t55.5 2.5
q24 0 47.5 -2.5t43.5 -9.5zM274 277q-2 0 -6.5 4t-2.5 4q0 2 -1 3.5t-2 3.5q-2 0 -4.5 -1t-4.5 -1t-6 3q-4 0 -4 2t-1 4q-2 0 -8 2q-1 2 -2.5 3t-1.5 2t0.5 1t0.5 2q-4 0 -4 3q0 2 -5 3.5t-7 2.5q0 2 2 3t1 1q0 2 -4 2.5t-3 1.5q-3 1 -5.5 5.5t-3.5 6.5q-24 -69 -24 -148
q0 -11 0.5 -21.5t1.5 -21.5q2 -15 5 -30.5t11 -28.5q13 10 25 34.5t22.5 53t18.5 56.5t12 45zM513 356q2 0 3.5 1t2.5 1l-5 3q0 -2 -0.5 -2.5t-0.5 -1.5v-1zM520 354q0 -3 2 -3t2 3h-4zM487 347q4 1 4 2q-4 0 -4 -2z" />
    <glyph glyph-name="H" unicode="H" horiz-adv-x="482" 
d="M353 336q-11 1 -21 1h-18q-14 0 -24.5 -0.5t-20.5 -1.5t-20.5 -1.5t-25.5 -1.5q-3 1 -6 -31t-6 -77.5t-5 -96t-2 -87.5q0 -24 1 -38.5t3 -16.5q-2 1 -4.5 5t-4.5 5q-6 -2 -7 -2q-2 0 -4.5 0.5t-4.5 0.5h-4q-3 1 -9 1q-4 0 -9.5 -0.5t-6.5 -0.5q-2 0 -5 -0.5t-5 -0.5
q-3 0 -5 2q-1 -2 -1 -5v-4l-1 1q-1 0 -1.5 0.5t-1.5 0.5q-3 0 -14.5 2.5t-15.5 5.5q0 1 -7 6q0 -1 1 -2.5t1 -3.5q0 -1 -1 -1h-3q-16 0 -24.5 7.5t-13.5 17.5t-9 21t-10 17q-2 10 -2 21.5v24.5q0 27 2.5 59t6 63t7 58.5t5.5 46.5h-11q-5 0 -12 -0.5t-16 -0.5
q-4 -1 -12.5 11.5t-8.5 21.5q0 5 5 7q4 0 6.5 3t7.5 3q-4 1 -4 3t5.5 3t13 2t14 1.5t9.5 0.5q0 1 -1 1q-2 0 -2 1q-2 1 -3 1q2 2 6.5 2.5t9.5 0.5q13 69 25 143t36 146q4 0 7 3t5.5 6l5 6t6.5 3q7 5 13 5q3 0 6 -1t8 -1q2 1 4.5 3t4.5 2q3 1 4 2.5t5 4.5q3 2 12.5 3t11.5 1
q8 0 10 -5.5t4 -11.5q2 -1 4.5 -6l3.5 -7q1 -1 1 -6q0 -6 2 -7q12 -12 12 -51q0 -25 -3.5 -57t-8 -64.5t-9 -62.5t-5.5 -52q32 -2 63 -3.5t66 -3.5q13 73 22 146t26 145q1 2 1 6q4 0 4 -3q2 1 1.5 3t4.5 2q2 0 3.5 1.5t3.5 1.5t4 3q1 1 1 3q3 -6 7 -6q2 0 1 4.5t4 4.5
q1 1 1 2t1 2h6q8 0 11 2q1 0 2 -1.5t2 -1.5t1 4q2 -2 3 -2t3 0.5t4 0.5q8 -11 11 -34t3 -50q0 -35 -3.5 -69t-7.5 -54q-4 -19 -6.5 -33.5t-4.5 -27.5t-4.5 -26.5t-5.5 -30.5q26 -2 41.5 -6.5t22.5 -9.5q-4 0 -6 -3.5t-3 -7.5t-2 -7t-4 -3q0 -4 -1 -4t-3 0.5t-4 0.5
q-3 0 -5 -1q-4 4 -9 4q-2 0 0.5 -2t1.5 -2h-5q1 -1 -0.5 0t-6.5 1v-1q0 -1 2 -3h-24q-3 -5 -5.5 -24t-5 -45.5t-3.5 -57t-1 -59.5q0 -38 2 -66t8 -33q-2 1 -4.5 3t-6.5 2l-1 -3q-5 2 -8.5 2.5t-4.5 5.5q-3 0 -3 -4q-2 3 -3 5.5t-4 3.5q-1 -1 -1 -2q-1 -1 -1 -2v-1q-4 2 -5 2
q-2 0 -4 -0.5t-4 -0.5q2 -4 2 -6v-4q-1 0 -4 4t-5 4t-2 -4q0 -2 0.5 -3.5t0.5 -3.5l-4.5 4.5t-3.5 1.5q0 -2 3 -6q-5 2 -6 4.5t-3 6.5q0 -4 -0.5 -10t-2.5 -4q-22 23 -26.5 49t-5.5 52q0 7 -0.5 13.5t-0.5 13.5q0 35 3.5 68t7.5 69q0 3 0.5 6.5t0.5 6.5zM39 56q-1 0 -1 2v1
v-1q0 -1 0.5 -1t0.5 -1zM448 44h-1h1z" />
    <glyph glyph-name="I" unicode="I" horiz-adv-x="255" 
d="M265 662q-3 -57 -11.5 -126.5t-18.5 -141.5t-19.5 -141.5t-15.5 -125.5q-2 -14 -2.5 -28.5t-1.5 -31.5l3 -55q0 -5 3 -11q-4 3 -9 3q-3 0 -10 5q-1 1 -5 1q-3 0 -6 -0.5t-4 -0.5q-3 0 -5.5 -2t-3.5 -2l-4 4q0 -1 -5 -2t-7 -3v-5q-4 4 -3.5 6.5t-4.5 2.5q-1 0 -3 -2.5
t-2 -3.5q-5 0 -5 2.5t-3 2.5q-2 0 -4 -1q2 -2 2 -3q0 -4 -3 -7q-5 11 -13 12t-14 6h-1q-1 0 -1 0.5t-1 0.5q0 -1 1 -2q0 -1 1 -1q2 -4 2 -7q0 -2 -4.5 4.5t-6.5 8.5q-3 0 -5 -4q-1 -2 -2 -3l-4 3l-4 -4t-10 -2q-14 2 -20.5 13t-7.5 25q0 72 8 144t19 144.5t22 144.5t19 143
q1 4 6 7t5 4q0 4 3.5 6t6.5 3q3 5 3 6.5t5 5.5q1 1 3.5 -2t1.5 -2q3 1 4.5 8t3.5 9q5 0 5.5 -0.5t1.5 -0.5q2 0 4 1q7 0 11.5 6t9.5 8q4 0 4 1q1 0 1.5 0.5t1.5 0.5q2 0 4 -1.5t4 -1.5q4 0 12 5h14q7 0 17.5 -2t15.5 -9l2.5 5t5.5 1q1 0 1 -2t2 -2t4.5 -0.5t4.5 -0.5
q0 -1 1 -5.5t1 -7.5z" />
    <glyph glyph-name="J" unicode="J" horiz-adv-x="281" 
d="M167 37q-14 -7 -28 -12t-31 -5q-3 0 -14.5 -1t-21.5 -1q-2 0 -8 0.5t-6 4.5h-11q-11 0 -20 1t-19 6q-8 2 -13.5 7.5t-12.5 8.5q-2 2 -4 5.5t-5 5.5q-3 4 -5.5 11.5t-2.5 8.5q2 8 9 11.5t16 3.5t19 -2.5t17 -4.5q3 -1 5 -2.5t5 -1.5t8 3t7 5q20 13 27 35q10 25 18 59
t12.5 69.5t7 69t2.5 58.5q5 65 8 130t8 128q-5 -2 -11 -2h-13h-13t-10 2q-1 0 -4.5 1.5t-5.5 4.5q-2 1 -5.5 4t-5.5 5q-7 7 -7 19q0 2 0.5 3.5t0.5 3.5q2 2 3.5 3t5.5 1q3 0 5 -0.5t4 -0.5q50 0 89 2.5t77 2.5q5 0 9.5 0.5t9.5 0.5q38 0 74 -9q9 -2 17.5 -4t15.5 -5
q-1 -2 -1.5 -4.5t-3.5 -2.5q-4 -7 -13 -11h-4q-2 -1 -2 -4q0 -4 -5 -4h-4q-2 -4 -7 -4.5t-11 -0.5q-8 0 -10 -1q-1 -2 -7 -4q-5 -2 -11 -2.5t-9 -3.5q-6 -64 -8 -127t-5 -125.5t-9.5 -123.5t-22.5 -120q-9 -32 -25 -54.5t-45 -40.5z" />
    <glyph glyph-name="K" unicode="K" horiz-adv-x="471" 
d="M150 720q4 0 4 2q4 0 7.5 2t8.5 2q4 0 6 -1q2 0 4.5 1t5.5 1h1q1 0 1.5 -0.5t1.5 -0.5t1.5 0.5t1.5 0.5q4 0 7 2.5t6 3.5q5 4 10 5t10 1t9 -0.5t9 -0.5q4 0 7 2t7 2q1 0 3 -2q1 -1 2 -1q3 -2 7.5 -2h9.5q2 0 2.5 1.5t2.5 1.5q1 -1 5 -2t5 -1q1 -5 2 -9q2 -8 3 -8
q0 -2 5 -2h5q-9 -39 -18 -79.5t-17.5 -80t-15 -75.5t-10.5 -64q0 -3 2 -3t2.5 1.5t1.5 2.5q48 54 90 97q18 18 36.5 36t35 31.5t30 22t22.5 8.5h1q1 1 2 1h6q2 0 4 2q2 -2 5 -2q2 0 2 -2l3 1q1 -1 3 -1h5q4 0 5.5 -0.5t3.5 -0.5t2 -0.5t2 -0.5t5.5 -1t3.5 -3q1 0 2.5 -0.5
t0.5 -1.5q1 0 1 0.5t2 0.5q0 -5 1 -5l4 4q1 1 1.5 -0.5t1.5 -1.5q-27 -28 -59.5 -61t-66.5 -69t-68 -73.5t-63 -73.5q17 -45 44 -78t59 -60.5t65.5 -53t63.5 -55.5q-8 3 -17 5.5t-14 3.5q-6 3 -13.5 6t-10.5 3v-2q0 -2 1 -2q-7 0 -7 -3t1 -3q-8 1 -15.5 4.5t-15.5 3.5
q-5 1 -10 2.5t-10 1.5q-5 1 -14 3.5t-18 6.5t-17 8.5t-11 9.5q0 -2 1 -4t1 -3q-15 6 -34 19.5t-37.5 30t-34 33.5t-21.5 30l-2 -11q-7 -38 -10.5 -66.5t-3.5 -55.5q0 -39 10 -86q2 -5 7 -12.5t5 -14.5q0 -4 -1 -5q-1 0 -3 3.5t-5 3.5q0 -3 1 -5l2 -4q-2 0 -4.5 3t-4.5 5
q0 -4 2 -9q-3 2 -6 7t-5 5t-2 -5q3 -3 3 -10q-3 2 -6 4.5t-4 2.5q-2 0 -4 3t-4 5q0 -1 1.5 -4t1.5 -7q-4 0 -6 7q0 -4 2 -6t2 -6q-3 4 -8.5 8t-5.5 2q0 3 -5 3q-2 -4 -2 -5q0 -2 1 -4t1 -4q-2 2 -6.5 5.5t-4.5 2.5q0 -2 -1 -3q-4 0 -4 -3q-4 -1 -12 -1q-15 0 -31.5 5
t-27.5 13q-18 4 -25 19q-11 20 -15.5 46t-4.5 55q0 52 8.5 105t12.5 91q10 54 22 112t25 112.5t26.5 102t25.5 82.5z" />
    <glyph glyph-name="L" unicode="L" horiz-adv-x="351" 
d="M343 33q0 -2 -1.5 -2.5t-2.5 -2.5q-1 0 -1 0.5t-2 0.5l-1 -2v-1h-1q-6 0 -10 -2q-15 -8 -33 -14t-37 -10t-38 -5.5t-35 -1.5q-19 0 -35 1.5t-21 1.5q-12 2 -26 8.5t-26.5 16t-21.5 21.5t-11 24q-6 18 -6 34t-1 32q0 2 1 3.5t1 3.5q0 5 -0.5 11t-0.5 12q0 33 4.5 79t12 97
t17.5 102.5t20.5 96.5t21 80t19.5 52q3 6 8 10.5t8 9.5q4 3 16.5 5.5t17.5 2.5q2 0 3 1q5 0 8 1.5t7 2.5q2 0 4.5 1.5t6.5 1.5h25q3 -1 7 -3t8 -2q3 0 5 2q2 -1 8 -1q2 0 5 -1.5t7 -1.5h4q2 -1 3.5 -2t5.5 -1q0 -2 4 -3q11 -2 15 -9.5t4 -17.5q0 -12 -3 -24l-5 -20
q-11 -54 -26 -105t-26 -102q-9 -33 -19.5 -76t-19.5 -88t-15.5 -87.5t-6.5 -74.5v-9q1 -17 14 -21t27 -4q33 1 61 3.5t56 4.5q8 1 18 1.5t21 0.5h12t12 -2q-2 0 -3.5 -0.5t-4.5 -0.5q1 -1 2 -1l1 -1q0 -1 -2.5 -1t-2.5 -2q-5 0 -7 -1t-6 -1l2 -3q-1 0 -3 -0.5t-1 -0.5
q-3 0 -5 -1t-7 -2q-2 0 -2 -2q0 -1 -3.5 -2t-2.5 -2q-4 -1 -9.5 -2.5t-5.5 -4.5z" />
    <glyph glyph-name="M" unicode="M" horiz-adv-x="827" 
d="M770 109q0 3 -0.5 6.5t-0.5 7.5q0 2 0.5 5.5t4.5 3.5q1 18 4 35t3 34q-2 -4 -1.5 -7t-1.5 -4v21q-2 -12 -4 -21.5t-4 -20.5q0 6 0.5 16t0.5 11q-1 0 -0.5 4t-1.5 6q0 -5 -1 -12t-1.5 -13.5t-1 -10.5t-0.5 -3q0 -3 -0.5 -6.5t-0.5 -4.5q-1 1 -1 4t0.5 7t0.5 6q0 4 -1 6
q-2 -4 -1.5 -6.5t-1.5 -7.5q-1 1 -1 5l2 24q-4 0 -4 -3q0 3 1.5 4.5t1.5 0.5q2 0 2.5 9t0.5 13l-2 -2q-1 -1 -1 -2q0 2 -0.5 -0.5t-0.5 -1.5q0 5 0.5 11.5t1.5 11.5q-1 -2 -2 -7.5t-2 -5.5q0 3 1 7q0 3 0.5 6.5t0.5 6.5q-1 -2 -1 -5q-3 -13 -5 -24t-3 -20v-1q0 -1 0.5 -2.5
t0.5 -3.5t-1.5 -4.5t-2.5 -1.5q-2 0 -3 -5t-1 -4q0 -2 1 -5.5t1 -2.5q0 -7 -1 -7q0 1 -1 1t-1 2q-1 -5 -3 -9t-2 -9h1q2 0 2 -2q1 0 3 4l-2 -10t-3 -8q-1 -3 -1 -5v-1q1 0 4 7.5t3 6.5t-3 -13q3 -3 3 -8v-24q0 -2 2 -4.5t3 -5.5q2 3 7 4t6 6q0 2 1 6t5 4v4q0 2 3 2
q0 3 0.5 7t0.5 8q0 7 -1 9v-12q0 -6 -1 -7zM63 193q1 -1 1 -4q0 -2 -0.5 -4t-0.5 -5q0 -7 1 -7q1 3 2.5 10t3.5 15t3.5 14.5t1.5 8.5q0 3 0.5 11t1.5 17t1.5 16.5t0.5 9.5l-2 -2q-2 -2 -2 -1v3q0 1 1 1q0 4 2 5q-2 2 -2 3t0.5 1t0.5 2t-2 2v-8l-2 4q0 -2 -0.5 -3t-0.5 -2
q0 -12 -1 -22.5t-1 -8.5l-1 13q0 2 -0.5 3t-0.5 2v-19.5t-2 -14.5v17q-1 5 -1 12.5v16.5q0 5 -0.5 15t-1 19.5t-1.5 17t-2 7.5v-6t-1 -7v-40q0 -3 -1 -3t-1 1v3q0 4 -0.5 8.5t-0.5 24.5l-3 -21q-1 2 -1 7t0.5 9.5t0.5 9.5q-3 7 -4 7q-2 0 -2 -11q0 -2 1 -3.5t2 -3.5
q0 -1 -1 -2.5t-1 -2.5v-2q0 -3 1 -4q0 -3 1 -7q-1 -1 -1 -5v-36v-10t1 -21q0 -5 0.5 -7t0.5 -7t8 -7q0 -3 -0.5 -4t-0.5 -2q0 -2 2 -4q1 1 3 1zM693 285q0 38 9.5 75.5t9.5 74.5q0 3 2 5q1 1 3 2q0 -8 -2 -21.5t-4 -24.5q-2 -10 -3.5 -20t-4.5 -22q1 -1 2 -1h1q0 -4 -1 -5
t-2 -6q0 -7 1 -11q-2 -4 -3 -11.5t-1.5 -15t-1 -13t-1.5 -5.5q0 1 -0.5 1t-0.5 2q-1 0 -1 -2t-2 -2zM81 255q4 5 5 13.5t1 16.5q-2 0 -2 13v28q0 2 0.5 4.5t0.5 4.5q0 3 -2 4q-1 -20 -2 -37q-1 -14 -1 -28v-19zM682 189q0 -4 2.5 -7.5t2.5 -5.5q1 0 3 10.5t4 14.5
q-2 0 -2 -2l-1 -1l3 23q-2 -2 -4 -10.5t-2 -10.5q0 1 -0.5 2t-0.5 4q-1 -3 -1 -9l-2 2q-2 -3 -2 -10zM700 159q3 3 3 6q1 10 2 12.5t1 3.5t0.5 3t1.5 11q0 1 -0.5 2t-0.5 2q0 2 1 5t1 8q-1 -2 -2.5 -9t-3.5 -14.5t-3.5 -14t-1.5 -7.5t1.5 -2t1.5 -3q0 -1 -0.5 -1.5
t-0.5 -1.5zM697 148q-5 -14 -6.5 -24.5t-1.5 -16.5q0 -7 1 -7q3 0 4 20l4 21q0 2 -0.5 3.5t-0.5 3.5zM681 140q-1 -2 -1 -8.5v-14.5v-30l0.5 4.5t1 11l1 13t1.5 10.5q0 2 -0.5 4.5t-0.5 4.5v14t1 10q-3 -8 -3 -15v-4zM700 211q-4 -10 -4 -18q-1 -5 0 -12q2 0 5 12.5t3 19.5
q0 3 -1 4q0 -1 -1.5 -3t-1.5 -3zM648 577q7 0 14.5 9t13.5 15q-12 -6 -22 -16q-3 -1 -4 -4zM703 110q1 -1 4.5 8.5t3.5 29.5q-2 0 -4.5 -14.5t-3.5 -23.5zM763 147q3 -3 3 -4q0 -2 0.5 -5t0.5 -7q0 -3 -0.5 -6t-1.5 -7q-2 0 -2 11v18zM721 108q2 2 5.5 12t3.5 13q0 1 -1 2.5
t-1 0.5q0 -3 -2.5 -7t-2.5 -5v-5.5t-2 -10.5zM701 120q3 7 3 14q0 6 -1 8q1 2 2 5t1 5q-1 0 -2 -3t-1 -1q-1 0 -2 -9.5t-1 -13.5q0 -3 1 -5zM694 64q0 2 2 6q0 3 -2 3q1 4 1 7.5v6.5q0 8 -1 8q-2 0 -2 -23q0 -6 2 -8zM654 541q0 -5 -5.5 -13t-10.5 -8q4 6 8 10.5t8 10.5z
M628 516q0 -5 -4 -12.5t-9 -10.5q2 6 4 9t9 14zM711 98q1 2 2 8.5t1 11.5t-2 5q-1 0 -1 -2t-1 -2q1 -2 1 -7q0 -2 -0.5 -4.5t-0.5 -4.5q0 -3 1 -5zM724 441q0 -5 1 -8q0 3 3 10t3 9q-1 1 -4 1zM770 597q0 2 -4 5q1 -2 2.5 -7t2.5 -3q1 -2 3 -5t6 -13q-1 5 -3 11.5t-7 11.5z
M728 109q-2 0 -3 -8.5t-1 -10.5q0 1 2.5 2.5t2.5 12.5q0 4 -1 4zM713 372q0 -1 -1.5 -9t-3.5 -8v11q0 6 5 6zM705 161q4 0 4 7q0 2 -0.5 4.5t-0.5 3.5t0.5 1.5t0.5 1.5t-0.5 1.5t-0.5 1.5q-1 -5 -2 -12t-1 -9zM53 289q1 -2 1 -6v-7t-0.5 -8t-0.5 -6q-1 0 -1 6v12q0 2 0.5 6
t0.5 3zM643 559q5 6 9.5 10t8.5 8q-5 -1 -11.5 -8t-6.5 -10zM776 95q4 0 4 -2t-1 -4.5t-1 -4.5q-3 3 -3 6q0 2 0.5 2.5t0.5 2.5zM692 607q-2 0 -7 -2.5t-5 -4.5q0 -1 5 -1q1 5 4 5.5t3 2.5zM769 152q-2 0 -2 -1t-1 -2v5q0 7 3 10v-12zM724 395q-2 -2 -3 -7t-1 -10q4 9 4 17z
M688 145q-1 -2 -2 -4.5t-1 -4.5t0.5 -4t0.5 -4q2 8 2 17zM708 239q-2 -5 -1.5 -8.5t-2.5 -9.5q4 5 5 12q0 2 -0.5 3t-0.5 3zM626 519q-1 -2 -4 -6.5t-5 -5.5q1 4 3.5 6.5zM680 593q0 3 -1 3q-2 -2 -6 -4.5t-4 -5.5q4 6 11 7zM687 106q-3 -5 -3 -9v-4q1 0 2 5t1 8zM87 290
q2 3 2 7.5v9.5q-2 -8 -2 -17zM53 336v6.5t-1 5.5q0 -2 -1.5 -4t-1.5 -4q0 -3 4 -4zM57 227l1.5 -4.5t0.5 -4.5l-1 -4q-1 1 -1 13zM729 459q0 4 1 7q0 2 1 5q-1 -1 -2.5 -4.5t-1.5 -5.5t2 -2zM758 609q-2 -2 -2.5 -4t-1.5 -2q2 0 2 -1t2 -1l2 2q1 1 1 3zM54 208q-2 0 -2 5
q0 1 1 2l1 1v-8zM790 554q0 4 -4 6q0 -5 4 -6zM742 622q0 -2 3 -2h4q0 1 -2.5 1.5t-4.5 0.5zM793 586q24 -60 24 -133q0 -40 -6 -82.5t-12.5 -85.5t-12.5 -86t-6 -84q-3 0 -3 6q-1 -1 -1 -2t-2 -1q0 -4 -1 -16t-3 -12q4 -8 3 -8q0 -1 -0.5 -1t-0.5 -1q-1 -1 -1 -2q0 -2 2 -4
q-3 0 -3 -3v-2q0 -1 1 -1q0 2 2 2q-3 -10 -3.5 -23t-1.5 -24q0 5 -4 13q-2 4 -3 7v-6q0 -2 1 -3q2 0 2 -3l-4 3q0 -6 -1 -7q0 1 -1.5 5.5t-5.5 4.5q2 2 2 4q0 3 -4 4q0 -2 1 -5.5t1 -8.5q-2 2 -3 4.5t-3 6.5q0 -1 -0.5 -1.5t-0.5 -1.5v-5l-1 1q-2 2 -2 5q-3 -2 -3 -4
t-0.5 -4t-0.5 -5l-4 10t-4 5q1 -1 1 -7q-2 0 -5 3q0 -4 2 -8q-2 4 -5 4q-3 3 -3.5 5.5t-1.5 2.5l-1.5 -3t-0.5 -8q-1 4 -3.5 5.5t-4.5 5.5q0 -4 2.5 -8t2.5 -9l-5 3q0 -2 0.5 -2.5t0.5 -2.5q-5 2 -7.5 8t-3.5 11q0 -3 0.5 -5.5t0.5 -4.5q-3 0 -3 -8q0 -10 1 -14q-2 5 -5 5
q-2 0 -3 -3q-11 11 -13.5 22.5t-2.5 24.5q0 17 1.5 31t2.5 37q-3 -3 -3 -6q0 -2 0.5 -3t0.5 -3h-2q-1 0 -1 1q0 13 2 36t5 46.5t7 43.5t8 27q-2 -9 -3.5 -18.5t-1.5 -20.5q0 -3 -0.5 -4.5t-0.5 -3.5q1 -1 1 -8q2 3 4 12.5t3 17.5q0 -1 -0.5 -1t-0.5 -1l-1 -1q0 8 2.5 15.5
t2.5 15.5q0 6 0.5 14t1.5 15q1 8 3 17q0 3 1 6t2 7q4 23 6 33.5t3 14.5t1 5t1 5q0 2 0.5 5.5t1.5 8.5q-3 -7 -3 -10.5t-5 -11.5q2 24 6.5 45t6.5 38q-1 0 -1 3v5v17q0 4 -0.5 7t-0.5 6v2q0 1 -0.5 1t-0.5 1q-2 -2 -2.5 -6t-1.5 -7q0 2 2 2v-1q0 -1 0.5 -1.5t0.5 -2.5
q0 -8 -2 -20t-5 -20v11q0 6 0.5 12t2.5 11q0 2 -0.5 2.5t-0.5 2.5q-3 21 -2 46t-9 44q-17 -9 -37.5 -36.5t-39.5 -61.5t-34.5 -67t-22.5 -53q-2 0 -4 1.5t-2 0.5q0 -2 1.5 -4.5t1.5 -5.5q-6 -21 -15 -55t-18 -70t-15.5 -66.5t-7.5 -43.5q-2 -2 -6 -4.5t-4 -4.5t-1.5 -2.5
t-1.5 -2.5q-1 0 -2 3q-3 -2 -4 -4t-3 -2q-2 8 -5 8q-1 -1 -3 -5t-4 -4q-1 -1 -2 -1l-2 -2q0 -3 1 -4q-5 -1 -7 -6q-5 0 -4.5 2.5t-1.5 6.5q-7 -6 -7 -7.5t-9 -1.5q-5 0 -7 5q-3 0 -11.5 -1t-19 -2.5t-20 -2.5t-13.5 -1q-5 0 -7 2q-1 0 -1 -1.5t-2 -1.5t-5.5 0.5t-5.5 2.5
q0 2 1.5 3t1.5 2q0 3 -2.5 4.5t-2.5 2.5q1 -1 2.5 2.5t3.5 3.5q0 3 -0.5 6.5t-0.5 4.5q0 10 2.5 40t6.5 71t8 88.5t8 92.5t6.5 83t2.5 60q0 31 -3.5 60t-14.5 55q-26 -35 -46.5 -74.5t-37.5 -77.5q-45 -100 -76 -209t-44 -239q0 -10 1 -16t1 -16q0 -12 -4.5 -16.5t-9.5 -6
t-9.5 -2.5t-5.5 -6q0 -1 0.5 -2t0.5 -2q-3 2 -4 3t-5 1q-4 -2 -8.5 -3t-5.5 -2q-2 0 -13.5 1t-14.5 1q-5 0 -5.5 -4.5t-5.5 -4.5q-2 0 -8 2q-2 -1 -2 -2.5t-2 -1.5t-3 1q-2 -2 -9 -6t-15 -4q-3 0 -5 7.5t-3 18.5t-1 24.5v24.5q0 170 -7.5 339t-7.5 347q0 2 1 5t5 6
q0 1 8.5 6t20.5 10.5t24.5 10t21.5 4.5q16 0 26.5 -9t15.5 -24t7 -34t2 -38q0 -24 -2.5 -63t-6 -79t-7.5 -74t-6 -49q5 11 8.5 21t7.5 21q17 44 37.5 92t49.5 88.5t70 66.5t98 26q12 0 25 -1.5t24 -10.5q-4 0 -9 1t-6 1q0 -3 8 -6q4 1 6 1q6 0 15 -4.5t9 -12.5q1 -5 3.5 -12
t6.5 -14.5t8 -13.5t8 -7q0 2 -1.5 3t-1.5 3q-5 6 -9 13q-9 14 -9 26q34 -45 47 -99t16 -113l9 13q16 23 35 49t41.5 48.5t49 37t57.5 14.5q12 0 22 -6.5t18 -16t13.5 -19.5t8.5 -16zM677 564q5 5 12.5 10t10.5 10h-7v2q0 1 1 1q0 1 -2 -1t-4 -2t-2 4q0 1 0.5 1.5t0.5 2.5
q-2 -2 -6 -5.5t-6 -3.5q-3 0 -5.5 -1t-2.5 -6q0 -4 -7 -8.5t-9 -7.5q-16 -15 -31.5 -37.5t-19.5 -43.5q3 2 4.5 4t2.5 2t1 -1q0 -2 1 -4q-4 0 -6 -6t-2 -10q0 -2 -4.5 -9t-9.5 -17t-10 -22t-6 -24q3 4 4 5l3 3q-2 -8 -4.5 -16t-2.5 -11q14 34 20 45.5t6 13.5q0 6 6.5 15
t6.5 17q7 11 15.5 25.5t17.5 28.5t19.5 26.5t21.5 20.5q-2 0 -4 -0.5t-3 -0.5z" />
    <glyph glyph-name="N" unicode="N" horiz-adv-x="534" 
d="M586 649q0 -4 -0.5 -13.5t-1.5 -19.5t-3 -18t-4 -8q-24 -110 -43.5 -243t-53.5 -286q-8 -35 -31.5 -50t-49.5 -15q-16 0 -31.5 5t-26.5 15q-15 22 -26 59.5t-19.5 83.5t-15 96t-11 97.5t-8 88t-6.5 67.5q-3 16 -4 37t-9 31q-29 -53 -47.5 -116t-31 -129.5t-20.5 -133.5
t-14 -128q-3 -13 -6 -28t-11 -20q-5 0 -8.5 6.5t-5.5 8.5q-4 5 -5 11t-3 8q-3 5 -6.5 10.5t-6.5 8.5l-3 -1l-5 7q-3 0 -6.5 2.5t-4.5 2.5q-2 0 -5.5 2.5t-8.5 5.5h-4q-2 5 -3 10t-4 9q-2 23 -3.5 47t-1.5 48q0 60 7.5 120t23 115.5t39 104.5t55.5 87q30 29 60 29
q21 0 39.5 -12t34.5 -30.5t29 -40t24 -39.5l4 -6q0 -3 2 -7q1 -2 3 -3q7 -12 12.5 -36.5t10 -56.5t8 -68.5t7 -70.5t6.5 -63.5t7 -47.5q2 -6 3.5 -12t4.5 -10q5 8 6 15q13 75 24.5 142.5t23.5 129t26 117t33 106.5q0 13 3 15.5t7 2.5h3v-2q0 -1 1 -1t1 1t1 2q3 -2 8.5 -9
t11.5 -14.5t12 -13.5t10 -6q2 0 4 3zM179 500q2 0 2 -3q4 10 8 17.5t8 16.5v2q-2 -5 -4 -8t-2 -1q0 1 0.5 1.5t0.5 1.5q2 5 4.5 9.5t3.5 8.5q1 2 2.5 6t3.5 4q0 1 -0.5 1.5t-0.5 1.5q0 3 3.5 6.5t3.5 4.5q0 2 -1 3q2 2 4 7t4 7l-1 -4q2 0 2 2q0 1 -0.5 2t-0.5 2q1 0 3 2l1 1
q0 -2 -0.5 -2t-0.5 -1q1 1 1.5 3.5t1.5 4.5q1 3 1 5q0 3 1.5 4t1.5 3q-2 0 -6 -5t-7.5 -11t-6 -11l-2.5 -5q-2 -2 -4 -5q-4 -6 -4 -9q2 6 2 9q-2 -5 -3.5 -8.5t-3.5 -7.5v-4l5 11v-2q0 -1 0.5 -1.5t0.5 -1.5q-2 2 -6 -6v-1v1q-2 -2 -2 -3q-1 0 -1 0.5t-2 0.5q0 -1 0.5 -1.5
t0.5 -2.5h1q-1 -1 -1 -4q0 -2 2 -2q-2 0 -4.5 -3t-2.5 -6q0 -2 1 -3q-3 -11 -8 -21t-5 -24q-3 -2 -2.5 -5t-1.5 -3q0 2 1.5 5.5t1.5 5.5q-3 0 -5.5 -8.5t-2.5 -16.5q2 0 2 -2t-3 -5t-3 -6t2 -4q4 12 10.5 27.5t6.5 26.5l-2 -3l-2 -1q0 4 4 7zM226 564q0 3 3 7t5 6q0 5 -3 7
q-6 -9 -10.5 -20.5t-9.5 -20.5q0 2 0.5 3t0.5 3q-1 -2 -3.5 -4.5t-1.5 -2.5q4 0 3 -1q0 -1 0.5 -1.5t0.5 -1.5q-2 0 -4 -5.5t-3.5 -11.5t-2.5 -10.5t-2 -3.5q0 -1 -1 -1h-2q-2 0 -2 2q0 -2 -0.5 -3t-0.5 -2t-2 -1h-2q0 -5 -3 -9q0 -3 1 -4h-1v2q-4 -4 -5 -16.5t-2 -19.5
q5 0 6.5 9t1.5 10q0 2 1 2h2q0 -6 -3 -10.5t-3 -11.5q7 16 12 31.5t13 36.5q-2 0 -3 -1q0 1 3 9.5t11 22.5q0 -2 -1.5 -4.5t-1.5 -4.5q-2 -3 -3.5 -8.5t-1.5 -8.5q0 1 1.5 5t2.5 6q1 3 5.5 12.5t4.5 13.5zM194 565q0 -1 -0.5 -1.5t-0.5 -2.5q0 -1 1 0.5t1 3.5q2 2 4.5 5
t4.5 7q0 -1 -0.5 -2t-0.5 -3q5 11 11.5 22t12.5 20q-5 -5 -9 -12t-7 -7q-1 -5 -2 -8t-3 -6q0 2 0.5 3t0.5 3q-1 0 -1 1v2q0 -1 -0.5 -2t-0.5 0q-5 -7 -8 -15.5t-3 -7.5zM375 302q0 -5 -1 -5q1 -2 1 -7v-4q0 2 -1 3q0 -5 1.5 -12.5t1.5 -6.5v-6q0 -2 0.5 -4t0.5 -1q1 -1 1 -2
q0 -3 1 -6q0 -1 0.5 -2.5t0.5 -0.5zM214 569q-2 -5 -4.5 -10.5t-4.5 -10.5q5 5 9 11t4 15q-1 0 -1.5 -1t-2.5 -1q0 2 2 4t2 4l-6 -8h1v-1zM173 521q0 -3 -0.5 -6t-0.5 -5q2 3 6 11.5t4 13.5q0 2 -1 3q-2 -4 -4.5 -10.5t-3.5 -6.5zM371 309q0 -2 1 -4q0 -3 1 -3v13
q0 6 -1 12.5t-2 11.5q0 -2 0.5 -5.5t0.5 -7.5v-17zM189 521q-5 0 -5 -4q0 4 3.5 8.5t6.5 12.5q0 -3 -2.5 -11t-2.5 -6zM194 513q1 2 2.5 2t1.5 2t2 2q0 2 -1.5 1.5t-2.5 1.5q1 2 1 3.5t2 3.5q-6 -6 -6 -13q0 -1 0.5 -1.5t0.5 -1.5zM379 242q0 7 -1.5 13t-3.5 13
q1 -7 1.5 -13.5t3.5 -12.5zM183 539q2 5 5 9.5t3 10.5q-2 -4 -3.5 -8t-3.5 -8zM201 550q0 -1 -0.5 -2t-0.5 -3v1q0 -2 -3 -2q0 2 4 6zM184 513q-1 -2 -1 -2.5t-2 -2.5q0 5 3 5zM191 545q0 1 1 2v1q-1 -1 -1 -3zM192 547q1 1 1 2zM206 581l-2 -4z" />
    <glyph glyph-name="O" unicode="O" horiz-adv-x="484" 
d="M364 538q-38 -17 -68 -46t-52.5 -65t-37.5 -77.5t-24 -81.5q-1 -8 -2 -20.5t-1 -26.5q0 -21 2.5 -44t9.5 -42t19.5 -31.5t32.5 -12.5t33.5 6t25.5 16q17 13 29 30t21 36q26 52 41.5 110.5t22.5 118.5q0 17 -2 37t-8 36q0 2 -0.5 4t-0.5 4q0 3 1 4q0 5 6 5q4 0 6 -1l7 -14
q5 0 12 -11t8 -16q5 -5 9 -10t6 -13q1 -1 1 -4t1 -4q7 -3 11.5 -14t7 -25.5t3.5 -28.5t1 -23q0 -42 -10.5 -90t-31.5 -92.5t-52.5 -80.5t-72.5 -54q-23 -10 -51 -10q-29 0 -59 10t-54 27q-34 23 -58 45.5t-39.5 48.5t-23 56.5t-7.5 69.5v16t1 16q0 49 23 110t61.5 117
t88.5 98t103 54q7 2 20 3t30 1q18 0 38.5 -2t38 -6.5t30 -12t15.5 -18.5q5 -12 9 -18.5t4 -16.5q0 -8 -3 -18q-6 -16 -19.5 -24.5t-31 -13t-36 -6.5t-34.5 -5z" />
    <glyph glyph-name="P" unicode="P" horiz-adv-x="346" 
d="M179 707q29 0 68 -6t74.5 -21t60 -41t24.5 -66q0 -25 -11 -49t-30 -43t-44 -30.5t-53 -11.5h-12q-11 0 -23.5 1.5t-12.5 6.5q0 1 -5 2q-10 -78 -20 -154t-14 -159q-1 -23 -3.5 -47t-2.5 -47v-11t1 -11q0 -1 -0.5 -2t-0.5 -2q-6 -7 -6 -11.5t-9 -4.5q-6 0 -12 -3t-6 -8
q-2 0 -2.5 2t-1.5 3q-2 -6 -4 -6t-3 4t-1 3q-1 0 -1.5 2.5t-0.5 0.5q0 -5 -2.5 -5t-2.5 -2t0.5 -3.5t0.5 -3.5q-1 2 -2 4.5t-2 1.5v-3l-5 7q0 -3 -2 -3l2 -4l2 -4q-2 0 -2 2t-3 2q1 -2 2.5 -4t1.5 -6l-3 5q0 -3 -1 -3q0 1 -1 2q-2 2 -2 5q-2 -1 -2 -7q-1 0 -1.5 1t-1.5 1
q0 -2 1 -2.5t1 -2.5q-2 -2 -2 -5q0 -2 -5.5 -3t-13 -1.5t-15 -1.5t-11.5 -2q-1 0 -1 -1t-2 -1q-8 0 -14 10.5t-9.5 26t-5 34.5t-1.5 37q0 70 9.5 142.5t15.5 144.5q6 67 19 140.5t13 145.5q0 6 -1 7q-8 -1 -14 -5t-15 -4t-13.5 6t-4.5 14q0 11 11.5 20t31.5 15t46 9t55 3z
M327 568q0 37 -19 56.5t-50 26.5l-4 2q-2 0 -4.5 0.5t-4.5 0.5q-3 0 -3 -1q-1 -3 -4 -25.5t-6.5 -50.5t-6.5 -55t-5 -38q18 4 36.5 10t34 16t25.5 24t11 34z" />
    <glyph glyph-name="Q" unicode="Q" horiz-adv-x="486" 
d="M476 374q2 -11 3.5 -22.5t1.5 -23.5q0 -30 -7 -61t-19 -61t-29 -58t-37 -51q8 -38 24 -75.5t36 -75.5q5 -8 11 -21t6 -26q0 -11 -8 -19l-6 -6q-2 -3 -4 -3h-1q-2 -2 -2 -5q-4 4 -4 8q-1 1 -1 2v2q0 2 1 3h-2q-1 0 -2 1q-1 0 -1 -3q2 -6 2 -9v-2q0 -2 -2 -2q-3 -1 -3 -9
q-1 2 -1 6t-3 4h-5h-2q-1 0 -1 1q0 -1 0.5 -2.5t0.5 -2.5q-3 0 -4 1q0 -4 2 -6t3 -7q-2 2 -9 2q-4 -2 -5 -2q-2 0 -6 2q-16 2 -25.5 13.5t-17.5 22.5q-26 33 -41 74t-29 77q-35 -15 -79 -15q-26 0 -52.5 6t-49.5 18.5t-41 31.5t-27 46q-12 27 -17.5 56t-5.5 59
q0 63 20.5 127t50.5 121q18 34 40 64.5t48 59.5q31 35 79 60.5t101 25.5h10q15 0 31 -6t30 -15t23 -20t10 -20q0 -12 -4 -19t-15 -13q-8 -6 -19.5 -10t-19.5 -9q-9 -5 -18 -8.5t-19 -7.5q-24 -16 -46.5 -39.5t-42.5 -51t-36.5 -57t-26.5 -57.5q-14 -37 -25 -74.5t-11 -78.5
q0 -6 0.5 -12t1.5 -13v-6q0 -17 6.5 -32.5t16.5 -29.5q16 -15 37 -15q13 0 29 8q-7 24 -16.5 50t-19.5 52l-3 8q-2 9 -6 19t-4 21q0 19 9.5 25.5t25.5 6.5h9q3 4 7 4q5 0 10.5 -6.5t9.5 -11.5q10 0 18.5 -8.5t15.5 -20t12 -24t8 -19.5q17 31 26.5 68t9.5 75q0 27 -4.5 53.5
t-14.5 51.5q-3 8 -9 17l-12 18t-10.5 16t-4.5 12q0 2 2 4q3 3 8 3t12 -2.5t15 -6.5q4 0 7.5 -2.5t8.5 -5.5q4 -2 12 -7.5t16.5 -12.5t15.5 -14.5t9 -12.5q11 -10 22.5 -26t11.5 -32q5 -8 7 -13t3 -19zM429 192q3 3 3 7.5t5 6.5q0 5 1.5 7.5t3.5 5.5q4 8 4.5 15.5t2.5 15.5
q5 3 5 7t2 4q1 5 2.5 11t1.5 11q-2 -4 -2.5 -8t-2.5 -7t-5 -12t-7 -20t-8.5 -23t-8.5 -19q0 1 2 1q0 -3 -5 -5q-2 -5 -5 -9t-5 -9q4 2 4 4.5t3 3.5q-2 -5 -5 -9.5t-4 -9.5q4 8 9.5 15t8.5 16zM452 297q-2 -14 -6 -27t-6 -25q2 2 3 5.5t1 4.5q0 -1 2 5q2 5 3.5 12.5t1.5 12.5
q0 1 1 1t1 2t2 2q0 4 0.5 7t0.5 8q0 6 -1 9zM433 177q6 7 9.5 16.5t5.5 18.5q-3 -5 -4 -6q0 -1 -2 -7t-2 -4q0 -6 -4 -9t-4 -7q-4 -8 -3 -8t4 6zM457 378q1 -6 1.5 -12t0.5 -13q0 -18 -3 -36q1 0 3 6q0 3 1 5q0 6 0.5 12.5t0.5 12.5q0 13 -4 25zM448 214q3 0 4 6q3 3 3.5 8
t2.5 9q-2 0 -2.5 -2t-0.5 -3q0 -2 -1.5 -4.5t-1.5 -6.5q-4 -1 -4 -7z" />
    <glyph glyph-name="R" unicode="R" horiz-adv-x="419" 
d="M460 35q-2 0 -3 1.5t-4 2.5q-2 0 -2 -2q-2 2 -6 2q-1 0 -1.5 0.5t-1.5 0.5v-8q-2 2 -4.5 5t-4.5 3q0 -5 2 -7q-2 0 -2.5 -0.5t-1.5 -0.5l-6 3q0 -3 2 -9q0 -1 1 -2.5t1 -2.5t-3 -1q-6 0 -8 2t-7 6q0 -1 1 -2q0 -2 2 -4q-2 0 -2 -5q-5 0 -5 4q0 -2 0.5 -4t0.5 -5
q-1 2 -2 3.5t-1 0.5q-4 0 -8 4.5t-4 3.5q0 -5 3 -8l-8 4l1 -2v-1q0 -3 -3 -3t-5 -2q-11 4 -17 9.5t-12 15.5q-8 13 -27.5 48.5t-42 78t-44 85t-33.5 71.5q-1 -6 -3.5 -31.5t-6 -61t-7.5 -75t-7.5 -73t-7 -55.5t-5.5 -22q-3 1 -3 2v1q-2 0 -2 -4q0 4 -1 4t-3 1q-2 0 -3 0.5
t-3 0.5q-1 0 -11 -2q-4 -1 -9 -2q0 2 -2 1.5t-2 1.5h-2l-1 -1q-1 -1 -1 -4q-2 0 -2.5 2.5t-2.5 2.5l-3 3q0 -2 -0.5 -2t-0.5 -1l-1 -1v1l-1 2q-1 0 -3.5 -4.5t-4.5 -4.5v2q0 1 0.5 2t0.5 3q-2 0 -3.5 -1.5t-1.5 -0.5q0 2 -2 2t-2 -5q0 -3 -2 -3q-1 0 -1 1v4q0 2 -1 1.5
t-2 1.5q-1 0 -2 -0.5t-3 -0.5q-3 -3 -7 -3q-1 -1 -3 -1h-5h-2q-1 0 -1 1q-4 -2 -9 -3.5t-6 -1.5q0 1 0.5 2t0.5 2q-3 0 -7.5 -4t-6.5 -4q-3 0 -4.5 -3t-2.5 -6q-1 -4 -1 -8q-16 0 -18.5 14.5t-2.5 30.5q2 81 10 158.5t17.5 155t19 157.5t13.5 165q-4 0 -6 3h1l2 2
q-2 0 -4 -0.5t-4 -0.5q-3 0 -5 1q0 2 1.5 2t1.5 2q2 7 7.5 9t11.5 3t11.5 2.5t7.5 6.5q10 8 21.5 10.5t23.5 2.5q11 0 23 -1t23 -1q9 0 14 1q5 0 9.5 -0.5t9.5 -1.5q1 2 5 2q5 -1 8 -3t5.5 -5t7 -6.5t12.5 -7.5q18 -2 41 -9.5t43.5 -21.5t34.5 -35t14 -51q0 -22 -10.5 -42
t-28.5 -37.5t-40.5 -30.5t-46.5 -20q28 -48 53.5 -103t56.5 -107q25 -43 47.5 -87.5t39.5 -91.5q-1 0 -1.5 0.5t-1.5 0.5q-5 0 -4 -1q2 -2 2.5 -3zM220 471q42 14 70.5 41t28.5 60q0 14 -8 24.5t-20 17t-25.5 10.5t-24.5 4q-7 -36 -11.5 -72t-8.5 -74q0 -3 -0.5 -5.5
t-0.5 -5.5zM52 158q-2 -8 -2 -13q0 -2 0.5 -4.5t0.5 -4.5q0 -3 -1 -7.5t-1 -9.5q0 -7 4 -11q2 2 4 5.5t2 2.5q0 1 1.5 3t1.5 4l-3 2q0 2 0.5 4t0.5 4q-1 0 -1.5 -4t-1.5 -6v24q-2 0 -2.5 -0.5t-2.5 -0.5q2 4 2 7t-2 5zM41 107q-2 -8 -2 -13q0 -2 0.5 -4t0.5 -4q2 7 4 17
q2 0 2 3v4q-3 0 -3 -1t-2 -2zM50 69q2 4 2 7q0 2 -0.5 3t-0.5 3q-2 -2 -2.5 -6.5t-0.5 -6.5q0 -1 -0.5 -1.5t-0.5 -2.5q0 -1 1 -2q0 -3 2 -3q0 2 0.5 3t0.5 3t-1 3zM47 36v-4v-3q0 -1 1 -1q2 0 3 1q0 1 0.5 2.5t0.5 3.5t-3 2l2 3l-2 5q0 -2 -2 1t-2 1l2 -4q0 -1 1 -1
q0 -1 0.5 -1t0.5 -1q-3 0 -3 -1t0.5 -1.5t0.5 -1.5zM50 91q0 -2 -1 -4q1 -1 1 -3h1q2 0 3 1q0 1 0.5 2t0.5 3q0 3 -3 5zM59 169q-1 -1 -1 -4q0 -4 2 -4v4.5t-1 3.5zM64 99q-3 0 -3 -2q0 -1 2 -3q0 5 1 5zM70 48q0 1 0.5 1.5t0.5 2.5q0 3 -2 3q0 -3 1 -7zM68 116
q-1 1 -1.5 -1.5t-0.5 -4.5q2 2 2 6zM40 86v-2q0 -1 1 -1v1z" />
    <glyph glyph-name="S" unicode="S" horiz-adv-x="343" 
d="M391 641q-4 1 -8 1h-8q-30 0 -58.5 -14.5t-51 -37t-36 -49.5t-13.5 -52v-5q2 -37 17.5 -78t33 -83.5t31.5 -85.5t14 -84q0 -4 -0.5 -7.5t-0.5 -7.5q-2 -32 -17 -61.5t-38.5 -52t-52 -36t-57.5 -13.5q-4 0 -13 1t-19.5 3t-20.5 5.5t-16 8.5q-7 4 -17.5 15t-20.5 24.5
t-17 27t-7 21.5q2 3 2 4.5t2 1.5q5 -2 6.5 -5t4.5 -3q2 0 4 1q7 -5 12.5 -9t12 -7.5t15.5 -5.5t23 -2q29 0 48 20t19 49q0 16 -5 30q-9 28 -24.5 60.5t-31 68t-28 72.5t-15.5 73q-1 5 -1 10.5v10.5q0 59 25 109.5t66.5 87.5t95 58t110.5 21q51 0 73 -53q3 -9 3 -16
q0 -11 -6 -17.5t-15 -6.5t-20 8z" />
    <glyph glyph-name="T" unicode="T" horiz-adv-x="282" 
d="M398 697q5 -3 5 -10q0 -6 -3 -6q-6 0 -5.5 -3t-1.5 -3h-1h-3q-2 0 -2 2q0 -2 -3 -2l3 -3q1 -1 2 -1q-1 0 -2 0.5t-3 0.5q2 -1 2.5 -2t2.5 -1h3q2 0 -3.5 -1.5t-3.5 -1.5q0 -3 -6 -3q0 -3 -6.5 -4.5t-17 -2.5t-23.5 -1.5t-26 -0.5q-17 0 -30 0.5t-17 1.5
q-6 -53 -11 -104.5t-10 -102.5t-10.5 -103.5t-12.5 -107.5q-10 -50 -12 -100t-14 -98l-1 -2v3q0 2 -1 3q-2 0 -2.5 2t-0.5 4q0 1 -0.5 2.5t-1.5 0.5q-1 0 -1 2l-2 -8q0 2 -1 3v-5q-2 2 -1.5 5t-3.5 3h-34v-1q0 -1 0.5 -1.5t0.5 -1.5q0 -2 -5 -2t-9.5 0.5t-8.5 0.5
q-1 0 0.5 -0.5t1.5 -2.5q0 1 -3.5 2.5t-4.5 5.5q-1 -4 -9 -4q-6 0 -13.5 1.5t-12.5 1.5q-8 0 -8 -7q0 -1 0.5 -1.5t0.5 -1.5q-3 0 -4.5 3l-2.5 5l-5 12.5t-3 13.5v35q2 19 2 36.5t4 38.5q5 5 5 17q-1 -3 -3 -7.5t-3 -2.5q1 0 1 2t1 3v11q0 2 1.5 4.5t1.5 3.5q-1 1 -1 3t1 4
q1 1 2 7.5t1.5 15t1.5 16.5t1 11q3 1 4.5 7.5t2 14t0.5 14t1 6.5q0 13 4.5 33t4.5 31q-1 4 -1 10l-1 -2q0 3 0.5 6t0.5 5v7q0 15 3.5 36l5.5 33q-1 1 -1 4t1 5q7 45 7 90t5 90q-11 0 -18.5 1.5l-17.5 3.5h-5q-2 0 -4 -0.5t-4 -0.5q-3 0 -3 2q-2 0 -4 -0.5t-4 -0.5q-4 0 -4 3
q-4 0 -8 1q-8 2 -13 2q-2 0 -6.5 -1.5t-4.5 -0.5l1 1q-1 0 3 2q-6 -2 -8 -2h-4h-8q-3 0 -8 2.5t-13 2.5q-1 -1 -4 -1h-18q1 1 1.5 2t1.5 2l2 2h-1q-1 0 -1 0.5t-1 0.5q1 2 5 2q2 0 4.5 -0.5t5.5 -0.5q-3 2 -6.5 2.5t-5.5 2.5q5 1 9.5 5.5t12.5 7.5q11 4 26.5 6.5t33.5 3.5
t36.5 1.5t35.5 0.5q4 5 6.5 8.5t7.5 5.5q1 0 2 0.5t3 0.5q7 0 15 -3.5t16 -3.5q23 -2 43 -2.5t40 -2.5q3 0 6 -3t4 -3q12 0 30.5 -0.5t39 -2t39 -3.5t29.5 -4q6 0 6 -6zM85 123q2 0 2 4q0 2 -0.5 3t-0.5 3q-1 2 -1 3q0 -2 -1 -4.5t-1 -4.5t2 -4zM91 160q3 0 3 5t-3 5v-10z
M91 152q0 -5 -1 -4t-1 -1l5 -1q0 4 -3 6zM61 169q1 0 1 3q0 2 -0.5 4t-0.5 4q0 -2 -0.5 -3.5t-0.5 -3.5t1 -4zM97 127q2 0 1.5 0.5t0.5 1.5q0 1 -0.5 2t-0.5 2q0 3 3 5h-3q0 -5 -1 -6v-5zM82 112q0 2 0.5 3t0.5 3q0 3 -2 3v-5q0 -3 1 -4zM86 148q0 2 0.5 3t0.5 3t-1 3
q0 -1 -0.5 -2.5t-0.5 -3.5t1 -3zM105 112q0 1 0.5 1.5t0.5 1.5v2q-2 0 -2 -2t1 -3zM105 104q0 3 -1 4v-2q0 -2 1 -2z" />
    <glyph glyph-name="U" unicode="U" horiz-adv-x="494" 
d="M452 9v2q0 1 -0.5 1.5t-0.5 1.5q0 -2 -3 -3t-4 -7q-1 1 -1 4v9q-3 0 -6.5 -2t-3.5 -7q-1 1 -2 3t-3 2v-3q-1 2 -2.5 3.5t-1.5 3.5q-2 -1 -3 -3q-2 -4 -2 -7q-3 1 -4 5q-2 -2 -3 -2q-2 0 -2.5 4t-1.5 7q0 -5 1 -9t1 -8q-2 4 -3 6.5t-4 2.5h-1v-3q-1 1 -4 2.5t-4 3.5
q0 -3 -1 -3t-3 2.5t-4 2.5t-1.5 -2.5t-1.5 -3.5h-5q-2 0 -4.5 -2t-4.5 -2q-19 0 -28.5 25.5t-11.5 55.5q0 5 -0.5 10t-0.5 10q0 29 3 56t4 39l-3 -8q-7 -17 -17.5 -40t-24 -44t-30 -35.5t-35.5 -14.5q-5 0 -7.5 2t-8.5 2q-7 0 -7 -3q2 0 3 0.5t2 0.5q3 0 3 -0.5t2 -0.5
q-1 -1 -2 -2.5t-2 -1.5t-1 1t-0.5 1t-0.5 1q-4 0 -4 -5q0 -3 -3 -3t-7 3q-3 -2 -14.5 -5.5t-16.5 -3.5q-2 -2 -13.5 -7.5t-19.5 -5.5q-26 0 -42.5 16.5t-26.5 42t-14 55t-5 55.5q-1 14 -1 28.5v28.5q0 94 12.5 193t34.5 195q3 13 8.5 29t16.5 27q6 9 18.5 14t26 7t25.5 2.5
t17 0.5q30 0 49.5 -16t19.5 -60q0 -14 -6.5 -24.5t-16.5 -21.5q-5 -8 -8.5 -20t-6.5 -23q-17 -69 -26 -144.5t-9 -151.5q0 -17 0.5 -33t1.5 -32q1 -17 2.5 -34t3.5 -31q8 5 11 14q22 43 41 90t37.5 95.5t39 96.5t44.5 93q3 15 6 34.5t10 37t19 30t34 12.5q23 0 41.5 -13.5
t20.5 -36.5q0 -10 -1 -15z" />
    <glyph glyph-name="V" unicode="V" horiz-adv-x="409" 
d="M534 693q-5 -11 -12.5 -32.5t-15.5 -46.5t-16.5 -49t-15.5 -40q1 -1 1 -4q0 -7 -5 -16.5t-7 -13.5q-30 -90 -56.5 -172.5t-59 -145.5t-75.5 -101t-106 -38h-13q-7 -4 -17 -4q-20 0 -34 15.5t-23 38.5t-13 48t-4 45q0 7 0.5 12t1.5 10q-5 35 -6.5 79t-1.5 93v41v42t2 41
q4 43 7 68t6 38.5t6 19.5t8 11q18 19 45 32.5t53 13.5q36 0 60 -15t24 -47q0 -9 -6.5 -30.5t-8.5 -46.5q-3 -88 -10.5 -172.5t-7.5 -173.5v-26q0 -11 0.5 -20t2.5 -10q11 18 22 41t21 48.5t20 52t19 50.5q16 43 31.5 86.5t33 86.5t38.5 85t47 81q-1 -5 -3 -11t-2 -7
q0 -2 2 -2q3 0 4.5 4.5t1.5 3.5q1 0 2.5 1.5t3.5 1.5t2 -2q8 6 12 13t9 13v-4q3 3 3 2q2 0 8 4.5t7 3.5q1 0 5.5 3.5t6.5 8.5q2 0 2.5 -3.5t0.5 -4.5z" />
    <glyph glyph-name="W" unicode="W" horiz-adv-x="854" 
d="M891 665q5 0 9.5 0.5t10.5 0.5q2 0 5 -1.5t3 -5.5q-2 -2 -5 -9t-6.5 -15t-6.5 -15.5t-4 -10.5v-6q-1 -1 -5.5 -7.5t-3.5 -6.5t2.5 1.5t3.5 2.5q-3 -8 -7.5 -19t-4.5 -16h2q1 0 1 0.5t1 0.5q0 -3 -3 -10t-3 -8q0 -5 -0.5 -9.5t-0.5 -10.5q0 -16 -9 -33.5t-11 -28.5
q0 8 1.5 17.5t1.5 18.5q-1 0 -4.5 -11t-3.5 -30q0 -7 2 -7q1 0 4 5q0 -2 -3 -11t-5 -17q-2 0 -2 3t-1 4q0 1 -0.5 1.5t-0.5 1.5v1q-1 0 -2.5 -6t-2.5 -13t-1.5 -13.5t-0.5 -7.5q0 -4 1 -5q0 -2 -0.5 -2.5t-0.5 -3.5q-2 -8 -7.5 -25t-7.5 -28q0 -1 2 -5q0 2 1.5 8l3 12
t3 11.5l1.5 5.5q1 0 3 6.5t4 15t3.5 17.5t3.5 14v-7.5t1 -7.5q-1 -6 -4.5 -19.5t-7.5 -27.5t-7.5 -26t-4.5 -15q-1 -4 -5 -14t-8 -21.5t-7 -22t-3 -14.5q3 0 4 4t2.5 9t3.5 9t6 4q-1 1 -1 2v5q0 2 2 3.5t2 5.5q0 8 4 21t9.5 26.5t9.5 26t4 20.5v-2q0 -1 0.5 -1.5t0.5 -1.5
q0 -2 1 -4q-10 -36 -20.5 -81.5t-28 -92t-44.5 -90t-70 -75.5q-9 -7 -22 -11.5t-25.5 -7t-22.5 -3.5t-14 -1q-39 0 -63 19.5t-37 52t-17.5 74.5t-4.5 88q0 86 4.5 168t4.5 149q0 8 0.5 16.5t0.5 16.5q0 10 -1 15q-8 -10 -20.5 -45t-28 -82.5t-32.5 -102.5t-33 -105.5
t-29.5 -91t-21.5 -59.5q-9 -30 -20 -52.5t-30 -37.5t-50 -22.5t-80 -7.5q-19 0 -33.5 15.5t-26 41.5t-19.5 60.5t-12.5 73t-7 78.5t-2.5 77q0 75 7.5 146t18.5 131q6 35 30.5 52.5t57.5 17.5q11 0 28 -2.5t33.5 -9.5t28 -19.5t11.5 -32.5q0 -9 -4.5 -19t-6.5 -19
q-4 -10 -7.5 -38.5t-6.5 -65t-4.5 -76.5t-1.5 -73v-66q0 -42 2.5 -82.5t13.5 -82.5q5 3 11.5 19.5t13 38.5t14 45.5t13.5 41.5q19 55 33.5 105.5t30.5 98.5t36 96t50 99q6 12 19.5 19.5t30.5 12t35 6.5t33 2q19 0 35.5 -5.5t19.5 -17.5q18 -20 26.5 -47t11 -56.5t2 -59.5
t1.5 -57q-2 -69 -4.5 -138.5t-2.5 -146.5q0 -9 0.5 -22.5t1.5 -26t3 -21t6 -8.5q16 0 32 34.5t31.5 87t30 115.5t28 121t26 103t24.5 60q0 5 5 15t12.5 20t16.5 17.5t18 7.5z" />
    <glyph glyph-name="X" unicode="X" horiz-adv-x="459" 
d="M510 657q2 2 4.5 5t4.5 5q0 -8 -10 -14.5t-10 -14.5q6 0 5.5 4.5t4.5 4.5l6 8q3 0 9 6t11.5 13t10 12.5t4.5 4.5q0 -5 -4 -10q0 -2 -3 -2q-5 -7 -10 -13t-4 -5q4 2 7 2q0 -1 -3 -4q0 -1 -12 -18t-31.5 -42.5t-43 -57.5t-46.5 -63.5t-42 -60t-30 -46.5q3 -12 13.5 -39
t24.5 -62l30 -75t29.5 -79.5t22 -75.5t8.5 -61q0 -16 -5 -16q-14 0 -14 17q-3 -15 -6 -15t-4 12q-2 -5 -2 -10.5t-2 -8.5q-2 5 -3 6t-1 3q-2 -1 -2 -4v-6q-2 7 -9 7q0 -3 1.5 -5.5t1.5 -5.5q-2 2 -6 4t-6 4q-1 -1 -4 -7t-6 -13t-5 -13.5t-2 -9.5q-1 2 -4 2t-5 2
q-2 -8 -1 -14t-10 -6q-8 0 -7.5 -3.5t-4.5 -3.5q-3 0 -3 10q-2 -1 -2 -4q0 -2 0.5 -4t0.5 -4q0 -3 -4 -3v-14q-4 14 -14 40.5t-23 59l-27 67.5t-27 65.5t-22.5 54t-12.5 31.5q-7 -9 -15 -22.5t-14.5 -26.5t-11.5 -22t-6 -9l-2 2q-2 2 -3 2q0 -1 -0.5 -1.5t-0.5 -1.5
q-1 -1 -1 -2q0 -3 -1 -4l-3 -3q-4 -4 -10 -4l-15 -21q-2 3 -3 3q-3 0 -7 -4.5t-8 -10t-7.5 -10t-4.5 -4.5t-1 7v9q-7 -3 -8.5 -13.5t-11.5 -13.5q0 2 -0.5 3t-0.5 3t2 3q0 1 -2 3q-1 1 -2 1q-2 -8 -8.5 -17t-12.5 -9q-3 0 -3 7v6q0 25 13 62t31.5 74.5t37.5 70.5t31 51
q-9 21 -21 50.5t-27 62.5t-31.5 67t-33.5 63q-11 20 -17.5 34.5t-6.5 25.5v6q0 8 3 10q5 5 5.5 10t8.5 12q4 3 8 8t9 7q1 3 4.5 7.5t5.5 6.5q4 7 15 13t17 11q9 6 10.5 9t11.5 3q7 0 13.5 -3t11.5 -7q21 -14 40.5 -42t35.5 -60t29.5 -63.5t22.5 -53.5l17 22q51 64 102 124
t112 109q13 5 22.5 15.5t24.5 10.5l18 9q-3 -9 -10 -12.5t-7 -7.5h3q-2 -2 -4.5 -4t-2.5 -7q2 2 3.5 4.5t5.5 2.5q2 2 5 2h4v-1l1 -2q4 6 10 6q-19 -24 -43 -49t-33 -44z" />
    <glyph glyph-name="Y" unicode="Y" horiz-adv-x="447" 
d="M421 684q32 0 44 -22.5t12 -52.5q0 -11 -3.5 -28.5t-7.5 -34.5t-7.5 -29.5t-3.5 -13.5q-3 -8 -9.5 -36.5t-16 -71t-21 -94t-23.5 -105t-23.5 -105.5t-20.5 -94q0 -1 -1.5 -2t-1.5 -3h1t2 1q0 -16 -4 -32.5t-8.5 -29.5t-8.5 -21.5t-5 -9.5q-2 0 -7 6.5t-12 8.5q0 -2 -1 -3
q-2 -3 -4 -3q-1 0 -1 0.5t-2 0.5t-3 -1l-2 2t-1 4q-2 -1 -3 -2.5t-3 -3.5q-2 0 -2 2t-3 2q-1 0 -2.5 -0.5t-3.5 -0.5q0 1 0.5 2t0.5 3t-2 2t-3.5 -2t-3.5 -2q-1 0 -9 5.5t-19 5.5q-4 0 -8 -2t-7 -2q-2 0 -2 5t-2 5t-3.5 -2t-3.5 -2t-5.5 8.5t-3.5 27.5q0 13 3 31
q9 78 24.5 157.5t34.5 155t38 144t35 125.5q-5 -11 -13 -33t-19 -51t-24.5 -61.5t-28.5 -62.5t-31.5 -55t-32.5 -39q-9 -15 -30.5 -20.5t-49.5 -5.5q-26 0 -42 18.5t-24.5 44.5t-11.5 52.5t-3 43.5q0 33 5.5 79t19 92t35.5 85t55 56q6 3 13 3q13 0 23.5 -5.5t17.5 -13
t10.5 -16.5t3.5 -15q0 -15 -5 -32q-9 -25 -20.5 -58t-21 -69t-16.5 -72.5t-7 -69.5q0 -9 0.5 -19.5t2 -20t5 -16.5t8.5 -8q25 38 45 79t37.5 83.5t35.5 85t41 84.5q14 21 24.5 28.5t22 9.5t25 1.5t33.5 4.5h9zM349 66q0 2 -0.5 3t-0.5 4q0 1 -0.5 1.5t-0.5 1.5
q-1 -2 -3.5 -6t-2.5 -9q1 -1 1 -4q3 0 3 3zM241 153q2 1 2 5q0 5 -3 9t-3 2q0 -1 1 -8t3 -8zM257 193q-4 0 -6 -6t-2 -7q1 0 4.5 6t3.5 7zM252 248q6 0 6 3l-4 2q-2 0 -2 -5zM328 -29q0 3 1 5.5t1 6.5l-3 1q0 -1 0.5 -2t0.5 -4q-1 -1 -1 -4t1 -3zM353 102q2 2 3 7t2 8
q-1 -4 -3 -7t-2 -8zM350 87q2 0 2 2v2q-2 0 -4 3t-2 2t2 -5zM228 100q2 1 2 3t1 4q-4 -1 -4 -4q0 -1 0.5 -1.5t0.5 -1.5zM230 142l2 2t1 4q-3 0 -3 -6z" />
    <glyph glyph-name="Z" unicode="Z" horiz-adv-x="539" 
d="M441 -34q-10 -6 -22.5 -5t-24.5 -3q-12 -2 -24.5 -4.5t-24.5 -5.5q-26 -5 -52 -8.5t-52 -6.5h-94q-27 0 -48 3.5t-38 12.5t-32 23.5t-31 35.5q-2 2 -5 7.5t-7 12.5l-10 17q-4 8 -6.5 17t-2.5 20q0 5 0.5 9t1.5 9q3 11 9.5 22.5t14.5 22t16 19t14 14.5q17 19 34.5 35
t35.5 29q68 63 139.5 117.5t146.5 109.5q17 13 36 26t36 27q20 14 36.5 28t29.5 37q-14 5 -29.5 6t-30.5 1q-38 -5 -75.5 -15.5t-74.5 -21.5q-19 -7 -39 -7q-11 0 -20.5 2.5t-16.5 7.5t-11 15.5t-4 23.5q0 20 10 33q20 12 52 22.5t67 12.5q20 4 39.5 6t38.5 2q17 0 32 -1.5
t29 -6.5q33 -7 59 -31t26 -69v-10q-3 -33 -18 -57t-34 -47q-33 -38 -72.5 -73t-77.5 -70q-66 -60 -127.5 -122.5t-115.5 -133.5q82 0 164 4.5t170 4.5h15.5t15.5 -1q19 -3 38 -11t41 -10q21 -4 40.5 -6.5t39.5 -7.5q-2 -7 -6.5 -8.5t-9.5 -4.5q-5 -2 -8 -5t-8 -6
q-7 -2 -14 -2.5t-14 -0.5h-22h-8t-8 -1q-8 0 -15 -1.5t-15 -1.5q-9 -3 -18.5 -4t-17.5 -4q-2 0 -3.5 -3.5t-3.5 -3.5q-13 -6 -26.5 -7.5t-25.5 -4.5q2 -2 8 -2.5t8 -0.5z" />
    <glyph glyph-name="bracketleft" unicode="[" horiz-adv-x="198" 
d="M66 -23q-14 0 -21.5 11.5t-7.5 25.5q1 10 2.5 18.5t1.5 17.5q2 28 2 54t2 48q9 100 19.5 199.5t18.5 202.5q4 40 10 74.5t17 49.5q-3 4 -3 8q1 11 14.5 18t30.5 11.5t33.5 6.5t24.5 3q2 0 4 0.5t4 0.5q13 0 22 -6.5t9 -18.5q0 -3 -6 -8.5t-15 -10.5q-5 -3 -13.5 -3
t-16.5 -1t-14 -6t-7 -17q-8 -86 -15.5 -167t-15 -158.5t-15 -152.5t-14.5 -149q2 -6 5.5 -7.5t7.5 -1.5q13 0 22.5 -5.5t9.5 -13.5q0 -10 -18 -17q-14 -5 -20.5 -6t-14.5 -1q-6 0 -16 0.5t-27 0.5z" />
    <glyph glyph-name="backslash" unicode="\" horiz-adv-x="368" 
d="M329 46q-2 7 -3 11q-2 4 -2 7q-1 2 -1 3v-17q0 -1 -0.5 -2.5t-0.5 -5.5q-4 -5 -5.5 -16.5t-1.5 -16.5q-2 4 -2 10.5t-2 9.5q0 -2 -0.5 -5t-0.5 -5q-3 3 -3 9h-4q-1 4 -4 6.5t-4 5.5q-12 20 -26.5 37.5t-27.5 39.5q-20 34 -35.5 61.5t-27.5 51.5t-22 45.5t-19 42.5
q-8 23 -16 44.5t-17 44.5q-7 14 -11.5 28.5t-10.5 28.5q-11 29 -21 57t-18 61q-8 26 -8 51q0 20 6 37q9 10 18 10q5 0 9.5 -1.5t9.5 -1.5q7 0 12 -7t5 -12q-1 -2 -1 -7q0 -4 1 -8.5t2 -9.5q20 -46 45.5 -87.5t42.5 -86.5q27 -51 48 -103t41 -105l14 -37q2 -11 7.5 -22
t7.5 -21q11 -29 19.5 -56t17.5 -55q2 -3 3.5 -6.5t1.5 -7.5q0 -3 -1 -5v-6q-2 2 -6 15q-3 6 -5 13q-2 0 -2 2v-9q0 -8 -2 -10z" />
    <glyph glyph-name="bracketright" unicode="]" horiz-adv-x="173" 
d="M182 695q-11 -125 -20.5 -256t-21.5 -265q-2 -30 -5.5 -61.5t-6.5 -69.5q0 -5 -0.5 -15t-2.5 -20.5t-6 -19t-13 -9.5q-12 -2 -25 -2h-26h-28q-10 0 -19 1t-15 3q-5 1 -7 5.5t-2 9.5t2.5 9.5t9.5 5.5h15q17 2 22.5 3.5t7.5 6.5q2 7 3.5 20.5t3 29l3 31t2.5 26.5
q10 117 17.5 200t13 140t9 91.5t5.5 55t3 31t2 18.5v5q0 10 -5 12.5t-14 2.5h-4q-13 0 -19 4.5t-6 10.5q0 8 8 15.5t24 11.5q-1 0 4.5 0.5t14 1t17.5 1.5t15 1q19 0 31.5 -3.5t12.5 -24.5v-7z" />
    <glyph glyph-name="asciicircum" unicode="^" horiz-adv-x="344" 
d="M313 697q2 -5 4 -15.5t4 -13.5q-2 2 -6.5 7t-8.5 7q1 -4 3.5 -10t4.5 -9q5 -11 7 -14.5t1 -3.5q-2 0 -5.5 3.5t-3.5 1.5q0 -4 1 -7q2 -2 2.5 -5.5t4.5 -5.5v-4l-12 -2q0 -6 -1 -6q2 -2 3 -4.5t1 -7.5q0 -2 -1 -3q-12 13 -25.5 31l-28.5 38t-31 40.5t-33 38.5l-1 -1
q0 -1 -0.5 -1t-0.5 -1q-11 -18 -26.5 -41t-35 -43.5t-41.5 -35.5t-45 -16q-5 2 -12.5 5.5t-7.5 11.5q0 18 12 45t28 54t31.5 50.5t22.5 35.5q3 6 9 15.5t14 18t17.5 15t21.5 6.5q11 0 21 -3.5t17 -11.5q9 -10 26 -31.5t34 -45.5t29.5 -47.5t12.5 -36.5v-4z" />
    <glyph glyph-name="underscore" unicode="_" horiz-adv-x="263" 
d="M281 117q0 -3 -2 -6.5t-7 -5.5q-11 -3 -24 -4t-28 -1q-23 0 -49 2t-51.5 4t-49.5 4t-42 2q-17 0 -28 -2t-14 -7q1 1 -1 -3t-4 -4q-1 0 -1 4t6.5 14t12.5 13q8 4 19.5 5.5t25.5 1.5q22 0 49.5 -3t55 -7t54 -7t47.5 -3q19 0 31 3z" />
    <glyph glyph-name="grave" unicode="`" horiz-adv-x="99" 
d="M66 704q-3 2 -6 6t-5 6q-3 0 -11.5 10.5t-10.5 15.5q0 2 -8 13t-8 30q0 2 2.5 4.5t4.5 2.5q6 2 9 2q5 0 12.5 -7t14.5 -17.5t12.5 -22t8.5 -20.5v-9q0 -5 -0.5 -10t-3.5 -7q-3 1 -5 1q-3 0 -6 2z" />
    <glyph glyph-name="a" unicode="a" horiz-adv-x="329" 
d="M80 164h2q1 0 1 1q28 52 52 97t53 98q1 7 8.5 16t9.5 11q-8 -4 -18 -14t-19.5 -23.5t-19 -29t-17.5 -30.5q-15 -29 -29.5 -64t-22.5 -62zM151 278q0 2 -1 -1.5t-3 -6.5q2 1 6.5 4.5t4.5 8.5q0 -2 -3 -1.5t-4 -3.5zM180 328q2 -2 6 6l-1 -1q-2 -2 -2 -1zM165 299q4 6 4 8
l2 6q-1 -1 -3 -3.5t-4 -2.5q-1 -1 -3.5 -6.5t-2.5 -7.5q0 -1 1.5 0.5t2.5 1.5zM146 260q3 1 3.5 3.5t2.5 4.5q8 6 4 6l-7 -5q-2 -2 -5.5 -4.5t-3.5 -7.5q0 2 2 2q1 0 1.5 0.5t2.5 0.5zM155 262l1 1q2 2 3 2q-1 1 -1 2v1q1 1 -1 -1.5t-2 -4.5zM156 260q2 1 4 2.5t3 3.5z
M167 264q-2 0 -5 -3t-2 -3q2 0 4.5 2t2.5 4zM393 229q-1 -1 -3 -8q-1 -4 -2 -7l-3 -4q-2 -1 -3 -2q-2 -2 -2 -4q-3 -5 -7 -9t-6 -7q1 0 -1 -3t-3 -2q-1 -2 -3 -5t-4 -5q-9 -10 -16 -19q-6 -8 -11.5 -14t-7.5 -7q-3 -2 -6 -3t-6 -6q-8 -9 -14 -11t-17 -7q-14 -3 -16 -3
t-3 0.5t-2 0.5q-3 -1 -5.5 -1.5t-5.5 -0.5q-17 0 -31 13.5t-20 29.5q-7 17 -9.5 45t-2.5 57q0 14 0.5 27.5t1.5 24.5q-2 -2 -3 -5.5t-1 -4.5q-6 -19 -17 -43.5t-23.5 -47t-23.5 -37.5t-16 -14q-5 -5 -7.5 -9.5t-7.5 -7.5q-8 -3 -16 -3q-15 0 -26 8t-15.5 19t-4.5 24
q3 47 19.5 88.5t36.5 73.5q15 23 34.5 45t48.5 36q12 5 24 5q14 0 28.5 -4.5t25.5 -10.5q6 -4 6 -7q0 -1 -0.5 -1.5t-0.5 -1.5v-1q-4 -4 -10 -4q0 -5 2 -5.5t2 -4.5q-1 -5 -1.5 -7t-0.5 -7v-7q0 -2 -0.5 -3.5t-0.5 -3.5v-45q0 -26 0.5 -57t2 -58t3.5 -45.5t6 -18.5
q6 -1 27 19.5t46 50t50 62.5t39 57q2 5 5 9q2 3 5 6t7 3q5 0 6 -7q1 -3 3 -5t3 -7q1 -4 1 -10q0 -9 -5 -22l-4 -9q-6 -2 -4.5 -4.5t-4.5 -8.5q-1 -2 -8.5 -13t-11.5 -16l-2 -2l-2 -2q0 2 2.5 7.5t7.5 10.5q1 1 1.5 1t1.5 2q0 1 2 3q1 1 1 2q0 2 2 4q-1 -2 -2.5 -2.5
t-2.5 -2.5q0 -2 -2 -2l-9 -13q-5 -5 -8 -10.5t-7 -11.5q1 1 3 4t4 2zM377 250q0 -1 0.5 -2t0.5 -2t6 4.5t5 4.5h-5q-3 -3 -3 -5h-4zM374 245q-4 0 -6.5 -5.5t-1.5 -5.5q3 0 5 6t3 5zM366 222q0 3 3 4.5t3 4.5q0 1 -0.5 1.5t-0.5 1.5q-4 0 -4 -2.5t-1 -3.5t-1.5 -3t-0.5 -1
q-3 0 -7 -10l-4 -10q3 0 5.5 4.5t4.5 6.5q2 4 2.5 4.5t0.5 2.5zM356 197q3 0 3 5q-3 -3 -3 -5zM367 210l-1 -3q3 2 4 4t3 4t2 3t-2 3l-7 -7t-6 -8l2 -2v-1q1 0 2.5 3.5t2.5 3.5zM360 186q4 4 5 11q1 2 2 3t1 5q-2 -5 -5 -7.5t-5 -8.5q0 -2 2 -3q-3 0 -3 -5z" />
    <glyph glyph-name="b" unicode="b" horiz-adv-x="271" 
d="M170 424q54 -17 85 -58t31 -98q0 -43 -19 -88q0 -6 -3 -9q-2 -3 -4 -6.5t-5 -7.5q-2 -5 -7 -11t-5 -7q0 -4 -2 -5t-3 -3q-1 -1 -0.5 -2.5t-1.5 -2.5h-5q-2 0 -2 -2v-2q-2 0 -7 -5l-19 -11q-2 -1 -4.5 -1.5t-2.5 -3.5q-3 0 -5.5 -1.5t-5.5 -1.5h-5q-2 0 -4 -1t-4 -1
t-3.5 1t-4.5 1q-1 0 -2.5 -1.5t-3.5 -1.5q-3 -1 -5 -1h-6q-5 2 -8.5 2h-10.5q-2 -4 -2 -7.5t-1 -8.5q0 -4 -1 -7.5t-1 -7.5l-2 -16q0 -10 -4 -14q-1 -5 -6 -7q-4 -4 -2.5 -6.5t-4.5 -5.5q-4 2 -4 5q-1 0 -4 -3l-2 -2q0 1 0.5 2t0.5 2q-3 -2 -3 -3.5t-3 -1.5q-2 0 -3 -1
t-3 -1q-4 0 -4 2q-2 -2 -1.5 -3.5t-1.5 -2.5q-2 1 -2 4q-3 0 -2.5 -1.5t-1.5 -1.5q-1 0 -1 1t-2 1q-1 0 -1.5 -0.5t-2.5 -0.5t-3 1q-2 -2 -2 -5q-1 -1 -3.5 -1t-2.5 -1q-1 0 -1.5 1t-1.5 1t-2 -5q-1 -2 -2 -2t-1 -1q-3 0 -5 1q-1 0 -3 4q-1 -1 -1 -6q-1 0 -1.5 0.5t-1.5 0.5
q-2 0 -2.5 -2t-2.5 -4q0 -3 2 -5t2 -4q-2 -1 -3 -1t-3 -2q-2 0 -2 2.5t-2 4.5q-4 7 -5 17t-1 20v38q6 68 14 145t18 157.5t22 162.5t26 161q4 20 8.5 39.5t10.5 40.5q5 5 5.5 12t8.5 12q4 2 9 3t10 3t20.5 3t20.5 1h5q14 0 20 -9.5t6 -23.5q0 -3 -0.5 -5.5t-0.5 -5.5
q-11 -83 -25.5 -166.5t-22.5 -168.5zM130 127q17 7 31.5 21t25.5 32t17.5 39t6.5 42q0 27 -12 49.5t-41 33.5q-2 -21 -6 -49t-8.5 -57t-7.5 -55t-4 -43q0 -4 -1 -6.5t-1 -6.5zM67 143q2 4 2.5 10.5t0.5 10.5t1.5 9t1.5 10q0 6 -3 9q-2 -2 -4.5 -5t-2.5 -2q0 -2 -0.5 -5
t-0.5 -4t-0.5 -2.5t-0.5 -3.5q0 -3 1 -3q1 4 1 7t2 4q0 -6 -1 -11.5t-1 -12.5q2 0 2 0.5t2 0.5q0 -2 -1 -4t-1 -4t2 -4zM65 117q2 10 2 15l-1 5q-2 -6 -4 -16q-2 0 -2 -2v-5q2 0 2.5 1t2.5 2zM77 129q-1 0 -1 4q-1 1 -1 2v1q-2 0 -3 -1q0 -1 -0.5 -2t-0.5 -3q0 -3 2 -3
q0 -2 -1 -3v-5q1 0 3 -2v4q-1 0 -1 1q-1 0 -1 2q1 0 2 1.5t0 1.5q0 2 2 2zM59 155q-2 -4 -2 -12q3 1 3 5v6q0 1 1 2t1 3q-1 1 -1 2t-0.5 1.5t-0.5 1.5q-2 -4 -2 -6t1 -3zM216 180q2 4 2 5q0 2 -0.5 3t-0.5 3q0 4 -1 4t-2 -5.5t-1 -7.5zM58 137q0 2 -4 3q-2 -4 -2 -6
q0 -3 2 -5zM63 196q-4 0 -4 -3t3 -4q1 1 1 7zM37 110q4 0 4 2t-2 4q-2 -2 -2 -6zM65 162q0 6 2 6q1 0 1 -4q0 -2 -3 -2zM207 105q3 3 6 3q0 -4 -3 -4q-1 0 -1.5 0.5t-1.5 0.5zM73 100q2 2 2 4q0 3 -2 4v-8zM67 184q0 -1 1 -1h2l-1 -2h-1q-1 0 -1 -0.5t-2 -0.5q0 3 2 4z
M42 126q3 0 3 2t-1 3q0 -2 -1 -3t-1 -2zM73 140q0 -1 0.5 -0.5t0.5 1.5v2q-1 0 -1 -3z" />
    <glyph glyph-name="c" unicode="c" horiz-adv-x="318" 
d="M427 305q-1 -5 -1 -7v-4t-0.5 -4t-2.5 -7q-25 -42 -52.5 -77.5t-58.5 -61t-65 -40t-72 -14.5q-16 0 -32 3q-21 3 -41 11.5t-35 23.5t-24.5 38t-9.5 55q0 36 16 70t43 61t62.5 43t75.5 16q12 0 24.5 -1.5t24.5 -5.5q14 -4 19.5 -10.5t5.5 -13.5q0 -10 -10.5 -17.5
t-28.5 -7.5q-10 0 -15 1q-2 0 -2.5 0.5t-2.5 0.5q-23 0 -45.5 -30t-33.5 -73q-3 -12 -5 -24.5t-2 -24.5q0 -22 9 -38.5t34 -18.5h5q23 0 49.5 16.5t53 43t51 59.5t44.5 65q1 1 3 1q4 0 6 -4t2 -6q1 -2 3.5 -3.5t2.5 -4.5t1.5 -6.5t3.5 -3.5z" />
    <glyph glyph-name="d" unicode="d" horiz-adv-x="356" 
d="M77 34q-15 0 -26 9t-18 23t-10.5 30.5t-3.5 30.5q0 69 19 126t50.5 98t71.5 64.5t83 25.5l2 14q0 2 0.5 4.5t0.5 4.5q4 25 9.5 59.5t12.5 72t15.5 74.5t18.5 69q2 10 12 15.5t19 5.5q5 0 7 -1q9 8 23 12.5t27 4.5t22 -5.5t10 -19.5q2 -1 2 -7t-2 -13t-3 -10
q-16 -81 -30 -168.5t-27 -175.5t-24.5 -173.5t-21.5 -162.5q-1 -7 -2 -18t-1.5 -22.5t-0.5 -21.5v-15v-7t2 -8q-2 0 -4.5 1.5t-4.5 1.5t-2 -2v-1q-2 1 -4.5 4t-4.5 7v-8q-4 0 -4.5 4.5t-2.5 8.5q0 -8 1 -13q-2 0 -4.5 2.5t-2.5 1.5q0 -2 -0.5 -2t-0.5 -2q-1 1 -3 5
q-1 -2 -5 -2q-2 0 -3 1q-1 0 -2 -1q-2 -2 -2 -3q0 2 -1.5 3.5t-1.5 3.5l-2 -4q-3 -2 -7.5 -6t-4.5 -6q-2 3 -8 6l-10 5v-9q-3 0 -7 9q0 -4 0.5 -6.5t0.5 -7.5q-3 5 -4.5 8l-2.5 5t-1 1q0 -2 -0.5 -2.5t-0.5 -2.5l-4 3q0 -2 0.5 -6.5t0.5 -8.5q-2 2 -2.5 3.5t-3.5 1.5v-8
q-7 16 -9 40t-2 50q0 35 3 68.5t5 56.5q-6 -14 -18.5 -33.5t-29.5 -37.5t-37 -31t-41 -13zM229 337q-30 -21 -54 -49t-41.5 -59.5t-30 -65t-19.5 -64.5q0 -4 1 -8t5 -4q27 15 49 47.5t39 70t29.5 74t21.5 58.5z" />
    <glyph glyph-name="e" unicode="e" horiz-adv-x="293" 
d="M358 260q1 4 3 6.5t4 5.5q-3 -2 -7.5 -9t-4.5 -12q0 1 -4 -5l-6 -9q2 3 5.5 10t3.5 12q0 2 -1 3q-5 -5 -7.5 -15t-7.5 -10q-2 -4 -4 -6.5t-2 -7.5q1 0 2 1t3 2q-2 -1 -2 -2.5t-2 -3.5q3 2 4.5 6t6.5 4q0 3 5.5 9t5.5 5q-2 -3 -3 -8.5t-4 -4.5q-2 -2 -4 -8.5t-5 -6.5
q-4 -2 -5.5 -7.5t-2.5 -11.5t-2 -11.5t-2 -6.5q-6 -8 -18 -22t-30 -29t-41.5 -28.5t-51.5 -19.5q-4 -2 -8 -2h-6q-8 0 -12 3t-11 3q-2 0 -6 1t-6 1q-1 0 -0.5 -1t-1.5 -1q-1 2 -6 2h-4q-5 2 -9.5 3t-9.5 3q6 -6 15 -7.5t18 -1.5q2 -1 4 -1q2 -1 3.5 -1t3.5 -1
q-8 0 -19.5 1.5t-21.5 4.5q2 -2 4.5 -2.5t3.5 -2.5q-5 2 -8 1.5t-5 1.5t-4 2q-5 0 -8 4t-8 4v-5q-28 25 -41 55.5t-13 63.5q0 32 14.5 68.5t39 68t57.5 52.5t70 21q7 0 11 -2t7 -4.5t6.5 -5.5t8.5 -6q0 1 -0.5 1.5t-0.5 1.5q1 1 3 1q5 0 5 -8t2 -12q2 -6 7.5 -14.5
t5.5 -28.5q0 -12 -5 -29t-17.5 -32t-35 -26t-57.5 -11q-11 0 -21 1t-18 3q-6 -18 -6 -32q0 -29 18 -44t47 -15q35 0 70 23.5t64.5 54.5t51 61t30.5 43l8 10q4 4 6 4t3 -2.5t5 -4.5q-3 -3 -3 -4t-1 -2.5t-1 -3.5v-4q0 -3 -1 -7.5t-5 -8.5q0 2 0.5 4t0.5 3q-2 0 -4 -6t-16 -33
q7 5 12 14.5t5 7.5t-1.5 -3.5t-1.5 -3.5q5 5 7 11.5t7 17.5q1 -1 1 -2v-1q0 -4 0.5 -4t0.5 -2q0 -3 -1 -6t-1 -5q0 -9 -7 -23.5t-18 -31t-24 -33.5t-24 -31q-1 0 -1 1v4q0 5 1.5 11t3.5 8q0 -1 1 -1l2 -2q11 15 24.5 34.5t20.5 33.5l6 6q2 2 2.5 5.5t1.5 5.5q-3 -4 -10 -11
t-7 -13q0 -5 -6 -9t-14 -20q-2 0 -2 4l-2 -1q1 2 2.5 3.5t1.5 4.5q0 2 0.5 3.5t0.5 4.5zM164 355q-13 -14 -24 -31.5t-17 -34.5q6 4 19.5 12t28.5 19t28 24.5t17 28.5q-3 1 -10 1q-12 0 -23 -6t-19 -13zM374 290q-1 3 5.5 11.5t8.5 12.5q-7 -8 -16.5 -18t-9.5 -24
q1 1 2.5 4.5t3.5 3.5q1 0 1 -3q2 4 2 7t3 6zM196 406q-3 0 -3 2q-2 -1 -10 -3.5t-12 -6.5q10 2 17 6q2 0 3.5 -0.5t3.5 -0.5t4 1t2 2h-5zM187 408q-15 -3 -26 -14q10 7 22 11.5t25 4.5q-2 1 -4 1q-2 -1 -5 -1q-1 1 -3 1t-5.5 -1t-3.5 -2zM249 382v-3t0.5 -6t1.5 -5.5t2 -1.5
v8q2 -2 3 -5.5t3 -5.5q0 3 -3.5 10t-6.5 9zM199 415q0 -2 -4 -1.5t-3 -1.5l17 3q-2 1 -6 1q-3 0 -4 -1z" />
    <glyph glyph-name="f" unicode="f" horiz-adv-x="250" 
d="M346 313q-4 -4 -10.5 -7t-12.5 -3q-2 -1 -5 -2q-4 -1 -8 -7q5 1 18.5 7.5t17.5 11.5zM348 300q2 2 -2 -2.5t-6 -6.5q-13 -7 -31 -14.5t-37.5 -15t-38 -14.5t-33.5 -12q19 -45 29.5 -113t10.5 -134q0 -35 -3 -66.5t-11 -54.5q-1 0 -2.5 -10t-2.5 -12q-1 -1 -4.5 -12
t-9.5 -23.5t-15 -23t-20 -10.5q-3 0 -5.5 -2.5t-5.5 -2.5q-2 0 -5 3q-8 -6 -11 -7.5t-16 -1.5q-7 0 -16.5 -5.5t-14.5 -13.5q-14 -6 -25 -6q-25 0 -43.5 20.5t-32.5 42.5q-8 26 -11 56t-3 62q0 40 4 83.5t10.5 86.5t14 84.5t14.5 78.5l6 32q14 75 29 144t30.5 127.5
t30.5 104.5t28 77q2 5 9.5 16t21.5 11h4q4 11 22.5 18t34.5 7q8 0 11 -1q3 1 9 1q20 0 20 -23q0 -12 -4.5 -27.5t-9.5 -32.5q0 -1 -0.5 -2t-0.5 -2q-31 -98 -55 -198t-44 -206q2 -2 4.5 -5.5t2.5 -8.5q54 12 107.5 32.5t101.5 48.5q3 3 7 3t4 -5h4q-3 -2 -3 -3.5t-1 -2.5
q1 0 2.5 0.5t2.5 0.5q-1 -2 -4.5 -10t-4.5 -7q-9 -6 -12.5 -8t-6 -3.5t-6 -3.5t-12.5 -9q6 0 11 4.5t11 4.5q-1 -2 -3 -3t-3 -3q5 2 10.5 6.5t5.5 3.5l-3 -6q-6 -4 -12 -7q-4 -2 -7 -4q-2 0 -6 -3t-6 -5q-18 -11 -26 -15t-11.5 -5t-4.5 -1.5t-5 -4.5q6 4 19 7t24 12z
M328 314q0 -4 1 -4q2 0 5 2.5t8 4.5q0 1 2 4t1 3q0 -3 -7 -3q-3 0 -6.5 -2.5t-3.5 -4.5zM89 -248q-2 -3 -5 -3.5t-3 -2.5l2 -3q2 2 4 2.5t2 1.5v5zM118 -175q12 16 20.5 39.5t14.5 51t8.5 58t2.5 60.5q0 43 -5 82t-14 68q-12 -63 -21.5 -121.5t-13.5 -125.5q0 -6 -0.5 -12
t-0.5 -13q0 -42 9 -87zM39 -181q0 -2 2 -2q3 0 3 2q2 -1 2 -3t1 -2q-1 3 -2.5 6.5t-1.5 7.5q-2 2 -2 3.5t-3 1.5q0 -1 1 -2q0 -1 1 -2q0 -1 -0.5 -1t-0.5 -2t-0.5 -2t-1.5 -2q-4 5 -5.5 11t-3.5 9q1 -3 1 -9v-9q1 -1 0.5 -2.5t1.5 -3.5q0 -1 -1 -1.5t-1 -2.5q0 -1 1 -2t2 -1
q0 1 1 1t1 2q2 0 2 -3q3 -2 3 -3t-0.5 -1.5t-0.5 -1.5q0 -3 1 -3t1 1t1 2q-1 1 -2.5 6t-1.5 8q0 1 1 2t2 1q-1 0 -1 -1v-2zM220 47q-1 4 -1 13v15q-2 -2 -2 -5v-4q0 -3 -1 -3q0 2 -0.5 5t-2.5 3v-5q2 -2 2 -8q0 -3 -1 -3q3 -3 2.5 -4t3.5 -4zM225 37q0 3 -1 3t-1.5 -0.5
t-1.5 -0.5t-1 2v1l-1 -1h-2q0 1 -0.5 3.5t-1.5 2.5q0 -1 -0.5 -1t-0.5 -1v-1v-2q0 -1 1 -1q-2 0 -3 -0.5t-2 -0.5h-2q0 -4 1 -4l3 3q3 0 3 2q0 -1 -0.5 -2t-0.5 -3t2 -2q0 5 1 5t1 -1q0 -2 1 -2q-2 -2 -2 -5q4 0 4 4q0 2 4 2zM203 138q0 2 -1 3v6q0 2 -1 5t-2 3t-1 -5l2 -4
v-5.5t2 -6.5zM197 129q2 0 3 1q1 0 1 1q-1 0 -2 6.5t-2 6.5q-1 -1 -1 -2v-5q0 -2 0.5 -3.5t0.5 -4.5zM23 -170q0 3 2 3q0 1 -0.5 1t-0.5 1v1q-1 0 -3 1.5t-2 3.5h1l2 2q0 2 -5 2l2.5 -7.5t3.5 -7.5zM215 21q0 -3 3 -3q0 1 -0.5 2.5t-0.5 2.5q2 0 2 2q-1 0 -1.5 1t-1.5 1h-3
l-2 -1h-1zM29 -147q2 -4 3 -10.5t1 -5.5t1 1t1 2t-2.5 8.5t-3.5 8.5v-4zM24 -122q-2 0 -2 -5q0 1 1 0t1 -2v-2q0 -1 1 -2q0 -1 -0.5 -2t-0.5 -3t2 -2v6q-2 10 -2 12zM14 -88q0 -2 -0.5 -3.5t-0.5 -2.5q0 -3 3 -3v4t-2 5zM222 45l3 -3q-1 3 -1 6t-1 3q-1 -1 -1 -6zM195 125
q0 7 -3 8q1 -1 1 -4q0 -4 2 -4z" />
    <glyph glyph-name="g" unicode="g" horiz-adv-x="400" 
d="M500 309q0 -6 -20.5 -22.5t-46 -36.5t-48.5 -40t-27 -32q-6 -146 -54 -251t-148 -171q-7 -4 -17.5 -7.5t-22.5 -3.5q-13 0 -22 4q-2 1 -4.5 2t-3.5 1q0 -2 -0.5 -2t-0.5 -1q-11 5 -20 14.5t-9 23.5q0 1 1 2q0 1 1 1v4q2 0 2 -2q2 -3 2 -5t2 -4q0 1 0.5 1.5t0.5 2.5
t-0.5 3.5t-0.5 3.5q-1 2 -1 5q0 1 3 1q1 0 2 -1.5t3 -2.5q0 2 -0.5 3.5t-0.5 2.5q2 0 4 1q3 2 4 3v6q0 2 4 -2q2 0 2 3v6q-2 5 -2 11.5v13.5q0 5 1 12t1 8q0 10 5 22t7 22q-2 0 -2.5 -3t-2.5 -3q0 2 1 3t1 3q-3 0 -7 -8t-7.5 -18t-6 -18.5t-3.5 -10.5q1 6 4 18t7 24t8 21.5
t6 9.5q17 42 42 85t53 82t54.5 71.5t46.5 53.5v55v27.5t-1 27.5q-11 -5 -32.5 -24.5t-46.5 -40.5t-51.5 -38t-48.5 -17q-2 0 -2.5 1t-2.5 1q-4 0 -8 -2t-10 -2q-15 0 -28 10t-13 27q0 32 22 67t57.5 64.5t79.5 49t88 19.5q10 0 20 -1t18.5 -4t14.5 -9.5t7 -17.5q0 -5 -1 -10
t-1 -10q0 -6 0.5 -20.5t1 -32.5t1.5 -37.5t2 -35.5q34 26 76 54t81 46l-10 -19q-2 -5 -8 -8.5t-6 -10.5q2 0 2.5 0.5t2.5 0.5q0 3 5 3h-1q-1 0 -1 0.5t-1 0.5q0 5 7 7.5t7 1.5q0 -2 3.5 -2t1.5 -1h-4q-5 0 -6 -3t-3 -5t-4 -1.5t-2 -1.5t2 -1.5t2 -2.5q-2 0 -3 -2t-1 -3
l-1 -1v-2h-4q0 1 -2 -1q-1 -1 -2 -3q1 0 4 1.5t2 0.5q-2 -1 -1.5 -2.5t-1.5 -3.5q2 0 -0.5 -2t-0.5 -2h1q1 -1 1 -2q0 1 0.5 1.5t0.5 2.5q2 2 1.5 4.5t2.5 2.5q2 4 7 8t4 3l-5 -5t-3 -6q0 -2 1 -3zM116 -192q25 17 53 55t51.5 83t40 89.5t19.5 75.5q-20 -28 -47.5 -65
t-53 -77.5t-44 -82t-19.5 -78.5zM143 288q38 24 69 56t65 60q-13 -5 -30.5 -17.5t-36 -29t-36.5 -35t-31 -34.5zM295 -70q10 16 13 34q-5 -11 -12 -21t-10 -21q-1 -2 -2.5 -6.5t-2.5 -3.5v5q2 2 2 3q-2 -2 -6 -7t-4 -7l-7 -7q0 -10 -9.5 -19.5t-11.5 -16.5q1 0 1 0.5t2 0.5
q-2 -1 -3 -4t-4 -5q0 2 1 2q-1 0 -3 2q-2 -3 -4.5 -5.5t-2.5 -5.5l7 9q0 -4 -2 -5q-2 -4 -6.5 -8t-2.5 -4q0 -1 -1.5 -3.5t-3.5 -6.5q2 2 4.5 3.5t2.5 3.5q3 0 3 1t-0.5 1.5t-0.5 1.5q4 0 11 9t9 11q11 16 22.5 33.5t20.5 35.5zM89 -67l2 -1v-1q-2 -4 -4.5 -8t-2.5 -10
q-3 -5 -6 -10.5t-5 -11.5q2 11 7 21t9 21zM214 -190q0 2 1 3t1 2l-15 -14q3 0 5.5 3.5t7.5 5.5zM183 -219q5 2 7 9q-4 -3 -7 -9zM197 -205q2 0 2 1v1q-2 -1 -4.5 -3t-4.5 -4q7 0 7 5zM189 -192q0 1 3 4q-2 0 -4.5 -3t-1.5 -2q1 -1 1 -2t1 -1zM198 -197q4 0 7 5q-6 -3 -7 -5z
" />
    <glyph glyph-name="h" unicode="h" horiz-adv-x="480" 
d="M557 246l3.5 7t1.5 5q-3 0 -5 -3.5t-4 -5.5l-4 -4t-3 -2q-2 0 -3.5 -5.5t-1.5 -8.5q4 1 4 8q1 0 5 2t7 7zM336 167q3 0 3.5 4t0.5 9v6q-2 1 -1.5 -4.5t-1.5 -5.5q0 3 0.5 7.5t0.5 7.5t-1 4q0 1 -1 -0.5t-1 -3.5v-23q0 -2 2 -4q0 2 -1 3zM587 286q2 2 4.5 7l3.5 7
q-10 -4 -10 -11q0 -1 2 -3zM348 207q-1 0 -3 -2q-1 -1 -1 -2q0 -4 2 -4t2 8zM350 217q-1 -1 -3 -1h-2q0 -2 1 -4t2 -2zM342 195q0 2 -0.5 3.5t-0.5 3.5l-2 -6q0 -1 1 -1h2zM332 127q0 1 0.5 1.5t0.5 1.5q0 2 -1 4.5t-3 2.5q2 -2 2 -4t0.5 -3t0.5 -3zM622 347q-2 -5 -5.5 -7
t-5.5 -10q2 0 4 2q0 -4 -5 -9l-9 -15q2 0 4 2.5t2 1.5q0 -5 -6 -9q3 1 4 2l3 3q-6 -11 -19 -24.5t-13 -22.5l-8 -10q5 0 10 9l4 10q2 3 8 11.5t10 7.5q0 -1 -0.5 -1t-0.5 -1v-1q1 0 3 2l4 4q-4 -6 -8.5 -12.5t-9.5 -11.5q-1 0 -4 -4.5t-7.5 -10.5t-9 -10.5t-8.5 -4.5
q0 -3 -1 -3v-1q0 -1 0.5 -1t0.5 -1l7 7t7 6q2 0 1.5 2t0.5 2q4 2 5.5 6.5t4.5 4.5q-6 -11 -12.5 -20.5t-13.5 -18.5q-1 0 -2.5 -3.5t-2.5 -1.5q-3 -2 -3 -7q-1 -1 -6.5 -9t-12 -16.5t-11.5 -15.5t-5 -5q0 3 2.5 3.5t2.5 5.5q-2 -2 -6.5 -6t-4.5 -9q0 -4 -8 -13.5t-19 -19
t-21 -18t-14 -11.5q-14 -9 -30 -15.5t-33 -6.5q-29 0 -49.5 21.5t-20.5 72.5q0 32 4.5 69.5t4.5 71.5v16.5t-2 16.5q-13 -22 -37 -51t-47.5 -58t-41 -55.5t-17.5 -42.5q0 -6 -9.5 -16.5t-12.5 -12.5q0 -1 -0.5 -1.5t-0.5 -1.5q-2 -8 -5 -18.5t-3 -15.5q-4 0 -4 8
q-1 -2 -1.5 -5t-2.5 -3v5q-1 -2 -3 -3.5t-2 -2.5q-1 0 -1 3v4q0 2 -3.5 1.5t-4.5 0.5l-7 -7q-1 1 -2 7l-1 -3l-3 3q0 -4 -3 -4q-1 0 -1 -1v-2q-5 0 -5 -8q-1 0 -6 2t-5 4t5 3t6 2h-6q-6 0 -6 2q0 -1 -0.5 -1.5t-0.5 -1.5q0 -2 0.5 -3.5t0.5 -2.5q-1 0 -1.5 1t-2.5 1
q0 -4 -1 -4t-1 2v3q-1 1 -1 4t-2 4q-2 -1 -2 -3v-4q-3 3 -3 5q0 -5 0.5 -7t0.5 -5q-6 0 -6 7q0 1 -1 2.5t-1 3.5q-1 -2 -1 -4v-15q-1 0 -2 4.5t-2 6.5q-2 1 -3 3q-2 1 -2.5 2t-1.5 1q0 -6 -2 -5.5t-2 -4.5q0 -1 1 -3q0 -2 0.5 -3t0.5 -2q-5 3 -10.5 16t-5.5 33v6.5t1 7.5
q9 72 19.5 148t21.5 152.5t21.5 151t19.5 142.5q2 15 8 30t16 26.5t23 19t28 7.5q5 0 12 0.5t14 0.5q15 0 28 -3.5t13 -17.5q3 -6 3 -20q0 -21 -5.5 -58.5t-14 -84.5t-19 -99t-21 -102t-19.5 -95t-14 -77q14 21 30.5 47.5t36.5 49.5t44 39t54 16q25 0 41 -9.5t25 -25
t12.5 -36.5t3.5 -44q0 -32 -4.5 -66t-8.5 -62q-1 -2 -1 -7q0 -3 1 -3q8 1 26 21.5t41.5 50.5t48.5 65t48 66q1 1 1.5 2.5t2.5 1.5q1 0 1 -0.5t2 -0.5v2l1 1q1 0 1.5 -1t1.5 -1l5 5t3 1q2 0 3 1q2 -2 3 -2q3 0 6.5 2t5.5 3l1 1q0 -1 2 3v-6q2 0 3.5 -3t4.5 -3z" />
    <glyph glyph-name="i" unicode="i" horiz-adv-x="213" 
d="M173 349q-1 -9 -7.5 -32t-13.5 -51t-12.5 -55t-5.5 -44q0 -13 4 -17q2 -2 5 -2q8 0 22.5 12.5t31 31t34 40.5t32 41.5t24.5 34t12 17.5q4 5 9 5q8 0 14.5 -8t6.5 -18q0 -7 -4 -12l-14 -20q-18 -27 -39 -56t-43.5 -53t-47.5 -39.5t-51 -15.5q-7 0 -13.5 1t-14.5 4
q-7 3 -18 8t-21.5 16t-18 29t-7.5 47q0 21 5.5 50t14.5 56.5t20.5 49.5t23.5 29q4 3 12 3q4 0 8.5 -0.5t9.5 -0.5q18 0 31.5 -12t13.5 -26q0 -7 -3 -13zM222 491q0 -19 -15 -33t-33 -14q-11 0 -20.5 8.5t-16.5 18.5t-11 18.5l-4 8.5q0 10 8.5 18.5t20 14.5t23.5 9t18 3
q14 0 22 -10t8 -35v-7z" />
    <glyph glyph-name="j" unicode="j" horiz-adv-x="160" 
d="M138 511q4 11 15 11t21 -7.5t10 -15.5q0 -11 -10.5 -13t-14.5 -2q-9 0 -15.5 7.5t-6.5 15.5q0 1 0.5 2t0.5 2zM102 396q7 16 20 22.5t24 6.5q16 0 16 -9q-6 -46 -8.5 -102.5t-6.5 -115.5t-11.5 -117.5t-23.5 -107.5q-8 -26 -25 -63t-43 -76t-62.5 -74.5t-83.5 -57.5
q-9 -6 -16 -6q-3 0 -4 1l18 10q-6 0 -19 -8.5t-27 -10.5q2 1 4 2.5t6 1.5q-1 -1 1.5 0.5t6 4t6 5t1.5 2.5q-6 0 -11.5 -4t-11.5 -6q-2 -4 -20 -9.5t-40 -5.5q-7 0 -10 1h-8q-9 0 -21 2t-20 10q5 -1 9.5 -1h9.5q44 0 80 22t63.5 56t46.5 75t31 79q18 58 31 117t27 118.5
t30.5 119t40.5 118.5z" />
    <glyph glyph-name="k" unicode="k" horiz-adv-x="318" 
d="M347 523q6 0 15.5 1.5t14.5 1.5q3 0 3 -1q0 -4 -7.5 -14.5t-18 -22t-21 -22.5t-15.5 -16q-18 -18 -32.5 -34t-27 -30.5t-25 -29.5t-25.5 -31q-10 -12 -10 -22t5 -16q34 -42 67.5 -83t76.5 -76q2 -2 6 -4t7 -4q-2 0 -3.5 0.5t-4.5 0.5h-3q-2 0 -4 1t-5 1q-4 0 -4 2
q-4 -2 -5.5 -3.5t-3.5 -1.5q-3 0 -9.5 1t-11.5 1q-6 0 -10 -2q1 -1 1 -3q0 -1 -3 -1q-22 0 -40.5 7.5t-34 19t-29.5 26.5t-27 30l-9 10q-5 -20 -7.5 -42t-2.5 -44q0 -20 2.5 -39.5t7.5 -39.5v-6l-2 1h-1q-1 0 -2 -2t-3 -3q-2 2 -1.5 4t-4.5 2q0 -1 1 -2t1 -3q-2 0 -3 1.5
t-3 1.5q-1 0 -1.5 1.5t-1.5 2.5l2.5 -5t2.5 -6q-2 0 -2 2l-1 1v-3q-1 0 -4 2t-4 4q2 -8 2 -10q-4 4 -8 4q0 -2 1 -3q-2 0 -2.5 0.5t-2.5 0.5q-1 0 -1.5 0.5t-1.5 0.5q-2 0 -1.5 -1.5t-1.5 -1.5v-4q-2 2 -5 4.5t-4 1.5q0 -4 -2 -6q-4 4 -5 4q-2 0 -3 1.5t-3 1.5
q0 -2 -5.5 -2.5t-7.5 -0.5q-15 0 -22.5 11.5t-8.5 26.5q-13 5 -17 25t-4 43q0 57 8.5 113t16.5 110q8 61 24 119.5t42 114.5q5 2 8 4t7 2t6 -1q2 7 4.5 16t6.5 16.5t10 12.5t17 5q5 0 10.5 -3.5t10.5 -3.5q3 0 4 1q19 -3 23 -15.5t4 -28.5q0 -19 -3 -35.5t-8 -32.5l-2 -6
q-18 -67 -31 -133l12 15q16 19 34.5 40t38 39t40 29.5t40.5 11.5zM114 57q-1 0 2 -1.5l5 -2.5q0 2 -2 4l3 1q1 0 1 3q0 2 1 3l2 -2q0 -1 1 -2l1 3q2 -3 2.5 -8.5t3.5 -6.5q0 2 0.5 2.5t0.5 1.5q0 4 -5 6q1 1 2.5 1t1.5 3v3q1 -2 2 -5.5t1 -7.5q3 -1 3.5 -3.5t3.5 -4.5
q-2 2 -2 8t1 10v3l-2 -2q-1 8 -3.5 18t-2.5 18q4 -2 3 -2q0 2 -2.5 4.5t-2.5 7.5q0 3 -2 5q-2 1 -1.5 2.5t-1.5 3.5q0 -2 0.5 -3t0.5 -2q0 -2 -1 -3q1 -1 1 -2t1 -1l-2 -4q-1 5 -2.5 15.5t-3.5 12.5v-5q0 -5 0.5 -10t0.5 -10q0 -1 1 -5t1 -8t-4 -4q4 -1 4 -3l-2 -4
q2 -4 2 -12v-4q-4 7 -5 17.5t-3 12.5q-1 -5 -1 -9.5v-7.5q-7 17 -7 27q-1 0 -1.5 -5.5t-0.5 -12.5q0 -10 1 -18.5t4 -8.5q-2 0 -2 -2zM132 137q0 -4 -0.5 -5.5t-0.5 -2.5l1 -3q2 -2 2 -6.5t2 -5.5q0 2 -0.5 5t-0.5 7q0 8 1 16t3 14q-2 0 -3.5 -5.5t-3.5 -13.5zM141 51l-1 1
q-1 0 -2 1v1q0 1 1 2q2 -2 2 -5z" />
    <glyph glyph-name="l" unicode="l" horiz-adv-x="268" 
d="M172 354q-1 -9 -2 -26t-2 -38.5t-2 -45t-1 -45.5q0 -28 2.5 -48.5t8.5 -25.5q1 -1 3 -1q9 0 29 19t45 49t52 66.5t49 71.5l3 5q13 20 23 20q5 0 10 -5q6 -6 8 -10.5t2 -7.5q0 -2 -0.5 -2.5t-0.5 -1.5q-1 -3 -8.5 -16.5t-17 -29.5t-19.5 -32t-16 -23q-53 -73 -94 -105.5
t-77 -32.5q-21 0 -40 10t-39 28q-23 21 -33 66.5t-10 107.5t9 136q8 66 27 133.5t45 122t56.5 90.5t60.5 41q5 1 8.5 1h7.5q28 0 44 -19t16 -61q0 -17 -3 -38q-9 -55 -23.5 -100t-33 -85.5t-41 -81t-46.5 -86.5zM282 782q-15 -23 -32.5 -67t-33 -93.5t-26.5 -96t-12 -72.5
q18 39 33.5 76.5t29 76t24.5 78.5t18 85q0 4 -0.5 9t-0.5 4zM156 186q-1 5 -1 12.5v15.5v35q0 1 1 2.5t1 2.5q0 2 1 3.5t1 3.5l-3 -5v3q1 6 2 20t1 25q0 10 -1 13q0 -1 -0.5 -6t-1.5 -12.5t-1.5 -15t-0.5 -13.5q0 -1 -0.5 -2.5t-0.5 -4.5t-0.5 -6.5t-0.5 -8.5
q0 -9 0.5 -20.5t1 -21.5t1.5 -16.5l1 -6.5v3zM154 174q-1 14 -1.5 28t-2.5 25v-15q0 -9 0.5 -18t3.5 -20zM156 145v14t-2 9q0 -2 -0.5 -4t-0.5 -4q0 -9 3 -15zM149 265q0 9 0.5 18t0.5 17q-1 -6 -2 -12.5t-1 -11.5zM142 263q0 -11 1 -15q0 1 0.5 2t0.5 3t-0.5 3.5t-0.5 3.5
t-1 3zM151 243l-3 -3q0 -2 1.5 -4t1.5 -4v11zM144 308q2 2 2 10q0 3 -1 3zM144 282q-1 1 -1 2v3l-2 -6zM139 234q0 2 -0.5 3t-0.5 3q0 -6 1 -6zM156 144v-1q0 -2 1 -2z" />
    <glyph glyph-name="m" unicode="m" horiz-adv-x="641" 
d="M773 352q-3 -6 -9 -17.5t-10 -14.5q1 2 2 4.5t1 4.5q-6 -8 -6 -10q0 -1 0.5 -1.5t0.5 -1.5q5 0 7.5 6.5t5.5 5.5q-4 -12 -7 -18.5t-5 -10.5q1 2 -10.5 -18t-30.5 -50t-44 -63.5t-51 -57.5q-17 -15 -39 -24t-50 -9q-14 0 -27.5 3.5t-25 13.5t-18.5 26t-7 42t2.5 52t2.5 37
v4q-10 -13 -23 -38t-29.5 -49.5t-37 -43t-45.5 -18.5q-43 0 -56.5 34t-13.5 98v60q-18 -24 -34 -60.5t-31.5 -71.5t-31.5 -60t-34 -25t-33 8.5t-25.5 21.5t-16 28.5t-5.5 30.5q0 42 7 81.5t18 86.5q3 12 8.5 25t15 23.5t22.5 17.5t31 7h6q14 0 28.5 -2t14.5 -14
q0 -8 -3.5 -17.5t-8.5 -22.5q-14 -34 -21.5 -70t-9.5 -72q12 19 26.5 48.5t32 57.5t36 47.5t38.5 19.5q7 0 10 -1q29 -8 44.5 -13.5t18.5 -28.5q4 -31 4 -73.5t4 -79.5q9 10 23 37t31 54.5t35.5 49t36.5 21.5q13 0 26.5 -2t25 -10.5t19 -25.5t7.5 -47q0 -15 -1 -33.5
t-2 -36.5t-2 -33t-1 -24q0 -14 3 -14q9 0 29 20.5t44 52.5t50.5 71t49.5 76q0 -2 1 -2h2q2 0 3.5 4.5t1.5 3.5q2 0 4 2t6 2q2 0 3 1t4 3q0 -4 2.5 -3.5t2.5 -1.5q0 -4 4 -4q1 0 2 0.5t2 0.5zM723 274q5 4 5 6q0 1 -0.5 2.5t-0.5 3.5q-2 -5 -6 -9t-4 -9q0 -2 -2.5 -5.5
t-4.5 -5.5q3 2 6 6.5t3 5.5t2 2t2 3zM700 237q5 -3 5 -2l2 5q-3 0 -3 2q-4 -4 -4 -5zM705 259q-2 -1 -2.5 -3.5t-0.5 -3.5q3 1 3 3v4z" />
    <glyph glyph-name="n" unicode="n" horiz-adv-x="421" 
d="M305 79q-17 0 -29 4t-26 19q-6 7 -8 19t-2 28q0 18 2 38t4.5 40t4.5 37.5t2 29.5q0 17 -5 18q-38 -44 -63.5 -92.5t-51.5 -102.5q-9 -26 -27 -26q-11 0 -23 12q-8 3 -14.5 4t-11.5 2t-8.5 3.5t-5.5 9.5q0 24 3 56t7.5 65.5t10.5 65t11 54.5q3 11 9 16t13.5 7t16.5 3t17 4
q7 6 16 6q11 0 18.5 -7.5t7.5 -17.5v-4q-2 -11 -5.5 -27t-7 -34t-7 -35t-6.5 -29q6 9 16 26t23 35t29 34t34 23q9 4 27 4q21 0 43.5 -7t29.5 -22q3 -7 4.5 -19.5t1.5 -27.5q0 -18 -1.5 -39t-3 -41t-3 -36.5t-1.5 -25.5t2 -9q5 0 20 14.5t35 38t44 53.5t48 62q4 7 10 7
q8 0 12.5 -12t4.5 -20q0 -5 -1 -6q-15 -26 -40 -60.5t-55 -65t-62 -51.5t-59 -21z" />
    <glyph glyph-name="o" unicode="o" horiz-adv-x="230" 
d="M345 364l2 -5q-15 0 -29 -5.5t-25 -9.5l1 2l-3.5 -3.5t-6.5 -2.5q0 -4 -4.5 -5.5t-8.5 -1.5q-5 -6 -12.5 -8t-7.5 -5q-3 -4 -7 -5q-4 -6 -19.5 -9t-25.5 -3q-6 0 -5 1t-2 2l-3 -1q3 -20 5 -36t2 -33q0 -14 -1.5 -28t-6.5 -31q0 -2 -1 -7t-2.5 -12t-3.5 -13.5t-6 -9.5
q-5 -9 -7 -17t-7.5 -15.5t-16 -16t-32.5 -18.5q-3 -1 -6 -1.5t-8 -0.5q-3 0 -6.5 0.5t-6.5 0.5q-10 1 -24.5 10t-20.5 23q-8 17 -11 35.5t-3 37.5q0 32 6 59q6 29 19 63t33.5 63.5t47 49t59.5 19.5h9q4 0 13 -1.5t19 -4t17.5 -6t7.5 -8.5q0 -3 -3 -6q-3 -1 -7 -1q-5 0 -8 1
t-7 1q-46 -21 -77 -74.5t-45 -119.5q0 -5 -1 -8q-2 -13 -4.5 -27.5t-2.5 -28.5q0 -17 4 -32q61 88 64 191v9q0 2 1.5 3.5t1.5 3.5q-1 2 -2.5 4.5t-1.5 3.5q0 5 6 5q5 0 8 -3q17 3 31.5 9t31.5 13q1 0 1.5 0.5t1.5 0.5q16 7 27.5 11t22 6.5t21.5 3.5t28 2q2 0 4 0.5t4 0.5
l-22 -6l23 -1zM312 355q17 5 29 5q-2 1 -7 1t-11.5 -1t-11.5 -2zM328 367q3 1 3 2t-3 1q-3 -3 -9 -3q1 -1 4 -1t5 1zM303 360q-1 0 -3.5 -0.5t-2.5 -2.5h4q2 0 2 3zM304 354q-3 0 -3 -3q3 0 3 3zM307 354q2 0 2 4q-2 -2 -2 -4z" />
    <glyph glyph-name="p" unicode="p" horiz-adv-x="301" 
d="M175 383q23 -5 46.5 -16t42.5 -27.5t31 -38t12 -46.5q0 -23 -10 -44.5t-26.5 -39t-38.5 -29.5t-46 -15q-3 0 -3 2q-2 0 -4 -0.5t-5 -0.5q-2 0 -7.5 0.5t-4.5 2.5q-1 1 -3 1q-5 0 -6 1l3 2q-2 0 -4.5 0.5t-2.5 1.5q-2 0 -2 0.5t-2 0.5q-13 -87 -24.5 -188t-20.5 -195
q0 -4 -2.5 -13t-6 -18t-7.5 -15.5t-8 -6.5q-2 0 -2 6q-5 -2 -5 -5.5t-2 -7.5q-2 1 -1.5 3t-1.5 3q0 -3 -3 -3q1 1 1 4q0 2 -4 3q-3 -3 -3 -7.5t-2 -4.5q0 2 -0.5 4.5t-0.5 4.5t1 3q-3 0 -3 -5q0 -1 0.5 -2.5t0.5 -3.5q0 -4 -3.5 -5t-3.5 -3q-2 2 -4.5 4t-2.5 4
q-2 -2 -3.5 -2t-1.5 -5q0 2 -4 4q-2 1 -3 2q-3 0 -3 -4q-1 2 -1.5 4t-2.5 2q0 -2 0.5 -3t0.5 -3t-4 -2q-2 0 -1.5 1.5t-0.5 0.5v-10q0 -1 -1.5 2t-1.5 1q0 -1 0.5 -1.5t0.5 -2.5q0 -3 -1 -3.5t-2 -1.5q-3 0 -9 5t-6 11q0 79 7.5 156.5t17.5 157.5q11 87 21.5 183.5
t24.5 188.5q3 18 17.5 27.5t22.5 9.5q7 0 18.5 -1t23 -4t20 -9t9.5 -15zM149 168q22 0 38.5 9t27.5 23.5t16.5 31.5t5.5 34q0 22 -19.5 41t-48.5 27q-2 -22 -5.5 -47.5t-6.5 -49t-5.5 -42t-2.5 -27.5zM170 130q1 -1 3 -1h1q0 1 -4 1z" />
    <glyph glyph-name="q" unicode="q" horiz-adv-x="330" 
d="M320 396q0 -1 0.5 -2t0.5 -2q0 -7 -7 -12t-18 -10.5t-23.5 -13t-24.5 -18.5q-14 -13 -33 -34t-38 -46t-33.5 -52.5t-18.5 -53.5q22 23 56 62.5t68 77.5q6 17 19 23t25 6q17 0 19 -7q7 -4 7 -12q0 -4 -1 -6q3 0 3.5 -4.5t2.5 -4.5t2 -2t-0.5 -3.5t-0.5 -3.5t-0.5 -2.5
t-0.5 -3.5q2 -6 2 -9q0 -4 -1 -8t-2 -10q0 -3 -0.5 -4.5t-0.5 -3.5q-4 -50 -14.5 -105.5t-21 -111.5t-19 -109t-8.5 -97v-4q0 -1 -0.5 -1t-0.5 -1v-2q-1 0 -2 1t-2 1q-4 -1 -4 -3q0 -3 3 -4q-3 -3 -4 -3t-5 2t-4 1q0 -2 -3 -2q-2 0 -4 -0.5t-2 -2.5q-1 0 -3 1.5t-4 1.5
t-2 -2t3 -5q-2 0 -2.5 1t-2.5 1v1l-1 2q-2 -2 -2 -5.5t-2 -3.5t-2.5 1.5t-1.5 1.5q-3 -3 -7 -5l-6 -6q-4 -1 -4 -7q-8 0 -14.5 5t-10.5 13q-5 9 -6 19q-3 25 -3 52q0 40 6 80.5t13.5 80.5t15 79t10.5 75q-9 -11 -19.5 -23t-22.5 -22.5t-25 -18t-26 -10.5q-12 0 -25.5 6
t-25.5 15.5t-20 22t-8 26.5v4q0 48 15.5 88.5t40.5 74t56.5 60.5t62.5 48q3 2 12 3t13 3q7 3 17 3q12 0 23 -5.5t20.5 -14t16.5 -19.5t10 -22zM173 -148q2 0 3 -1.5t1 -0.5q1 22 2 38.5t10 45.5q-1 -1 -2.5 -0.5t-1.5 -0.5q0 5 -1 5l-3 -8v-1q0 -1 3 -2q0 -7 -2 -15.5
t-3 -14.5q-2 0 -2 3q0 2 -3 4q7 3 7 7q0 3 -4 3q1 4 2.5 5.5t1.5 6.5q0 1 -1 2.5t-1 4.5q1 1 5 7t3 6t-2 1q-2 0 -2 2t0.5 2.5t0.5 2.5v7q0 2 1 4q1 0 1 5q0 2 -1 3q0 -1 -2 -7.5t-4 -14.5t-3.5 -17t-1.5 -15q0 -5 1 -6q-1 0 -2 -2.5t0 -2.5q-2 1 -2.5 -4.5t-1.5 -10.5l2 -1
q-3 -3 -3 -9q0 -3 3 -4v-5q0 -5 -0.5 -12t-0.5 -13q0 -9 3 -12l1 -6q-1 -1 -1 -3q0 -5 -1 -5q0 3 -0.5 4.5t-0.5 3.5v3q-1 0 -1 -13v-6.5t1 -6.5q0 -1 1 -1l4 -2q-4 -1 -4 -4q0 -4 3 -7q0 -2 1 -3v58l-2 -2l-2 -1v3v1q0 1 1 2zM197 -73q0 2 -0.5 2.5t-0.5 1.5q0 5 5 10
q-2 2 -2 4.5t-4 3.5q-3 -11 -2.5 -23.5t-1.5 -22.5l-3 -1q2 2 2 3t-0.5 1.5t-0.5 1.5v1q-1 0 -1.5 -3.5t-0.5 -5.5q1 0 1.5 -0.5t2.5 -0.5l-3 -1q0 -9 -0.5 -13.5t-0.5 -6.5v-3q-2 0 -2 -4t-1 -5q-3 -6 -3 -17q0 -3 -1 -3l3 -8q0 1 4 5v-9v-11t-1 -14q1 2 1.5 8.5t0.5 13.5
q1 1 2 1t1 1q1 -2 1 -6q0 -3 -0.5 -5.5t-0.5 -4.5q0 -4 1 -3q0 10 2.5 30.5t2.5 30.5q0 5 -2 5t-3 1q0 2 1.5 1.5t2.5 1.5q-4 1 -4 9q0 9 2 9v-2q0 -1 0.5 -1.5t0.5 -2.5v-9q4 1 3.5 5.5t0.5 6.5q-1 2 -1 10v12q0 5 -1 6zM173 -44q0 -3 1 -3q-2 -6 -3 -15t-1 -15
q0 -2 0.5 -3t0.5 -2q1 14 4.5 30.5t5.5 25.5l-4 -12t-4 -6zM161 -131q1 -3 2.5 -7t2.5 -6q0 3 0.5 8t0.5 9q0 9 -3 11q0 -4 -2 -10q-1 -3 -1 -5zM165 -82q2 -2 2 -4l4 32q-2 0 -2 -2q0 -6 -2 -16zM178 -124q-3 2 -2.5 7t-2.5 8v-7q0 -4 -0.5 -6t-0.5 -4q4 0 6 2zM162 -110
q4 0 4.5 5.5t0.5 10.5v6q-2 -4 -1.5 -8.5t-1.5 -8.5q-2 -1 -2 -5zM186 -96q0 2 1.5 5t1.5 5q-1 -2 -2.5 -3.5t-1.5 -3.5q0 -1 0.5 -1.5t0.5 -1.5zM184 -112q-1 2 -1 9q0 4 -1 4v-6q0 -5 2 -7zM198 -69q1 1 1 6q-1 -1 -1 -6zM171 -108q1 1 1 0h-1z" />
    <glyph glyph-name="r" unicode="r" horiz-adv-x="287" 
d="M276 133q0 -1 -7.5 -8t-19.5 -15.5t-28 -15.5t-32 -7q-9 0 -22 5t-25.5 14t-21.5 22.5t-9 30.5q0 24 12.5 55t27 60t27 53t12.5 34q0 3 -4 5.5t-9 4.5t-9.5 3.5t-5.5 1.5q-21 -35 -39.5 -65t-32.5 -52t-23.5 -35t-12.5 -16q-30 0 -30 27q0 2 1 3.5t1 3.5q10 13 22 31.5
t24.5 38.5t25.5 40.5t24 39.5q-16 11 -25 24t-9 48q0 4 3 22.5t11.5 39.5t23.5 37.5t38 16.5q14 0 26 -5.5t20.5 -13t13.5 -16.5t5 -15q0 -16 -6.5 -34t-14.5 -34.5t-14.5 -29t-6.5 -15.5q-1 -3 14 -8t33 -13t33.5 -21t15.5 -32q0 -26 -13 -58t-28.5 -63t-28.5 -57.5
t-13 -41.5q0 -4 4 -4q21 15 46 44t48 60t41.5 57.5t24.5 34.5l2 -5l5 -6q-1 0 -1 -2v-3q-1 -2 -1 -5v-5q0 -5 -2 -9l-8 -14l-1 -2.5t-3 -6t-4.5 -6.5t-4.5 -4v-3q-2 -2 -4 -2q0 -1 1 -1t1 -2h-3q-1 -5 -5.5 -11t-9 -11t-7.5 -8.5l-3 -3.5q2 0 5.5 2.5t6.5 5.5q4 4 6 8
q0 -4 -2.5 -6.5t-2.5 -6.5q-3 0 -4.5 -3t-2.5 -6q-1 -2 -1 -4q1 2 3 3t2 4q3 2 7.5 8t5.5 5q0 -2 1 1.5t1 4.5t5 4t5 5q0 -1 1 -2q-3 -6 -6 -7.5t-3 -7.5q0 -4 -4.5 -7.5t-4.5 -2.5q0 2 2 2t3 2q-2 0 -3 -0.5t-2 -0.5l-1 -1q0 -4 -3.5 -8t-4.5 -6q-2 -5 -2.5 -3.5t-2.5 -6.5
l-4 2q-1 0 -1 1q-2 0 -1.5 -2t-1.5 -4q0 -1 -0.5 -1.5t-0.5 -1.5t-4.5 -4.5t-4.5 -4.5t1.5 -0.5t2.5 1.5q-11 -13 -23 -20t-26 -18l12 6l12 6zM146 433q12 20 24 42.5t14 46.5q-8 -4 -15.5 -13t-13.5 -20t-9.5 -23.5t-3.5 -22.5q0 -5 2 -13zM361 258q0 -2 -1 -3q-2 -6 -4 -6
q-1 0 -4 -2.5t-3 -1.5q0 3 4.5 7.5t7.5 5.5zM360 239l-3 -6t-6 -2q1 3 3.5 4.5t2.5 4.5q0 2 2.5 3t3.5 1zM371 259q0 2 2.5 4t4.5 2q-4 -5 -7 -6zM305 185q6 1 9 8l-4.5 -4.5t-4.5 -3.5zM320 203q0 -4 -8 -8q7 3 11 10zM350 231h1v-1z" />
    <glyph glyph-name="s" unicode="s" horiz-adv-x="278" 
d="M386 307q-2 -2 -3.5 -4.5t-1.5 -3.5q-34 -28 -73.5 -48t-74.5 -45q-2 -21 -10 -43t-21.5 -42.5t-30.5 -36.5t-37 -25q3 3 2.5 3t1.5 2q-6 -3 -12.5 -6.5t-18.5 -3.5q2 0 6 1.5t3 3.5q-2 -2 -12.5 -3t-18.5 -1q-18 0 -31 11t-16 27q0 2 -0.5 5.5t-1.5 4.5q5 20 17.5 38.5
t27.5 34t30.5 27t25.5 19.5l7 5q1 21 2.5 42.5t1.5 42.5v15t-1 14q-12 -16 -26.5 -38t-29 -42t-28.5 -34t-26 -14q-8 0 -10 5t-2 13t6 17q13 18 28 41.5t31.5 49l33 51t32.5 48.5q5 8 16.5 17t22.5 9q12 0 27 -10.5t15 -21.5q0 -7 -4.5 -12.5t-4.5 -7.5q1 -8 1.5 -19
t0.5 -22q0 -14 0.5 -29t0.5 -33v-18t-1 -20q38 25 75.5 44.5t68.5 37.5q2 -1 3 -2l2 -2q2 0 3 1t3 1l-9 -14q0 -1 0.5 -1t0.5 -1t1 -2q0 -1 -1 -2t-3 -1q0 -3 4 -3l-1 -1q0 -1 -0.5 -1t-0.5 -1q0 1 -2.5 -4.5t-5.5 -7.5q5 2 9.5 6t7.5 7q0 -5 -4 -8t-4 -8q-4 0 -5.5 -3
t-3.5 -5q3 2 6.5 5t8.5 5q-1 -2 -3.5 -6.5t-6.5 -4.5q0 -4 -1 -4t-1 -3q2 0 6 4.5t9 9.5zM95 84q10 0 18 7t14 16.5t9.5 20.5t3.5 20q-12 -6 -21.5 -16t-16.5 -19t-10.5 -15.5t-3.5 -7.5q0 -6 7 -6zM128 199q-5 -2 -8.5 -6.5t-5.5 -7.5l8 6t6 8zM94 172q-4 -2 -7.5 -7
t-2.5 -6q1 0 2.5 1t0.5 2q2 0 3.5 3.5t1.5 4.5q2 0 2 1v1zM111 187q-2 -1 -4 -1.5t-2 -5.5q5 2 8 8t2 6q0 -1 -1 -2t-3 -5zM74 151q-8 -10 -9 -11l-1 -2q3 2 6.5 5.5t3.5 7.5zM77 152q4 0 4 7zM63 136q-3 -3 -3 -4q3 0 3 4zM103 181q-4 -2 -4 -5q0 2 1.5 3t2.5 2z" />
    <glyph glyph-name="t" unicode="t" horiz-adv-x="187" 
d="M120 50l-2 -2t-1 -4q0 -5 0.5 -8t1.5 -8q-5 3 -5 6.5t-5 3.5l2 -7q0 -1 -1.5 0t-2.5 3q0 -2 -0.5 -3t-0.5 -3q-1 0 -3 3t-3.5 6.5l-3 7t-2.5 4.5v-10q0 -8 2 -13q-2 0 -3.5 4.5t-2.5 10t-1.5 10.5t-1.5 6t-1.5 -2.5t-1 -7.5t-0.5 -7.5v-3.5q-2 0 -3 4.5t-2 9.5
q-1 6 -2 15q-3 -4 -3 -16q-5 2 -5.5 10t-3.5 8q-2 0 -2 -9t-1 -9q-2 0 -4 12.5t-3.5 29.5t-2 33.5t-0.5 25.5q0 5 0.5 11t0.5 11q4 51 7 97t7 91t8 90.5t10 94.5h-7q-10 0 -22 1.5t-22 5.5t-16.5 9.5t-6.5 14.5q0 3 9.5 4.5t23 2.5t26.5 1.5t21 0.5q3 10 5.5 28t5.5 38
t6.5 40t7.5 33q5 16 18 21t27 5q6 0 16.5 -1t20.5 -3.5t17.5 -7.5t7.5 -12q0 -5 -2 -9q2 -7 2 -15v-17q0 -34 -3.5 -58t-5.5 -45q24 0 50.5 -3t42.5 -16q-4 0 -9 -5t-10 -5q1 0 2 -1t1 -1.5t1 -1.5q-6 0 -18 -0.5t-25 -1.5t-24.5 -1.5t-15.5 -1.5q-8 -71 -15.5 -134
t-15.5 -123t-16.5 -121t-17.5 -128q-1 -3 -2 -5.5t-1 -4.5q-1 -1 -2 4.5t-4 12.5q0 -5 -0.5 -10t-0.5 -9q-4 1 -9 8t-5 16z" />
    <glyph glyph-name="u" unicode="u" horiz-adv-x="424" 
d="M502 315q4 7 10.5 16t11.5 9q3 0 5 -6q1 -3 3 -5t3 -7q1 -4 1 -10q0 -9 -5 -22q-11 -21 -30 -51.5t-43 -59t-51.5 -49.5t-55.5 -22h-8q-54 0 -77 29t-23 89v5q-15 -27 -31 -51t-33.5 -42t-36 -28.5t-38.5 -10.5q-9 0 -19 5.5t-19.5 13.5t-17 17.5t-10.5 18.5
q-4 10 -5.5 23.5t-1.5 28.5q0 28 4.5 58.5t12.5 59t18.5 51t22.5 33.5q14 14 30 18t31 4q1 -4 7 -7.5t12.5 -6.5t11.5 -6.5t5 -7.5q0 -10 -3 -19.5t-5 -14.5q-1 -3 -7.5 -25t-13.5 -50t-13 -56.5t-6 -44.5t6 -16q3 0 4 1q10 10 23 29t27 41.5t28.5 46.5t27.5 45t23 36t16 20
q7 6 14 9.5t16 3.5h2h7q6 0 13 -0.5t13.5 -2.5t11 -6.5t4.5 -11.5q0 -4 -1 -7q-2 -6 -6.5 -28.5t-9.5 -51t-9 -58t-4 -51.5t2.5 -34.5t8.5 -12.5q9 0 27.5 18.5t40 45t43 56t36.5 51.5z" />
    <glyph glyph-name="v" unicode="v" horiz-adv-x="259" 
d="M296 384q-7 -24 -21 -66t-29.5 -87.5t-30.5 -86t-25 -61.5q-5 -11 -15 -14t-21 -3q-8 0 -15 1t-10 1q-6 0 -11 -2t-12 -2q-15 0 -26 19t-18 49t-12 66t-7 69.5t-3 60.5t-1 38q0 17 13 32t28 15q8 6 20 10.5t25 4.5q18 0 28 -10q7 -4 7 -24v-10.5t-2 -12.5q4 -43 7.5 -82
t5.5 -88q10 22 18 42.5t16 40t17.5 39.5t21.5 42q1 -1 3 1.5t4 5.5l4 6t3 3q4 3 12.5 5t15.5 2q10 0 10 -4z" />
    <glyph glyph-name="w" unicode="w" horiz-adv-x="578" 
d="M185 139q3 4 5 8t4 6q20 34 38 76t38.5 78t46.5 60.5t64 24.5q14 0 28 -4.5t18 -19.5q1 -5 1.5 -9.5t2.5 -9.5l2 -7q6 -24 12 -50.5t11.5 -53t10 -50.5t7.5 -43q4 6 11.5 28t17 50.5l20 60t20 58t17.5 43.5t13 17t5 -4l1 1q2 2 4 5q0 -4 1 -3t1 -2v-3q1 2 3 4t3 1
q4 0 7.5 4.5t3.5 3.5q0 -2 -1 -3.5t-1 -5.5l9 9t10 4q-21 -38 -34.5 -76.5t-23.5 -75.5t-19.5 -70t-22.5 -59t-38 -36.5t-49 -10.5q-37 0 -54 17q-11 11 -20.5 37t-16.5 57t-12 61.5t-6 50.5q-27 -35 -44 -75t-34.5 -74.5t-40 -57t-60.5 -22.5q-32 0 -51 12t-28.5 32t-12 46
t-2.5 54q0 47 8.5 90t20.5 65q8 15 19 23t23.5 11.5t26 4.5t26.5 1q25 0 25 -17q0 -9 -4 -17q-2 -50 -6.5 -105.5t-4.5 -104.5v-18t1 -17z" />
    <glyph glyph-name="x" unicode="x" horiz-adv-x="303" 
d="M336 401l-3.5 -4.5t-10 -12.5t-14.5 -17.5t-17 -18.5q0 -2 -7 -9l-16 -16t-16 -17t-7 -10q8 -14 19 -32t21 -38.5t17 -42.5t7 -42q0 -26 -12.5 -43t-38.5 -19q-2 -1 -8.5 -5t-14.5 -8.5t-14.5 -7.5t-7.5 -2q0 6 5.5 10.5t5.5 18.5q0 6 -5 23t-13.5 37t-18 38.5
t-18.5 28.5q-8 -8 -17 -22.5t-17 -28.5l-14 -24.5t-7 -10.5q0 1 -0.5 1.5t-0.5 1.5v2q0 -2 -3.5 -5t-7.5 -7t-10 -9q-1 0 -4 4q-2 -2 -3 -4.5t-3 -2.5v2q0 1 -1 2t-2 3q-2 -2 -4 -2t-4 -3q1 -1 1 -3q0 -1 -0.5 -1.5t-0.5 -1.5v-2q-2 0 -2.5 1.5t-2.5 1.5t-3 -4.5t-3 -4.5
q-10 0 -18 5.5t-8 16.5q0 32 27 73.5t67 84.5q-5 10 -13 20t-15.5 21t-13 22.5t-6.5 23.5q-6 6 -6 14q0 12 7.5 19t18 10.5t22.5 4.5t20 1q18 0 27.5 -6t15.5 -15t11 -19.5t14 -19.5q31 22 59 38t60 21q4 -1 8 -3t4 -4t-5 -2z" />
    <glyph glyph-name="y" unicode="y" horiz-adv-x="355" 
d="M337 348q1 -5 1.5 -12t0.5 -15q0 -34 -7.5 -87t-19.5 -117t-25 -135t-25 -140.5t-19.5 -133.5t-7.5 -114q0 1 -3 1q-2 0 -2.5 -1.5t-3.5 -2.5q-1 5 -3 5q-3 0 -6 -8.5t-6 -10.5q-11 0 -11 -5q0 -6 1 -7h-3q-1 0 -1 1q-1 0 -3 -2l-2 3q-5 0 -6.5 -4.5t-3.5 -4.5
q-1 0 -1 0.5t-2 0.5q-3 0 -4.5 -6t-3.5 -6t-3 -2t-4.5 -4.5t-10 -4.5t-18.5 -2q-3 0 -7 1t-8 7.5t-6.5 20t-2.5 38.5q0 5 0.5 9.5t0.5 10.5t3 17q0 3 -0.5 6t-0.5 6q0 4 3 6q0 3 -0.5 6t-0.5 5q0 16 5 30.5t5 28.5v8q0 12 4 17q4 34 12.5 70t8.5 67h-2q-1 0 -1 1t1.5 5.5
t3 10t3 10.5t1.5 7q-1 0 -1 -1.5t-3 -2.5q5 27 12 62.5t13.5 73t13 73t11.5 62.5q-10 -12 -22 -24.5t-24.5 -22.5t-26 -16.5t-26.5 -6.5q-39 0 -54 24.5t-15 59.5q0 23 5 48.5t13 48.5t17.5 42.5t18.5 31.5q5 6 16 10t22 4q9 0 13.5 -6t4.5 -15q0 -14 -8 -31.5t-17.5 -40
t-17.5 -49.5t-8 -60q0 -11 3.5 -18.5t11.5 -7.5q13 0 32 25t39 59t38.5 68t32.5 51q5 6 13 10.5t16.5 8t14.5 5.5t8 2q11 0 20.5 -11.5t13.5 -29.5zM155 -181q1 5 2 9.5t1 11.5q-3 -1 -5 -8l-2 -8q0 -3 1 -5q-4 -9 -5 -16q1 -2 1 -5t-2 -3q1 5 1 9v8.5t1 8.5v4
q-2 -4 -3.5 -8t-1.5 -10q-2 -2 -3.5 -8.5t-3 -14t-2.5 -15t-1 -11.5t1 -6q0 1 2.5 4t2.5 2t-0.5 -1.5t-0.5 -1.5q0 -2 2 -2q2 1 4 1.5t2 2.5q0 4 0.5 10t0.5 11t-1 5q-2 0 -5 -11v4q2 2 1.5 8t3.5 8v-2q0 -1 1 -1q2 0 3.5 6t1.5 5q-1 1 -1 2v1q2 2 2.5 5.5t2.5 6.5
q-1 1 -1 2v2zM143 -349q1 5 2.5 10.5t1.5 10.5q0 2 -3 6t-5 4t-2.5 -3.5t-0.5 -6.5t2 -13q-4 -10 -4 -17q0 -2 0.5 -3t0.5 -3q2 3 3.5 6t1.5 8h1q1 1 2 1zM146 -269q2 2 2 3v2q-1 2 -1.5 4.5t-0.5 1.5l-3 -10q0 3 -2 5q-1 -2 -1 -6t-4 -4q-3 -9 -3 -20v-5q2 2 2.5 8t3.5 8
q-1 1 -1 2t-0.5 1.5t-0.5 1.5q3 2 5 5q-1 -3 -1 -10q0 -2 1 -3q4 3 4 12v4zM121 -336q2 5 2.5 10.5t0.5 11.5l4 8t2 11q-6 -1 -8 -11.5t-2 -19.5v-7q0 -2 1 -3zM130 -270q-3 -6 -3 -19v-4q2 0 2.5 5.5t1.5 11.5t2 11.5t5 5.5l-2 4q-1 1 -1 3q-5 0 -5 -13v-5zM126 -402
q2 1 2 4v6q0 3 1 5q-3 -1 -3.5 -2.5t-1.5 -1.5v7q0 5 -2 8q-1 -3 -1 -9v-14q2 -2 3.5 -2t1.5 -1zM161 -149q2 16 7 32q-9 -5 -7.5 -15.5t-4.5 -14.5q1 -1 1 -3t1 -2q2 0 1.5 1.5t1.5 1.5zM118 -377q0 7 1 15.5t3 16.5l-4 -1q0 -4 -0.5 -7.5t-0.5 -8.5v-4q-1 -2 -1 -5
q0 -2 2 -10v4zM126 -358v10q0 3 1 6q0 2 1 2.5t1 2.5q0 1 -2 3q0 2 0.5 3.5t0.5 3.5q-1 -5 -2.5 -9.5t-1.5 -11.5q1 -1 1 -3q0 -1 -0.5 -3.5t-0.5 -4.5q0 -3 1 -3q0 2 1 4zM170 -66q7 9 7 19q-4 1 -5.5 -7t-1.5 -12zM154 -146q0 6 1.5 12t1.5 12l-2.5 -5t-1.5 -6t1 -4
q-2 0 -2 -4q0 -3 2 -5zM144 -341q-2 -2 -3 -2q-2 0 -2 4q0 7 3 10q0 -3 0.5 -5.5t1.5 -6.5zM130 -428q0 4 -0.5 6t-0.5 4q-2 -2 -2 -4t-2 -3q2 0 2.5 -1.5t2.5 -1.5zM142 -412q2 2 2.5 4.5t0.5 4.5l-3 -1q0 -1 -0.5 -2t-0.5 -3t1 -3zM148 -170q2 4 2.5 8t1.5 8
q-2 -3 -3 -6.5t-1 -9.5zM147 -255q1 3 2.5 6t1.5 6l-3 -2q0 -2 -0.5 -4t-0.5 -6zM132 -305q-3 -2 -3 -5q0 -1 0.5 -1.5t0.5 -1.5q2 0 2 4v4zM164 -92q0 2 0.5 2.5t0.5 2.5q-1 0 -3 -2t-2 -4zM131 -344q2 2 2 5q0 2 -0.5 3.5t-0.5 0.5t-1.5 -6.5t-1.5 -7.5q1 1 1 2q0 3 1 3z
M143 -357q2 0 2 2q0 1 -0.5 1.5t-0.5 2.5l-3 -1zM122 -343q-1 1 -1 2v4q-1 -1 -2 -1t-1 -2q0 1 1 -1t3 -2zM150 -278q0 2 1 3.5t1 3.5t-2 4v-11zM118 -383q-1 0 -1 -0.5t-1 -0.5q-1 -1 -2 -1q0 -1 1 -2.5t1 -2.5zM126 -325q3 0 3 2v2q-3 0 -3 -4zM142 -272q0 3 1 4
q0 -2 -0.5 -2.5t-0.5 -1.5z" />
    <glyph glyph-name="z" unicode="z" horiz-adv-x="269" 
d="M132 159q30 3 44.5 4t26.5 2.5t26.5 3.5t44.5 6q-2 -2 -8.5 -5.5t-11.5 -3.5q0 -2 -3 -1.5t-3 -2.5q0 -2 5 -2t7 -1q-11 -3 -11 -5t3 -1.5t6 -1.5l1 -9q-29 -9 -58 -13.5t-52 -10.5q1 -1 3 -1q30 0 57 6t50 7q0 -5 -3 -5q-2 0 -3 0.5t-2 0.5l-14.5 -4t-35.5 -8.5
t-44.5 -8t-40.5 -3.5q-7 0 -11.5 -1.5t-9 -4t-10.5 -4t-15 -1.5q-25 0 -45 16.5t-20 37.5q0 15 20.5 47t49 68t59.5 70.5t51 54.5q-4 2 -15 2q-25 0 -43.5 -3t-33 -6t-26.5 -6t-23 -3q-14 0 -14 9q0 17 38 35t107 18q21 0 40 -1.5t34 -7t24 -16t9 -28.5q0 -17 -11 -29
q-24 -29 -43.5 -53t-36.5 -46.5t-33.5 -44.5l-34.5 -46h9z" />
    <glyph glyph-name="braceleft" unicode="{" horiz-adv-x="211" 
d="M245 719q-12 -12 -33 -30t-41.5 -44t-35.5 -60.5t-15 -79.5q0 -14 4 -29t9.5 -30.5t9.5 -32t4 -32.5q0 -17 -11 -28.5t-18 -19.5q4 -7 5.5 -13.5t5.5 -15.5q4 -8 4 -22q0 -19 -6 -46t-13 -56t-13 -59t-6 -55q0 -30 12 -49.5t44 -21.5q4 0 17 3t21 5l-1 -1q2 0 4 1t3 1
q-2 -3 -5 -3h6q-6 -3 -13.5 -12t-15.5 -9q0 -5 -6 -4.5t-8 -0.5q-7 -7 -21 -12t-25 -5q-26 0 -44 13t-29 32t-15.5 39t-4.5 34q0 25 6.5 52.5t14.5 55.5t14.5 56t6.5 54q0 6 -5 10.5t-10.5 9.5t-10.5 12t-5 18q0 4 5 7.5t9 5.5q0 1 4.5 5t10.5 9t10.5 11t4.5 13q0 5 -1 7
q-11 25 -16 52t-5 53q0 85 34.5 139.5t103.5 84.5h6q13 0 22 -5q4 0 6 2t4 3q3 -2 10.5 -5.5t8.5 -6.5h3zM193 5l-4 -2z" />
    <glyph glyph-name="bar" unicode="|" horiz-adv-x="268" 
d="M113 90q-1 1 -2.5 -1.5t-1.5 -4.5t2 -2q-2 -8 -3.5 -24t-6.5 -18q-5 5 -7.5 27t-3 47.5t-1 48t-2.5 28.5q-1 16 -1 32v32q0 38 1 76.5t3 76.5q2 42 4 82.5t7 87.5q0 37 7.5 55.5t9.5 19.5q6 7 13 11.5t15 5.5q17 0 29.5 -10.5t12.5 -26.5q0 -5 -1 -9.5t-1 -8.5
q0 -17 1.5 -35.5t1.5 -33.5q0 -14 -2.5 -28.5t-2.5 -28.5q0 -7 -1 -21.5t-2 -31.5t-2 -34.5t-1 -30.5t2 -21q-6 -26 -8 -59t-5.5 -68t-10 -67.5t-20.5 -56.5q-2 -2 -3.5 -6l-3 -8t-2.5 -7t-1 -2q-6 -18 -8 -18q-3 0 -3.5 12t-1.5 20z" />
    <glyph glyph-name="braceright" unicode="}" horiz-adv-x="206" 
d="M220 625q0 -40 -12 -74.5t-27 -64t-27 -53.5t-12 -42q0 -17 6 -25t13.5 -12.5t13.5 -8t6 -12.5t-9 -13q-28 -8 -39.5 -27t-11.5 -37q0 -8 1 -11q4 -23 11 -46.5t14 -48.5t11.5 -51t4.5 -54q0 -23 -5.5 -39t-13 -26.5t-14.5 -15.5t-11 -5q-2 -2 -5 -4t-6 -2
q-6 -2 -13.5 -4t-13.5 -2q-5 0 -9.5 2.5t-4.5 10.5q-18 3 -18 11q0 4 7 11.5t16 18t16 24.5t7 32q0 23 -7.5 48.5t-16 51t-16 49.5t-7.5 44q0 12 4.5 25t11.5 25t15.5 22.5t16.5 16.5q-28 19 -28 51q0 22 7 43.5t17.5 41.5t22 38.5t20.5 33.5q19 35 19 66q0 37 -23.5 67
t-57.5 62q2 6 9 6q6 0 8 -2q4 6 13 6q3 0 4.5 -1t3.5 -1t4 1t4 1q2 -2 3 -2q13 -2 29.5 -12.5t31.5 -25.5t25.5 -34t11.5 -38v-15z" />
    <glyph glyph-name="asciitilde" unicode="~" horiz-adv-x="376" 
d="M334 409q-1 -1 -3.5 -4.5t-2.5 -5.5t2 -2q-6 -7 -10.5 -21.5t-13 -28.5t-23.5 -25t-42 -11q-13 4 -24 11.5t-19 14.5t-13.5 12.5t-8.5 5.5q-18 0 -31.5 -9t-23 -19.5t-16.5 -19.5t-13 -9q-17 0 -23 16q3 15 11.5 29.5t20.5 25.5t27.5 17.5t33.5 6.5q3 0 6 -1t6 -1
q3 3 6.5 3.5t8.5 0.5q8 -2 16.5 -7t16 -10t13.5 -8.5t9 -3.5q10 0 17.5 5t14.5 11.5t13 13t13 8.5q7 3 14.5 6t9.5 3t4 -0.5t4 -3.5z" />
    <glyph glyph-name="exclamdown" unicode="&#xa1;" horiz-adv-x="215" 
d="M132 534q-12 12 -12 24q0 9 6 27q0 6 5 11.5t11 5.5q19 7 37 7q14 0 25.5 -5t18.5 -18q1 -2 1 -8q0 -9 -6.5 -18.5t-16.5 -17t-22 -12.5t-23 -5q-15 0 -24 9zM44 -83q-2 5 -2 10.5v10.5q0 17 5 30q-1 3 -1 11q0 11 2.5 24t6 26t7 24.5t4.5 19.5q5 39 13.5 92t18 103.5
t18.5 91.5t15 56q4 11 8 21q3 8 6 14.5t3 7.5q7 -18 11 -18t4 19q9 -2 13.5 -12.5t6 -24.5t1.5 -30t1 -29v-19q3 -12 4 -24t1 -26q0 -38 -8 -80.5t-17.5 -85.5t-17.5 -86t-8 -83q-4 -11 -11 -24.5t-20 -15.5q-2 0 -5 -2t-5 -2q-3 -3 -7 -3q-1 0 -9.5 -4.5t-15.5 -6.5
q-2 -2 -6 -2q-7 0 -11 5.5t-5 11.5z" />
    <glyph glyph-name="cent" unicode="&#xa2;" horiz-adv-x="318" 
d="M333 352q0 -2 3 -2q-2 -3 -6.5 -7.5t-9.5 -9t-9 -8t-4 -5.5q0 -3 -7 -11.5t-34 -18.5q3 -3 3 -5q0 -3 -8 -6.5t-18 -7.5t-18 -7t-8 -4q-3 -4 -6 -15t-5 -23l-3.5 -21t-2.5 -9v5q-1 -2 -6.5 -4t-11.5 -4.5t-11.5 -5t-6.5 -4.5q-5 -5 -10 -5q-12 0 -12 30q0 8 1 18.5
t4 24.5q-48 5 -79.5 33t-31.5 75q0 5 0.5 11t1.5 12q5 29 21.5 57t39.5 51.5t51 39.5t57 21q4 19 7 31t8 35q2 8 9.5 12.5t15 7t13.5 3l6 0.5q0 4 7 4q5 0 10 -2.5t5 -7.5q0 -15 -5.5 -34.5t-7.5 -40.5q32 -5 45.5 -17t13.5 -24q0 -8 -3 -12.5t-7 -7t-8 -4t-6 -3.5
q-3 5 -12 6.5t-18 1.5q-10 0 -16 -2q-3 -6 -8 -29t-10.5 -50t-10 -52.5t-6.5 -36.5q10 4 17.5 6t14.5 4.5t15 6t21 10.5q1 0 7 1.5t7 1.5q5 0 11 -0.5t11 -2.5zM162 323q4 22 11.5 63.5t17.5 82.5q-6 -5 -17.5 -11t-23.5 -16.5t-22 -26t-13 -37.5q-1 -4 -1 -10
q0 -14 5.5 -22t13 -13t15.5 -7t14 -3z" />
    <glyph glyph-name="sterling" unicode="&#xa3;" horiz-adv-x="351" 
d="M411 590q3 -8 3 -13q0 -6 -4 -10.5t-14 -4.5q-6 0 -12.5 5t-15 11.5t-20.5 11.5t-29 5q-25 -3 -45.5 -22t-36 -43.5t-26.5 -50.5t-17 -42q8 -1 16 -1h16h32h14.5t14.5 -1l55 -7q-5 -9 -17.5 -15.5t-15.5 -16.5q-32 -10 -66 -15t-72 -5q-2 -2 -8.5 -17t-15.5 -34.5
t-18.5 -41t-17.5 -37.5q31 -8 64.5 -15.5t67.5 -11.5q9 -9 20 -9q12 0 26.5 8.5t28 19t25 19t18.5 8.5q2 0 4.5 0.5t3.5 0.5q0 -2 0.5 -3.5t0.5 -3.5q0 -20 -13.5 -38.5t-33.5 -32t-42 -21.5t-38 -8q-22 0 -43 4.5t-42.5 10.5t-42.5 10.5t-43 4.5q-4 0 -10 -9t-14 -9
q-2 0 -5.5 -1t-6.5 -1q-18 0 -24.5 10.5t-6.5 18.5q0 5 2 7q10 11 22.5 31.5t25.5 44.5t24.5 49.5t19.5 45.5q-20 0 -42 6.5t-39 22.5v4q0 7 4.5 11.5t13.5 11.5h56q13 0 22.5 0.5t9.5 2.5q11 22 22 56t29 66.5t46.5 56t74.5 23.5h9q9 0 19 -1t18 -6q16 -5 27.5 -9t19 -8
t12.5 -9.5t10 -13.5z" />
    <glyph glyph-name="currency" unicode="&#xa4;" horiz-adv-x="456" 
d="M419 566q0 -4 -2 -9.5t-5 -5.5q-7 0 -15 3.5t-16 3.5q-16 0 -35.5 -6t-38 -15t-34 -20.5t-23.5 -22.5h34q19 0 38.5 -5t25.5 -24q0 -5 -10 -12t-18 -7h-23.5t-17.5 -0.5t-22.5 -0.5h-39.5q-6 -8 -12.5 -23t-11.5 -26q0 -1 -0.5 -1.5t-0.5 -1.5q5 -2 10 -2h10h30.5
t25 -0.5t28 -0.5h38.5q-11 -25 -25 -32.5t-25 -9.5q-26 -5 -53 -6t-53 -1q0 -3 -1 -10.5t-1 -10.5q0 -23 6.5 -42t22.5 -30q14 -7 29 -7q16 0 31 7t29.5 17.5t27.5 23.5l25 25l8 8q4 4 7 4t4 -2.5t2 -1.5q0 -14 -5 -25.5t-13 -22.5q-26 -35 -61.5 -53t-70.5 -18
q-21 0 -39.5 6.5t-33 20t-23 34t-8.5 48.5q0 8 0.5 15t1.5 15q-6 1 -18.5 2.5t-24.5 5.5t-21 10.5t-9 18.5q0 8 15.5 11.5t30.5 3.5q9 0 17.5 -0.5t21.5 -0.5q4 13 10.5 27t11.5 26q-29 0 -51 8t-25 16q0 7 5 12t12 8t15.5 5t14.5 3q22 0 33 -0.5t27 -0.5h2q1 0 2 1
q13 17 33.5 35t45 33t51 24.5t53.5 9.5q10 0 22 -4.5t20 -4.5l6 -4q0 -1 -0.5 -1.5t-0.5 -1.5q0 -2 1.5 -2.5t1.5 -2.5t-0.5 -3t-0.5 -2l1.5 -4.5t0.5 -3.5zM407 592q1 0 2 -1z" />
    <glyph glyph-name="yen" unicode="&#xa5;" horiz-adv-x="316" 
d="M92 636q19 -38 33 -71.5t33 -71.5q3 0 8 6q12 13 32.5 36t41 45t37.5 38.5t22 16.5q2 0 2 -2q0 -10 -1 -15t-1 -17q0 -16 -8.5 -31t-20.5 -28.5t-24.5 -25.5t-20.5 -23q-2 -4 -6 -7.5t-4 -8.5h43q14 0 28 -1t28 -5q-2 -2 -9.5 -9t-9.5 -6q-1 -5 -9 -7t-13 -2
q-2 0 -2.5 0.5t-1.5 0.5q-8 -8 -8 -12q0 -3 2.5 -3t2.5 -1h-1q-1 0 -1 -0.5t-1 -0.5l-17 -4q5 0 8 0.5t5 0.5q1 0 1.5 -0.5t1.5 -0.5h1q0 -1 -8 -2.5t-20 -3t-25 -2.5t-23 -1h-9q0 -5 -2.5 -10t-2.5 -17q3 0 10 -0.5t15 -1l16 -1t11 -0.5q15 0 31 -1t19 -3q-2 -12 -11 -20.5
t-21 -13.5t-25.5 -7t-23.5 -2q-3 0 -9 -0.5t-21 -2.5q1 -3 1 -11q0 -15 -4.5 -34.5t-11 -37.5t-13.5 -30.5t-13 -12.5q-3 0 -3 1q-1 0 -2 -1q-3 -3 -5 -6q-15 8 -15 31q0 26 4.5 49t9.5 45q0 2 0.5 2.5t0.5 2.5q-15 2 -29 2t-27 1.5t-24.5 7t-20.5 20.5q-4 10 -4 13
q0 5 10 5q24 0 48.5 1.5t50.5 1.5q2 4 2 15q0 7 -0.5 12t-2.5 5q-7 0 -24.5 2.5t-35.5 7.5t-32 14t-14 22q0 1 1 4.5t3 3.5q13 0 26.5 -0.5t27.5 -0.5h18t18 2q-13 32 -30.5 73.5t-33.5 75.5q0 12 4 20.5t18 8.5q6 0 13 -1.5t12 -7.5q3 -4 5 -8z" />
    <glyph glyph-name="brokenbar" unicode="&#xa6;" horiz-adv-x="268" 
d="M146 476q-6 -5 -9.5 -8t-6.5 -4.5t-7 -2.5t-12 -1q-5 5 -7.5 20.5t-3 33.5t-1 34.5t-2.5 22.5q2 13 2 19v11v12v13t2 22q0 37 7.5 55.5t9.5 19.5q6 7 13 11.5t15 5.5q17 0 24.5 -10.5t7.5 -26.5q0 -5 -1 -9.5t-1 -8.5q0 -5 0.5 -9t0.5 -9q0 -37 -8 -79t-13 -89
q-2 -2 -3.5 -6l-3 -8t-2.5 -7t-1 -2zM146 165q-2 -20 -11.5 -28t-10.5 -7q-2 -3 -3 -3q-3 0 -7 3t-7 3q-5 4 -6.5 20.5t-2.5 35.5t-1.5 35.5t-1.5 22.5q1 8 1.5 13t0.5 9q0 5 -0.5 8t-0.5 8t0.5 11.5t1.5 18.5q0 32 6.5 48.5t8.5 17.5q6 6 7 10t8 5q15 0 26 -9.5t11 -23.5
q0 -5 -0.5 -8.5t-0.5 -7.5v-14q0 -35 -6.5 -80.5t-11.5 -87.5z" />
    <glyph glyph-name="section" unicode="&#xa7;" horiz-adv-x="327" 
d="M189 698q5 1 9 1h9q30 0 56.5 -14.5t32.5 -49.5q-1 -2 -1 -6q0 -2 -2.5 -7t-7.5 -6q-5 0 -7 8q-8 9 -22 14t-30 5q-26 0 -48 -12t-22 -36v-6q3 -20 17 -40t30.5 -41.5t31 -45.5t18.5 -52q0 -3 0.5 -5.5t0.5 -5.5q0 -32 -20.5 -62t-52.5 -37q16 -17 24 -40t8 -48
q0 -40 -21.5 -73t-66.5 -38h-8q-13 0 -27.5 5t-27 15.5t-21 27.5t-8.5 41q0 12 3 27q1 2 6 3.5t8 3.5q0 -3 -0.5 -6.5t-0.5 -6.5q0 -26 11.5 -45.5t35.5 -19.5q2 0 4 0.5t4 0.5q17 2 25.5 18.5t8.5 36.5v6.5t-1 6.5q-3 21 -11.5 38t-18.5 33.5t-19 35t-12 42.5q-1 4 -1 9v11
q0 11 2.5 25t9.5 27t20.5 24.5t35.5 17.5q-5 4 -15 16t-19.5 26.5t-17.5 29.5t-9 25q-1 5 -1 14q0 22 9.5 40.5t24.5 33t34.5 23.5t39.5 12zM159 338q20 4 26.5 22t6.5 36q-5 30 -25 55q-14 -9 -21.5 -24.5t-7.5 -32.5q0 -32 21 -56z" />
    <glyph glyph-name="dieresis" unicode="&#xa8;" horiz-adv-x="129" 
d="M30 771q2 0 4 -2q2 0 2.5 0.5t1.5 0.5q9 0 13.5 -10t6.5 -15q-2 -11 -11 -17q-9 0 -19.5 5t-10.5 17q0 5 4 13t9 8zM115 749q0 -11 -7 -16t-14 -8q-8 0 -11.5 8.5t-3.5 7.5q0 3 -1 6t-1 6q0 11 7.5 14.5t9.5 3.5q7 0 14 -8t7 -14z" />
    <glyph glyph-name="copyright" unicode="&#xa9;" horiz-adv-x="577" 
d="M547 329q-4 -17 -7.5 -34t-9.5 -34q-22 -61 -54 -111.5t-74 -87t-94 -56.5t-112 -20q-35 0 -66 12t-54.5 34t-37.5 53.5t-14 70.5q0 44 14.5 94t40 98.5t60.5 92.5t76.5 77.5t88 53.5t94.5 20q7 0 13.5 -0.5t13.5 -1.5q28 -4 53 -29.5t43.5 -58t29 -65.5t10.5 -51
q0 -16 -8 -16h-5q-1 0 -3 2q0 -12 -2 -12q-3 0 -4 24q6 1 6 8q0 6 -4.5 12.5t-4.5 5.5v-15q-2 -2 -2 -10q0 -9 2.5 -20t2.5 -19q0 -12 2 -12t5 8.5t4 8.5v-1q0 -1 0.5 -1t0.5 -1q0 -3 -2 -11zM203 25q45 0 88.5 19t81.5 52t67 77.5t46 96.5q8 26 16 65.5t8 80.5
q0 25 -4 48.5t-13.5 42.5t-25 32.5t-39.5 18.5q-57 0 -100.5 -23t-85.5 -73q-23 -27 -45.5 -67t-41 -85t-30 -91.5t-11.5 -85.5q0 -48 20.5 -78t68.5 -30zM362 420q8 0 17 -4t17 -9.5t13 -12.5t5 -13q0 -1 -0.5 -2t-0.5 -2q0 -2 -2 -7t-5.5 -10t-8.5 -9t-12 -4q-1 0 -6 0.5
t-11 3t-10.5 7.5t-4.5 13q-19 0 -35 -17t-27 -41t-17.5 -49t-6.5 -41q0 -7 6 -16t6 -14q17 0 36.5 4.5t48.5 19.5l10 -16q-3 -12 -13.5 -22t-23 -17.5t-24.5 -11.5t-19 -4q-54 0 -78 26.5t-24 71.5q0 16 5 36t15.5 41t25.5 40t36 33q6 6 31.5 16t56.5 10z" />
    <glyph glyph-name="ordfeminine" unicode="&#xaa;" 
d="M352 294q0 -25 -9.5 -44.5t-22.5 -33.5q-11 -15 -28 -27t-34 -20q-14 -7 -29.5 -10t-30.5 -3q-31 0 -57 12.5t-39 37.5q-14 10 -24 21t-14 26q0 4 -1 9t-1 9q0 33 14 58.5t33 40.5q23 19 53 30.5t59 11.5q5 0 10 -0.5t10 -1.5q17 -3 36.5 -13.5t36 -25.5t27.5 -32.5
t11 -35.5v-9zM318 266q7 14 7 31q0 19 -7 36.5t-18 29.5q-15 14 -34 24.5t-45 12.5h-8q-23 0 -40.5 -7t-31.5 -16q4 0 8 1.5t10 1.5q9 4 17.5 8t19.5 4h9q30 0 50.5 -12.5t27.5 -31.5q3 -8 3 -14t-2 -11l-4 -10l1.5 -3t0.5 -3t-2 -4q0 -2 1.5 -1.5t1.5 -1.5q-2 -3 -5 -5.5
t-5 -6.5v-7q0 -10 -4 -17.5t-8 -15.5q-2 -4 -5 -6t-5 -6t-5 -6.5t-5 -5.5q11 4 18 10.5t16 6.5q-6 -14 -23.5 -22t-28.5 -15q-3 -5 -7 -5q-2 -1 -6 -1q-3 0 -6.5 0.5t-7.5 0.5t-7.5 -2.5t-7.5 -2.5q-4 -2 -8.5 -1.5t-6.5 -3.5q6 -4 11.5 -4.5t13.5 -0.5q24 0 42 7t35 18
q31 23 50 57zM261 338q3 0 3 4q0 5 -3 8q-6 14 -19.5 20.5t-30.5 6.5q9 -4 18 -9t14 -13l5 -10q2 -2 5.5 -4.5t7.5 -2.5zM238 300q0 8 -1 17t-6 11q-1 1 -3 1t-2.5 -0.5t-2.5 -0.5q-18 0 -31.5 -6.5t-22.5 -16.5q-6 -5 -11 -9.5t-7 -9.5q12 -6 28 -6q10 0 19.5 2t17.5 4
q5 4 11.5 7.5t10.5 6.5zM218 350q-4 10 -19 15.5t-26 5.5q-2 0 -3.5 -0.5t-3.5 -0.5q-13 -5 -24.5 -18t-19.5 -27q0 -2 -1.5 -6t-1.5 -6q0 -8 6 -12t11 -8q12 23 33 37q20 17 49 20zM189 231q13 8 22 14.5t15 17.5q-10 0 -19.5 -3.5t-20.5 -3.5q-13 0 -25.5 2t-21.5 8
l-4.5 -9t-2.5 -9q4 -10 15 -17t19 -10q4 0 10.5 4t12.5 6zM124 261q2 4 2 6q0 9 -9 9q0 -4 1.5 -8.5t5.5 -6.5zM127 221q-6 5 -10.5 12t-9.5 15q-4 8 -7 17.5t-3 20.5q0 4 1 9t1 10q-1 6 -2 10.5t-1 9.5q0 7 1 10q-3 0 -5 -2q-5 -8 -8 -20t-3 -24q0 -7 1 -11q2 -23 14 -39
t31 -18z" />
    <glyph glyph-name="guillemotleft" unicode="&#xab;" horiz-adv-x="343" 
d="M297 428q2 2 6.5 2.5t5.5 0.5q0 -2 3 -6.5t5 -3.5q5 -1 5 -7q0 -9 -14.5 -23.5t-34.5 -29.5t-41 -30l-35 -25q16 -12 34.5 -23.5t34 -24.5t25.5 -27.5t10 -31.5q0 -6 -6.5 -8t-14.5 -2q-14 2 -37 17t-45.5 33.5t-38.5 35.5t-16 23q0 14 9 26t22 22.5t26.5 20t22.5 19.5
q3 5 11 13.5t18 17t20 14.5t16 6t6.5 -3.5t2.5 -5.5zM174 428q7 3 10 3q5 0 4.5 -5t5.5 -5q5 -1 5 -8q0 -9 -14 -22.5t-33.5 -28.5t-41 -30t-36.5 -26q17 -12 35.5 -24t33.5 -25t25 -27.5t10 -30.5q0 -6 -6 -8t-15 -2q-14 2 -37 17.5t-45 34t-38.5 35t-16.5 22.5q0 14 9 26
t22 22.5t26.5 20t22.5 19.5q3 5 11 13.5t18 17t20 14.5t16 6t6.5 -3.5t2.5 -5.5z" />
    <glyph glyph-name="uni00AD" unicode="&#xad;" horiz-adv-x="396" 
d="M387 252q-7 -2 -10 -2.5t-11 -2.5q-6 -5 -16.5 -5.5t-14.5 -3.5q0 -8 -32 -7.5t-103 -4.5q-10 0 -20 -0.5t-21 -0.5q-2 0 -3 1q-13 -2 -35.5 -3t-36.5 -1q-5 0 -16 1t-12 3q-20 1 -35.5 9t-15.5 17q0 10 23 16q2 0 4.5 2t8.5 3.5t17 3t32 1.5h57q35 0 76.5 -1t75.5 -5
q2 -1 10.5 -2.5t19 -3t19.5 -4t13 -5.5q2 0 9.5 -0.5t16.5 -4.5z" />
    <glyph glyph-name="registered" unicode="&#xae;" horiz-adv-x="554" 
d="M549 402q0 -70 -26.5 -143t-74.5 -133t-114.5 -98.5t-146.5 -38.5q-29 0 -58 8t-52.5 28t-38.5 53.5t-15 84.5q0 47 15 97.5t41 99t61 92t75 76t82 51.5t83 19q36 0 66.5 -14t53.5 -39.5t36 -61.5t13 -81zM203 28q43 0 83 24.5t74 62t60 80.5t42 81t23.5 76t7.5 72
q0 63 -20 94.5t-44 39.5q-11 3 -21 3q-26 0 -54.5 -16t-55.5 -39t-50 -48.5t-38 -44.5q-47 -58 -72 -119t-31 -104q0 -1 1.5 -3t1.5 -5q-3 -3 -3 -8q0 -67 21.5 -106.5t74.5 -39.5zM245 387q0 25 13 33.5t40 8.5q13 0 30 4.5t30 4.5q16 0 32 -2.5t28.5 -9.5t21 -18t10.5 -27
v-5q0 -21 -18.5 -38.5t-42.5 -30t-47 -20t-32 -7.5q10 -10 21 -19.5t21 -18.5q23 -20 29 -30t9 -22q-1 0 -2.5 -1t-4.5 -1q-6 0 -19.5 -2.5t-25.5 -9.5l-9.5 9.5t-22.5 21.5t-26 23t-18 15q-6 -14 -7.5 -23t-8.5 -26q-2 -6 -6.5 -13.5t-12.5 -7.5q0 -17 -14.5 -20.5
t-29.5 -7.5q-2 0 -4.5 1t-4.5 1t-3 -1q5 22 14 47.5t19.5 55.5t21 63.5t19.5 72.5zM287 320q7 2 24.5 8t35.5 13.5t32 16.5t14 18q0 5 -6.5 7t-16.5 2q-17 0 -38 -3t-32 -5q-2 -17 -6 -28t-7 -29z" />
    <glyph glyph-name="macron" unicode="&#xaf;" horiz-adv-x="135" 
d="M130 757q-2 -4 -5.5 -8.5t-7 -8.5t-5.5 -7l-2 -3q-3 0 -11.5 -0.5t-19 -1t-20.5 -1t-16 -0.5q-20 0 -30 7.5t-10 17.5q0 6 16.5 9t28.5 3q20 0 35 -1t26 -3z" />
    <glyph glyph-name="degree" unicode="&#xb0;" horiz-adv-x="833" 
d="M246 607q1 1 1 3t2 3q-1 -14 -12 -27t-26.5 -22.5t-32.5 -15.5t-29 -6q-31 0 -51 17.5t-20 57.5q0 17 8 32.5t20.5 27.5t29 19t34.5 7h11q11 0 22.5 -2.5t11.5 -12.5q0 -1 -2.5 -5.5t-1.5 -4.5q2 0 3 -2.5t1 -0.5q0 1 -0.5 1.5t-0.5 2.5q11 -16 22 -31t11 -33
q0 -2 -0.5 -4t-0.5 -4zM169 579q24 0 34.5 11t10.5 27q0 14 -7 30.5t-18 28.5q-26 -10 -40.5 -24.5t-14.5 -44.5q3 -17 13 -22.5t22 -5.5z" />
    <glyph glyph-name="acute" unicode="&#xb4;" horiz-adv-x="97" 
d="M33 704q-4 -2 -6 -2t-5 -1q-3 2 -3.5 7t-0.5 10v9q3 9 8.5 20.5t12.5 22t14.5 17.5t12.5 7q2 0 4.5 -1t5.5 -1q1 0 3.5 -2.5t2.5 -4.5q0 -19 -8 -30t-8 -13q-2 -5 -10.5 -15.5t-11.5 -10.5q-2 -2 -5 -6t-6 -6z" />
    <glyph glyph-name="paragraph" unicode="&#xb6;" horiz-adv-x="275" 
d="M225 411q0 -2 -4.5 -17.5t-12 -39t-16 -52t-16.5 -57.5t-13.5 -55.5t-5.5 -44.5q0 -5 -4 -5q-5 0 -11 5t-7 9q-2 8 -2 15q0 21 6.5 53.5t15.5 66.5t18.5 63t15.5 42q-4 1 -8 1h-8q-7 0 -10 -1q-9 -19 -21 -52.5t-24 -70.5t-20.5 -71t-9.5 -55q0 -5 -4 -5q-5 0 -10.5 4.5
t-7.5 8.5q-2 10 -2 18q0 26 9 63.5t22 78.5q-35 19 -35 45q0 23 29 41.5t79 18.5q28 0 57 -7z" />
    <glyph glyph-name="periodcentered" unicode="&#xb7;" horiz-adv-x="201" 
d="M109 238q10 0 13.5 -7.5t3.5 -17.5q0 -5 -2 -13q-1 -4 -4 -10t-7 -9q-8 -3 -18 -3q-8 0 -16 2.5t-13 9.5q-10 4 -10 15q0 7 3.5 14t8.5 12q8 5 17 6t20 1h4z" />
    <glyph glyph-name="cedilla" unicode="&#xb8;" horiz-adv-x="162" 
d="M23 84q7 -12 13 -27t17 -26q1 -1 4 -1q4 0 8 5.5t7.5 12.5t6 13t2.5 7q2 4 8.5 16t15 24t17 21.5t13.5 9.5q10 0 10 -4.5t3 -8.5q-6 -7 -7.5 -10.5t-3.5 -8.5l-3 -10q-4 -15 -8.5 -30.5t-10.5 -29.5t-15 -25.5t-21 -17.5q-14 -7 -27 -7q-14 0 -25 8.5t-12 12.5
q-2 1 -4 6.5t-3.5 11.5t-2.5 11.5t-1 7.5q1 0 1 1.5t1 2.5v4q0 -1 1 -2l2 -2q0 1 -0.5 2t-0.5 3t2 2h3v3q2 -4 3 -5l1 -1q1 0 1 1.5t2 1.5v13q0 -1 1 -1q1 -1 2 -1q0 1 -3 5t-1 4q1 0 1.5 -0.5t2.5 -0.5v9z" />
    <glyph glyph-name="ordmasculine" unicode="&#xba;" 
d="M339 340q4 -9 6.5 -19.5t2.5 -21.5q0 -18 -8 -35.5t-17.5 -32t-18.5 -24.5t-10 -11q-23 -26 -50.5 -40.5t-61.5 -14.5q-2 0 -3.5 1.5t-3.5 1.5t-4 -1.5t-4 -1.5q-18 0 -37 8t-34.5 22.5t-25.5 34.5t-10 44q0 10 1.5 17.5t4 14.5t5.5 14t7 17q5 9 7.5 18t7.5 19
q21 38 49 57.5t68 19.5q18 -3 29 -7t21 -10t21 -14t28 -19q8 -8 16 -18t14 -19zM289 335q4 -2 5.5 -3.5t6.5 -1.5q-2 8 -8.5 12.5t-8.5 12.5q1 2 4 2q1 -1 2 -1q1 -1 4 -1q-11 17 -27 30.5t-35 21.5q-8 3 -16.5 4.5t-16.5 1.5q-18 0 -35.5 -8.5t-31 -20.5t-21.5 -25.5
t-8 -23.5q2 -4 5 -6t5 -6q0 -14 -7 -24.5t-7 -18.5q0 -17 8.5 -29.5t25.5 -14.5q2 4 3.5 9t3.5 11q-11 8 -18.5 21.5t-7.5 30.5q0 28 23 49t54 21q21 0 35 -4.5t28 -18.5q11 -11 15.5 -13t19.5 -7zM283 222q3 3 8 14t6 14q-1 -3 -7 -7.5t-14.5 -9.5t-16.5 -9t-13 -6
q-1 0 -2 -0.5t-3 -0.5q-3 0 -6.5 0.5t-5.5 0.5q-9 -2 -18 -5t-19 -5q-7 -2 -13.5 -2h-14.5h-19q0 -17 13 -26.5t26 -9.5q11 0 25 4t28 10.5t26 16t20 21.5zM242 266q6 7 10 17t4 20q0 12 -7 20q-15 -3 -29 -9.5t-25 -15t-18 -17t-7 -15.5q5 -5 22 -11.5t30 -6.5q4 2 10 8z
M187 313q11 9 21.5 15.5t25.5 11.5q-15 14 -40 14q-31 0 -46 -16t-15 -43q2 -4 8.5 -12t10.5 -8q1 0 4.5 4.5t9 10.5t11 12.5t10.5 10.5zM135 176q-2 8 -4.5 16t-2.5 19q-18 7 -33 22l-1 -2h-1q2 -22 15 -38.5t27 -16.5zM150 233q3 -3 10 -3q5 0 10 1t7 2l-9 6t-10 4
q-8 0 -8 -10zM289 283q5 1 7.5 6t2.5 10q0 8 -5 9q-5 -13 -5 -25z" />
    <glyph glyph-name="guillemotright" unicode="&#xbb;" horiz-adv-x="343" 
d="M45 204q-2 -2 -6.5 -2.5t-5.5 -0.5q0 2 -3 6.5t-5 3.5q-5 1 -5 7q0 9 14.5 23.5t34.5 29.5t41 29.5t35 25.5q-16 12 -34.5 23.5t-34 24.5t-25.5 27.5t-10 31.5q0 6 6.5 8t14.5 2q14 -2 37 -17t45.5 -33.5t38.5 -35.5t16 -23q0 -14 -9 -26t-22 -22.5t-26.5 -20
t-22.5 -19.5q-3 -5 -11 -14t-18 -17t-20 -14t-16 -6t-6.5 3.5t-2.5 5.5zM168 204q-8 -3 -10 -3q-5 0 -4.5 5t-5.5 5q-5 1 -5 8q0 9 14 22.5t33.5 28.5t41 30t36.5 26q-17 12 -35.5 24t-33.5 25t-25 27t-10 31q0 6 6 8t15 2q13 -2 36.5 -17.5t45.5 -34t38.5 -35t16.5 -22.5
q0 -14 -9 -26t-22 -22.5t-26.5 -20t-22.5 -19.5q-3 -5 -11 -14t-18 -17t-20 -14t-16 -6t-6.5 3.5t-2.5 5.5z" />
    <glyph glyph-name="questiondown" unicode="&#xbf;" horiz-adv-x="320" 
d="M148 -105q-29 2 -48 14.5t-30.5 30.5t-16.5 39.5t-5 41.5q0 36 15.5 70t33.5 60q21 30 44 60.5t42.5 62t33.5 66t17 72.5q2 0 7 -0.5t6 -0.5t1 3v4q0 6 6 7q1 0 2 1t1 7q4 0 3.5 4t1.5 4q1 0 3 -2l3 2q0 5 3 5q2 0 3.5 -1.5t1.5 -0.5q0 2 0.5 3.5t0.5 3.5
q12 -12 15.5 -27t3.5 -31v-9q-2 -39 -11 -73t-25 -67.5t-37 -68t-47 -73.5q-12 -18 -28.5 -41.5t-16.5 -48.5q0 -16 11.5 -22t25.5 -6q17 0 31 7q8 2 16.5 7.5t18.5 11t21.5 9.5t25.5 4q12 -2 17.5 -9t5.5 -16q0 -8 -4 -16t-10 -10q-21 -35 -60 -56t-82 -21zM235 509
q-2 5 -4.5 11t-2.5 12q0 5 1 7q-1 2 -1 5q0 5 2.5 10.5t2.5 11.5v4q0 6 4.5 10.5t11 7.5t13 5t10.5 2q5 0 5 -2q4 -1 11 -3.5t14 -6.5t12.5 -9t5.5 -11q0 -2 -2 -6v-17q0 -4 -4.5 -11t-10.5 -13.5t-12 -12t-9 -6.5q0 -7 -12 -7q-11 0 -23 5.5t-12 13.5z" />
    <glyph glyph-name="Agrave" unicode="&#xc0;" horiz-adv-x="478" 
d="M485 267q0 -3 3 -6q-3 0 -3 -2q0 -1 0.5 -2t0.5 -2q0 -2 -3 -3q-5 0 -5 -5q-3 0 -3 -5q0 -1 -4 -5l-3 -3q-5 0 -9 -2h-5q0 -1 4 -3.5t3 -3.5q-5 -2 -9.5 -2t-9.5 -2q3 -41 7 -84.5t8 -84.5q1 -4 1 -13q0 -17 -2.5 -34t-2.5 -27q0 1 -1 1.5t-1 2.5t-3 5q-1 1 -1 4
q0 2 -1 3l-3 -6v-10q-5 2 -5.5 8.5t-1.5 11.5q-2 -4 -2 -11q0 -2 -1 -6t-1 -5q0 -2 1 -2t1 -1q-2 -2 -2 -7.5v-9.5q-2 5 -2.5 10t-2.5 10q-3 6 -2.5 10t-1.5 8v-11q0 -9 -2 -9t-2 -1.5t-2 -1.5v1q-1 1 -2 1v-4l-1 -2v-1q-2 3 -5 6.5t-4 3.5q-2 0 -2.5 -1t-2.5 -1
q0 -1 -1 3.5t-3 3.5q0 -4 -0.5 -7.5t-2.5 -3.5q-1 0 -1 6v4q0 1 -0.5 3t-1.5 2h-3q-2 0 -2 -4t-1 -5q0 4 -1 8q0 -3 -0.5 -4.5t-0.5 -3.5v-8h-2q-1 0 -1 -2q-2 -2 -1.5 -6t-4.5 -6q-2 5 -2.5 9.5t-2.5 12.5q-9 62 -16.5 122.5t-13.5 124.5h-31.5t-42 -0.5t-40 -1.5t-25.5 -2
q-8 -21 -18 -47t-21 -53.5t-22 -56t-20 -54.5q-11 0 -29.5 -2t-29.5 -2q-8 0 -9 0.5t-9 2.5q-4 4 -7.5 5t-6.5 2t-5.5 3.5t-2.5 9.5l-9 5l-7 6q-8 24 -8 44q0 13 3 28q0 9 4.5 27.5t11.5 39.5t14 41.5t12 32.5q-3 4 -3 9q0 8 5.5 15t9.5 10q21 60 46.5 118.5t52.5 121.5
q10 18 23.5 49.5t31 61.5t40 52t50.5 22h5q5 -2 6 -3.5t1 -3.5t1 -4t6 -5q1 -1 2 -1h3v-1q0 -1 2 -1q0 1 2.5 1t2.5 2q2 -3 2.5 -5.5t3.5 -2.5q2 0 3 -1.5t4 -1.5q0 5 -5 8q1 0 3 -2l2 -2v2q0 2 1 1v4q4 -2 5.5 -6t4.5 -6q2 0 3 -2t4 -2q-2 2 -4 8t-1 5q-1 1 -1 2q-1 1 -1 3
q3 -3 3 -5q5 0 6.5 -2t4.5 -4q0 2 -2 4.5t-2 6.5q2 0 3 -1t3 -1q1 -2 6 -4q5 -13 11.5 -42t12.5 -66.5t12 -80t11 -83t9 -74.5t6 -54q20 -1 27.5 -2.5t18.5 -3.5q-1 -1 -1 -3q0 -1 3 -1h4q2 0 2 -2t-0.5 -3t-0.5 -3q0 -3 3 -4q-2 -1 -6 -1zM225 295q11 1 20 1h17
q17 0 32.5 -0.5t37.5 -0.5q-6 63 -13 118.5t-8 106.5q-9 -29 -18.5 -53.5t-19.5 -50t-21.5 -54.5t-26.5 -67zM337 741q-3 2 -6 6t-5 6q-3 0 -11.5 10.5t-10.5 15.5q0 2 -8 13t-8 30q0 2 2.5 4.5t4.5 2.5q6 2 9 2q5 0 12.5 -7t14.5 -17.5t12.5 -22t8.5 -20.5v-9
q0 -5 -0.5 -10t-3.5 -7q-3 1 -5 1q-3 0 -6 2z" />
    <glyph glyph-name="Aacute" unicode="&#xc1;" horiz-adv-x="478" 
d="M485 267q0 -3 3 -6q-3 0 -3 -2q0 -1 0.5 -2t0.5 -2q0 -2 -3 -3q-5 0 -5 -5q-3 0 -3 -5q0 -1 -4 -5l-3 -3q-5 0 -9 -2h-5q0 -1 4 -3.5t3 -3.5q-5 -2 -9.5 -2t-9.5 -2q3 -41 7 -84.5t8 -84.5q1 -4 1 -13q0 -17 -2.5 -34t-2.5 -27q0 1 -1 1.5t-1 2.5t-3 5q-1 1 -1 4
q0 2 -1 3l-3 -6v-10q-5 2 -5.5 8.5t-1.5 11.5q-2 -4 -2 -11q0 -2 -1 -6t-1 -5q0 -2 1 -2t1 -1q-2 -2 -2 -7.5v-9.5q-2 5 -2.5 10t-2.5 10q-3 6 -2.5 10t-1.5 8v-11q0 -9 -2 -9t-2 -1.5t-2 -1.5v1q-1 1 -2 1v-4l-1 -2v-1q-2 3 -5 6.5t-4 3.5q-2 0 -2.5 -1t-2.5 -1
q0 -1 -1 3.5t-3 3.5q0 -4 -0.5 -7.5t-2.5 -3.5q-1 0 -1 6v4q0 1 -0.5 3t-1.5 2h-3q-2 0 -2 -4t-1 -5q0 4 -1 8q0 -3 -0.5 -4.5t-0.5 -3.5v-8h-2q-1 0 -1 -2q-2 -2 -1.5 -6t-4.5 -6q-2 5 -2.5 9.5t-2.5 12.5q-9 62 -16.5 122.5t-13.5 124.5h-31.5t-42 -0.5t-40 -1.5t-25.5 -2
q-8 -21 -18 -47t-21 -53.5t-22 -56t-20 -54.5q-11 0 -29.5 -2t-29.5 -2q-8 0 -9 0.5t-9 2.5q-4 4 -7.5 5t-6.5 2t-5.5 3.5t-2.5 9.5l-9 5l-7 6q-8 24 -8 44q0 13 3 28q0 9 4.5 27.5t11.5 39.5t14 41.5t12 32.5q-3 4 -3 9q0 8 5.5 15t9.5 10q21 60 46.5 118.5t52.5 121.5
q10 18 23.5 49.5t31 61.5t40 52t50.5 22h5q5 -2 6 -3.5t1 -3.5t1 -4t6 -5q1 -1 2 -1h3v-1q0 -1 2 -1q0 1 2.5 1t2.5 2q2 -3 2.5 -5.5t3.5 -2.5q2 0 3 -1.5t4 -1.5q0 5 -5 8q1 0 3 -2l2 -2v2q0 2 1 1v4q4 -2 5.5 -6t4.5 -6q2 0 3 -2t4 -2q-2 2 -4 8t-1 5q-1 1 -1 2q-1 1 -1 3
q3 -3 3 -5q5 0 6.5 -2t4.5 -4q0 2 -2 4.5t-2 6.5q2 0 3 -1t3 -1q1 -2 6 -4q5 -13 11.5 -42t12.5 -66.5t12 -80t11 -83t9 -74.5t6 -54q20 -1 27.5 -2.5t18.5 -3.5q-1 -1 -1 -3q0 -1 3 -1h4q2 0 2 -2t-0.5 -3t-0.5 -3q0 -3 3 -4q-2 -1 -6 -1zM225 295q11 1 20 1h17
q17 0 32.5 -0.5t37.5 -0.5q-6 63 -13 118.5t-8 106.5q-9 -29 -18.5 -53.5t-19.5 -50t-21.5 -54.5t-26.5 -67zM317 748q-4 -2 -6 -2t-5 -1q-3 2 -3.5 7t-0.5 10v9q3 9 8.5 20.5t12.5 22t14.5 17.5t12.5 7q2 0 4.5 -1t5.5 -1q1 0 3.5 -2.5t2.5 -4.5q0 -19 -8 -30t-8 -13
q-2 -5 -10.5 -15.5t-11.5 -10.5q-2 -2 -5 -6t-6 -6z" />
    <glyph glyph-name="Acircumflex" unicode="&#xc2;" horiz-adv-x="478" 
d="M485 267q0 -3 3 -6q-3 0 -3 -2q0 -1 0.5 -2t0.5 -2q0 -2 -3 -3q-5 0 -5 -5q-3 0 -3 -5q0 -1 -4 -5l-3 -3q-5 0 -9 -2h-5q0 -1 4 -3.5t3 -3.5q-5 -2 -9.5 -2t-9.5 -2q3 -41 7 -84.5t8 -84.5q1 -4 1 -13q0 -17 -2.5 -33.5t-2.5 -26.5q-2 2 -2 3q0 2 -3 5q-1 1 -1 4
q0 2 -1 3l-3 -6v-10q-5 2 -5.5 8.5t-1.5 11.5q-2 -4 -2 -11q0 -2 -1 -6t-1 -5q0 -2 1 -2t1 -1q-2 -2 -2 -7.5v-9.5q-2 5 -2.5 10t-2.5 10q-3 6 -2.5 10t-1.5 8v-11q0 -9 -2 -9t-2 -1.5t-2 -1.5v1q-1 1 -2 1v-4l-1 -2v-1q-2 3 -5 6.5t-4 3.5q-2 0 -2.5 -1t-2.5 -1
q0 -1 -1 3.5t-3 3.5q0 -4 -0.5 -7.5t-2.5 -3.5q-1 0 -1 6v4q0 1 -0.5 3t-1.5 2h-3q-2 0 -2 -4t-1 -5q0 4 -1 8q0 -3 -0.5 -4.5t-0.5 -3.5v-8h-2q-1 0 -1 -2q-2 -2 -1.5 -6t-4.5 -6q-2 5 -2.5 9.5t-2.5 12.5q-9 62 -16.5 122.5t-13.5 124.5h-31.5t-42 -0.5t-40 -1.5t-25.5 -2
q-8 -21 -18 -47t-21 -53.5t-22 -56t-20 -54.5q-11 0 -29.5 -2t-29.5 -2q-8 0 -9 0.5t-9 2.5q-4 4 -7.5 5t-6.5 2t-5.5 3.5t-2.5 9.5l-9 5l-7 6q-8 24 -8 44q0 13 3 28q0 9 4.5 27.5t11.5 39.5t14 41.5t12 32.5q-3 4 -3 9q0 8 5.5 15t9.5 10q21 60 46.5 118.5t52.5 121.5
q10 18 23.5 49.5t31 61.5t40 52t50.5 22h5q5 -2 6 -3.5t1 -3.5t1 -4t6 -5q1 -1 2 -1h3v-1q0 -1 2 -1q0 1 2.5 1t2.5 2q2 -3 2.5 -5.5t3.5 -2.5q2 0 3 -1.5t4 -1.5q0 5 -5 8q1 0 3 -2l2 -2v2q0 2 1 1v4q4 -2 5.5 -6t4.5 -6q2 0 3 -2t4 -2q-2 2 -4 8t-1 5q-1 1 -1 2q-1 1 -1 3
q3 -3 3 -5q5 0 6.5 -2t4.5 -4q0 2 -2 4.5t-2 6.5q2 0 3 -1t3 -1q1 -2 6 -4q5 -13 11.5 -42t12.5 -66.5t12 -80t11 -83t9 -74.5t6 -54q20 -1 27.5 -2.5t18.5 -3.5q-1 -1 -1 -3q0 -1 3 -1h4q2 0 2 -2t-0.5 -3t-0.5 -3q0 -3 3 -4q-2 -1 -6 -1zM225 295q11 1 20 1h17
q17 0 32.5 -0.5t37.5 -0.5q-6 63 -13 118.5t-8 106.5q-9 -29 -18.5 -53.5t-19.5 -50t-21.5 -54.5t-26.5 -67zM374 751q-2 -2 -2 -4t0.5 -2t0.5 -1q0 -2 -5 -3q-1 -1 -1 -3q0 -1 -2.5 -3t-5.5 -2l-3 3q-5 5 -10.5 12t-10.5 13t-8.5 10.5t-3.5 5.5q-6 0 -12 -5.5t-11.5 -11.5
t-11.5 -11t-13 -5q-2 0 -2.5 -1t-2.5 -1q-3 1 -5.5 8.5t-2.5 17.5q1 4 9 10.5t17.5 13.5t19 12.5t13.5 7.5l3.5 3.5t5.5 1.5q1 0 2 -0.5t3 -0.5q7 -9 19.5 -19.5t12.5 -26.5q2 -5 3 -10t4 -9z" />
    <glyph glyph-name="Atilde" unicode="&#xc3;" horiz-adv-x="478" 
d="M485 267q0 -3 3 -6q-3 0 -3 -2q0 -1 0.5 -2t0.5 -2q0 -2 -3 -3q-5 0 -5 -5q-3 0 -3 -5q0 -1 -4 -5l-3 -3q-5 0 -9 -2h-5q0 -1 4 -3.5t3 -3.5q-5 -2 -9.5 -2t-9.5 -2q3 -41 7 -84.5t8 -84.5q1 -4 1 -13q0 -17 -2.5 -34t-2.5 -27q0 1 -1 1.5t-1 2.5t-3 5q-1 1 -1 4
q0 2 -1 3l-3 -6v-10q-5 2 -5.5 8.5t-1.5 11.5q-2 -4 -2 -11q0 -2 -1 -6t-1 -5q0 -2 1 -2t1 -1q-2 -2 -2 -7.5v-9.5q-2 5 -2.5 10t-2.5 10q-3 6 -2.5 10t-1.5 8v-11q0 -9 -2 -9t-2 -1.5t-2 -1.5v1q-1 1 -2 1v-4l-1 -2v-1q-2 3 -5 6.5t-4 3.5q-2 0 -2.5 -1t-2.5 -1
q0 -1 -1 3.5t-3 3.5q0 -4 -0.5 -7.5t-2.5 -3.5q-1 0 -1 6v4q0 1 -0.5 3t-1.5 2h-3q-2 0 -2 -4t-1 -5q0 4 -1 8q0 -3 -0.5 -4.5t-0.5 -3.5v-8h-2q-1 0 -1 -2q-2 -2 -1.5 -6t-4.5 -6q-2 5 -2.5 9.5t-2.5 12.5q-9 62 -16.5 122.5t-13.5 124.5h-31.5t-42 -0.5t-40 -1.5t-25.5 -2
q-8 -21 -18 -47t-21 -53.5t-22 -56t-20 -54.5q-11 0 -29.5 -2t-29.5 -2q-8 0 -9 0.5t-9 2.5q-4 4 -7.5 5t-6.5 2t-5.5 3.5t-2.5 9.5l-9 5l-7 6q-8 24 -8 44q0 13 3 28q0 9 4.5 27.5t11.5 39.5t14 41.5t12 32.5q-3 4 -3 9q0 8 5.5 15t9.5 10q21 60 46.5 118.5t52.5 121.5
q10 18 23.5 49.5t31 61.5t40 52t50.5 22h5q5 -2 6 -3.5t1 -3.5t1 -4t6 -5q1 -1 2 -1h3v-1q0 -1 2 -1q0 1 2.5 1t2.5 2q2 -3 2.5 -5.5t3.5 -2.5q2 0 3 -1.5t4 -1.5q0 5 -5 8q1 0 3 -2l2 -2v2q0 2 1 1v4q4 -2 5.5 -6t4.5 -6q2 0 3 -2t4 -2q-2 2 -4 8t-1 5q-1 1 -1 2q-1 1 -1 3
q3 -3 3 -5q5 0 6.5 -2t4.5 -4q0 2 -2 4.5t-2 6.5q2 0 3 -1t3 -1q1 -2 6 -4q5 -13 11.5 -42t12.5 -66.5t12 -80t11 -83t9 -74.5t6 -54q20 -1 27.5 -2.5t18.5 -3.5q-1 -1 -1 -3q0 -1 3 -1h4q2 0 2 -2t-0.5 -3t-0.5 -3q0 -3 3 -4q-2 -1 -6 -1zM225 295q11 1 20 1h17
q17 0 32.5 -0.5t37.5 -0.5q-6 63 -13 118.5t-8 106.5q-9 -29 -18.5 -53.5t-19.5 -50t-21.5 -54.5t-26.5 -67zM396 798q-3 -9 -5 -18.5t-7 -17t-13.5 -12.5t-23.5 -6q-14 5 -22.5 14.5t-11.5 9.5q-9 0 -16 -5t-12.5 -10.5t-9 -10.5t-6.5 -5q-9 0 -12 9q3 17 16.5 30t32.5 13
q2 0 3 -0.5t3 -0.5q2 2 8 2q8 -2 17 -9t12 -7q11 0 16.5 9.5t13.5 11.5q4 2 7.5 3.5t5.5 1.5q3 0 4 -2z" />
    <glyph glyph-name="Adieresis" unicode="&#xc4;" horiz-adv-x="478" 
d="M485 267q0 -3 3 -6q-3 0 -3 -2q0 -1 0.5 -2t0.5 -2q0 -2 -3 -3q-5 0 -5 -5q-3 0 -3 -5q0 -1 -4 -5l-3 -3q-5 0 -9 -2h-5q0 -1 4 -3.5t3 -3.5q-5 -2 -9.5 -2t-9.5 -2q3 -41 7 -84.5t8 -84.5q1 -4 1 -13q0 -17 -2.5 -33.5t-2.5 -26.5q-2 2 -2 3q0 2 -3 5q-1 1 -1 4
q0 2 -1 3l-3 -6v-10q-5 2 -5.5 8.5t-1.5 11.5q-2 -4 -2 -11q0 -2 -1 -6t-1 -5q0 -2 1 -2t1 -1q-2 -2 -2 -7.5v-9.5q-2 5 -2.5 10t-2.5 10q-3 6 -2.5 10t-1.5 8v-11q0 -9 -2 -9t-2 -1.5t-2 -1.5v1q-1 1 -2 1v-4l-1 -2v-1q-2 3 -5 6.5t-4 3.5q-2 0 -2.5 -1t-2.5 -1
q0 -1 -1 3.5t-3 3.5q0 -4 -0.5 -7.5t-2.5 -3.5q-1 0 -1 6v4q0 1 -0.5 3t-1.5 2h-3q-2 0 -2 -4t-1 -5q0 4 -1 8q0 -3 -0.5 -4.5t-0.5 -3.5v-8h-2q-1 0 -1 -2q-2 -2 -1.5 -6t-4.5 -6q-2 5 -2.5 9.5t-2.5 12.5q-9 62 -16.5 122.5t-13.5 124.5h-31.5t-42 -0.5t-40 -1.5t-25.5 -2
q-8 -21 -18 -47t-21 -53.5t-22 -56t-20 -54.5q-11 0 -29.5 -2t-29.5 -2q-8 0 -9 0.5t-9 2.5q-4 4 -7.5 5t-6.5 2t-5.5 3.5t-2.5 9.5l-9 5l-7 6q-8 24 -8 44q0 13 3 28q0 9 4.5 27.5t11.5 39.5t14 41.5t12 32.5q-3 4 -3 9q0 8 5.5 15t9.5 10q21 60 46.5 118.5t52.5 121.5
q10 18 23.5 49.5t31 61.5t40 52t50.5 22h5q5 -2 6 -3.5t1 -3.5t1 -4t6 -5q1 -1 2 -1h3v-1q0 -1 2 -1q0 1 2.5 1t2.5 2q2 -3 2.5 -5.5t3.5 -2.5q2 0 3 -1.5t4 -1.5q0 5 -5 8q1 0 3 -2l2 -2v2q0 2 1 1v4q4 -2 5.5 -6t4.5 -6q2 0 3 -2t4 -2q-2 2 -4 8t-1 5q-1 1 -1 2q-1 1 -1 3
q3 -3 3 -5q5 0 6.5 -2t4.5 -4q0 2 -2 4.5t-2 6.5q2 0 3 -1t3 -1q1 -2 6 -4q5 -13 11.5 -42t12.5 -66.5t12 -80t11 -83t9 -74.5t6 -54q20 -1 27.5 -2.5t18.5 -3.5q-1 -1 -1 -3q0 -1 3 -1h4q2 0 2 -2t-0.5 -3t-0.5 -3q0 -3 3 -4q-2 -1 -6 -1zM225 295q11 1 20 1h17
q17 0 32.5 -0.5t37.5 -0.5q-6 63 -13 118.5t-8 106.5q-9 -29 -18.5 -53.5t-19.5 -50t-21.5 -54.5t-26.5 -67zM287 792q2 0 4 -2q2 0 2.5 0.5t1.5 0.5q9 0 13.5 -10t6.5 -15q-2 -11 -11 -17q-9 0 -19.5 5t-10.5 17q0 5 4 13t9 8zM372 770q0 -11 -7 -16t-14 -8q-8 0 -11.5 8.5
t-3.5 7.5q0 3 -1 6t-1 6q0 11 7.5 14.5t9.5 3.5q7 0 14 -8t7 -14z" />
    <glyph glyph-name="Aring" unicode="&#xc5;" horiz-adv-x="478" 
d="M485 267q0 -3 3 -6q-3 0 -3 -2q0 -1 0.5 -2t0.5 -2q0 -2 -3 -3q-5 0 -5 -5q-3 0 -3 -5q0 -1 -4 -5l-3 -3q-5 0 -9 -2h-5q0 -1 4 -3.5t3 -3.5q-5 -2 -9.5 -2t-9.5 -2q3 -41 7 -84.5t8 -84.5q1 -4 1 -13q0 -17 -2.5 -34t-2.5 -27q0 1 -1 1.5t-1 2.5t-3 5q-1 1 -1 4
q0 2 -1 3l-3 -6v-10q-5 2 -5.5 8.5t-1.5 11.5q-2 -4 -2 -11q0 -2 -1 -6t-1 -5q0 -2 1 -2t1 -1q-2 -2 -2 -7.5v-9.5q-2 5 -2.5 10t-2.5 10q-3 6 -2.5 10t-1.5 8v-11q0 -9 -2 -9t-2 -1.5t-2 -1.5v1q-1 1 -2 1v-4l-1 -2v-1q-2 3 -5 6.5t-4 3.5q-2 0 -2.5 -1t-2.5 -1
q0 -1 -1 3.5t-3 3.5q0 -4 -0.5 -7.5t-2.5 -3.5q-1 0 -1 6v4q0 1 -0.5 3t-1.5 2h-3q-2 0 -2 -4t-1 -5q0 4 -1 8q0 -3 -0.5 -4.5t-0.5 -3.5v-8h-2q-1 0 -1 -2q-2 -2 -1.5 -6t-4.5 -6q-2 5 -2.5 9.5t-2.5 12.5q-9 62 -16.5 122.5t-13.5 124.5h-31.5t-42 -0.5t-40 -1.5t-25.5 -2
q-8 -21 -18 -47t-21 -53.5t-22 -56t-20 -54.5q-11 0 -29.5 -2t-29.5 -2q-8 0 -9 0.5t-9 2.5q-4 4 -7.5 5t-6.5 2t-5.5 3.5t-2.5 9.5l-9 5l-7 6q-8 24 -8 44q0 13 3 28q0 9 4.5 27.5t11.5 39.5t14 41.5t12 32.5q-3 4 -3 9q0 8 5.5 15t9.5 10q21 60 46.5 118.5t52.5 121.5
q10 18 23.5 49.5t31 61.5t40 52t50.5 22h5q5 -2 6 -3.5t1 -3.5t1 -4t6 -5q1 -1 2 -1h3v-1q0 -1 2 -1q0 1 2.5 1t2.5 2q2 -3 2.5 -5.5t3.5 -2.5q2 0 3 -1.5t4 -1.5q0 5 -5 8q1 0 3 -2l2 -2v2q0 2 1 1v4q4 -2 5.5 -6t4.5 -6q2 0 3 -2t4 -2q-2 2 -4 8t-1 5q-1 1 -1 2q-1 1 -1 3
q3 -3 3 -5q5 0 6.5 -2t4.5 -4q0 2 -2 4.5t-2 6.5q2 0 3 -1t3 -1q1 -2 6 -4q5 -13 11.5 -42t12.5 -66.5t12 -80t11 -83t9 -74.5t6 -54q20 -1 27.5 -2.5t18.5 -3.5q-1 -1 -1 -3q0 -1 3 -1h4q2 0 2 -2t-0.5 -3t-0.5 -3q0 -3 3 -4q-2 -1 -6 -1zM225 295q11 1 20 1h17
q17 0 32.5 -0.5t37.5 -0.5q-6 63 -13 118.5t-8 106.5q-9 -29 -18.5 -53.5t-19.5 -50t-21.5 -54.5t-26.5 -67zM385 800q1 -3 1 -10q0 -5 -3 -15t-9 -20t-15.5 -18t-22.5 -8q-24 0 -34 9.5t-10 23.5q0 11 5.5 23t14.5 21.5t20 16t22 6.5q3 0 12 -6t19 -23zM357 781
q0 7 -5.5 11.5t-5.5 9.5q-6 -4 -14 -13t-8 -18q0 -5 4.5 -6.5t7.5 -1.5q8 0 13.5 5.5t7.5 12.5z" />
    <glyph glyph-name="Ccedilla" unicode="&#xc7;" horiz-adv-x="383" 
d="M51 -20q7 -12 13 -27t17 -26q1 -1 4 -1q4 0 8 5.5t7.5 12.5t6 13t2.5 7q2 7 13.5 25t22.5 32q-66 20 -97 74.5t-31 136.5q0 67 23 135t60 127.5t84 104t95 65.5q14 6 27.5 8.5t26.5 2.5q20 0 38 -5.5t31.5 -13t21 -17t7.5 -16.5q-1 -8 -8 -12t-15 -4q-9 0 -16 3
q-1 0 -2 0.5t-2 0.5q-14 0 -37.5 -21t-49 -51t-48 -62.5t-34.5 -55.5q-22 -42 -35.5 -95.5t-13.5 -105.5q0 -32 5 -61t17 -51t33 -35t53 -13q27 0 51 5t48 16v-4q5 0 7 -1l-5 -6q4 0 4 -3q0 -1 5 -1q2 0 4 -1l-4 -4q4 0 4 -3q-15 -13 -34.5 -22t-41 -15t-44.5 -8.5t-44 -2.5
q-16 0 -30.5 1t-27.5 4q-4 -5 -5 -12l-3 -10q-4 -15 -8.5 -30.5t-10.5 -29.5t-15 -25.5t-21 -17.5q-14 -7 -27 -7q-14 0 -25 8.5t-12 12.5q-2 1 -4 6.5t-3.5 11.5t-2.5 11.5t-1 7.5q1 0 1 1.5t1 2.5v4q0 -1 1 -2l2 -2q0 1 -0.5 2t-0.5 3t2 2h3v3q2 -4 3 -5l1 -1q1 0 1 1.5
t2 1.5v13q0 -1 1 -1q1 -1 2 -1q0 1 -3 5t-1 4q1 0 1.5 -0.5t2.5 -0.5v9z" />
    <glyph glyph-name="Egrave" unicode="&#xc8;" 
d="M459 623q-5 0 -11.5 1t-7.5 1q0 -3 -5 -3h-9q-3 0 -3 -1q10 -4 15 -4l-2 -2l-1 -1q-1 0 -2 1t-2 1q-2 0 -2 -2h-5q1 -1 2 -1l1 -1q-1 -1 -4 -1t-7 1t-7 1q2 -2 6 -3t4 -2q-7 0 -16 0.5t-10 0.5q2 -2 5 -2q-3 0 -23 -1.5t-45.5 -3t-50 -3t-36.5 -1.5l-41 -266q14 1 32.5 2
t41.5 1q32 0 68 -5.5t64 -24.5q-14 -4 -16 -5t-6 -2q0 -4 -6 -5t-11 -1l1 -1l-6 -2q-8 0 -18 2q1 -1 1.5 -1t1.5 -1l1 -1h-5.5t-17.5 -1q-28 -2 -58 -4.5t-75 -4.5q-5 -44 -10.5 -83t-5.5 -82v-15v-11t1 -11q8 -1 16 -1.5t17 -0.5h13l54 4q8 0 16.5 -1t18.5 -3q6 1 12 1h11
h13q11 0 19.5 -2t15.5 -9q-1 -1 -5 -1q-2 0 -4.5 0.5t-4.5 0.5q-2 -2 -4.5 -1.5t-4.5 -1.5h9q-2 -3 -4 -3q3 -1 8 -1q2 0 3 -1q0 -2 -10 -2h-7.5t-2.5 -1h-4q1 -1 3 -1t4 -1h-5q0 -2 -4 -2t-8.5 -0.5t-8 -2t-3.5 -4.5q-21 -1 -26.5 -2.5t-6.5 -3.5t-2.5 -4.5t-12.5 -4.5
q0 -1 -17.5 -4t-40.5 -6l-46 -6t-34 -3h-9q-18 0 -34 3t-29 12q-3 -3 -4 -7.5t-3 -6.5q-27 2 -36.5 25.5t-10.5 57.5v6q0 35 5 71t6 56q14 96 27 191t27 198q-6 3 -11 8.5t-6 13.5q0 8 7 13.5t18 8.5t24.5 4.5t26.5 2.5h16q26 0 53.5 -1t47.5 -1q30 0 60 -2t57 -6.5
t48 -12.5t33 -19zM290 688q-3 2 -6 6t-5 6q-3 0 -11.5 10.5t-10.5 15.5q0 2 -8 13t-8 30q0 2 2.5 4.5t4.5 2.5q6 2 9 2q5 0 12.5 -7t14.5 -17.5t12.5 -22t8.5 -20.5v-9q0 -5 -0.5 -10t-3.5 -7q-3 1 -5 1q-3 0 -6 2zM446 617q-4 0 -5 3q2 0 5 -3z" />
    <glyph glyph-name="Eacute" unicode="&#xc9;" 
d="M459 623q-5 0 -11.5 1t-7.5 1q0 -3 -5 -3h-9q-3 0 -3 -1q10 -4 15 -4l-2 -2l-1 -1q-1 0 -2 1t-2 1q-2 0 -2 -2h-5q1 -1 2 -1l1 -1q-1 -1 -4 -1t-7 1t-7 1q2 -2 6 -3t4 -2q-7 0 -16 0.5t-10 0.5q2 -2 5 -2q-3 0 -23 -1.5t-45.5 -3t-50 -3t-36.5 -1.5l-41 -266q14 1 32.5 2
t41.5 1q32 0 68 -5.5t64 -24.5q-14 -4 -16 -5t-6 -2q0 -4 -6 -5t-11 -1l1 -1l-6 -2q-8 0 -18 2q1 -1 1.5 -1t1.5 -1l1 -1h-5.5t-17.5 -1q-28 -2 -58 -4.5t-75 -4.5q-5 -44 -10.5 -83t-5.5 -82v-15v-11t1 -11q8 -1 16 -1.5t17 -0.5h13l54 4q8 0 16.5 -1t18.5 -3q6 1 12 1h11
h13q11 0 19.5 -2t15.5 -9q-1 -1 -5 -1q-2 0 -4.5 0.5t-4.5 0.5q-2 -2 -4.5 -1.5t-4.5 -1.5h9q-2 -3 -4 -3q3 -1 8 -1q2 0 3 -1q0 -2 -10 -2h-7.5t-2.5 -1h-4q1 -1 3 -1t4 -1h-5q0 -2 -4 -2t-8.5 -0.5t-8 -2t-3.5 -4.5q-21 -1 -26.5 -2.5t-6.5 -3.5t-2.5 -4.5t-12.5 -4.5
q0 -1 -17.5 -4t-40.5 -6l-46 -6t-34 -3h-9q-18 0 -34 3t-29 12q-3 -3 -4 -7.5t-3 -6.5q-27 2 -36.5 25.5t-10.5 57.5v6q0 35 5 71t6 56q14 96 27 191t27 198q-6 3 -11 8.5t-6 13.5q0 8 7 13.5t18 8.5t24.5 4.5t26.5 2.5h16q26 0 53.5 -1t47.5 -1q30 0 60 -2t57 -6.5
t48 -12.5t33 -19zM273 688q-4 -2 -6 -2t-5 -1q-3 2 -3.5 7t-0.5 10v9q3 9 8.5 20.5t12.5 22t14.5 17.5t12.5 7q2 0 4.5 -1t5.5 -1q1 0 3.5 -2.5t2.5 -4.5q0 -19 -8 -30t-8 -13q-2 -5 -10.5 -15.5t-11.5 -10.5q-2 -2 -5 -6t-6 -6zM446 617q-4 0 -5 3q2 0 5 -3z" />
    <glyph glyph-name="Ecircumflex" unicode="&#xca;" 
d="M459 623q-5 0 -11.5 1t-7.5 1q0 -3 -5 -3h-9q-3 0 -3 -1q10 -4 15 -4l-2 -2l-1 -1q-1 0 -2 1t-2 1q-2 0 -2 -2h-5q1 -1 2 -1l1 -1q-1 -1 -4 -1t-7 1t-7 1q2 -2 6 -3t4 -2q-7 0 -16 0.5t-10 0.5q2 -2 5 -2q-3 0 -23 -1.5t-45.5 -3t-50 -3t-36.5 -1.5l-41 -266q14 1 32.5 2
t41.5 1q32 0 68 -5.5t64 -24.5q-14 -4 -16 -5t-6 -2q0 -4 -6 -5t-11 -1l1 -1l-6 -2q-8 0 -18 2q1 -1 1.5 -1t1.5 -1l1 -1h-5.5t-17.5 -1q-28 -2 -58 -4.5t-75 -4.5q-5 -44 -10.5 -83t-5.5 -82v-15v-11t1 -11q8 -1 16 -1.5t17 -0.5h13l54 4q8 0 16.5 -1t18.5 -3q6 1 12 1h11
h13q11 0 19.5 -2t15.5 -9q-1 -1 -5 -1q-2 0 -4.5 0.5t-4.5 0.5q-2 -2 -4.5 -1.5t-4.5 -1.5h9q-2 -3 -4 -3q3 -1 8 -1q2 0 3 -1q0 -2 -10 -2h-7.5t-2.5 -1h-4q1 -1 3 -1t4 -1h-5q0 -2 -4 -2t-8.5 -0.5t-8 -2t-3.5 -4.5q-21 -1 -26.5 -2.5t-6.5 -3.5t-2.5 -4.5t-12.5 -4.5
q0 -1 -17.5 -4t-40.5 -6l-46 -6t-34 -3h-9q-18 0 -34 3t-29 12q-3 -3 -4 -7.5t-3 -6.5q-27 2 -36.5 25.5t-10.5 57.5v6q0 35 5 71t6 56q14 96 27 191t27 198q-6 3 -11 8.5t-6 13.5q0 8 7 13.5t18 8.5t24.5 4.5t26.5 2.5h16q26 0 53.5 -1t47.5 -1q30 0 60 -2t57 -6.5
t48 -12.5t33 -19zM335 703q-2 -2 -2 -4t0.5 -2t0.5 -1q0 -2 -5 -3q-1 -1 -1 -3q0 -1 -2.5 -3t-5.5 -2l-3 3q-5 5 -10.5 12t-10.5 13t-8.5 10.5t-3.5 5.5q-6 0 -12 -5.5t-11.5 -11.5t-11.5 -11t-13 -5q-2 0 -2.5 -1t-2.5 -1q-3 1 -5.5 8.5t-2.5 17.5q1 4 9 10.5t17.5 13.5
t19 12.5t13.5 7.5l3.5 3.5t5.5 1.5q1 0 2 -0.5t3 -0.5q7 -9 19.5 -19.5t12.5 -26.5q2 -5 3 -10t4 -9zM446 617q-4 0 -5 3q2 0 5 -3z" />
    <glyph glyph-name="Edieresis" unicode="&#xcb;" 
d="M459 623q-5 0 -11.5 1t-7.5 1q0 -3 -5 -3h-9q-3 0 -3 -1q10 -4 15 -4l-2 -2l-1 -1q-1 0 -2 1t-2 1q-2 0 -2 -2h-5q1 -1 2 -1l1 -1q-1 -1 -4 -1t-7 1t-7 1q2 -2 6 -3t4 -2q-7 0 -16 0.5t-10 0.5q2 -2 5 -2q-3 0 -23 -1.5t-45.5 -3t-50 -3t-36.5 -1.5l-41 -266q14 1 32.5 2
t41.5 1q32 0 68 -5.5t64 -24.5q-14 -4 -16 -5t-6 -2q0 -4 -6 -5t-11 -1l1 -1l-6 -2q-8 0 -18 2q1 -1 1.5 -1t1.5 -1l1 -1h-5.5t-17.5 -1q-28 -2 -58 -4.5t-75 -4.5q-5 -44 -10.5 -83t-5.5 -82v-15v-11t1 -11q8 -1 16 -1.5t17 -0.5h13l54 4q8 0 16.5 -1t18.5 -3q6 1 12 1h11
h13q11 0 19.5 -2t15.5 -9q-1 -1 -5 -1q-2 0 -4.5 0.5t-4.5 0.5q-2 -2 -4.5 -1.5t-4.5 -1.5h9q-2 -3 -4 -3q3 -1 8 -1q2 0 3 -1q0 -2 -10 -2h-7.5t-2.5 -1h-4q1 -1 3 -1t4 -1h-5q0 -2 -4 -2t-8.5 -0.5t-8 -2t-3.5 -4.5q-21 -1 -26.5 -2.5t-6.5 -3.5t-2.5 -4.5t-12.5 -4.5
q0 -1 -17.5 -4t-40.5 -6l-46 -6t-34 -3h-9q-18 0 -34 3t-29 12q-3 -3 -4 -7.5t-3 -6.5q-27 2 -36.5 25.5t-10.5 57.5v6q0 35 5 71t6 56q14 96 27 191t27 198q-6 3 -11 8.5t-6 13.5q0 8 7 13.5t18 8.5t24.5 4.5t26.5 2.5h16q26 0 53.5 -1t47.5 -1q30 0 60 -2t57 -6.5
t48 -12.5t33 -19zM235 740q2 0 4 -2q2 0 2.5 0.5t1.5 0.5q9 0 13.5 -10t6.5 -15q-2 -11 -11 -17q-9 0 -19.5 5t-10.5 17q0 5 4 13t9 8zM320 718q0 -11 -7 -16t-14 -8q-8 0 -11.5 8.5t-3.5 7.5q0 3 -1 6t-1 6q0 11 7.5 14.5t9.5 3.5q7 0 14 -8t7 -14zM446 617q-4 0 -5 3
q2 0 5 -3z" />
    <glyph glyph-name="Igrave" unicode="&#xcc;" horiz-adv-x="255" 
d="M265 662q-3 -57 -11.5 -126.5t-18.5 -141.5t-19.5 -141.5t-15.5 -125.5q-2 -14 -2.5 -28.5t-1.5 -31.5l3 -55q0 -5 3 -11q-4 3 -9 3q-3 0 -10 5q-1 1 -5 1q-3 0 -6 -0.5t-4 -0.5q-3 0 -5.5 -2t-3.5 -2l-4 4q0 -1 -5 -2t-7 -3v-5q-4 4 -3.5 6.5t-4.5 2.5q-1 0 -3 -2.5
t-2 -3.5q-5 0 -5 2.5t-3 2.5q-2 0 -4 -1q2 -2 2 -3q0 -4 -3 -7q-5 11 -13 12t-14 6h-1q-1 0 -1 0.5t-1 0.5q0 -1 1 -2q0 -1 1 -1q2 -4 2 -7q0 -2 -4.5 4.5t-6.5 8.5q-3 0 -5 -4q-1 -2 -2 -3l-4 3l-4 -4t-10 -2q-14 2 -20.5 13t-7.5 25q0 72 8 144t19 144.5t22 144.5t19 143
q1 4 6 7t5 4q0 4 3.5 6t6.5 3q3 5 3 6.5t5 5.5q1 1 3.5 -2t1.5 -2q3 1 4.5 8t3.5 9q5 0 5.5 -0.5t1.5 -0.5q2 0 4 1q7 0 11.5 6t9.5 8q4 0 4 1q1 0 1.5 0.5t1.5 0.5q2 0 4 -1.5t4 -1.5q4 0 12 5h14q7 0 17.5 -2t15.5 -9l2.5 5t5.5 1q1 0 1 -2t2 -2t4.5 -0.5t4.5 -0.5
q0 -1 1 -5.5t1 -7.5zM177 695q-3 2 -6 6t-5 6q-3 0 -11.5 10.5t-10.5 15.5q0 2 -8 13t-8 30q0 2 2.5 4.5t4.5 2.5q6 2 9 2q5 0 12.5 -7t14.5 -17.5t12.5 -22t8.5 -20.5v-9q0 -5 -0.5 -10t-3.5 -7q-3 1 -5 1q-3 0 -6 2z" />
    <glyph glyph-name="Iacute" unicode="&#xcd;" horiz-adv-x="255" 
d="M265 662q-3 -57 -11.5 -126.5t-18.5 -141.5t-19.5 -141.5t-15.5 -125.5q-2 -14 -2.5 -28.5t-1.5 -31.5l3 -55q0 -5 3 -11q-4 3 -9 3q-3 0 -10 5q-1 1 -5 1q-3 0 -6 -0.5t-4 -0.5q-3 0 -5.5 -2t-3.5 -2l-4 4q0 -1 -5 -2t-7 -3v-5q-4 4 -3.5 6.5t-4.5 2.5q-1 0 -3 -2.5
t-2 -3.5q-5 0 -5 2.5t-3 2.5q-2 0 -4 -1q2 -2 2 -3q0 -4 -3 -7q-5 11 -13 12t-14 6h-1q-1 0 -1 0.5t-1 0.5q0 -1 1 -2q0 -1 1 -1q2 -4 2 -7q0 -2 -4.5 4.5t-6.5 8.5q-3 0 -5 -4q-1 -2 -2 -3l-4 3l-4 -4t-10 -2q-14 2 -20.5 13t-7.5 25q0 72 8 144t19 144.5t22 144.5t19 143
q1 4 6 7t5 4q0 4 3.5 6t6.5 3q3 5 3 6.5t5 5.5q1 1 3.5 -2t1.5 -2q3 1 4.5 8t3.5 9q5 0 5.5 -0.5t1.5 -0.5q2 0 4 1q7 0 11.5 6t9.5 8q4 0 4 1q1 0 1.5 0.5t1.5 0.5q2 0 4 -1.5t4 -1.5q4 0 12 5h14q7 0 17.5 -2t15.5 -9l2.5 5t5.5 1q1 0 1 -2t2 -2t4.5 -0.5t4.5 -0.5
q0 -1 1 -5.5t1 -7.5zM160 702q-4 -2 -6 -2t-5 -1q-3 2 -3.5 7t-0.5 10v9q3 9 8.5 20.5t12.5 22t14.5 17.5t12.5 7q2 0 4.5 -1t5.5 -1q1 0 3.5 -2.5t2.5 -4.5q0 -19 -8 -30t-8 -13q-2 -5 -10.5 -15.5t-11.5 -10.5q-2 -2 -5 -6t-6 -6z" />
    <glyph glyph-name="Icircumflex" unicode="&#xce;" horiz-adv-x="255" 
d="M265 662q-3 -57 -11.5 -126.5t-18.5 -141.5t-19.5 -141.5t-15.5 -125.5q-2 -14 -2.5 -28.5t-1.5 -31.5l3 -55q0 -5 3 -11q-4 3 -9 3q-3 0 -10 5q-1 1 -5 1q-3 0 -6 -0.5t-4 -0.5q-3 0 -5.5 -2t-3.5 -2l-4 4q0 -1 -5 -2t-7 -3v-5q-4 4 -3.5 6.5t-4.5 2.5q-1 0 -3 -2.5
t-2 -3.5q-5 0 -5 2.5t-3 2.5q-2 0 -4 -1q2 -2 2 -3q0 -4 -3 -7q-5 11 -13 12t-14 6h-1q-1 0 -1 0.5t-1 0.5q0 -1 1 -2q0 -1 1 -1q2 -4 2 -7q0 -2 -4.5 4.5t-6.5 8.5q-3 0 -5 -4q-1 -2 -2 -3l-4 3l-4 -4t-10 -2q-14 2 -20.5 13t-7.5 25q0 72 8 144t19 144.5t22 144.5t19 143
q1 4 6 7t5 4q0 4 3.5 6t6.5 3q3 5 3 6.5t5 5.5q1 1 3.5 -2t1.5 -2q3 1 4.5 8t3.5 9q5 0 5.5 -0.5t1.5 -0.5q2 0 4 1q7 0 11.5 6t9.5 8q4 0 4 1q1 0 1.5 0.5t1.5 0.5q2 0 4 -1.5t4 -1.5q4 0 12 5h14q7 0 17.5 -2t15.5 -9l2.5 5t5.5 1q1 0 1 -2t2 -2t4.5 -0.5t4.5 -0.5
q0 -1 1 -5.5t1 -7.5zM225 713q-2 -2 -2 -4t0.5 -2t0.5 -1q0 -2 -5 -3q-1 -1 -1 -3q0 -1 -2.5 -3t-5.5 -2l-3 3q-5 5 -10.5 12t-10.5 13t-8.5 10.5t-3.5 5.5q-6 0 -12 -5.5t-11.5 -11.5t-11.5 -11t-13 -5q-2 0 -2.5 -1t-2.5 -1q-3 1 -5.5 8.5t-2.5 17.5q1 4 9 10.5t17.5 13.5
t19 12.5t13.5 7.5l3.5 3.5t5.5 1.5q1 0 2 -0.5t3 -0.5q7 -9 19.5 -19.5t12.5 -26.5q2 -5 3 -10t4 -9z" />
    <glyph glyph-name="Idieresis" unicode="&#xcf;" horiz-adv-x="255" 
d="M265 662q-3 -57 -11.5 -126.5t-18.5 -141.5t-19.5 -141.5t-15.5 -125.5q-2 -14 -2.5 -28.5t-1.5 -31.5l3 -55q0 -5 3 -11q-4 3 -9 3q-3 0 -10 5q-1 1 -5 1q-3 0 -6 -0.5t-4 -0.5q-3 0 -5.5 -2t-3.5 -2l-4 4q0 -1 -5 -2t-7 -3v-5q-4 4 -3.5 6.5t-4.5 2.5q-1 0 -3 -2.5
t-2 -3.5q-5 0 -5 2.5t-3 2.5q-2 0 -4 -1q2 -2 2 -3q0 -4 -3 -7q-5 11 -13 12t-14 6h-1q-1 0 -1 0.5t-1 0.5q0 -1 1 -2q0 -1 1 -1q2 -4 2 -7q0 -2 -4.5 4.5t-6.5 8.5q-3 0 -5 -4q-1 -2 -2 -3l-4 3l-4 -4t-10 -2q-14 2 -20.5 13t-7.5 25q0 72 8 144t19 144.5t22 144.5t19 143
q1 4 6 7t5 4q0 4 3.5 6t6.5 3q3 5 3 6.5t5 5.5q1 1 3.5 -2t1.5 -2q3 1 4.5 8t3.5 9q5 0 5.5 -0.5t1.5 -0.5q2 0 4 1q7 0 11.5 6t9.5 8q4 0 4 1q1 0 1.5 0.5t1.5 0.5q2 0 4 -1.5t4 -1.5q4 0 12 5h14q7 0 17.5 -2t15.5 -9l2.5 5t5.5 1q1 0 1 -2t2 -2t4.5 -0.5t4.5 -0.5
q0 -1 1 -5.5t1 -7.5zM135 749q2 0 4 -2q2 0 2.5 0.5t1.5 0.5q9 0 13.5 -10t6.5 -15q-2 -11 -11 -17q-9 0 -19.5 5t-10.5 17q0 5 4 13t9 8zM220 727q0 -11 -7 -16t-14 -8q-8 0 -11.5 8.5t-3.5 7.5q0 3 -1 6t-1 6q0 11 7.5 14.5t9.5 3.5q7 0 14 -8t7 -14z" />
    <glyph glyph-name="Eth" unicode="&#xd0;" horiz-adv-x="529" 
d="M528 355q-2 -62 -18 -108t-40.5 -79t-55 -55t-60.5 -35t-57 -18t-45 -5h-7q-1 0 0 1q-4 0 -4 -1h3q-1 -1 -3 -1q-3 0 -4 1q-10 -13 -18 -20t-14.5 -10.5t-12.5 -4t-12 -0.5h-14q-18 0 -23.5 12.5t-5.5 32.5q-3 1 -5 13.5t-2.5 28t-1 30.5t-0.5 21q0 37 3 73.5t7 72.5
q-6 -1 -15.5 -1.5t-20.5 -0.5q-15 0 -30.5 1.5t-29 5t-22 10.5t-8.5 18q0 14 17 34q4 4 10 5t11 1q3 0 6 -0.5t7 -0.5q13 3 20 5.5t14.5 4.5t17.5 3l30 3q4 28 6 54t4.5 51t6 49t9.5 49q-4 4 -16.5 7t-25.5 7t-23.5 8.5t-10.5 11.5q0 2 0.5 7.5t1.5 11.5t3.5 10.5t6.5 5.5
q22 0 43.5 4t46.5 4q38 0 67.5 -11t64.5 -29l11 -6q0 -1 1 -1t1 -0.5t2 -0.5q6 -4 22.5 -14t37 -26t42.5 -38t40 -49.5t30 -61.5t12 -73v-7zM241 106q45 13 83 31t65.5 43.5t43 58.5t15.5 77q0 35 -10 72q-11 26 -30.5 55t-43.5 54.5t-51.5 45t-54.5 25.5q2 -14 3 -29t1 -30
q0 -29 -2 -58.5t-4 -58.5q18 -3 35.5 -3.5t33 -2.5t28.5 -8t21 -19q7 -7 7 -17q0 -12 -10 -23t-21 -14q-24 -5 -48.5 -4t-50.5 -4q-5 -43 -7.5 -86t-2.5 -86v-19z" />
    <glyph glyph-name="Ntilde" unicode="&#xd1;" horiz-adv-x="538" 
d="M586 649q0 -4 -0.5 -13.5t-1.5 -19.5t-3 -18t-4 -8q-24 -110 -43.5 -243t-53.5 -286q-8 -35 -31.5 -50t-49.5 -15q-16 0 -31.5 5t-26.5 15q-15 22 -26 59.5t-19.5 83.5t-15 96t-11 97.5t-8 88t-6.5 67.5q-3 16 -4 37t-9 31q-29 -53 -47.5 -116t-31 -129.5t-20.5 -133.5
t-14 -128q-3 -13 -6 -28t-11 -20q-5 0 -8.5 6.5t-5.5 8.5q-4 5 -5 11t-3 8q-3 5 -6.5 10.5t-6.5 8.5l-3 -1l-5 7q-3 0 -6.5 2.5t-4.5 2.5q-2 0 -5.5 2.5t-8.5 5.5h-4q-2 5 -3 10t-4 9q-2 23 -3.5 47t-1.5 48q0 60 7.5 120t23 115.5t39 104.5t55.5 87q30 29 60 29
q21 0 39.5 -12t34.5 -30.5t29 -40t24 -39.5l4 -6q0 -3 2 -7q1 -2 3 -3q7 -12 12.5 -36.5t10 -56.5t8 -68.5t7 -70.5t6.5 -63.5t7 -47.5q2 -6 3.5 -12t4.5 -10q5 8 6 15q13 75 24.5 142.5t23.5 129t26 117t33 106.5q0 13 3 15.5t7 2.5h3v-2q0 -1 1 -1t1 1t1 2q3 -2 8.5 -9
t11.5 -14.5t12 -13.5t10 -6q2 0 4 3zM426 818q-3 -9 -5 -18.5t-7 -17t-13.5 -12.5t-23.5 -6q-14 5 -22.5 14.5t-11.5 9.5q-9 0 -16 -5t-12.5 -10.5t-9 -10.5t-6.5 -5q-9 0 -12 9q3 17 16.5 30t32.5 13q2 0 3 -0.5t3 -0.5q2 2 8 2q8 -2 17 -9t12 -7q11 0 16.5 9.5t13.5 11.5
q4 2 7.5 3.5t5.5 1.5q3 0 4 -2zM179 500q2 0 2 -3q4 10 8 17.5t8 16.5v2q-2 -5 -4 -8t-2 -1q0 1 0.5 1.5t0.5 1.5q2 5 4.5 9.5t3.5 8.5q1 2 2.5 6t3.5 4q0 1 -0.5 1.5t-0.5 1.5q0 3 3.5 6.5t3.5 4.5q0 2 -1 3q2 2 4 7t4 7l-1 -4q2 0 2 2q0 1 -0.5 2t-0.5 2q1 0 3 2l1 1
q0 -2 -0.5 -2t-0.5 -1q1 1 1.5 3.5t1.5 4.5q1 3 1 5q0 3 1.5 4t1.5 3q-2 0 -6 -5t-7.5 -11t-6 -11l-2.5 -5q-2 -2 -4 -5q-4 -6 -4 -9q2 6 2 9q-2 -5 -3.5 -8.5t-3.5 -7.5v-4q-2 -2 -2 -3q-1 0 -1 0.5t-2 0.5q0 -1 0.5 -1.5t0.5 -2.5h1q-1 -1 -1 -4q0 -2 2 -2q-2 0 -4.5 -3
t-2.5 -6q0 -2 1 -3q-3 -11 -8 -21t-5 -24q-3 -2 -2.5 -5t-1.5 -3q0 2 1.5 5.5t1.5 5.5q-3 0 -5.5 -8.5t-2.5 -16.5q2 0 2 -2t-3 -5t-3 -6t2 -4q4 12 10.5 27.5t6.5 26.5l-2 -3l-2 -1q0 4 4 7zM226 564q0 3 3 7t5 6q0 5 -3 7q-6 -9 -10.5 -20.5t-9.5 -20.5q0 2 0.5 3t0.5 3
q-1 -2 -3.5 -4.5t-1.5 -2.5q4 0 3 -1q0 -1 0.5 -1.5t0.5 -1.5q-2 0 -4 -5.5t-3.5 -11.5t-2.5 -10.5t-2 -3.5q0 -1 -1 -1h-2q-2 0 -2 2q0 -2 -0.5 -3t-0.5 -2t-2 -1h-2q0 -5 -3 -9q0 -3 1 -4h-1v2q-4 -4 -5 -16.5t-2 -19.5q5 0 6.5 9t1.5 10q0 2 1 2h2q0 -6 -3 -10.5
t-3 -11.5q7 16 12 31.5t13 36.5q-2 0 -3 -1q0 1 3 9.5t11 22.5q0 -2 -1.5 -4.5t-1.5 -4.5q-2 -3 -3.5 -8.5t-1.5 -8.5q0 1 1.5 5t2.5 6q1 3 5.5 12.5t4.5 13.5zM194 565q0 -1 -0.5 -1.5t-0.5 -2.5q0 -1 1 0.5t1 3.5q2 2 4.5 5t4.5 7q0 -1 -0.5 -2t-0.5 -3q5 11 11.5 22
t12.5 20q-5 -5 -9 -12t-7 -7q-1 -5 -2 -8t-3 -6q0 2 0.5 3t0.5 3q-1 0 -1 1v2q0 -1 -0.5 -2t-0.5 0q-5 -7 -8 -15.5t-3 -7.5zM375 302q0 -5 -1 -5q1 -2 1 -7v-3q-1 1 -1 2q0 -5 1.5 -12.5t1.5 -6.5v-6q0 -2 0.5 -4t0.5 -1q1 -1 1 -2q0 -3 1 -6q0 -1 0.5 -2.5t0.5 -0.5z
M214 569q-2 -5 -4.5 -10.5t-4.5 -10.5q5 5 9 11t4 15q-1 0 -1.5 -1t-2.5 -1q0 2 2 4t2 4l-6 -8h1v-1zM173 521q0 -3 -0.5 -6t-0.5 -5q2 3 6 11.5t4 13.5q0 2 -1 3q-2 -4 -4.5 -10.5t-3.5 -6.5zM371 309q0 -2 1 -4q0 -3 1 -3v13q0 6 -1 12.5t-2 11.5q0 -2 0.5 -5.5t0.5 -7.5
v-17zM189 521q-5 0 -5 -4q0 4 3.5 8.5t6.5 12.5q0 -3 -2.5 -11t-2.5 -6zM194 513q1 2 2.5 2t1.5 2t2 2q0 2 -1.5 1.5t-2.5 1.5q1 2 1 3.5t2 3.5q-6 -6 -6 -13q0 -1 0.5 -1.5t0.5 -1.5zM379 242q0 7 -1.5 13t-3.5 13q1 -7 1.5 -13.5t3.5 -12.5zM183 539q2 5 5 9.5t3 10.5
q-2 -4 -3.5 -8t-3.5 -8zM194 551q2 2 2.5 5t2.5 6v-2q0 -1 0.5 -1.5t0.5 -1.5q-1 1 -6 -6zM201 550q0 -1 -0.5 -2t-0.5 -3v1q0 -2 -3 -2q0 2 4 6zM184 513q-1 -2 -1 -2.5t-2 -2.5q0 5 3 5zM191 545q0 1 1 2v1q-1 -1 -1 -3zM206 581l-2 -4zM192 547q1 1 1 2zM194 551v-1v1z
" />
    <glyph glyph-name="Ograve" unicode="&#xd2;" horiz-adv-x="484" 
d="M377 706q-3 2 -6 6t-5 6q-3 0 -11.5 10.5t-10.5 15.5q0 2 -8 13t-8 30q0 2 2.5 4.5t4.5 2.5q6 2 9 2q5 0 12.5 -7t14.5 -17.5t12.5 -22t8.5 -20.5v-9q0 -5 -0.5 -10t-3.5 -7q-3 1 -5 1q-3 0 -6 2zM364 538q-38 -17 -68 -46t-52.5 -65t-37.5 -77.5t-24 -81.5
q-1 -8 -2 -20.5t-1 -26.5q0 -21 2.5 -44t9.5 -42t19.5 -31.5t32.5 -12.5t33.5 6t25.5 16q17 13 29 30t21 36q26 52 41.5 110.5t22.5 118.5q0 17 -2 37t-8 36q0 2 -0.5 4t-0.5 4q0 3 1 4q0 5 6 5q4 0 6 -1l7 -14q5 0 12 -11t8 -16q5 -5 9 -10t6 -13q1 -1 1 -4t1 -4
q7 -3 11.5 -14t7 -25.5t3.5 -28.5t1 -23q0 -42 -10.5 -90t-31.5 -92.5t-52.5 -80.5t-72.5 -54q-23 -10 -51 -10q-29 0 -59 10t-54 27q-34 23 -58 45.5t-39.5 48.5t-23 56.5t-7.5 69.5v16t1 16q0 49 23 110t61.5 117t88.5 98t103 54q7 2 20 3t30 1q18 0 38.5 -2t38 -6.5
t30 -12t15.5 -18.5q5 -12 9 -18.5t4 -16.5q0 -8 -3 -18q-6 -16 -19.5 -24.5t-31 -13t-36 -6.5t-34.5 -5z" />
    <glyph glyph-name="Oacute" unicode="&#xd3;" horiz-adv-x="484" 
d="M345 704q-4 -2 -6 -2t-5 -1q-3 2 -3.5 7t-0.5 10v9q3 9 8.5 20.5t12.5 22t14.5 17.5t12.5 7q2 0 4.5 -1t5.5 -1q1 0 3.5 -2.5t2.5 -4.5q0 -19 -8 -30t-8 -13q-2 -5 -10.5 -15.5t-11.5 -10.5q-2 -2 -5 -6t-6 -6zM364 538q-38 -17 -68 -46t-52.5 -65t-37.5 -77.5t-24 -81.5
q-1 -8 -2 -20.5t-1 -26.5q0 -21 2.5 -44t9.5 -42t19.5 -31.5t32.5 -12.5t33.5 6t25.5 16q17 13 29 30t21 36q26 52 41.5 110.5t22.5 118.5q0 17 -2 37t-8 36q0 2 -0.5 4t-0.5 4q0 3 1 4q0 5 6 5q4 0 6 -1l7 -14q5 0 12 -11t8 -16q5 -5 9 -10t6 -13q1 -1 1 -4t1 -4
q7 -3 11.5 -14t7 -25.5t3.5 -28.5t1 -23q0 -42 -10.5 -90t-31.5 -92.5t-52.5 -80.5t-72.5 -54q-23 -10 -51 -10q-29 0 -59 10t-54 27q-34 23 -58 45.5t-39.5 48.5t-23 56.5t-7.5 69.5v16t1 16q0 49 23 110t61.5 117t88.5 98t103 54q7 2 20 3t30 1q18 0 38.5 -2t38 -6.5
t30 -12t15.5 -18.5q5 -12 9 -18.5t4 -16.5q0 -8 -3 -18q-6 -16 -19.5 -24.5t-31 -13t-36 -6.5t-34.5 -5z" />
    <glyph glyph-name="Ocircumflex" unicode="&#xd4;" horiz-adv-x="484" 
d="M364 538q-38 -17 -68 -46t-52.5 -65t-37.5 -77.5t-24 -81.5q-1 -8 -2 -20.5t-1 -26.5q0 -21 2.5 -44t9.5 -42t19.5 -31.5t32.5 -12.5t33.5 6t25.5 16q17 13 29 30t21 36q26 52 41.5 110.5t22.5 118.5q0 17 -2 37t-8 36q0 2 -0.5 4t-0.5 4q0 3 1 4q0 5 6 5q4 0 6 -1l7 -14
q5 0 12 -11t8 -16q5 -5 9 -10t6 -13q1 -1 1 -4t1 -4q7 -3 11.5 -14t7 -25.5t3.5 -28.5t1 -23q0 -42 -10.5 -90t-31.5 -92.5t-52.5 -80.5t-72.5 -54q-23 -10 -51 -10q-29 0 -59 10t-54 27q-34 23 -58 45.5t-39.5 48.5t-23 56.5t-7.5 69.5v16t1 16q0 49 23 110t61.5 117
t88.5 98t103 54q7 2 20 3t30 1q18 0 38.5 -2t38 -6.5t30 -12t15.5 -18.5q5 -12 9 -18.5t4 -16.5q0 -8 -3 -18q-6 -16 -19.5 -24.5t-31 -13t-36 -6.5t-34.5 -5zM424 722q-2 -2 -2 -4t0.5 -2t0.5 -1q0 -2 -5 -3q-1 -1 -1 -3q0 -1 -2.5 -3t-5.5 -2l-3 3q-5 5 -10.5 12t-10.5 13
t-8.5 10.5t-3.5 5.5q-6 0 -12 -5.5t-11.5 -11.5t-11.5 -11t-13 -5q-2 0 -2.5 -1t-2.5 -1q-3 1 -5.5 8.5t-2.5 17.5q1 4 9 10.5t17.5 13.5t19 12.5t13.5 7.5l3.5 3.5t5.5 1.5q1 0 2 -0.5t3 -0.5q7 -9 19.5 -19.5t12.5 -26.5q2 -5 3 -10t4 -9z" />
    <glyph glyph-name="Otilde" unicode="&#xd5;" horiz-adv-x="484" 
d="M364 538q-38 -17 -68 -46t-52.5 -65t-37.5 -77.5t-24 -81.5q-1 -8 -2 -20.5t-1 -26.5q0 -21 2.5 -44t9.5 -42t19.5 -31.5t32.5 -12.5t33.5 6t25.5 16q17 13 29 30t21 36q26 52 41.5 110.5t22.5 118.5q0 17 -2 37t-8 36q0 2 -0.5 4t-0.5 4q0 3 1 4q0 5 6 5q4 0 6 -1l7 -14
q5 0 12 -11t8 -16q5 -5 9 -10t6 -13q1 -1 1 -4t1 -4q7 -3 11.5 -14t7 -25.5t3.5 -28.5t1 -23q0 -42 -10.5 -90t-31.5 -92.5t-52.5 -80.5t-72.5 -54q-23 -10 -51 -10q-29 0 -59 10t-54 27q-34 23 -58 45.5t-39.5 48.5t-23 56.5t-7.5 69.5v16t1 16q0 49 23 110t61.5 117
t88.5 98t103 54q7 2 20 3t30 1q18 0 38.5 -2t38 -6.5t30 -12t15.5 -18.5q5 -12 9 -18.5t4 -16.5q0 -8 -3 -18q-6 -16 -19.5 -24.5t-31 -13t-36 -6.5t-34.5 -5zM420 774q-3 -9 -5 -18.5t-7 -17t-13.5 -12.5t-23.5 -6q-14 5 -22.5 14.5t-11.5 9.5q-9 0 -16 -5t-12.5 -10.5
t-9 -10.5t-6.5 -5q-9 0 -12 9q3 17 16.5 30t32.5 13q2 0 3 -0.5t3 -0.5q2 2 8 2q8 -2 17 -9t12 -7q11 0 16.5 9.5t13.5 11.5q4 2 7.5 3.5t5.5 1.5q3 0 4 -2z" />
    <glyph glyph-name="Odieresis" unicode="&#xd6;" horiz-adv-x="484" 
d="M364 538q-38 -17 -68 -46t-52.5 -65t-37.5 -77.5t-24 -81.5q-1 -8 -2 -20.5t-1 -26.5q0 -21 2.5 -44t9.5 -42t19.5 -31.5t32.5 -12.5t33.5 6t25.5 16q17 13 29 30t21 36q26 52 41.5 110.5t22.5 118.5q0 17 -2 37t-8 36q0 2 -0.5 4t-0.5 4q0 3 1 4q0 5 6 5q4 0 6 -1l7 -14
q5 0 12 -11t8 -16q5 -5 9 -10t6 -13q1 -1 1 -4t1 -4q7 -3 11.5 -14t7 -25.5t3.5 -28.5t1 -23q0 -42 -10.5 -90t-31.5 -92.5t-52.5 -80.5t-72.5 -54q-23 -10 -51 -10q-29 0 -59 10t-54 27q-34 23 -58 45.5t-39.5 48.5t-23 56.5t-7.5 69.5v16t1 16q0 49 23 110t61.5 117
t88.5 98t103 54q7 2 20 3t30 1q18 0 38.5 -2t38 -6.5t30 -12t15.5 -18.5q5 -12 9 -18.5t4 -16.5q0 -8 -3 -18q-6 -16 -19.5 -24.5t-31 -13t-36 -6.5t-34.5 -5zM321 755q2 0 4 -2q2 0 2.5 0.5t1.5 0.5q9 0 13.5 -10t6.5 -15q-2 -11 -11 -17q-9 0 -19.5 5t-10.5 17q0 5 4 13
t9 8zM406 733q0 -11 -7 -16t-14 -8q-8 0 -11.5 8.5t-3.5 7.5q0 3 -1 6t-1 6q0 11 7.5 14.5t9.5 3.5q7 0 14 -8t7 -14z" />
    <glyph glyph-name="multiply" unicode="&#xd7;" horiz-adv-x="337" 
d="M320 476q-9 -24 -20 -36.5t-23.5 -22.5t-27 -21.5t-29.5 -34.5l11 -22t13 -27q7 -16 15 -32l5 -9q13 -23 25.5 -48.5t12.5 -42.5q0 -10 -5 -10q-5 3 -7 4.5t-4 1.5t-3 -2.5t-7 -2.5t-11.5 2t-13.5 2q-5 7 -15.5 23t-23.5 34.5t-25.5 37t-19.5 30.5l-11 -9
q-29 -27 -49 -57t-44 -50q-2 -2 -13 -9.5t-18 -7.5q-4 0 -4 3q-1 2 -6 3t-5 3q0 23 15.5 49.5t36 51.5t40.5 46t29 32q0 -1 -9.5 15t-20.5 35.5t-20 36l-9 16.5q0 4 4.5 11.5t4.5 11.5q0 14 19 14l15 12q0 -1 10 -11t22 -27q7 -9 18.5 -26.5t19.5 -31.5q21 21 49.5 45.5
t55.5 38.5q3 0 12 -9t11 -10z" />
    <glyph glyph-name="Oslash" unicode="&#xd8;" horiz-adv-x="484" 
d="M499 660q6 -6 6 -17q0 -13 -4.5 -21.5t-6.5 -8.5q-3 -10 -7 -16q0 -4 -2 -10q-4 -10 -10 -17q-10 -19 -19.5 -37t-20.5 -40q-5 -5 -8 -11q5 -3 11 -12.5t7 -13.5q5 -5 9 -10t6 -13q1 -1 1 -4t1 -4q7 -3 11.5 -14t7 -25.5t3.5 -28.5t1 -23q0 -42 -10.5 -90t-31.5 -92.5
t-52.5 -80.5t-72.5 -54q-23 -10 -51 -10q-29 0 -59 10t-54 27l-8 5q-1 0 -1 -1v-2q-2 -1 -2.5 -2t-2.5 -2l-3 -3t-6.5 -6t-6.5 -5.5t-3 -1.5q0 3 1 5q-4 -3 -10 -10.5t-6 -9.5q-5 -9 -8 -13t-8 -9q-1 2 -1 7q0 17 8.5 37.5t16.5 39.5q-46 38 -67 82t-21 109v16t1 16
q0 49 23 110t61.5 117t88.5 98t103 54q7 2 20 3t30 1q15 0 31.5 -1t32 -4t28.5 -8t21 -12q10 9 22 9q5 0 11 -3zM220 154q-5 -10 -10.5 -18.5t-11.5 -16.5q16 -28 45 -28q20 0 33.5 6t25.5 16q17 13 29 30t21 36q26 52 41.5 110.5t22.5 118.5q0 21 -3 45q-15 -23 -28 -44
t-26.5 -43t-29 -45t-35.5 -49q-19 -39 -42 -69.5t-32 -48.5zM364 538q-38 -17 -68 -46t-52.5 -65t-37.5 -77.5t-24 -81.5q-1 -8 -2 -20.5t-1 -26.5v-16q3 12 11 28t18 32t19.5 29.5t14.5 20.5q30 60 66.5 110t63.5 92q2 7 5 13t7 11z" />
    <glyph glyph-name="Ugrave" unicode="&#xd9;" horiz-adv-x="514" 
d="M472 9v2q0 1 -0.5 1.5t-0.5 1.5q0 -2 -3 -3t-4 -7q-1 1 -1 4v9q-3 0 -6.5 -2t-3.5 -7q-1 1 -2 3t-3 2v-3q-1 2 -2.5 3.5t-1.5 3.5q-2 -1 -3 -3q-2 -4 -2 -7q-3 1 -4 5q-2 -2 -3 -2q-2 0 -2.5 4t-1.5 7q0 -5 1 -9t1 -8q-2 4 -3 6.5t-4 2.5h-1v-3q-1 1 -4 2.5t-4 3.5
q0 -3 -1 -3t-3 2.5t-4 2.5t-1.5 -2.5t-1.5 -3.5h-5q-2 0 -4.5 -2t-4.5 -2q-19 0 -28.5 25.5t-11.5 55.5q0 5 -0.5 10t-0.5 10q0 29 3 56t4 39l-3 -8q-7 -17 -17.5 -40t-24 -44t-30 -35.5t-35.5 -14.5q-5 0 -7.5 2t-8.5 2q-7 0 -7 -3q2 0 3 0.5t2 0.5q3 0 3 -0.5t2 -0.5
q-1 -1 -2 -2.5t-2 -1.5t-1 1t-0.5 1t-0.5 1q-4 0 -4 -5q0 -3 -3 -3t-7 3q-3 -2 -14.5 -5.5t-16.5 -3.5q-2 -2 -13.5 -7.5t-19.5 -5.5q-26 0 -42.5 16.5t-26.5 42t-14 55t-5 55.5q-1 14 -1 28.5v28.5q0 94 12.5 193t34.5 195q3 13 8.5 29t16.5 27q6 9 18.5 14t26 7t25.5 2.5
t17 0.5q30 0 49.5 -16t19.5 -60q0 -14 -6.5 -24.5t-16.5 -21.5q-5 -8 -8.5 -20t-6.5 -23q-17 -69 -26 -144.5t-9 -151.5q0 -17 0.5 -33t1.5 -32q1 -17 2.5 -34t3.5 -31q8 5 11 14q22 43 41 90t37.5 95.5t39 96.5t44.5 93q3 15 6 34.5t10 37t19 30t34 12.5q23 0 41.5 -13.5
t20.5 -36.5q0 -10 -1 -15zM399 703q-3 2 -6 6t-5 6q-3 0 -11.5 10.5t-10.5 15.5q0 2 -8 13t-8 30q0 2 2.5 4.5t4.5 2.5q6 2 9 2q5 0 12.5 -7t14.5 -17.5t12.5 -22t8.5 -20.5v-9q0 -5 -0.5 -10t-3.5 -7q-3 1 -5 1q-3 0 -6 2z" />
    <glyph glyph-name="Uacute" unicode="&#xda;" horiz-adv-x="514" 
d="M472 9v2q0 1 -0.5 1.5t-0.5 1.5q0 -2 -3 -3t-4 -7q-1 1 -1 4v9q-3 0 -6.5 -2t-3.5 -7q-1 1 -2 3t-3 2v-3q-1 2 -2.5 3.5t-1.5 3.5q-2 -1 -3 -3q-2 -4 -2 -7q-3 1 -4 5q-2 -2 -3 -2q-2 0 -2.5 4t-1.5 7q0 -5 1 -9t1 -8q-2 4 -3 6.5t-4 2.5h-1v-3q-1 1 -4 2.5t-4 3.5
q0 -3 -1 -3t-3 2.5t-4 2.5t-1.5 -2.5t-1.5 -3.5h-5q-2 0 -4.5 -2t-4.5 -2q-19 0 -28.5 25.5t-11.5 55.5q0 5 -0.5 10t-0.5 10q0 29 3 56t4 39l-3 -8q-7 -17 -17.5 -40t-24 -44t-30 -35.5t-35.5 -14.5q-5 0 -7.5 2t-8.5 2q-7 0 -7 -3q2 0 3 0.5t2 0.5q3 0 3 -0.5t2 -0.5
q-1 -1 -2 -2.5t-2 -1.5t-1 1t-0.5 1t-0.5 1q-4 0 -4 -5q0 -3 -3 -3t-7 3q-3 -2 -14.5 -5.5t-16.5 -3.5q-2 -2 -13.5 -7.5t-19.5 -5.5q-26 0 -42.5 16.5t-26.5 42t-14 55t-5 55.5q-1 14 -1 28.5v28.5q0 94 12.5 193t34.5 195q3 13 8.5 29t16.5 27q6 9 18.5 14t26 7t25.5 2.5
t17 0.5q30 0 49.5 -16t19.5 -60q0 -14 -6.5 -24.5t-16.5 -21.5q-5 -8 -8.5 -20t-6.5 -23q-17 -69 -26 -144.5t-9 -151.5q0 -17 0.5 -33t1.5 -32q1 -17 2.5 -34t3.5 -31q8 5 11 14q22 43 41 90t37.5 95.5t39 96.5t44.5 93q3 15 6 34.5t10 37t19 30t34 12.5q23 0 41.5 -13.5
t20.5 -36.5q0 -10 -1 -15zM391 704q-4 -2 -6 -2t-5 -1q-3 2 -3.5 7t-0.5 10v9q3 9 8.5 20.5t12.5 22t14.5 17.5t12.5 7q2 0 4.5 -1t5.5 -1q1 0 3.5 -2.5t2.5 -4.5q0 -19 -8 -30t-8 -13q-2 -5 -10.5 -15.5t-11.5 -10.5q-2 -2 -5 -6t-6 -6z" />
    <glyph glyph-name="Ucircumflex" unicode="&#xdb;" horiz-adv-x="514" 
d="M472 9v2q0 1 -0.5 1.5t-0.5 1.5q0 -2 -3 -3t-4 -7q-1 1 -1 4v9q-3 0 -6.5 -2t-3.5 -7q-1 1 -2 3t-3 2v-4q0 2 -2 4t-2 4q-2 -1 -3 -3q-2 -4 -2 -7q-3 1 -4 5q-2 -2 -3 -2q-2 0 -2.5 4t-1.5 7q0 -5 1 -9t1 -8q-2 4 -3 6.5t-4 2.5h-1v-3q-1 1 -4 2.5t-4 3.5q0 -3 -1 -3
t-3 2.5t-4 2.5t-1.5 -2.5t-1.5 -3.5h-5q-2 0 -4.5 -2t-4.5 -2q-19 0 -28.5 25.5t-11.5 55.5q0 5 -0.5 10t-0.5 10q0 29 3 56t4 39l-3 -8q-7 -17 -17.5 -40t-24 -44t-30 -35.5t-35.5 -14.5q-5 0 -7.5 2t-8.5 2q-7 0 -7 -3q2 0 3 0.5t2 0.5q3 0 3 -0.5t2 -0.5q-1 -1 -2 -2.5
t-2 -1.5t-1 1t-0.5 1t-0.5 1q-4 0 -4 -5q0 -3 -3 -3t-7 3q-3 -2 -14.5 -5.5t-16.5 -3.5q-2 -2 -13.5 -7.5t-19.5 -5.5q-26 0 -42.5 16.5t-26.5 42t-14 55t-5 55.5q-1 14 -1 28.5v28.5q0 94 12.5 193t34.5 195q3 13 8.5 29t16.5 27q6 9 18.5 14t26 7t25.5 2.5t17 0.5
q30 0 49.5 -16t19.5 -60q0 -14 -6.5 -24.5t-16.5 -21.5q-5 -8 -8.5 -20t-6.5 -23q-17 -69 -26 -144.5t-9 -151.5q0 -17 0.5 -33t1.5 -32q1 -17 2.5 -34t3.5 -31q8 5 11 14q22 43 41 90t37.5 95.5t39 96.5t44.5 93q3 15 6 34.5t10 37t19 30t34 12.5q23 0 41.5 -13.5
t20.5 -36.5q0 -10 -1 -15zM447 727q-2 -2 -2 -4t0.5 -2t0.5 -1q0 -2 -5 -3q-1 -1 -1 -3q0 -1 -2.5 -3t-5.5 -2l-3 3q-5 5 -10.5 12t-10.5 13t-8.5 10.5t-3.5 5.5q-6 0 -12 -5.5t-11.5 -11.5t-11.5 -11t-13 -5q-2 0 -2.5 -1t-2.5 -1q-3 1 -5.5 8.5t-2.5 17.5q1 4 9 10.5
t17.5 13.5t19 12.5t13.5 7.5l3.5 3.5t5.5 1.5q1 0 2 -0.5t3 -0.5q7 -9 19.5 -19.5t12.5 -26.5q2 -5 3 -10t4 -9z" />
    <glyph glyph-name="Udieresis" unicode="&#xdc;" horiz-adv-x="514" 
d="M472 9v2q0 1 -0.5 1.5t-0.5 1.5q0 -2 -3 -3t-4 -7q-1 1 -1 4v9q-3 0 -6.5 -2t-3.5 -7q-1 1 -2 3t-3 2v-4q0 2 -2 4t-2 4q-2 -1 -3 -3q-2 -4 -2 -7q-3 1 -4 5q-2 -2 -3 -2q-2 0 -2.5 4t-1.5 7q0 -5 1 -9t1 -8q-2 4 -3 6.5t-4 2.5h-1v-3q0 1 -3.5 2.5t-4.5 3.5q0 -3 -1 -3
t-3 2.5t-4 2.5t-1.5 -2.5t-1.5 -3.5h-5q-2 0 -4.5 -2t-4.5 -2q-19 0 -28.5 25.5t-11.5 55.5q0 5 -0.5 10t-0.5 10q0 29 3 56t4 39l-3 -8q-7 -17 -17.5 -40t-24 -44t-30 -35.5t-35.5 -14.5q-5 0 -7.5 2t-8.5 2q-7 0 -7 -3q2 0 3 0.5t2 0.5q3 0 3 -0.5t2 -0.5q-1 -1 -2 -2.5
t-2 -1.5t-1 1t-0.5 1t-0.5 1q-4 0 -4 -5q0 -3 -3 -3t-7 3q-3 -2 -14.5 -5.5t-16.5 -3.5q-2 -2 -13.5 -7.5t-19.5 -5.5q-26 0 -42.5 16.5t-26.5 42t-14 55t-5 55.5q-1 14 -1 28.5v28.5q0 94 12.5 193t34.5 195q3 13 8.5 29t16.5 27q6 9 18.5 14t26 7t25.5 2.5t17 0.5
q30 0 49.5 -16t19.5 -60q0 -14 -6.5 -24.5t-16.5 -21.5q-5 -8 -8.5 -20t-6.5 -23q-17 -69 -26 -144.5t-9 -151.5q0 -17 0.5 -33t1.5 -32q1 -17 2.5 -34t3.5 -31q8 5 11 14q22 43 41 90t37.5 95.5t39 96.5t44.5 93q3 15 6 34.5t10 37t19 30t34 12.5q23 0 41.5 -13.5
t20.5 -36.5q0 -10 -1 -15zM351 761q2 0 4 -2q2 0 2.5 0.5t1.5 0.5q9 0 13.5 -10t6.5 -15q-2 -11 -11 -17q-9 0 -19.5 5t-10.5 17q0 5 4 13t9 8zM436 739q0 -11 -7 -16t-14 -8q-8 0 -11.5 8.5t-3.5 7.5q0 3 -1 6t-1 6q0 11 7.5 14.5t9.5 3.5q7 0 14 -8t7 -14z" />
    <glyph glyph-name="Yacute" unicode="&#xdd;" horiz-adv-x="447" 
d="M421 684q32 0 44 -22.5t12 -52.5q0 -11 -3.5 -28.5t-7.5 -34.5t-7.5 -29.5t-3.5 -13.5q-3 -8 -9.5 -36.5t-16 -71t-21 -94t-23.5 -105t-23.5 -105.5t-20.5 -94q0 -1 -1.5 -2t-1.5 -3h1t2 1q0 -16 -4 -32.5t-8.5 -29.5t-8.5 -21.5t-5 -9.5q-2 0 -7 6.5t-12 8.5q0 -2 -1 -3
q-2 -3 -4 -3q-1 0 -1 0.5t-2 0.5t-3 -1l-2 2t-1 4q-2 -1 -3 -2.5t-3 -3.5q-2 0 -2 2t-3 2q-1 0 -2.5 -0.5t-3.5 -0.5q0 1 0.5 2t0.5 3t-2 2t-3.5 -2t-3.5 -2q-1 0 -9 5.5t-19 5.5q-4 0 -8 -2t-7 -2q-2 0 -2 5t-2 5t-3.5 -2t-3.5 -2t-5.5 8.5t-3.5 27.5q0 13 3 31
q9 78 24.5 157.5t34.5 155t38 144t35 125.5q-5 -11 -13 -33t-19 -51t-24.5 -61.5t-28.5 -62.5t-31.5 -55t-32.5 -39q-9 -15 -30.5 -20.5t-49.5 -5.5q-26 0 -42 18.5t-24.5 44.5t-11.5 52.5t-3 43.5q0 33 5.5 79t19 92t35.5 85t55 56q6 3 13 3q13 0 23.5 -5.5t17.5 -13
t10.5 -16.5t3.5 -15q0 -15 -5 -32q-9 -25 -20.5 -58t-21 -69t-16.5 -72.5t-7 -69.5q0 -9 0.5 -19.5t2 -20t5 -16.5t8.5 -8q25 38 45 79t37.5 83.5t35.5 85t41 84.5q14 21 24.5 28.5t22 9.5t25 1.5t33.5 4.5h9zM293 748q-4 -2 -6 -2t-5 -1q-3 2 -3.5 7t-0.5 10v9
q3 9 8.5 20.5t12.5 22t14.5 17.5t12.5 7q2 0 4.5 -1t5.5 -1q1 0 3.5 -2.5t2.5 -4.5q0 -19 -8 -30t-8 -13q-2 -5 -10.5 -15.5t-11.5 -10.5q-2 -2 -5 -6t-6 -6zM349 66q0 2 -0.5 3t-0.5 4q0 1 -0.5 1.5t-0.5 1.5q-1 -2 -3.5 -6t-2.5 -9q1 -1 1 -4q3 0 3 3zM241 153q2 1 2 5
q0 5 -3 9t-3 2q0 -1 1 -8t3 -8zM257 193q-4 0 -6 -6t-2 -7q1 0 4.5 6t3.5 7zM252 248q6 0 6 3l-4 2q-2 0 -2 -5zM328 -29q0 3 1 5.5t1 6.5l-3 1q0 -1 0.5 -2t0.5 -4q-1 -1 -1 -4t1 -3zM353 102q2 2 3 7t2 8q-1 -4 -3 -7t-2 -8zM350 87q2 0 2 2v2q-2 0 -4 3t-2 2t2 -5z
M228 100q2 1 2 3t1 4q-4 -1 -4 -4q0 -1 0.5 -1.5t0.5 -1.5zM230 142l2 2t1 4q-3 0 -3 -6z" />
    <glyph glyph-name="Thorn" unicode="&#xde;" horiz-adv-x="290" 
d="M131 591q24 -2 50 -11.5t48.5 -26.5t37 -40t14.5 -51v-5q-2 -38 -21.5 -65t-44.5 -44t-49.5 -24.5t-36.5 -7.5q-7 0 -7 3h-6q-1 -11 -2 -31t-2.5 -43t-3.5 -46t-3 -41q-2 -20 -12 -24t-24 -4h-14q-17 0 -27 -5l-4 -2q-2 0 -4 2q-11 11 -11 28v10q0 39 2 83t5 90t6 92.5
t6 89.5q0 12 1.5 41t5.5 61t12 60t22 38q6 3 13 3q14 0 25.5 -9t11.5 -22q0 -4 1 -8.5t2 -9.5q9 -38 9 -81zM118 368q35 2 54.5 30.5t19.5 60.5q0 25 -13.5 44t-44.5 21h-6q-1 -13 -2.5 -33.5t-3 -43t-2.5 -44t-2 -35.5z" />
    <glyph glyph-name="germandbls" unicode="&#xdf;" horiz-adv-x="350" 
d="M393 503q-5 -25 -22.5 -43.5t-37 -34.5t-35 -31.5t-15.5 -33.5t18 -39q10 -12 23 -26.5t24 -30.5t18.5 -34.5t7.5 -38.5q0 -11 -3 -23q-6 -27 -20.5 -46t-33.5 -31t-40.5 -17.5t-40.5 -5.5q-27 0 -43 9q-34 18 -49 35.5t-15 40.5q0 2 0.5 5t0.5 5q0 3 2 3q4 0 14 -8.5
t21 -13.5q13 -5 26.5 -8.5t26.5 -3.5q19 0 32.5 9.5t13.5 33.5q0 20 -13 38t-28.5 37t-28.5 40t-13 47q0 38 20 62t44.5 41.5t44.5 33t20 35.5q0 15 -5.5 23.5t-12.5 12.5t-13 4.5t-7 0.5q-20 -3 -40.5 -26t-39.5 -57t-36.5 -75.5t-30.5 -82t-20.5 -76t-7.5 -57.5
q0 -3 -3 -15t-6 -26t-6 -25t-3 -12q0 -12 -3 -20.5t-7 -17.5q0 -2 -1 -3q0 -1 -0.5 -1.5t-0.5 -1.5q-1 -14 -11.5 -25.5t-25 -20t-30.5 -13.5t-26 -5q-14 0 -14 8q0 3 3 8q3 3 9 23t12 44t10.5 44.5t4.5 24.5q8 39 18 88.5t23.5 101t33 100.5t47 88t65.5 63t88 25h4
q27 0 48 -8t35.5 -21t22.5 -30t8 -34q0 -8 -1 -12z" />
    <glyph glyph-name="agrave" unicode="&#xe0;" horiz-adv-x="329" 
d="M192 449q-3 2 -6 6t-5 6q-3 0 -11.5 10.5t-10.5 15.5q0 2 -8 13t-8 30q0 2 2.5 4.5t4.5 2.5q6 2 9 2q5 0 12.5 -7t14.5 -17.5t12.5 -22t8.5 -20.5v-9q0 -5 -0.5 -10t-3.5 -7q-3 1 -5 1q-3 0 -6 2zM80 164h2q1 0 1 1q28 52 52 97t53 98q1 7 8.5 16t9.5 11q-8 -4 -18 -14
t-19.5 -23.5t-19 -29t-17.5 -30.5q-15 -29 -29.5 -64t-22.5 -62zM151 278q0 2 -1 -1.5t-3 -6.5q2 1 6.5 4.5t4.5 8.5q0 -2 -3 -1.5t-4 -3.5zM180 328q2 -2 6 6l-1 -1q-2 -2 -2 -1zM165 299q4 6 4 8l2 6q-1 -1 -3 -3.5t-4 -2.5q-1 -1 -3.5 -6.5t-2.5 -7.5q0 -1 1.5 0.5
t2.5 1.5zM146 260q3 1 3.5 3.5t2.5 4.5q8 6 4 6l-7 -5q-2 -2 -5.5 -4.5t-3.5 -7.5q0 2 2 2q1 0 1.5 0.5t2.5 0.5zM155 262l1 1q2 2 3 2q-1 1 -1 2v1q1 1 -1 -1.5t-2 -4.5zM156 260q2 1 4 2.5t3 3.5zM167 264q-2 0 -5 -3t-2 -3q2 0 4.5 2t2.5 4zM393 229q-1 -1 -3 -8
q-1 -4 -2 -7l-3 -4q-2 -1 -3 -2q-2 -2 -2 -4q-3 -5 -7 -9t-6 -7q1 0 -1 -3t-3 -2q-1 -2 -3 -5t-4 -5q-9 -10 -16 -19q-6 -8 -11.5 -14t-7.5 -7q-3 -2 -6 -3t-6 -6q-8 -9 -14 -11t-17 -7q-14 -3 -16 -3t-3 0.5t-2 0.5q-3 -1 -5.5 -1.5t-5.5 -0.5q-17 0 -31 13.5t-20 29.5
q-7 17 -9.5 45t-2.5 57q0 14 0.5 27.5t1.5 24.5q-2 -2 -3 -5.5t-1 -4.5q-6 -19 -17 -43.5t-23.5 -47t-23.5 -37.5t-16 -14q-5 -5 -7.5 -9.5t-7.5 -7.5q-8 -3 -16 -3q-15 0 -26 8t-15.5 19t-4.5 24q3 47 19.5 88.5t36.5 73.5q15 23 34.5 45t48.5 36q12 5 24 5q14 0 28.5 -4.5
t25.5 -10.5q6 -4 6 -7q0 -1 -0.5 -1.5t-0.5 -1.5v-1q-4 -4 -10 -4q0 -5 2 -5.5t2 -4.5q-1 -5 -1.5 -7t-0.5 -7v-7q0 -2 -0.5 -3.5t-0.5 -3.5v-45q0 -26 0.5 -57t2 -58t3.5 -45.5t6 -18.5q6 -1 27 19.5t46 50t50 62.5t39 57q2 5 5 9q2 3 5 6t7 3q5 0 6 -7q1 -3 3 -5t3 -7
q1 -4 1 -10q0 -9 -5 -22l-4 -9q-6 -2 -4.5 -4.5t-4.5 -8.5q-1 -2 -8.5 -13t-11.5 -16l-2 -2l-2 -2q0 2 2.5 7.5t7.5 10.5q1 1 1.5 1t1.5 2q0 1 2 3q1 1 1 2q0 2 2 4q-1 -2 -2.5 -2.5t-2.5 -2.5q0 -2 -2 -2l-9 -13q-5 -5 -8 -10.5t-7 -11.5q1 1 3 4t4 2zM377 250q0 -1 0.5 -2
t0.5 -2t6 4.5t5 4.5h-5q-3 -3 -3 -5h-4zM374 245q-4 0 -6.5 -5.5t-1.5 -5.5q3 0 5 6t3 5zM366 222q0 3 3 4.5t3 4.5q0 1 -0.5 1.5t-0.5 1.5q-4 0 -4 -2.5t-1 -3.5t-1.5 -3t-0.5 -1q-3 0 -7 -10l-4 -10q3 0 5.5 4.5t4.5 6.5q2 4 2.5 4.5t0.5 2.5zM356 197q3 0 3 5
q-3 -3 -3 -5zM367 210l-1 -3q3 2 4 4t3 4t2 3t-2 3l-7 -7t-6 -8l2 -2v-1q1 0 2.5 3.5t2.5 3.5zM360 186q4 4 5 11q1 2 2 3t1 5q-2 -5 -5 -7.5t-5 -8.5q0 -2 2 -3q-3 0 -3 -5z" />
    <glyph glyph-name="aacute" unicode="&#xe1;" horiz-adv-x="329" 
d="M196 453q-4 -2 -6 -2t-5 -1q-3 2 -3.5 7t-0.5 10v9q3 9 8.5 20.5t12.5 22t14.5 17.5t12.5 7q2 0 4.5 -1t5.5 -1q1 0 3.5 -2.5t2.5 -4.5q0 -19 -8 -30t-8 -13q-2 -5 -10.5 -15.5t-11.5 -10.5q-2 -2 -5 -6t-6 -6zM80 164h2q1 0 1 1q28 52 52 97t53 98q1 7 8.5 16t9.5 11
q-8 -4 -18 -14t-19.5 -23.5t-19 -29t-17.5 -30.5q-15 -29 -29.5 -64t-22.5 -62zM151 278q0 2 -1 -1.5t-3 -6.5q2 1 6.5 4.5t4.5 8.5q0 -2 -3 -1.5t-4 -3.5zM180 328q2 -2 6 6l-1 -1q-2 -2 -2 -1zM165 299q4 6 4 8l2 6q-1 -1 -3 -3.5t-4 -2.5q-1 -1 -3.5 -6.5t-2.5 -7.5
q0 -1 1.5 0.5t2.5 1.5zM146 260q3 1 3.5 3.5t2.5 4.5q8 6 4 6l-7 -5q-2 -2 -5.5 -4.5t-3.5 -7.5q0 2 2 2q1 0 1.5 0.5t2.5 0.5zM155 262l1 1q2 2 3 2q-1 1 -1 2v1q1 1 -1 -1.5t-2 -4.5zM156 260q2 1 4 2.5t3 3.5zM167 264q-2 0 -5 -3t-2 -3q2 0 4.5 2t2.5 4zM393 229
q-1 -1 -3 -8q-1 -4 -2 -7l-3 -4q-2 -1 -3 -2q-2 -2 -2 -4q-3 -5 -7 -9t-6 -7q1 0 -1 -3t-3 -2q-1 -2 -3 -5t-4 -5q-9 -10 -16 -19q-6 -8 -11.5 -14t-7.5 -7q-3 -2 -6 -3t-6 -6q-8 -9 -14 -11t-17 -7q-14 -3 -16 -3t-3 0.5t-2 0.5q-3 -1 -5.5 -1.5t-5.5 -0.5q-17 0 -31 13.5
t-20 29.5q-7 17 -9.5 45t-2.5 57q0 14 0.5 27.5t1.5 24.5q-2 -2 -3 -5.5t-1 -4.5q-6 -19 -17 -43.5t-23.5 -47t-23.5 -37.5t-16 -14q-5 -5 -7.5 -9.5t-7.5 -7.5q-8 -3 -16 -3q-15 0 -26 8t-15.5 19t-4.5 24q3 47 19.5 88.5t36.5 73.5q15 23 34.5 45t48.5 36q12 5 24 5
q14 0 28.5 -4.5t25.5 -10.5q6 -4 6 -7q0 -1 -0.5 -1.5t-0.5 -1.5v-1q-4 -4 -10 -4q0 -5 2 -5.5t2 -4.5q-1 -5 -1.5 -7t-0.5 -7v-7q0 -2 -0.5 -3.5t-0.5 -3.5v-45q0 -26 0.5 -57t2 -58t3.5 -45.5t6 -18.5q6 -1 27 19.5t46 50t50 62.5t39 57q2 5 5 9q2 3 5 6t7 3q5 0 6 -7
q1 -3 3 -5t3 -7q1 -4 1 -10q0 -9 -5 -22l-4 -9q-6 -2 -4.5 -4.5t-4.5 -8.5q-1 -2 -8.5 -13t-11.5 -16l-2 -2l-2 -2q0 2 2.5 7.5t7.5 10.5q1 1 1.5 1t1.5 2q0 1 2 3q1 1 1 2q0 2 2 4q-1 -2 -2.5 -2.5t-2.5 -2.5q0 -2 -2 -2l-9 -13q-5 -5 -8 -10.5t-7 -11.5q1 1 3 4t4 2z
M377 250q0 -1 0.5 -2t0.5 -2t6 4.5t5 4.5h-5q-3 -3 -3 -5h-4zM374 245q-4 0 -6.5 -5.5t-1.5 -5.5q3 0 5 6t3 5zM366 222q0 3 3 4.5t3 4.5q0 1 -0.5 1.5t-0.5 1.5q-4 0 -4 -2.5t-1 -3.5t-1.5 -3t-0.5 -1q-3 0 -7 -10l-4 -10q3 0 5.5 4.5t4.5 6.5q2 4 2.5 4.5t0.5 2.5z
M356 197q3 0 3 5q-3 -3 -3 -5zM367 210l-1 -3q3 2 4 4t3 4t2 3t-2 3l-7 -7t-6 -8l2 -2v-1q1 0 2.5 3.5t2.5 3.5zM360 186q4 4 5 11q1 2 2 3t1 5q-2 -5 -5 -7.5t-5 -8.5q0 -2 2 -3q-3 0 -3 -5z" />
    <glyph glyph-name="acircumflex" unicode="&#xe2;" horiz-adv-x="329" 
d="M254 468q-2 -2 -2 -4t0.5 -2t0.5 -1q0 -2 -5 -3q-1 -1 -1 -3q0 -1 -2.5 -3t-5.5 -2l-3 3q-5 5 -10.5 12t-10.5 13t-8.5 10.5t-3.5 5.5q-6 0 -12 -5.5t-11.5 -11.5t-11.5 -11t-13 -5q-2 0 -2.5 -1t-2.5 -1q-3 1 -5.5 8.5t-2.5 17.5q1 4 9 10.5t17.5 13.5t19 12.5t13.5 7.5
l3.5 3.5t5.5 1.5q1 0 2 -0.5t3 -0.5q7 -9 19.5 -19.5t12.5 -26.5q2 -5 3 -10t4 -9zM80 164h2q1 0 1 1q28 52 52 97t53 98q1 7 8.5 16t9.5 11q-8 -4 -18 -14t-19.5 -23.5t-19 -29t-17.5 -30.5q-15 -29 -29.5 -64t-22.5 -62zM151 278q0 2 -1 -1.5t-3 -6.5q2 1 6.5 4.5t4.5 8.5
q0 -2 -3 -1.5t-4 -3.5zM180 328q2 -2 6 6l-1 -1q-2 -2 -2 -1zM165 299q4 6 4 8l2 6q-1 -1 -3 -3.5t-4 -2.5q-1 -1 -3.5 -6.5t-2.5 -7.5q0 -1 1.5 0.5t2.5 1.5zM146 260q3 1 3.5 3.5t2.5 4.5q8 6 4 6l-7 -5q-2 -2 -5.5 -4.5t-3.5 -7.5q0 2 2 2q1 0 1.5 0.5t2.5 0.5zM155 262
l1 1q2 2 3 2q-1 1 -1 2v1q1 1 -1 -1.5t-2 -4.5zM156 260q2 1 4 2.5t3 3.5zM167 264q-2 0 -5 -3t-2 -3q2 0 4.5 2t2.5 4zM393 229q-1 -1 -3 -8q-1 -4 -2 -7l-3 -4q-2 -1 -3 -2q-2 -2 -2 -4q-3 -5 -7 -9t-6 -7q1 0 -1 -3t-3 -2q-1 -2 -3 -5t-4 -5q-9 -10 -16 -19
q-6 -8 -11.5 -14t-7.5 -7q-3 -2 -6 -3t-6 -6q-8 -9 -14 -11t-17 -7q-14 -3 -16 -3t-3 0.5t-2 0.5q-3 -1 -5.5 -1.5t-5.5 -0.5q-17 0 -31 13.5t-20 29.5q-7 17 -9.5 45t-2.5 57q0 14 0.5 27.5t1.5 24.5q-2 -2 -3 -5.5t-1 -4.5q-6 -19 -17 -43.5t-23.5 -47t-23.5 -37.5
t-16 -14q-5 -5 -7.5 -9.5t-7.5 -7.5q-8 -3 -16 -3q-15 0 -26 8t-15.5 19t-4.5 24q3 47 19.5 88.5t36.5 73.5q15 23 34.5 45t48.5 36q12 5 24 5q14 0 28.5 -4.5t25.5 -10.5q6 -4 6 -7q0 -1 -0.5 -1.5t-0.5 -1.5v-1q-4 -4 -10 -4q0 -5 2 -5.5t2 -4.5q-1 -5 -1.5 -7t-0.5 -7v-7
q0 -2 -0.5 -3.5t-0.5 -3.5v-45q0 -26 0.5 -57t2 -58t3.5 -45.5t6 -18.5q6 -1 27 19.5t46 50t50 62.5t39 57q2 5 5 9q2 3 5 6t7 3q5 0 6 -7q1 -3 3 -5t3 -7q1 -4 1 -10q0 -9 -5 -22l-4 -9q-6 -2 -4.5 -4.5t-4.5 -8.5q-1 -2 -8.5 -13t-11.5 -16l-2 -2l-2 -2q0 2 2.5 7.5
t7.5 10.5q1 1 1.5 1t1.5 2q0 1 2 3q1 1 1 2q0 2 2 4q-1 -2 -2.5 -2.5t-2.5 -2.5q0 -2 -2 -2l-9 -13q-5 -5 -8 -10.5t-7 -11.5q1 1 3 4t4 2zM377 250q0 -1 0.5 -2t0.5 -2t6 4.5t5 4.5h-5q-3 -3 -3 -5h-4zM374 245q-4 0 -6.5 -5.5t-1.5 -5.5q3 0 5 6t3 5zM366 222q0 3 3 4.5
t3 4.5q0 1 -0.5 1.5t-0.5 1.5q-4 0 -4 -2.5t-1 -3.5t-1.5 -3t-0.5 -1q-3 0 -7 -10l-4 -10q3 0 5.5 4.5t4.5 6.5q2 4 2.5 4.5t0.5 2.5zM356 197q3 0 3 5q-3 -3 -3 -5zM367 210l-1 -3q3 2 4 4t3 4t2 3t-2 3l-7 -7t-6 -8l2 -2v-1q1 0 2.5 3.5t2.5 3.5zM360 186q4 4 5 11
q1 2 2 3t1 5q-2 -5 -5 -7.5t-5 -8.5q0 -2 2 -3q-3 0 -3 -5z" />
    <glyph glyph-name="atilde" unicode="&#xe3;" horiz-adv-x="329" 
d="M258 514q-3 -9 -5 -18.5t-7 -17t-13.5 -12.5t-23.5 -6q-14 5 -22.5 14.5t-11.5 9.5q-9 0 -16 -5t-12.5 -10.5t-9 -10.5t-6.5 -5q-9 0 -12 9q3 17 16.5 30t32.5 13q2 0 3 -0.5t3 -0.5q2 2 8 2q8 -2 17 -9t12 -7q11 0 16.5 9.5t13.5 11.5q4 2 7.5 3.5t5.5 1.5q3 0 4 -2z
M80 164h2q1 0 1 1q28 52 52 97t53 98q1 7 8.5 16t9.5 11q-8 -4 -18 -14t-19.5 -23.5t-19 -29t-17.5 -30.5q-15 -29 -29.5 -64t-22.5 -62zM151 278q0 2 -1 -1.5t-3 -6.5q2 1 6.5 4.5t4.5 8.5q0 -2 -3 -1.5t-4 -3.5zM180 328q2 -2 6 6l-1 -1q-2 -2 -2 -1zM165 299q4 6 4 8l2 6
q-1 -1 -3 -3.5t-4 -2.5q-1 -1 -3.5 -6.5t-2.5 -7.5q0 -1 1.5 0.5t2.5 1.5zM146 260q3 1 3.5 3.5t2.5 4.5q8 6 4 6l-7 -5q-2 -2 -5.5 -4.5t-3.5 -7.5q0 2 2 2q1 0 1.5 0.5t2.5 0.5zM155 262l1 1q2 2 3 2q-1 1 -1 2v1q1 1 -1 -1.5t-2 -4.5zM156 260q2 1 4 2.5t3 3.5zM167 264
q-2 0 -5 -3t-2 -3q2 0 4.5 2t2.5 4zM393 229q-1 -1 -3 -8q-1 -4 -2 -7l-3 -4q-2 -1 -3 -2q-2 -2 -2 -4q-3 -5 -7 -9t-6 -7q1 0 -1 -3t-3 -2q-1 -2 -3 -5t-4 -5q-9 -10 -16 -19q-6 -8 -11.5 -14t-7.5 -7q-3 -2 -6 -3t-6 -6q-8 -9 -14 -11t-17 -7q-14 -3 -16 -3t-3 0.5t-2 0.5
q-3 -1 -5.5 -1.5t-5.5 -0.5q-17 0 -31 13.5t-20 29.5q-7 17 -9.5 45t-2.5 57q0 14 0.5 27.5t1.5 24.5q-2 -2 -3 -5.5t-1 -4.5q-6 -19 -17 -43.5t-23.5 -47t-23.5 -37.5t-16 -14q-5 -5 -7.5 -9.5t-7.5 -7.5q-8 -3 -16 -3q-15 0 -26 8t-15.5 19t-4.5 24q3 47 19.5 88.5
t36.5 73.5q15 23 34.5 45t48.5 36q12 5 24 5q14 0 28.5 -4.5t25.5 -10.5q6 -4 6 -7q0 -1 -0.5 -1.5t-0.5 -1.5v-1q-4 -4 -10 -4q0 -5 2 -5.5t2 -4.5q-1 -5 -1.5 -7t-0.5 -7v-7q0 -2 -0.5 -3.5t-0.5 -3.5v-45q0 -26 0.5 -57t2 -58t3.5 -45.5t6 -18.5q6 -1 27 19.5t46 50
t50 62.5t39 57q2 5 5 9q2 3 5 6t7 3q5 0 6 -7q1 -3 3 -5t3 -7q1 -4 1 -10q0 -9 -5 -22l-4 -9q-6 -2 -4.5 -4.5t-4.5 -8.5q-1 -2 -8.5 -13t-11.5 -16l-2 -2l-2 -2q0 2 2.5 7.5t7.5 10.5q1 1 1.5 1t1.5 2q0 1 2 3q1 1 1 2q0 2 2 4q-1 -2 -2.5 -2.5t-2.5 -2.5q0 -2 -2 -2
l-9 -13q-5 -5 -8 -10.5t-7 -11.5q1 1 3 4t4 2zM377 250q0 -1 0.5 -2t0.5 -2t6 4.5t5 4.5h-5q-3 -3 -3 -5h-4zM374 245q-4 0 -6.5 -5.5t-1.5 -5.5q3 0 5 6t3 5zM366 222q0 3 3 4.5t3 4.5q0 1 -0.5 1.5t-0.5 1.5q-4 0 -4 -2.5t-1 -3.5t-1.5 -3t-0.5 -1q-3 0 -7 -10l-4 -10
q3 0 5.5 4.5t4.5 6.5q2 4 2.5 4.5t0.5 2.5zM356 197q3 0 3 5q-3 -3 -3 -5zM367 210l-1 -3q3 2 4 4t3 4t2 3t-2 3l-7 -7t-6 -8l2 -2v-1q1 0 2.5 3.5t2.5 3.5zM360 186q4 4 5 11q1 2 2 3t1 5q-2 -5 -5 -7.5t-5 -8.5q0 -2 2 -3q-3 0 -3 -5z" />
    <glyph glyph-name="adieresis" unicode="&#xe4;" horiz-adv-x="329" 
d="M157 500q2 0 4 -2q2 0 2.5 0.5t1.5 0.5q9 0 13.5 -10t6.5 -15q-2 -11 -11 -17q-9 0 -19.5 5t-10.5 17q0 5 4 13t9 8zM242 478q0 -11 -7 -16t-14 -8q-8 0 -11.5 8.5t-3.5 7.5q0 3 -1 6t-1 6q0 11 7.5 14.5t9.5 3.5q7 0 14 -8t7 -14zM80 164h2q1 0 1 1q28 52 52 97t53 98
q1 7 8.5 16t9.5 11q-8 -4 -18 -14t-19.5 -23.5t-19 -29t-17.5 -30.5q-15 -29 -29.5 -64t-22.5 -62zM151 278q0 2 -1 -1.5t-3 -6.5q2 1 6.5 4.5t4.5 8.5q0 -2 -3 -1.5t-4 -3.5zM180 328q2 -2 6 6l-1 -1q-2 -2 -2 -1zM165 299q4 6 4 8l2 6q-1 -1 -3 -3.5t-4 -2.5
q-1 -1 -3.5 -6.5t-2.5 -7.5q0 -1 1.5 0.5t2.5 1.5zM146 260q3 1 3.5 3.5t2.5 4.5q8 6 4 6l-7 -5q-2 -2 -5.5 -4.5t-3.5 -7.5q0 2 2 2q1 0 1.5 0.5t2.5 0.5zM155 262l1 1q2 2 3 2q-1 1 -1 2v1q1 1 -1 -1.5t-2 -4.5zM156 260q2 1 4 2.5t3 3.5zM167 264q-2 0 -5 -3t-2 -3
q2 0 4.5 2t2.5 4zM393 229q-1 -1 -3 -8q-1 -4 -2 -7l-3 -4q-2 -1 -3 -2q-2 -2 -2 -4q-3 -5 -7 -9t-6 -7q1 0 -1 -3t-3 -2q-1 -2 -3 -5t-4 -5q-9 -10 -16 -19q-6 -8 -11.5 -14t-7.5 -7q-3 -2 -6 -3t-6 -6q-8 -9 -14 -11t-17 -7q-14 -3 -16 -3t-3 0.5t-2 0.5q-3 -1 -5.5 -1.5
t-5.5 -0.5q-17 0 -31 13.5t-20 29.5q-7 17 -9.5 45t-2.5 57q0 14 0.5 27.5t1.5 24.5q-2 -2 -3 -5.5t-1 -4.5q-6 -19 -17 -43.5t-23.5 -47t-23.5 -37.5t-16 -14q-5 -5 -7.5 -9.5t-7.5 -7.5q-8 -3 -16 -3q-15 0 -26 8t-15.5 19t-4.5 24q3 47 19.5 88.5t36.5 73.5
q15 23 34.5 45t48.5 36q12 5 24 5q14 0 28.5 -4.5t25.5 -10.5q6 -4 6 -7q0 -1 -0.5 -1.5t-0.5 -1.5v-1q-4 -4 -10 -4q0 -5 2 -5.5t2 -4.5q-1 -5 -1.5 -7t-0.5 -7v-7q0 -2 -0.5 -3.5t-0.5 -3.5v-45q0 -26 0.5 -57t2 -58t3.5 -45.5t6 -18.5q6 -1 27 19.5t46 50t50 62.5t39 57
q2 5 5 9q2 3 5 6t7 3q5 0 6 -7q1 -3 3 -5t3 -7q1 -4 1 -10q0 -9 -5 -22l-4 -9q-6 -2 -4.5 -4.5t-4.5 -8.5q-1 -2 -8.5 -13t-11.5 -16l-2 -2l-2 -2q0 2 2.5 7.5t7.5 10.5q1 1 1.5 1t1.5 2q0 1 2 3q1 1 1 2q0 2 2 4q-1 -2 -2.5 -2.5t-2.5 -2.5q0 -2 -2 -2l-9 -13
q-5 -5 -8 -10.5t-7 -11.5q1 1 3 4t4 2zM377 250q0 -1 0.5 -2t0.5 -2t6 4.5t5 4.5h-5q-3 -3 -3 -5h-4zM374 245q-4 0 -6.5 -5.5t-1.5 -5.5q3 0 5 6t3 5zM366 222q0 3 3 4.5t3 4.5q0 1 -0.5 1.5t-0.5 1.5q-4 0 -4 -2.5t-1 -3.5t-1.5 -3t-0.5 -1q-3 0 -7 -10l-4 -10
q3 0 5.5 4.5t4.5 6.5q2 4 2.5 4.5t0.5 2.5zM356 197q3 0 3 5q-3 -3 -3 -5zM367 210l-1 -3q3 2 4 4t3 4t2 3t-2 3l-7 -7t-6 -8l2 -2v-1q1 0 2.5 3.5t2.5 3.5zM360 186q4 4 5 11q1 2 2 3t1 5q-2 -5 -5 -7.5t-5 -8.5q0 -2 2 -3q-3 0 -3 -5z" />
    <glyph glyph-name="aring" unicode="&#xe5;" horiz-adv-x="329" 
d="M229 527q1 -3 1 -10q0 -5 -3 -15t-9 -20t-15.5 -18t-22.5 -8q-24 0 -34 9.5t-10 23.5q0 11 5.5 23t14.5 21.5t20 16t22 6.5q3 0 12 -6t19 -23zM201 508q0 7 -5.5 11.5t-5.5 9.5q-6 -4 -14 -13t-8 -18q0 -5 4.5 -6.5t7.5 -1.5q8 0 13.5 5.5t7.5 12.5zM80 164h2q1 0 1 1
q28 52 52 97t53 98q1 7 8.5 16t9.5 11q-8 -4 -18 -14t-19.5 -23.5t-19 -29t-17.5 -30.5q-15 -29 -29.5 -64t-22.5 -62zM151 278q0 2 -1 -1.5t-3 -6.5q2 1 6.5 4.5t4.5 8.5q0 -2 -3 -1.5t-4 -3.5zM180 328q2 -2 6 6l-1 -1q-2 -2 -2 -1zM165 299q4 6 4 8l2 6q-1 -1 -3 -3.5
t-4 -2.5q-1 -1 -3.5 -6.5t-2.5 -7.5q0 -1 1.5 0.5t2.5 1.5zM146 260q3 1 3.5 3.5t2.5 4.5q8 6 4 6l-7 -5q-2 -2 -5.5 -4.5t-3.5 -7.5q0 2 2 2q1 0 1.5 0.5t2.5 0.5zM155 262l1 1q2 2 3 2q-1 1 -1 2v1q1 1 -1 -1.5t-2 -4.5zM156 260q2 1 4 2.5t3 3.5zM167 264q-2 0 -5 -3
t-2 -3q2 0 4.5 2t2.5 4zM393 229q-1 -1 -3 -8q-1 -4 -2 -7l-3 -4q-2 -1 -3 -2q-2 -2 -2 -4q-3 -5 -7 -9t-6 -7q1 0 -1 -3t-3 -2q-1 -2 -3 -5t-4 -5q-9 -10 -16 -19q-6 -8 -11.5 -14t-7.5 -7q-3 -2 -6 -3t-6 -6q-8 -9 -14 -11t-17 -7q-14 -3 -16 -3t-3 0.5t-2 0.5
q-3 -1 -5.5 -1.5t-5.5 -0.5q-17 0 -31 13.5t-20 29.5q-7 17 -9.5 45t-2.5 57q0 14 0.5 27.5t1.5 24.5q-2 -2 -3 -5.5t-1 -4.5q-6 -19 -17 -43.5t-23.5 -47t-23.5 -37.5t-16 -14q-5 -5 -7.5 -9.5t-7.5 -7.5q-8 -3 -16 -3q-15 0 -26 8t-15.5 19t-4.5 24q3 47 19.5 88.5
t36.5 73.5q15 23 34.5 45t48.5 36q12 5 24 5q14 0 28.5 -4.5t25.5 -10.5q6 -4 6 -7q0 -1 -0.5 -1.5t-0.5 -1.5v-1q-4 -4 -10 -4q0 -5 2 -5.5t2 -4.5q-1 -5 -1.5 -7t-0.5 -7v-7q0 -2 -0.5 -3.5t-0.5 -3.5v-45q0 -26 0.5 -57t2 -58t3.5 -45.5t6 -18.5q6 -1 27 19.5t46 50
t50 62.5t39 57q2 5 5 9q2 3 5 6t7 3q5 0 6 -7q1 -3 3 -5t3 -7q1 -4 1 -10q0 -9 -5 -22l-4 -9q-6 -2 -4.5 -4.5t-4.5 -8.5q-1 -2 -8.5 -13t-11.5 -16l-2 -2l-2 -2q0 2 2.5 7.5t7.5 10.5q1 1 1.5 1t1.5 2q0 1 2 3q1 1 1 2q0 2 2 4q-1 -2 -2.5 -2.5t-2.5 -2.5q0 -2 -2 -2
l-9 -13q-5 -5 -8 -10.5t-7 -11.5q1 1 3 4t4 2zM377 250q0 -1 0.5 -2t0.5 -2t6 4.5t5 4.5h-5q-3 -3 -3 -5h-4zM374 245q-4 0 -6.5 -5.5t-1.5 -5.5q3 0 5 6t3 5zM366 222q0 3 3 4.5t3 4.5q0 1 -0.5 1.5t-0.5 1.5q-4 0 -4 -2.5t-1 -3.5t-1.5 -3t-0.5 -1q-3 0 -7 -10l-4 -10
q3 0 5.5 4.5t4.5 6.5q2 4 2.5 4.5t0.5 2.5zM356 197q3 0 3 5q-3 -3 -3 -5zM367 210l-1 -3q3 2 4 4t3 4t2 3t-2 3l-7 -7t-6 -8l2 -2v-1q1 0 2.5 3.5t2.5 3.5zM360 186q4 4 5 11q1 2 2 3t1 5q-2 -5 -5 -7.5t-5 -8.5q0 -2 2 -3q-3 0 -3 -5z" />
    <glyph glyph-name="ccedilla" unicode="&#xe7;" horiz-adv-x="318" 
d="M-1 70q7 -12 13 -27t17 -26q1 -1 4 -1q4 0 8 5.5t7.5 12.5t6 13t2.5 7q2 6 13 23.5t22 31.5q-26 14 -42.5 40.5t-16.5 71.5q0 36 16 70t43 61t62.5 43t75.5 16q12 0 24.5 -1.5t24.5 -5.5q14 -4 19.5 -10.5t5.5 -13.5q0 -10 -10.5 -17.5t-28.5 -7.5q-10 0 -15 1
q-2 0 -2.5 0.5t-2.5 0.5q-23 0 -45.5 -30t-33.5 -73q-3 -12 -5 -24.5t-2 -24.5q0 -22 9 -38.5t34 -18.5h5q23 0 49.5 16.5t53 43t51 59.5t44.5 65q1 1 3 1q4 0 6 -4t2 -6q1 -2 3.5 -3.5t2.5 -4.5t1.5 -6.5t3.5 -3.5q-1 -5 -1 -7v-4t-0.5 -4t-2.5 -7q-25 -42 -52.5 -77.5
t-58.5 -61t-65 -40t-72 -14.5q-16 0 -32 3q-14 1 -28 6q-2 -4 -2 -6l-3 -10q-4 -15 -8.5 -30.5t-10.5 -29.5t-15 -25.5t-21 -17.5q-14 -7 -27 -7q-14 0 -25 8.5t-12 12.5q-2 1 -4 6.5t-3.5 11.5t-2.5 11.5t-1 7.5q1 0 1 1.5t1 2.5v4q0 -1 1 -2l2 -2q0 1 -0.5 2t-0.5 3t2 2h3
v3q2 -4 3 -5l1 -1q1 0 1 1.5t2 1.5v13q0 -1 1 -1q1 -1 2 -1q0 1 -3 5t-1 4q1 0 1.5 -0.5t2.5 -0.5v9z" />
    <glyph glyph-name="egrave" unicode="&#xe8;" horiz-adv-x="297" 
d="M362 260q1 4 3 6.5t4 5.5q-3 -2 -7.5 -9t-4.5 -12q0 1 -4 -5l-6 -9q2 3 5.5 10t3.5 12q0 2 -1 3q-5 -5 -7.5 -15t-7.5 -10q-2 -4 -4 -6.5t-2 -7.5q1 0 2 1t3 2q-2 -1 -2 -2.5t-2 -3.5q3 2 4.5 6t6.5 4q0 3 5.5 9t5.5 5q-2 -3 -3 -8.5t-4 -4.5q-2 -2 -4 -8.5t-5 -6.5
q-4 -2 -5.5 -7.5t-2.5 -11.5t-2 -11.5t-2 -6.5q-6 -8 -18 -22t-30 -29t-41.5 -28.5t-51.5 -19.5q-4 -2 -8 -2h-6q-8 0 -12 3t-11 3q-2 0 -6 1t-6 1q-1 0 -0.5 -1t-1.5 -1q-1 2 -6 2h-4q-5 2 -9.5 3t-9.5 3q6 -6 15 -7.5t18 -1.5q2 -1 4 -1q2 -1 3.5 -1t3.5 -1
q-8 0 -19.5 1.5t-21.5 4.5q2 -2 4.5 -2.5t3.5 -2.5q-5 2 -8 1.5t-5 1.5t-4 2q-5 0 -8 4t-8 4v-5q-28 25 -41 55.5t-13 63.5q0 32 14.5 68.5t39 68t57.5 52.5t70 21q7 0 11 -2t7 -4.5t6.5 -5.5t8.5 -6q0 1 -0.5 1.5t-0.5 1.5q1 1 3 1q5 0 5 -8t2 -12q2 -6 7.5 -14.5
t5.5 -28.5q0 -12 -5 -29t-17.5 -32t-35 -26t-57.5 -11q-11 0 -21 1t-18 3q-6 -18 -6 -32q0 -29 18 -44t47 -15q35 0 70 23.5t64.5 54.5t51 61t30.5 43l8 10q4 4 6 4t3 -2.5t5 -4.5q-3 -3 -3 -4t-1 -2.5t-1 -3.5v-4q0 -3 -1 -7.5t-5 -8.5q0 2 0.5 4t0.5 3q-2 0 -4 -6t-16 -33
q7 5 12 14.5t5 7.5t-1.5 -3.5t-1.5 -3.5q5 5 7 11.5t7 17.5q1 -1 1 -2v-1q0 -4 0.5 -4t0.5 -2q0 -3 -1 -6t-1 -5q0 -9 -7 -23.5t-18 -31t-24 -33.5t-24 -31q-1 0 -1 1v4q0 5 1.5 11t3.5 8q0 -1 1 -1l2 -2q11 15 24.5 34.5t20.5 33.5l6 6q2 2 2.5 5.5t1.5 5.5q-3 -4 -10 -11
t-7 -13q0 -5 -6 -9t-14 -20q-2 0 -2 4l-2 -1q1 2 2.5 3.5t1.5 4.5q0 2 0.5 3.5t0.5 4.5zM217 436q-3 2 -6 6t-5 6q-3 0 -11.5 10.5t-10.5 15.5q0 2 -8 13t-8 30q0 2 2.5 4.5t4.5 2.5q6 2 9 2q5 0 12.5 -7t14.5 -17.5t12.5 -22t8.5 -20.5v-9q0 -5 -0.5 -10t-3.5 -7q-3 1 -5 1
q-3 0 -6 2zM168 355q-13 -14 -24 -31.5t-17 -34.5q6 4 19.5 12t28.5 19t28 24.5t17 28.5q-3 1 -10 1q-12 0 -23 -6t-19 -13zM378 290q-1 3 5.5 11.5t8.5 12.5q-7 -8 -16.5 -18t-9.5 -24q1 1 2.5 4.5t3.5 3.5q1 0 1 -3q2 4 2 7t3 6zM200 406q-3 0 -3 2q-2 -1 -10 -3.5
t-12 -6.5q10 2 17 6q2 0 3.5 -0.5t3.5 -0.5t4 1t2 2h-5zM191 408q-15 -3 -26 -14q10 7 22 11.5t25 4.5q-2 1 -4 1q-2 -1 -5 -1q-1 1 -3 1t-5.5 -1t-3.5 -2zM253 382v-3t0.5 -6t1.5 -5.5t2 -1.5v8q2 -2 3 -5.5t3 -5.5q0 3 -3.5 10t-6.5 9zM203 415q0 -2 -4 -1.5t-3 -1.5l17 3
q-2 1 -6 1q-3 0 -4 -1z" />
    <glyph glyph-name="eacute" unicode="&#xe9;" horiz-adv-x="293" 
d="M362 260q1 4 3 6.5t4 5.5q-3 -2 -7.5 -9t-4.5 -12q0 1 -4 -5l-6 -9q2 3 5.5 10t3.5 12q0 2 -1 3q-5 -5 -7.5 -15t-7.5 -10q-2 -4 -4 -6.5t-2 -7.5q1 0 2 1t3 2q-2 -1 -2 -2.5t-2 -3.5q3 2 4.5 6t6.5 4q0 3 5.5 9t5.5 5q-2 -3 -3 -8.5t-4 -4.5q-2 -2 -4 -8.5t-5 -6.5
q-4 -2 -5.5 -7.5t-2.5 -11.5t-2 -11.5t-2 -6.5q-6 -8 -18 -22t-30 -29t-41.5 -28.5t-51.5 -19.5q-4 -2 -8 -2h-6q-8 0 -12 3t-11 3q-2 0 -6 1t-6 1q-1 0 -0.5 -1t-1.5 -1q-1 2 -6 2h-4q-5 2 -9.5 3t-9.5 3q6 -6 15 -7.5t18 -1.5q2 -1 4 -1q2 -1 3.5 -1t3.5 -1
q-8 0 -19.5 1.5t-21.5 4.5q2 -2 4.5 -2.5t3.5 -2.5q-5 2 -8 1.5t-5 1.5t-4 2q-5 0 -8 4t-8 4v-5q-28 25 -41 55.5t-13 63.5q0 32 14.5 68.5t39 68t57.5 52.5t70 21q7 0 11 -2t7 -4.5t6.5 -5.5t8.5 -6q0 1 -0.5 1.5t-0.5 1.5q1 1 3 1q5 0 5 -8t2 -12q2 -6 7.5 -14.5
t5.5 -28.5q0 -12 -5 -29t-17.5 -32t-35 -26t-57.5 -11q-11 0 -21 1t-18 3q-6 -18 -6 -32q0 -29 18 -44t47 -15q35 0 70 23.5t64.5 54.5t51 61t30.5 43l8 10q4 4 6 4t3 -2.5t5 -4.5q-3 -3 -3 -4t-1 -2.5t-1 -3.5v-4q0 -3 -1 -7.5t-5 -8.5q0 2 0.5 4t0.5 3q-2 0 -4 -6t-16 -33
q7 5 12 14.5t5 7.5t-1.5 -3.5t-1.5 -3.5q5 5 7 11.5t7 17.5q1 -1 1 -2v-1q0 -4 0.5 -4t0.5 -2q0 -3 -1 -6t-1 -5q0 -9 -7 -23.5t-18 -31t-24 -33.5t-24 -31q-1 0 -1 1v4q0 5 1.5 11t3.5 8q0 -1 1 -1l2 -2q11 15 24.5 34.5t20.5 33.5l6 6q2 2 2.5 5.5t1.5 5.5q-3 -4 -10 -11
t-7 -13q0 -5 -6 -9t-14 -20q-2 0 -2 4l-2 -1q1 2 2.5 3.5t1.5 4.5q0 2 0.5 3.5t0.5 4.5zM199 436q-4 -2 -6 -2t-5 -1q-3 2 -3.5 7t-0.5 10v9q3 9 8.5 20.5t12.5 22t14.5 17.5t12.5 7q2 0 4.5 -1t5.5 -1q1 0 3.5 -2.5t2.5 -4.5q0 -19 -8 -30t-8 -13q-2 -5 -10.5 -15.5
t-11.5 -10.5q-2 -2 -5 -6t-6 -6zM168 355q-13 -14 -24 -31.5t-17 -34.5q6 4 19.5 12t28.5 19t28 24.5t17 28.5q-3 1 -10 1q-12 0 -23 -6t-19 -13zM378 290q-1 3 5.5 11.5t8.5 12.5q-7 -8 -16.5 -18t-9.5 -24q1 1 2.5 4.5t3.5 3.5q1 0 1 -3q2 4 2 7t3 6zM200 406q-3 0 -3 2
q-2 -1 -10 -3.5t-12 -6.5q10 2 17 6q2 0 3.5 -0.5t3.5 -0.5t4 1t2 2h-5zM191 408q-15 -3 -26 -14q10 7 22 11.5t25 4.5q-2 1 -4 1q-2 -1 -5 -1q-1 1 -3 1t-5.5 -1t-3.5 -2zM253 382v-3t0.5 -6t1.5 -5.5t2 -1.5v8q2 -2 3 -5.5t3 -5.5q0 3 -3.5 10t-6.5 9zM203 415
q0 -2 -4 -1.5t-3 -1.5l17 3q-2 1 -6 1q-3 0 -4 -1z" />
    <glyph glyph-name="ecircumflex" unicode="&#xea;" horiz-adv-x="297" 
d="M362 260q1 4 3 6.5t4 5.5q-3 -2 -7.5 -9t-4.5 -12q0 1 -4 -5l-6 -9q2 3 5.5 10t3.5 12q0 2 -1 3q-5 -5 -7.5 -15t-7.5 -10q-2 -4 -4 -6.5t-2 -7.5q1 0 2 1t3 2q-2 -1 -2 -2.5t-2 -3.5q3 2 4.5 6t6.5 4q0 3 5.5 9t5.5 5q-2 -3 -3 -8.5t-4 -4.5q-2 -2 -4 -8.5t-5 -6.5
q-4 -2 -5.5 -7.5t-2.5 -11.5t-2 -11.5t-2 -6.5q-6 -8 -18 -22t-30 -29t-41.5 -28.5t-51.5 -19.5q-4 -2 -8 -2h-6q-8 0 -12 3t-11 3q-2 0 -6 1t-6 1q-1 0 -0.5 -1t-1.5 -1q-1 2 -6 2h-4q-5 2 -9.5 3t-9.5 3q6 -6 15 -7.5t18 -1.5q2 -1 4 -1q2 -1 3.5 -1t3.5 -1
q-8 0 -19.5 1.5t-21.5 4.5q2 -2 4.5 -2.5t3.5 -2.5q-5 2 -8 1.5t-5 1.5t-4 2q-5 0 -8 4t-8 4v-5q-28 25 -41 55.5t-13 63.5q0 32 14.5 68.5t39 68t57.5 52.5t70 21q7 0 11 -2t7 -4.5t6.5 -5.5t8.5 -6q0 1 -0.5 1.5t-0.5 1.5q1 1 3 1q5 0 5 -8t2 -12q2 -6 7.5 -14.5
t5.5 -28.5q0 -12 -5 -29t-17.5 -32t-35 -26t-57.5 -11q-11 0 -21 1t-18 3q-6 -18 -6 -32q0 -29 18 -44t47 -15q35 0 70 23.5t64.5 54.5t51 61t30.5 43l8 10q4 4 6 4t3 -2.5t5 -4.5q-3 -3 -3 -4t-1 -2.5t-1 -3.5v-4q0 -3 -1 -7.5t-5 -8.5q0 2 0.5 4t0.5 3q-2 0 -4 -6t-16 -33
q7 5 12 14.5t5 7.5t-1.5 -3.5t-1.5 -3.5q5 5 7 11.5t7 17.5q1 -1 1 -2v-1q0 -4 0.5 -4t0.5 -2q0 -3 -1 -6t-1 -5q0 -9 -7 -23.5t-18 -31t-24 -33.5t-24 -31q-1 0 -1 1v4q0 5 1.5 11t3.5 8q0 -1 1 -1l2 -2q11 15 24.5 34.5t20.5 33.5l6 6q2 2 2.5 5.5t1.5 5.5q-3 -4 -10 -11
t-7 -13q0 -5 -6 -9t-14 -20q-2 0 -2 4l-2 -1q1 2 2.5 3.5t1.5 4.5q0 2 0.5 3.5t0.5 4.5zM270 445q-2 -2 -2 -4t0.5 -2t0.5 -1q0 -2 -5 -3q-1 -1 -1 -3q0 -1 -2.5 -3t-5.5 -2l-3 3q-5 5 -10.5 12t-10.5 13t-8.5 10.5t-3.5 5.5q-6 0 -12 -5.5t-11.5 -11.5t-11.5 -11t-13 -5
q-2 0 -2.5 -1t-2.5 -1q-3 1 -5.5 8.5t-2.5 17.5q1 4 9 10.5t17.5 13.5t19 12.5t13.5 7.5l3.5 3.5t5.5 1.5q1 0 2 -0.5t3 -0.5q7 -9 19.5 -19.5t12.5 -26.5q2 -5 3 -10t4 -9zM168 355q-13 -14 -24 -31.5t-17 -34.5q6 4 19.5 12t28.5 19t28 24.5t17 28.5q-3 1 -10 1
q-12 0 -23 -6t-19 -13zM378 290q-1 3 5.5 11.5t8.5 12.5q-7 -8 -16.5 -18t-9.5 -24q1 1 2.5 4.5t3.5 3.5q1 0 1 -3q2 4 2 7t3 6zM200 406q-3 0 -3 2q-2 -1 -10 -3.5t-12 -6.5q10 2 17 6q2 0 3.5 -0.5t3.5 -0.5t4 1t2 2h-5zM191 408q-15 -3 -26 -14q10 7 22 11.5t25 4.5
q-2 1 -4 1q-2 -1 -5 -1q-1 1 -3 1t-5.5 -1t-3.5 -2zM253 382v-3t0.5 -6t1.5 -5.5t2 -1.5v8q2 -2 3 -5.5t3 -5.5q0 3 -3.5 10t-6.5 9zM203 415q0 -2 -4 -1.5t-3 -1.5l17 3q-2 1 -6 1q-3 0 -4 -1z" />
    <glyph glyph-name="edieresis" unicode="&#xeb;" horiz-adv-x="297" 
d="M362 260q1 4 3 6.5t4 5.5q-3 -2 -7.5 -9t-4.5 -12q0 1 -4 -5l-6 -9q2 3 5.5 10t3.5 12q0 2 -1 3q-5 -5 -7.5 -15t-7.5 -10q-2 -4 -4 -6.5t-2 -7.5q1 0 2 1t3 2q-2 -1 -2 -2.5t-2 -3.5q3 2 4.5 6t6.5 4q0 3 5.5 9t5.5 5q-2 -3 -3 -8.5t-4 -4.5q-2 -2 -4 -8.5t-5 -6.5
q-4 -2 -5.5 -7.5t-2.5 -11.5t-2 -11.5t-2 -6.5q-6 -8 -18 -22t-30 -29t-41.5 -28.5t-51.5 -19.5q-4 -2 -8 -2h-6q-8 0 -12 3t-11 3q-2 0 -6 1t-6 1q-1 0 -0.5 -1t-1.5 -1q-1 2 -6 2h-4q-5 2 -9.5 3t-9.5 3q6 -6 15 -7.5t18 -1.5q2 -1 4 -1q2 -1 3.5 -1t3.5 -1
q-8 0 -19.5 1.5t-21.5 4.5q2 -2 4.5 -2.5t3.5 -2.5q-5 2 -8 1.5t-5 1.5t-4 2q-5 0 -8 4t-8 4v-5q-28 25 -41 55.5t-13 63.5q0 32 14.5 68.5t39 68t57.5 52.5t70 21q7 0 11 -2t7 -4.5t6.5 -5.5t8.5 -6q0 1 -0.5 1.5t-0.5 1.5q1 1 3 1q5 0 5 -8t2 -12q2 -6 7.5 -14.5
t5.5 -28.5q0 -12 -5 -29t-17.5 -32t-35 -26t-57.5 -11q-11 0 -21 1t-18 3q-6 -18 -6 -32q0 -29 18 -44t47 -15q35 0 70 23.5t64.5 54.5t51 61t30.5 43l8 10q4 4 6 4t3 -2.5t5 -4.5q-3 -3 -3 -4t-1 -2.5t-1 -3.5v-4q0 -3 -1 -7.5t-5 -8.5q0 2 0.5 4t0.5 3q-2 0 -4 -6t-16 -33
q7 5 12 14.5t5 7.5t-1.5 -3.5t-1.5 -3.5q5 5 7 11.5t7 17.5q1 -1 1 -2v-1q0 -4 0.5 -4t0.5 -2q0 -3 -1 -6t-1 -5q0 -9 -7 -23.5t-18 -31t-24 -33.5t-24 -31q-1 0 -1 1v4q0 5 1.5 11t3.5 8q0 -1 1 -1l2 -2q11 15 24.5 34.5t20.5 33.5l6 6q2 2 2.5 5.5t1.5 5.5q-3 -4 -10 -11
t-7 -13q0 -5 -6 -9t-14 -20q-2 0 -2 4l-2 -1q1 2 2.5 3.5t1.5 4.5q0 2 0.5 3.5t0.5 4.5zM168 355q-13 -14 -24 -31.5t-17 -34.5q6 4 19.5 12t28.5 19t28 24.5t17 28.5q-3 1 -10 1q-12 0 -23 -6t-19 -13zM168 480q2 0 4 -2q2 0 2.5 0.5t1.5 0.5q9 0 13.5 -10t6.5 -15
q-2 -11 -11 -17q-9 0 -19.5 5t-10.5 17q0 5 4 13t9 8zM253 458q0 -11 -7 -16t-14 -8q-8 0 -11.5 8.5t-3.5 7.5q0 3 -1 6t-1 6q0 11 7.5 14.5t9.5 3.5q7 0 14 -8t7 -14zM378 290q-1 3 5.5 11.5t8.5 12.5q-7 -8 -16.5 -18t-9.5 -24q1 1 2.5 4.5t3.5 3.5q1 0 1 -3q2 4 2 7t3 6z
M200 406q-3 0 -3 2q-2 -1 -10 -3.5t-12 -6.5q10 2 17 6q2 0 3.5 -0.5t3.5 -0.5t4 1t2 2h-5zM191 408q-15 -3 -26 -14q10 7 22 11.5t25 4.5q-2 1 -4 1q-2 -1 -5 -1q-1 1 -3 1t-5.5 -1t-3.5 -2zM253 382v-3t0.5 -6t1.5 -5.5t2 -1.5v8q2 -2 3 -5.5t3 -5.5q0 3 -3.5 10t-6.5 9z
M203 415q0 -2 -4 -1.5t-3 -1.5l17 3q-2 1 -6 1q-3 0 -4 -1z" />
    </font>
</defs>
</svg>
